<svg width="164" height="97" viewBox="0 0 164 97" fill="none" xmlns="http://www.w3.org/2000/svg">
<path d="M17.3414 91.1022L16.7223 91.967L16.7279 91.971L17.3414 91.1022ZM5.05885 74.6499L4.06962 75.0406L4.07163 75.0456L5.05885 74.6499ZM0.798476 48.6797L-0.265108 48.6765V48.6797H0.798476ZM5.10418 22.8455L4.11753 22.4483L4.11666 22.4505L5.10418 22.8455ZM17.3868 6.52917L16.7765 5.65807L16.7742 5.6597L17.3868 6.52917ZM55.7302 6.52917L55.1199 7.40026L55.7302 6.52917ZM68.0127 22.8455L67.0247 23.2391L67.0261 23.2427L68.0127 22.8455ZM68.0127 74.6952L67.0249 74.3009L67.0241 74.3031L68.0127 74.6952ZM55.7302 91.1022L55.1166 90.2334L55.1143 90.2351L55.7302 91.1022ZM50.2914 74.0154L49.3751 73.4753L49.3743 73.4767L50.2914 74.0154ZM53.0561 30.0972L54.0728 29.7849L53.0561 30.0972ZM46.5296 18.7664L45.812 19.5515L45.8167 19.5557L46.5296 18.7664ZM22.8709 23.5253L23.788 24.064L23.7892 24.0619L22.8709 23.5253ZM17.7947 48.6797L18.8582 48.6841L18.8582 48.6826L17.7947 48.6797ZM20.0155 67.3529L18.9966 67.6579L18.9983 67.6635L20.0155 67.3529ZM26.542 78.7743L25.8245 79.5594L25.8291 79.5636L26.542 78.7743ZM36.5585 95.704C29.2831 95.704 23.0992 93.8664 17.955 90.2334L16.7279 91.971C22.2799 95.8919 28.9074 97.8312 36.5585 97.8312V95.704ZM17.9606 90.2374C12.8353 86.5682 8.85485 81.2613 6.04608 74.2542L4.07163 75.0456C7.00379 82.3606 11.2118 88.022 16.7223 91.967L17.9606 90.2374ZM6.04808 74.2592C3.26956 67.2242 1.86206 58.7074 1.86206 48.6797H-0.265108C-0.265108 58.8964 1.16764 67.693 4.06963 75.0406L6.04808 74.2592ZM1.86206 48.6829C1.89199 38.6539 3.31456 30.1833 6.09169 23.2405L4.11666 22.4505C1.21329 29.7089 -0.234609 38.4612 -0.265103 48.6765L1.86206 48.6829ZM6.09082 23.2427C8.89887 16.2669 12.8775 11.0072 17.9993 7.39863L16.7742 5.6597C11.2602 9.54457 7.05042 15.1624 4.11753 22.4483L6.09082 23.2427ZM17.997 7.40026C23.1423 3.79566 29.3125 1.97267 36.5585 1.97267V-0.154497C28.9384 -0.154497 22.3275 1.76923 16.7765 5.65808L17.997 7.40026ZM36.5585 1.97267C43.8044 1.97267 49.9746 3.79566 55.1199 7.40026L56.3404 5.65808C50.7894 1.76923 44.1785 -0.154497 36.5585 -0.154497V1.97267ZM55.1199 7.40026C60.2702 11.0084 64.2474 16.2664 67.0247 23.2391L69.0008 22.4519C66.0976 15.163 61.8864 9.54337 56.3404 5.65807L55.1199 7.40026ZM67.0261 23.2427C69.8326 30.2145 71.2549 38.6834 71.2549 48.6797H73.382C73.382 38.4921 71.9339 29.7382 68.9994 22.4483L67.0261 23.2427ZM71.2549 48.6797C71.2549 58.7369 69.8324 67.2674 67.0249 74.3009L69.0005 75.0895C71.934 67.7404 73.382 58.9273 73.382 48.6797H71.2549ZM67.0241 74.3031C64.2463 81.3068 60.2681 86.5954 55.1166 90.2334L56.3437 91.971C61.8885 88.0552 66.0987 82.4058 69.0014 75.0873L67.0241 74.3031ZM55.1143 90.2351C50.0015 93.8663 43.834 95.704 36.5585 95.704V97.8312C44.2094 97.8312 50.823 95.8919 56.346 91.9693L55.1143 90.2351ZM36.5585 83.645C42.7967 83.645 47.6959 80.5349 51.2085 74.554L49.3743 73.4767C46.179 78.9173 41.9229 81.5179 36.5585 81.5179V83.645ZM51.2076 74.5555C54.7329 68.575 56.4312 59.9058 56.4312 48.6797H54.304C54.304 59.7527 52.6181 67.9738 49.3751 73.4753L51.2076 74.5555ZM56.4312 48.6797C56.4312 41.2406 55.6546 34.9336 54.0728 29.7849L52.0394 30.4096C53.5396 35.2924 54.304 41.3737 54.304 48.6797H56.4312ZM54.0728 29.7849C52.4962 24.6533 50.2396 20.6842 47.2425 17.9771L45.8167 19.5557C48.4396 21.9248 50.534 25.5096 52.0394 30.4096L54.0728 29.7849ZM47.2471 17.9813C44.2393 15.2323 40.659 13.8504 36.5585 13.8504V15.9775C40.1326 15.9775 43.1997 17.1639 45.812 19.5515L47.2471 17.9813ZM36.5585 13.8504C30.3454 13.8504 25.4625 16.9807 21.9525 22.9888L23.7892 24.0619C26.987 18.5881 31.2293 15.9775 36.5585 15.9775V13.8504ZM21.9537 22.9867C18.4604 28.9349 16.7615 37.5415 16.7311 48.6768L18.8582 48.6826C18.8883 37.7002 20.5735 29.5372 23.788 24.064L21.9537 22.9867ZM16.7311 48.6754C16.7006 56.144 17.4464 62.4801 18.9966 67.6579L21.0344 67.0478C19.5631 62.1337 18.8283 56.021 18.8582 48.6841L16.7311 48.6754ZM18.9983 67.6635C20.5744 72.8244 22.8298 76.8223 25.8245 79.5594L27.2596 77.9892C24.6342 75.5897 22.5386 71.9732 21.0327 67.0422L18.9983 67.6635ZM25.8291 79.5636C28.8392 82.2824 32.4337 83.645 36.5585 83.645V81.5179C32.9481 81.5179 29.8649 80.3424 27.2549 77.985L25.8291 79.5636ZM125.131 2.17814H126.195V1.11455H125.131V2.17814ZM125.131 95V96.0636H126.195V95H125.131ZM108.316 95H107.253V96.0636H108.316V95ZM108.316 18.5398H109.38V17.4762H108.316V18.5398ZM107.772 18.5398V17.4762H107.462L107.2 17.6435L107.772 18.5398ZM86.0627 32.4087H84.9991V34.3502L86.6353 33.305L86.0627 32.4087ZM86.0627 16.9988L85.4878 16.104L84.9991 16.4179V16.9988H86.0627ZM109.132 2.17814V1.11455H108.82L108.557 1.2833L109.132 2.17814ZM124.068 2.17814V95H126.195V2.17814H124.068ZM125.131 93.9364H108.316V96.0636H125.131V93.9364ZM109.38 95V18.5398H107.253V95H109.38ZM108.316 17.4762H107.772V19.6034H108.316V17.4762ZM107.2 17.6435L85.4901 31.5124L86.6353 33.305L108.345 19.4361L107.2 17.6435ZM87.1263 32.4087V16.9988H84.9991V32.4087H87.1263ZM86.6376 17.8937L109.707 3.07297L108.557 1.2833L85.4878 16.104L86.6376 17.8937ZM109.132 3.24172H125.131V1.11455H109.132V3.24172ZM146.807 93.0964L146.061 93.8543L146.807 93.0964ZM143.906 86.026L144.97 86.0376L144.97 86.0259L144.97 86.0142L143.906 86.026ZM146.807 79.0462L147.553 79.8041L146.807 79.0462ZM160.812 79.0462L160.066 79.8041L160.072 79.8098L160.812 79.0462ZM163.849 86.026L164.912 86.0434L164.912 86.0288L164.912 86.0142L163.849 86.026ZM162.398 91.0569L161.494 90.4964L161.49 90.503L161.486 90.5097L162.398 91.0569ZM158.772 94.6827L159.314 95.5981L159.32 95.5948L158.772 94.6827ZM153.878 94.9335C151.408 94.9335 149.319 94.077 147.553 92.3386L146.061 93.8543C148.223 95.9835 150.848 97.0607 153.878 97.0607V94.9335ZM147.553 92.3386C145.797 90.6095 144.943 88.5313 144.97 86.0376L142.843 86.0145C142.81 89.0804 143.889 91.7158 146.061 93.8543L147.553 92.3386ZM144.97 86.0142C144.943 83.5882 145.792 81.5382 147.553 79.8041L146.061 78.2884C143.894 80.4219 142.809 83.025 142.843 86.0378L144.97 86.0142ZM147.553 79.8041C149.319 78.0657 151.408 77.2091 153.878 77.2091V75.082C150.848 75.082 148.223 76.1592 146.061 78.2884L147.553 79.8041ZM153.878 77.2091C156.246 77.2091 158.293 78.0583 160.066 79.8041L161.558 78.2884C159.403 76.1667 156.827 75.082 153.878 75.082V77.2091ZM160.072 79.8098C161.867 81.5509 162.758 83.6088 162.785 86.0378L164.912 86.0142C164.879 83.0044 163.745 80.4092 161.552 78.2827L160.072 79.8098ZM162.785 86.0086C162.758 87.6671 162.326 89.1552 161.494 90.4964L163.302 91.6173C164.344 89.9371 164.879 88.0712 164.912 86.0434L162.785 86.0086ZM161.486 90.5097C160.67 91.8708 159.586 92.9541 158.225 93.7707L159.32 95.5948C160.98 94.5985 162.314 93.2646 163.31 91.6041L161.486 90.5097ZM158.231 93.7674C156.92 94.543 155.477 94.9335 153.878 94.9335V97.0607C155.844 97.0607 157.663 96.575 159.314 95.598L158.231 93.7674Z" fill="#626161"/>
</svg>
