<svg width="187" height="97" viewBox="0 0 187 97" fill="none" xmlns="http://www.w3.org/2000/svg">
<path d="M17.3414 91.1022L16.7223 91.967L16.7279 91.971L17.3414 91.1022ZM5.05885 74.6499L4.06962 75.0406L4.07163 75.0456L5.05885 74.6499ZM0.798476 48.6797L-0.265108 48.6765V48.6797H0.798476ZM5.10418 22.8455L4.11753 22.4483L4.11666 22.4505L5.10418 22.8455ZM17.3868 6.52917L16.7765 5.65807L16.7742 5.6597L17.3868 6.52917ZM55.7302 6.52917L55.1199 7.40026L55.7302 6.52917ZM68.0127 22.8455L67.0247 23.2391L67.0261 23.2427L68.0127 22.8455ZM68.0127 74.6952L67.0249 74.3009L67.0241 74.3031L68.0127 74.6952ZM55.7302 91.1022L55.1166 90.2334L55.1143 90.2351L55.7302 91.1022ZM50.2914 74.0154L49.3751 73.4753L49.3743 73.4767L50.2914 74.0154ZM53.0561 30.0972L54.0728 29.7849L53.0561 30.0972ZM46.5296 18.7664L45.812 19.5515L45.8167 19.5557L46.5296 18.7664ZM22.8709 23.5253L23.788 24.064L23.7892 24.0619L22.8709 23.5253ZM17.7947 48.6797L18.8582 48.6841L18.8582 48.6826L17.7947 48.6797ZM20.0155 67.3529L18.9966 67.6579L18.9983 67.6635L20.0155 67.3529ZM26.542 78.7743L25.8245 79.5594L25.8291 79.5636L26.542 78.7743ZM36.5585 95.704C29.2831 95.704 23.0992 93.8664 17.955 90.2334L16.7279 91.971C22.2799 95.8919 28.9074 97.8312 36.5585 97.8312V95.704ZM17.9606 90.2374C12.8353 86.5682 8.85485 81.2613 6.04608 74.2542L4.07163 75.0456C7.00379 82.3606 11.2118 88.022 16.7223 91.967L17.9606 90.2374ZM6.04808 74.2592C3.26956 67.2242 1.86206 58.7074 1.86206 48.6797H-0.265108C-0.265108 58.8964 1.16764 67.693 4.06963 75.0406L6.04808 74.2592ZM1.86206 48.6829C1.89199 38.6539 3.31456 30.1833 6.09169 23.2405L4.11666 22.4505C1.21329 29.7089 -0.234609 38.4612 -0.265103 48.6765L1.86206 48.6829ZM6.09082 23.2427C8.89887 16.2669 12.8775 11.0072 17.9993 7.39863L16.7742 5.6597C11.2602 9.54457 7.05042 15.1624 4.11753 22.4483L6.09082 23.2427ZM17.997 7.40026C23.1423 3.79566 29.3125 1.97267 36.5585 1.97267V-0.154497C28.9384 -0.154497 22.3275 1.76923 16.7765 5.65808L17.997 7.40026ZM36.5585 1.97267C43.8044 1.97267 49.9746 3.79566 55.1199 7.40026L56.3404 5.65808C50.7894 1.76923 44.1785 -0.154497 36.5585 -0.154497V1.97267ZM55.1199 7.40026C60.2702 11.0084 64.2474 16.2664 67.0247 23.2391L69.0008 22.4519C66.0976 15.163 61.8864 9.54337 56.3404 5.65807L55.1199 7.40026ZM67.0261 23.2427C69.8326 30.2145 71.2549 38.6834 71.2549 48.6797H73.382C73.382 38.4921 71.9339 29.7382 68.9994 22.4483L67.0261 23.2427ZM71.2549 48.6797C71.2549 58.7369 69.8324 67.2674 67.0249 74.3009L69.0005 75.0895C71.934 67.7404 73.382 58.9273 73.382 48.6797H71.2549ZM67.0241 74.3031C64.2463 81.3068 60.2681 86.5954 55.1166 90.2334L56.3437 91.971C61.8885 88.0552 66.0987 82.4058 69.0014 75.0873L67.0241 74.3031ZM55.1143 90.2351C50.0015 93.8663 43.834 95.704 36.5585 95.704V97.8312C44.2094 97.8312 50.823 95.8919 56.346 91.9693L55.1143 90.2351ZM36.5585 83.645C42.7967 83.645 47.6959 80.5349 51.2085 74.554L49.3743 73.4767C46.179 78.9173 41.9229 81.5179 36.5585 81.5179V83.645ZM51.2076 74.5555C54.7329 68.575 56.4312 59.9058 56.4312 48.6797H54.304C54.304 59.7527 52.6181 67.9738 49.3751 73.4753L51.2076 74.5555ZM56.4312 48.6797C56.4312 41.2406 55.6546 34.9336 54.0728 29.7849L52.0394 30.4096C53.5396 35.2924 54.304 41.3737 54.304 48.6797H56.4312ZM54.0728 29.7849C52.4962 24.6533 50.2396 20.6842 47.2425 17.9771L45.8167 19.5557C48.4396 21.9248 50.534 25.5096 52.0394 30.4096L54.0728 29.7849ZM47.2471 17.9813C44.2393 15.2323 40.659 13.8504 36.5585 13.8504V15.9775C40.1326 15.9775 43.1997 17.1639 45.812 19.5515L47.2471 17.9813ZM36.5585 13.8504C30.3454 13.8504 25.4625 16.9807 21.9525 22.9888L23.7892 24.0619C26.987 18.5881 31.2293 15.9775 36.5585 15.9775V13.8504ZM21.9537 22.9867C18.4604 28.9349 16.7615 37.5415 16.7311 48.6768L18.8582 48.6826C18.8883 37.7002 20.5735 29.5372 23.788 24.064L21.9537 22.9867ZM16.7311 48.6754C16.7006 56.144 17.4464 62.4801 18.9966 67.6579L21.0344 67.0478C19.5631 62.1337 18.8283 56.021 18.8582 48.6841L16.7311 48.6754ZM18.9983 67.6635C20.5744 72.8244 22.8298 76.8223 25.8245 79.5594L27.2596 77.9892C24.6342 75.5897 22.5386 71.9732 21.0327 67.0422L18.9983 67.6635ZM25.8291 79.5636C28.8392 82.2824 32.4337 83.645 36.5585 83.645V81.5179C32.9481 81.5179 29.8649 80.3424 27.2549 77.985L25.8291 79.5636ZM87.3771 95H86.3135V96.0636H87.3771V95ZM87.3771 82.8534L86.6325 82.0939L86.3135 82.4066V82.8534H87.3771ZM119.602 51.2631L120.346 52.0226L120.352 52.0171L120.358 52.0115L119.602 51.2631ZM131.93 35.9439L132.898 36.383L131.93 35.9439ZM131.477 21.1685L130.576 21.7346L130.58 21.7404L131.477 21.1685ZM125.992 16.2736L125.522 17.2274L125.992 16.2736ZM110.039 16.4549L110.544 17.391L110.553 17.3858L110.039 16.4549ZM104.691 21.7578L103.76 21.2433L103.754 21.2528L104.691 21.7578ZM102.832 29.9612V31.0248H103.896V29.9612H102.832ZM86.8332 29.9612H85.7696V31.0248H86.8332V29.9612ZM90.867 14.5967L91.7717 15.1559L90.867 14.5967ZM101.971 4.48962L101.493 3.53953L101.491 3.54077L101.971 4.48962ZM134.694 4.39897L135.165 3.44524L134.694 4.39897ZM145.663 13.9622L144.768 14.5366L144.771 14.5413L145.663 13.9622ZM147.612 38.0741L146.623 37.6822L147.612 38.0741ZM140.586 49.2236L139.765 48.5481L139.762 48.5518L140.586 49.2236ZM126.582 64.0443L125.843 63.2789L125.833 63.2886L125.823 63.2986L126.582 64.0443ZM110.583 80.3153L109.824 79.5696L109.519 79.88V80.3153H110.583ZM110.583 80.9498H109.519V82.0134H110.583V80.9498ZM151.011 80.9498H152.074V79.8862H151.011V80.9498ZM151.011 95V96.0636H152.074V95H151.011ZM88.4407 95V82.8534H86.3135V95H88.4407ZM88.1216 83.6129L120.346 52.0226L118.857 50.5036L86.6325 82.0939L88.1216 83.6129ZM120.358 52.0115C123.452 48.8868 126.04 46.1016 128.117 43.6578L126.496 42.2802C124.464 44.6708 121.916 47.4151 118.846 50.5147L120.358 52.0115ZM128.117 43.6578C130.219 41.1848 131.821 38.7602 132.898 36.383L130.961 35.5048C129.984 37.6599 128.504 39.9188 126.496 42.2802L128.117 43.6578ZM132.898 36.383C133.99 33.9744 134.534 31.407 134.534 28.6922H132.407C132.407 31.1141 131.924 33.3811 130.961 35.5048L132.898 36.383ZM134.534 28.6922C134.534 25.5968 133.831 22.8819 132.373 20.5967L130.58 21.7404C131.781 23.6249 132.407 25.9258 132.407 28.6922H134.534ZM132.377 20.6025C130.939 18.3144 128.959 16.5516 126.463 15.3199L125.522 17.2274C127.679 18.2921 129.355 19.7926 130.576 21.7346L132.377 20.6025ZM126.463 15.3199C123.971 14.0899 121.162 13.4878 118.061 13.4878V15.6149C120.882 15.6149 123.361 16.1611 125.522 17.2274L126.463 15.3199ZM118.061 13.4878C114.859 13.4878 112.002 14.1547 109.524 15.524L110.553 17.3858C112.668 16.2171 115.159 15.6149 118.061 15.6149V13.4878ZM109.534 15.5189C107.057 16.8551 105.127 18.7695 103.76 21.2433L105.621 22.2722C106.792 20.1532 108.428 18.5325 110.544 17.391L109.534 15.5189ZM103.754 21.2528C102.416 23.7344 101.769 26.6501 101.769 29.9612H103.896C103.896 26.9272 104.488 24.3738 105.627 22.2627L103.754 21.2528ZM102.832 28.8977H86.8332V31.0248H102.832V28.8977ZM87.8968 29.9612C87.8968 24.2362 89.2013 19.3146 91.7717 15.1559L89.9622 14.0375C87.1542 18.5808 85.7696 23.9023 85.7696 29.9612H87.8968ZM91.7717 15.1559C94.3545 10.9769 97.9065 7.74015 102.452 5.43847L101.491 3.54077C96.6085 6.01312 92.7578 9.51438 89.9622 14.0375L91.7717 15.1559ZM102.449 5.4397C107.023 3.1381 112.294 1.97267 118.287 1.97267V-0.154497C112.013 -0.154497 106.407 1.0671 101.493 3.53954L102.449 5.4397ZM118.287 1.97267C124.378 1.97267 129.681 3.11052 134.224 5.3527L135.165 3.44524C130.281 1.03424 124.645 -0.154497 118.287 -0.154497V1.97267ZM134.224 5.3527C138.781 7.60195 142.283 10.6653 144.768 14.5366L146.558 13.3877C143.845 9.16132 140.036 5.84917 135.165 3.44524L134.224 5.3527ZM144.771 14.5413C147.279 18.4045 148.542 22.8231 148.542 27.8311H150.669C150.669 22.4449 149.304 17.6176 146.555 13.383L144.771 14.5413ZM148.542 27.8311C148.542 31.1665 147.905 34.4481 146.623 37.6822L148.6 38.466C149.977 34.9922 150.669 31.4452 150.669 27.8311H148.542ZM146.623 37.6822C145.348 40.8978 143.078 44.5185 139.765 48.5481L141.408 49.8991C144.803 45.7705 147.216 41.9582 148.6 38.466L146.623 37.6822ZM139.762 48.5518C136.476 52.5847 131.841 57.492 125.843 63.2789L127.32 64.8097C133.348 58.9938 138.05 54.0207 141.411 49.8954L139.762 48.5518ZM125.823 63.2986L109.824 79.5696L111.341 81.061L127.34 64.79L125.823 63.2986ZM109.519 80.3153V80.9498H111.646V80.3153H109.519ZM110.583 82.0134H151.011V79.8862H110.583V82.0134ZM149.947 80.9498V95H152.074V80.9498H149.947ZM151.011 93.9364H87.3771V96.0636H151.011V93.9364ZM169.865 93.0964L169.119 93.8543L169.865 93.0964ZM166.965 86.026L168.028 86.0376L168.028 86.0259L168.028 86.0142L166.965 86.026ZM169.865 79.0462L170.611 79.8041L169.865 79.0462ZM183.87 79.0462L183.124 79.8041L183.13 79.8098L183.87 79.0462ZM186.907 86.026L187.97 86.0434L187.97 86.0288L187.97 86.0142L186.907 86.026ZM185.456 91.0569L184.552 90.4964L184.548 90.503L184.544 90.5097L185.456 91.0569ZM181.831 94.6827L182.372 95.5981L182.378 95.5948L181.831 94.6827ZM176.936 94.9335C174.466 94.9335 172.377 94.077 170.611 92.3386L169.119 93.8543C171.281 95.9835 173.906 97.0607 176.936 97.0607V94.9335ZM170.611 92.3386C168.855 90.6095 168.001 88.5313 168.028 86.0376L165.901 86.0145C165.868 89.0804 166.947 91.7158 169.119 93.8543L170.611 92.3386ZM168.028 86.0142C168.001 83.5882 168.85 81.5382 170.611 79.8041L169.119 78.2884C166.952 80.4219 165.868 83.025 165.901 86.0378L168.028 86.0142ZM170.611 79.8041C172.377 78.0657 174.466 77.2091 176.936 77.2091V75.082C173.906 75.082 171.281 76.1592 169.119 78.2884L170.611 79.8041ZM176.936 77.2091C179.304 77.2091 181.351 78.0583 183.124 79.8041L184.616 78.2884C182.461 76.1667 179.885 75.082 176.936 75.082V77.2091ZM183.13 79.8098C184.925 81.5509 185.816 83.6088 185.843 86.0378L187.97 86.0142C187.937 83.0044 186.803 80.4092 184.611 78.2827L183.13 79.8098ZM185.843 86.0086C185.816 87.6671 185.384 89.1552 184.552 90.4964L186.36 91.6173C187.402 89.9371 187.937 88.0712 187.97 86.0434L185.843 86.0086ZM184.544 90.5097C183.728 91.8708 182.644 92.9541 181.283 93.7707L182.378 95.5948C184.038 94.5985 185.372 93.2646 186.368 91.6041L184.544 90.5097ZM181.289 93.7674C179.978 94.543 178.535 94.9335 176.936 94.9335V97.0607C178.902 97.0607 180.722 96.575 182.372 95.598L181.289 93.7674Z" fill="#626161"/>
</svg>
