<svg width="189" height="97" viewBox="0 0 189 97" fill="none" xmlns="http://www.w3.org/2000/svg">
<path d="M17.3414 91.1022L16.7223 91.967L16.7279 91.971L17.3414 91.1022ZM5.05885 74.6499L4.06962 75.0406L4.07163 75.0456L5.05885 74.6499ZM0.798476 48.6797L-0.265108 48.6765V48.6797H0.798476ZM5.10418 22.8455L4.11753 22.4483L4.11666 22.4505L5.10418 22.8455ZM17.3868 6.52917L16.7765 5.65807L16.7742 5.6597L17.3868 6.52917ZM55.7302 6.52917L55.1199 7.40026L55.7302 6.52917ZM68.0127 22.8455L67.0247 23.2391L67.0261 23.2427L68.0127 22.8455ZM68.0127 74.6952L67.0249 74.3009L67.0241 74.3031L68.0127 74.6952ZM55.7302 91.1022L55.1166 90.2334L55.1143 90.2351L55.7302 91.1022ZM50.2914 74.0154L49.3751 73.4753L49.3743 73.4767L50.2914 74.0154ZM53.0561 30.0972L54.0728 29.7849L53.0561 30.0972ZM46.5296 18.7664L45.812 19.5515L45.8167 19.5557L46.5296 18.7664ZM22.8709 23.5253L23.788 24.064L23.7892 24.0619L22.8709 23.5253ZM17.7947 48.6797L18.8582 48.6841L18.8582 48.6826L17.7947 48.6797ZM20.0155 67.3529L18.9966 67.6579L18.9983 67.6635L20.0155 67.3529ZM26.542 78.7743L25.8245 79.5594L25.8291 79.5636L26.542 78.7743ZM36.5585 95.704C29.2831 95.704 23.0992 93.8664 17.955 90.2334L16.7279 91.971C22.2799 95.8919 28.9074 97.8312 36.5585 97.8312V95.704ZM17.9606 90.2374C12.8353 86.5682 8.85485 81.2613 6.04608 74.2542L4.07163 75.0456C7.00379 82.3606 11.2118 88.022 16.7223 91.967L17.9606 90.2374ZM6.04808 74.2592C3.26956 67.2242 1.86206 58.7074 1.86206 48.6797H-0.265108C-0.265108 58.8964 1.16764 67.693 4.06963 75.0406L6.04808 74.2592ZM1.86206 48.6829C1.89199 38.6539 3.31456 30.1833 6.09169 23.2405L4.11666 22.4505C1.21329 29.7089 -0.234609 38.4612 -0.265103 48.6765L1.86206 48.6829ZM6.09082 23.2427C8.89887 16.2669 12.8775 11.0072 17.9993 7.39863L16.7742 5.6597C11.2602 9.54457 7.05042 15.1624 4.11753 22.4483L6.09082 23.2427ZM17.997 7.40026C23.1423 3.79566 29.3125 1.97267 36.5585 1.97267V-0.154497C28.9384 -0.154497 22.3275 1.76923 16.7765 5.65808L17.997 7.40026ZM36.5585 1.97267C43.8044 1.97267 49.9746 3.79566 55.1199 7.40026L56.3404 5.65808C50.7894 1.76923 44.1785 -0.154497 36.5585 -0.154497V1.97267ZM55.1199 7.40026C60.2702 11.0084 64.2474 16.2664 67.0247 23.2391L69.0008 22.4519C66.0976 15.163 61.8864 9.54337 56.3404 5.65807L55.1199 7.40026ZM67.0261 23.2427C69.8326 30.2145 71.2549 38.6834 71.2549 48.6797H73.382C73.382 38.4921 71.9339 29.7382 68.9994 22.4483L67.0261 23.2427ZM71.2549 48.6797C71.2549 58.7369 69.8324 67.2674 67.0249 74.3009L69.0005 75.0895C71.934 67.7404 73.382 58.9273 73.382 48.6797H71.2549ZM67.0241 74.3031C64.2463 81.3068 60.2681 86.5954 55.1166 90.2334L56.3437 91.971C61.8885 88.0552 66.0987 82.4058 69.0014 75.0873L67.0241 74.3031ZM55.1143 90.2351C50.0015 93.8663 43.834 95.704 36.5585 95.704V97.8312C44.2094 97.8312 50.823 95.8919 56.346 91.9693L55.1143 90.2351ZM36.5585 83.645C42.7967 83.645 47.6959 80.5349 51.2085 74.554L49.3743 73.4767C46.179 78.9173 41.9229 81.5179 36.5585 81.5179V83.645ZM51.2076 74.5555C54.7329 68.575 56.4312 59.9058 56.4312 48.6797H54.304C54.304 59.7527 52.6181 67.9738 49.3751 73.4753L51.2076 74.5555ZM56.4312 48.6797C56.4312 41.2406 55.6546 34.9336 54.0728 29.7849L52.0394 30.4096C53.5396 35.2924 54.304 41.3737 54.304 48.6797H56.4312ZM54.0728 29.7849C52.4962 24.6533 50.2396 20.6842 47.2425 17.9771L45.8167 19.5557C48.4396 21.9248 50.534 25.5096 52.0394 30.4096L54.0728 29.7849ZM47.2471 17.9813C44.2393 15.2323 40.659 13.8504 36.5585 13.8504V15.9775C40.1326 15.9775 43.1997 17.1639 45.812 19.5515L47.2471 17.9813ZM36.5585 13.8504C30.3454 13.8504 25.4625 16.9807 21.9525 22.9888L23.7892 24.0619C26.987 18.5881 31.2293 15.9775 36.5585 15.9775V13.8504ZM21.9537 22.9867C18.4604 28.9349 16.7615 37.5415 16.7311 48.6768L18.8582 48.6826C18.8883 37.7002 20.5735 29.5372 23.788 24.064L21.9537 22.9867ZM16.7311 48.6754C16.7006 56.144 17.4464 62.4801 18.9966 67.6579L21.0344 67.0478C19.5631 62.1337 18.8283 56.021 18.8582 48.6841L16.7311 48.6754ZM18.9983 67.6635C20.5744 72.8244 22.8298 76.8223 25.8245 79.5594L27.2596 77.9892C24.6342 75.5897 22.5386 71.9732 21.0327 67.0422L18.9983 67.6635ZM25.8291 79.5636C28.8392 82.2824 32.4337 83.645 36.5585 83.645V81.5179C32.9481 81.5179 29.8649 80.3424 27.2549 77.985L25.8291 79.5636ZM103.285 92.9151L102.855 93.8875L102.857 93.8885L103.285 92.9151ZM91.3202 83.5786L92.1772 82.9488L91.3202 83.5786ZM86.6519 69.755V68.6914H85.5508L85.589 69.7919L86.6519 69.755ZM103.693 69.755L104.755 69.691L104.695 68.6914H103.693V69.755ZM106.186 76.3269L105.358 76.9945L105.364 77.0011L106.186 76.3269ZM112.214 80.6326L111.811 81.6168L112.214 80.6326ZM129.482 80.4513L129.916 81.4223L129.926 81.4179L129.482 80.4513ZM135.51 75.5564L134.637 74.949L135.51 75.5564ZM137.64 68.35L136.577 68.3385L136.577 68.3502L136.577 68.3618L137.64 68.35ZM135.465 60.917L134.59 61.5211L135.465 60.917ZM129.029 55.8861L128.605 56.8615L128.609 56.8631L129.029 55.8861ZM110.764 54.0732H109.7V55.1368H110.764V54.0732ZM110.764 41.1107V40.0472H109.7V41.1107H110.764ZM127.443 39.4338L127.001 38.4663L126.996 38.4684L127.443 39.4338ZM133.199 34.7202L134.076 35.3222L134.08 35.3161L133.199 34.7202ZM135.238 27.6044L134.175 27.5922L134.175 27.6043L134.175 27.6164L135.238 27.6044ZM133.471 20.7606L132.559 21.3078L132.564 21.3161L132.569 21.3243L133.471 20.7606ZM128.44 16.183L127.959 17.1316L127.964 17.1343L128.44 16.183ZM112.985 16.0924L113.401 17.0712L112.985 16.0924ZM107.138 20.4887L107.972 21.1482L107.978 21.1417L107.138 20.4887ZM104.781 27.1965V28.2601H105.808L105.844 27.2336L104.781 27.1965ZM88.6008 27.1965L87.5375 27.1718L87.5122 28.2601H88.6008V27.1965ZM93.0878 13.5089L92.2299 12.8803L92.2291 12.8814L93.0878 13.5089ZM104.691 4.26301L105.132 5.23065L105.137 5.22834L104.691 4.26301ZM137.097 4.39897L136.613 5.3465L136.621 5.35027L137.097 4.39897ZM147.748 13.6902L146.853 14.2657L147.748 13.6902ZM151.509 26.6073H150.446L150.446 26.6135L151.509 26.6073ZM146.886 39.751L146.088 39.0483L146.085 39.0521L146.886 39.751ZM134.74 46.6855L134.514 45.6461L133.676 45.8278V46.6855H134.74ZM134.74 47.4107H133.676V48.3367L134.593 48.4641L134.74 47.4107ZM149.742 54.6624L148.945 55.3671L148.951 55.3735L149.742 54.6624ZM154.954 69.2111L153.89 69.2056V69.2111H154.954ZM150.512 83.1707L149.649 82.5489L149.649 82.55L150.512 83.1707ZM138.366 92.7792L137.929 91.8094L137.927 91.8103L138.366 92.7792ZM120.69 95.2055C114.285 95.2055 108.634 94.1087 103.714 91.9418L102.857 93.8885C108.09 96.1935 114.041 97.3326 120.69 97.3326V95.2055ZM103.716 91.9427C98.8199 89.7731 94.9861 86.7712 92.1772 82.9488L90.4631 84.2084C93.516 88.3628 97.6591 91.5853 102.855 93.8875L103.716 91.9427ZM92.1772 82.9488C89.3804 79.1428 87.8892 74.7444 87.7148 69.7181L85.589 69.7919C85.7772 75.2202 87.3981 80.0374 90.4631 84.2084L92.1772 82.9488ZM86.6519 70.8186H103.693V68.6914H86.6519V70.8186ZM102.632 69.8189C102.796 72.5371 103.702 74.9412 105.358 76.9945L107.014 75.6592C105.648 73.9658 104.893 71.9886 104.755 69.691L102.632 69.8189ZM105.364 77.0011C107.001 78.9985 109.162 80.5318 111.811 81.6168L112.617 79.6483C110.25 78.6786 108.393 77.3415 107.009 75.6526L105.364 77.0011ZM111.811 81.6168C114.464 82.7037 117.414 83.2371 120.644 83.2371V81.11C117.65 81.11 114.98 80.6161 112.617 79.6483L111.811 81.6168ZM120.644 83.2371C124.091 83.2371 127.189 82.6415 129.916 81.4222L129.048 79.4803C126.639 80.5574 123.845 81.11 120.644 81.11V83.2371ZM129.926 81.4179C132.647 80.1695 134.813 78.4217 136.383 76.1637L134.637 74.949C133.307 76.8608 131.454 78.3763 129.039 79.4846L129.926 81.4179ZM136.383 76.1637C137.969 73.8842 138.736 71.2622 138.704 68.3382L136.577 68.3618C136.605 70.8766 135.952 73.0588 134.637 74.949L136.383 76.1637ZM138.704 68.3614C138.736 65.3498 137.956 62.6533 136.34 60.3129L134.59 61.5211C135.935 63.4712 136.605 65.7301 136.577 68.3385L138.704 68.3614ZM136.34 60.3129C134.728 57.9761 132.411 56.1828 129.449 54.9091L128.609 56.8631C131.268 58.0067 133.241 59.5672 134.59 61.5211L136.34 60.3129ZM129.453 54.9107C126.506 53.6294 123 53.0096 118.967 53.0096V55.1368C122.791 55.1368 125.992 55.7255 128.605 56.8615L129.453 54.9107ZM118.967 53.0096H110.764V55.1368H118.967V53.0096ZM111.827 54.0732V41.1107H109.7V54.0732H111.827ZM110.764 42.1743H118.967V40.0472H110.764V42.1743ZM118.967 42.1743C122.322 42.1743 125.305 41.5942 127.889 40.3991L126.996 38.4684C124.746 39.5094 122.079 40.0472 118.967 40.0472V42.1743ZM127.885 40.4012C130.49 39.211 132.566 37.5206 134.076 35.3222L132.322 34.1182C131.052 35.9686 129.29 37.4206 127.001 38.4664L127.885 40.4012ZM134.08 35.3161C135.601 33.0669 136.334 30.479 136.302 27.5925L134.175 27.6164C134.203 30.1082 133.576 32.2641 132.318 34.1242L134.08 35.3161ZM136.302 27.6167C136.334 24.8163 135.705 22.3284 134.373 20.1969L132.569 21.3243C133.654 23.0604 134.203 25.1351 134.175 27.5922L136.302 27.6167ZM134.383 20.2134C133.094 18.0651 131.26 16.404 128.916 15.2317L127.964 17.1343C129.971 18.1375 131.491 19.5282 132.559 21.3078L134.383 20.2134ZM128.921 15.2344C126.599 14.057 123.905 13.4878 120.871 13.4878V15.6149C123.638 15.6149 125.99 16.1335 127.959 17.1316L128.921 15.2344ZM120.871 13.4878C117.899 13.4878 115.128 14.0258 112.569 15.1135L113.401 17.0712C115.676 16.1042 118.162 15.6149 120.871 15.6149V13.4878ZM112.569 15.1135C110 16.2052 107.9 17.7767 106.298 19.8357L107.978 21.1417C109.337 19.3935 111.135 18.0342 113.401 17.0712L112.569 15.1135ZM106.304 19.8292C104.67 21.8964 103.816 24.3557 103.718 27.1595L105.844 27.2336C105.928 24.8403 106.645 22.8277 107.972 21.1482L106.304 19.8292ZM104.781 26.1329H88.6008V28.2601H104.781V26.1329ZM89.6641 27.2213C89.7803 22.2256 91.2131 17.8769 93.9465 14.1365L92.2291 12.8814C89.2215 16.997 87.663 21.7733 87.5375 27.1718L89.6641 27.2213ZM93.9457 14.1376C96.73 10.3381 100.449 7.36728 105.132 5.23063L104.249 3.29538C99.2632 5.57018 95.2469 8.76327 92.2299 12.8803L93.9457 14.1376ZM105.137 5.22834C109.814 3.06499 115.083 1.97267 120.962 1.97267V-0.154497C114.814 -0.154497 109.235 0.989126 104.244 3.29767L105.137 5.22834ZM120.962 1.97267C127.023 1.97267 132.229 3.11056 136.613 5.34648L137.58 3.45147C132.839 1.03421 127.289 -0.154497 120.962 -0.154497V1.97267ZM136.621 5.35027C141.062 7.57071 144.459 10.5454 146.853 14.2657L148.642 13.1147C146.02 9.03943 142.317 5.81998 137.572 3.44767L136.621 5.35027ZM146.853 14.2657C149.249 17.9888 150.446 22.0941 150.446 26.6073H152.573C152.573 21.6933 151.262 17.1872 148.642 13.1147L146.853 14.2657ZM150.446 26.6135C150.475 31.6108 149.009 35.7308 146.088 39.0483L147.685 40.4538C150.989 36.7009 152.604 32.0584 152.573 26.6012L150.446 26.6135ZM146.085 39.0521C143.167 42.3983 139.329 44.602 134.514 45.6461L134.965 47.7249C140.182 46.5935 144.441 44.1742 147.688 40.45L146.085 39.0521ZM133.676 46.6855V47.4107H135.803V46.6855H133.676ZM134.593 48.4641C140.935 49.3449 145.678 51.6741 148.945 55.3671L150.538 53.9577C146.856 49.7947 141.598 47.2894 134.886 46.3572L134.593 48.4641ZM148.951 55.3735C152.26 59.0531 153.919 63.6382 153.89 69.2056L156.017 69.2167C156.049 63.1813 154.234 58.0673 150.533 53.9512L148.951 55.3735ZM153.89 69.2111C153.89 74.1912 152.476 78.6256 149.649 82.5489L151.375 83.7924C154.47 79.4971 156.018 74.6251 156.018 69.2111H153.89ZM149.649 82.55C146.84 86.4585 142.948 89.5495 137.929 91.8094L138.802 93.749C144.117 91.3556 148.322 88.041 151.376 83.7913L149.649 82.55ZM137.927 91.8103C132.951 94.0643 127.212 95.2055 120.69 95.2055V97.3326C127.462 97.3326 133.508 96.1472 138.804 93.748L137.927 91.8103ZM170.987 93.0964L170.241 93.8543L170.987 93.0964ZM168.086 86.026L169.15 86.0376L169.15 86.0259L169.15 86.0142L168.086 86.026ZM170.987 79.0462L171.733 79.8041L170.987 79.0462ZM184.992 79.0462L184.246 79.8041L184.251 79.8098L184.992 79.0462ZM188.029 86.026L189.092 86.0434L189.092 86.0288L189.092 86.0142L188.029 86.026ZM186.578 91.0569L185.674 90.4964L185.67 90.503L185.666 90.5097L186.578 91.0569ZM182.952 94.6827L183.494 95.5981L183.5 95.5948L182.952 94.6827ZM178.057 94.9335C175.588 94.9335 173.499 94.077 171.733 92.3386L170.241 93.8543C172.403 95.9835 175.028 97.0607 178.057 97.0607V94.9335ZM171.733 92.3386C169.977 90.6095 169.123 88.5313 169.15 86.0376L167.023 86.0145C166.989 89.0804 168.069 91.7158 170.241 93.8543L171.733 92.3386ZM169.15 86.0142C169.123 83.5882 169.972 81.5382 171.733 79.8041L170.241 78.2884C168.074 80.4219 166.989 83.025 167.023 86.0378L169.15 86.0142ZM171.733 79.8041C173.499 78.0657 175.588 77.2091 178.057 77.2091V75.082C175.028 75.082 172.403 76.1592 170.241 78.2884L171.733 79.8041ZM178.057 77.2091C180.426 77.2091 182.472 78.0583 184.246 79.8041L185.738 78.2884C183.583 76.1667 181.007 75.082 178.057 75.082V77.2091ZM184.251 79.8098C186.047 81.5509 186.938 83.6088 186.965 86.0378L189.092 86.0142C189.059 83.0044 187.925 80.4092 185.732 78.2827L184.251 79.8098ZM186.965 86.0086C186.938 87.6671 186.506 89.1552 185.674 90.4964L187.482 91.6173C188.524 89.9371 189.059 88.0712 189.092 86.0434L186.965 86.0086ZM185.666 90.5097C184.85 91.8708 183.766 92.9541 182.405 93.7707L183.5 95.5948C185.16 94.5985 186.494 93.2646 187.49 91.6041L185.666 90.5097ZM182.411 93.7674C181.1 94.543 179.657 94.9335 178.057 94.9335V97.0607C180.023 97.0607 181.843 96.575 183.494 95.598L182.411 93.7674Z" fill="#626161"/>
</svg>
