<svg width="191" height="97" viewBox="0 0 191 97" fill="none" xmlns="http://www.w3.org/2000/svg">
<path d="M17.3414 91.1022L16.7223 91.967L16.7279 91.971L17.3414 91.1022ZM5.05885 74.6499L4.06962 75.0406L4.07163 75.0456L5.05885 74.6499ZM0.798476 48.6797L-0.265108 48.6765V48.6797H0.798476ZM5.10418 22.8455L4.11753 22.4483L4.11666 22.4505L5.10418 22.8455ZM17.3868 6.52917L16.7765 5.65807L16.7742 5.6597L17.3868 6.52917ZM55.7302 6.52917L55.1199 7.40026L55.7302 6.52917ZM68.0127 22.8455L67.0247 23.2391L67.0261 23.2427L68.0127 22.8455ZM68.0127 74.6952L67.0249 74.3009L67.0241 74.3031L68.0127 74.6952ZM55.7302 91.1022L55.1166 90.2334L55.1143 90.2351L55.7302 91.1022ZM50.2914 74.0154L49.3751 73.4753L49.3743 73.4767L50.2914 74.0154ZM53.0561 30.0972L54.0728 29.7849L53.0561 30.0972ZM46.5296 18.7664L45.812 19.5515L45.8167 19.5557L46.5296 18.7664ZM22.8709 23.5253L23.788 24.064L23.7892 24.0619L22.8709 23.5253ZM17.7947 48.6797L18.8582 48.6841L18.8582 48.6826L17.7947 48.6797ZM20.0155 67.3529L18.9966 67.6579L18.9983 67.6635L20.0155 67.3529ZM26.542 78.7743L25.8245 79.5594L25.8291 79.5636L26.542 78.7743ZM36.5585 95.704C29.2831 95.704 23.0992 93.8664 17.955 90.2334L16.7279 91.971C22.2799 95.8919 28.9074 97.8312 36.5585 97.8312V95.704ZM17.9606 90.2374C12.8353 86.5682 8.85485 81.2613 6.04608 74.2542L4.07163 75.0456C7.00379 82.3606 11.2118 88.022 16.7223 91.967L17.9606 90.2374ZM6.04808 74.2592C3.26956 67.2242 1.86206 58.7074 1.86206 48.6797H-0.265108C-0.265108 58.8964 1.16764 67.693 4.06963 75.0406L6.04808 74.2592ZM1.86206 48.6829C1.89199 38.6539 3.31456 30.1833 6.09169 23.2405L4.11666 22.4505C1.21329 29.7089 -0.234609 38.4612 -0.265103 48.6765L1.86206 48.6829ZM6.09082 23.2427C8.89887 16.2669 12.8775 11.0072 17.9993 7.39863L16.7742 5.6597C11.2602 9.54457 7.05042 15.1624 4.11753 22.4483L6.09082 23.2427ZM17.997 7.40026C23.1423 3.79566 29.3125 1.97267 36.5585 1.97267V-0.154497C28.9384 -0.154497 22.3275 1.76923 16.7765 5.65808L17.997 7.40026ZM36.5585 1.97267C43.8044 1.97267 49.9746 3.79566 55.1199 7.40026L56.3404 5.65808C50.7894 1.76923 44.1785 -0.154497 36.5585 -0.154497V1.97267ZM55.1199 7.40026C60.2702 11.0084 64.2474 16.2664 67.0247 23.2391L69.0008 22.4519C66.0976 15.163 61.8864 9.54337 56.3404 5.65807L55.1199 7.40026ZM67.0261 23.2427C69.8326 30.2145 71.2549 38.6834 71.2549 48.6797H73.382C73.382 38.4921 71.9339 29.7382 68.9994 22.4483L67.0261 23.2427ZM71.2549 48.6797C71.2549 58.7369 69.8324 67.2674 67.0249 74.3009L69.0005 75.0895C71.934 67.7404 73.382 58.9273 73.382 48.6797H71.2549ZM67.0241 74.3031C64.2463 81.3068 60.2681 86.5954 55.1166 90.2334L56.3437 91.971C61.8885 88.0552 66.0987 82.4058 69.0014 75.0873L67.0241 74.3031ZM55.1143 90.2351C50.0015 93.8663 43.834 95.704 36.5585 95.704V97.8312C44.2094 97.8312 50.823 95.8919 56.346 91.9693L55.1143 90.2351ZM36.5585 83.645C42.7967 83.645 47.6959 80.5349 51.2085 74.554L49.3743 73.4767C46.179 78.9173 41.9229 81.5179 36.5585 81.5179V83.645ZM51.2076 74.5555C54.7329 68.575 56.4312 59.9058 56.4312 48.6797H54.304C54.304 59.7527 52.6181 67.9738 49.3751 73.4753L51.2076 74.5555ZM56.4312 48.6797C56.4312 41.2406 55.6546 34.9336 54.0728 29.7849L52.0394 30.4096C53.5396 35.2924 54.304 41.3737 54.304 48.6797H56.4312ZM54.0728 29.7849C52.4962 24.6533 50.2396 20.6842 47.2425 17.9771L45.8167 19.5557C48.4396 21.9248 50.534 25.5096 52.0394 30.4096L54.0728 29.7849ZM47.2471 17.9813C44.2393 15.2323 40.659 13.8504 36.5585 13.8504V15.9775C40.1326 15.9775 43.1997 17.1639 45.812 19.5515L47.2471 17.9813ZM36.5585 13.8504C30.3454 13.8504 25.4625 16.9807 21.9525 22.9888L23.7892 24.0619C26.987 18.5881 31.2293 15.9775 36.5585 15.9775V13.8504ZM21.9537 22.9867C18.4604 28.9349 16.7615 37.5415 16.7311 48.6768L18.8582 48.6826C18.8883 37.7002 20.5735 29.5372 23.788 24.064L21.9537 22.9867ZM16.7311 48.6754C16.7006 56.144 17.4464 62.4801 18.9966 67.6579L21.0344 67.0478C19.5631 62.1337 18.8283 56.021 18.8582 48.6841L16.7311 48.6754ZM18.9983 67.6635C20.5744 72.8244 22.8298 76.8223 25.8245 79.5594L27.2596 77.9892C24.6342 75.5897 22.5386 71.9732 21.0327 67.0422L18.9983 67.6635ZM25.8291 79.5636C28.8392 82.2824 32.4337 83.645 36.5585 83.645V81.5179C32.9481 81.5179 29.8649 80.3424 27.2549 77.985L25.8291 79.5636ZM85.7001 77.7772H84.6365V78.8408H85.7001V77.7772ZM85.7001 64.4069L84.8014 63.8381L84.6365 64.0986V64.4069H85.7001ZM125.086 2.17814V1.11455H124.5L124.187 1.60933L125.086 2.17814ZM136.235 2.17814H137.299V1.11455H136.235V2.17814ZM136.235 21.2139V22.2775H137.299V21.2139H136.235ZM129.437 21.2139V20.1503H128.851L128.538 20.6463L129.437 21.2139ZM102.923 63.2285L102.023 62.6608L101.859 62.9209V63.2285H102.923ZM102.923 63.9536H101.859V65.0172H102.923V63.9536ZM157.9 63.9536H158.964V62.89H157.9V63.9536ZM157.9 77.7772V78.8408H158.964V77.7772H157.9ZM129.981 95H128.917V96.0636H129.981V95ZM129.981 73.6981L128.918 73.6659L128.917 73.682V73.6981H129.981ZM130.162 67.7154L131.225 67.7477L131.226 67.7316V67.7154H130.162ZM130.162 2.17814V1.11455H129.099V2.17814H130.162ZM146.025 2.17814H147.089V1.11455H146.025V2.17814ZM146.025 95V96.0636H147.089V95H146.025ZM86.7637 77.7772V64.4069H84.6365V77.7772H86.7637ZM86.5988 64.9757L125.985 2.74694L124.187 1.60933L84.8014 63.8381L86.5988 64.9757ZM125.086 3.24172H136.235V1.11455H125.086V3.24172ZM135.172 2.17814V21.2139H137.299V2.17814H135.172ZM136.235 20.1503H129.437V22.2775H136.235V20.1503ZM128.538 20.6463L102.023 62.6608L103.822 63.7961L130.336 21.7815L128.538 20.6463ZM101.859 63.2285V63.9536H103.987V63.2285H101.859ZM102.923 65.0172H157.9V62.89H102.923V65.0172ZM156.836 63.9536V77.7772H158.964V63.9536H156.836ZM157.9 76.7136H85.7001V78.8408H157.9V76.7136ZM131.044 95V73.6981H128.917V95H131.044ZM131.044 73.7303L131.225 67.7477L129.099 67.6832L128.918 73.6659L131.044 73.7303ZM131.226 67.7154V2.17814H129.099V67.7154H131.226ZM130.162 3.24172H146.025V1.11455H130.162V3.24172ZM144.962 2.17814V95H147.089V2.17814H144.962ZM146.025 93.9364H129.981V96.0636H146.025V93.9364ZM172.981 93.0964L172.235 93.8543L172.981 93.0964ZM170.081 86.026L171.144 86.0376L171.144 86.0259L171.144 86.0142L170.081 86.026ZM172.981 79.0462L173.727 79.8041L172.981 79.0462ZM186.986 79.0462L186.24 79.8041L186.246 79.8098L186.986 79.0462ZM190.023 86.026L191.086 86.0434L191.086 86.0288L191.086 86.0142L190.023 86.026ZM188.572 91.0569L187.668 90.4964L187.664 90.503L187.66 90.5097L188.572 91.0569ZM184.947 94.6827L185.488 95.5981L185.494 95.5948L184.947 94.6827ZM180.052 94.9335C177.582 94.9335 175.493 94.077 173.727 92.3386L172.235 93.8543C174.397 95.9835 177.022 97.0607 180.052 97.0607V94.9335ZM173.727 92.3386C171.971 90.6095 171.117 88.5313 171.144 86.0376L169.017 86.0145C168.984 89.0804 170.063 91.7158 172.235 93.8543L173.727 92.3386ZM171.144 86.0142C171.117 83.5882 171.966 81.5382 173.727 79.8041L172.235 78.2884C170.068 80.4219 168.984 83.025 169.017 86.0378L171.144 86.0142ZM173.727 79.8041C175.493 78.0657 177.582 77.2091 180.052 77.2091V75.082C177.022 75.082 174.397 76.1592 172.235 78.2884L173.727 79.8041ZM180.052 77.2091C182.42 77.2091 184.467 78.0583 186.24 79.8041L187.732 78.2884C185.577 76.1667 183.001 75.082 180.052 75.082V77.2091ZM186.246 79.8098C188.041 81.5509 188.932 83.6088 188.959 86.0378L191.086 86.0142C191.053 83.0044 189.919 80.4092 187.726 78.2827L186.246 79.8098ZM188.959 86.0086C188.932 87.6671 188.5 89.1552 187.668 90.4964L189.476 91.6173C190.518 89.9371 191.053 88.0712 191.086 86.0434L188.959 86.0086ZM187.66 90.5097C186.844 91.8708 185.76 92.9541 184.399 93.7707L185.494 95.5948C187.154 94.5985 188.488 93.2646 189.484 91.6041L187.66 90.5097ZM184.405 93.7674C183.094 94.543 181.651 94.9335 180.052 94.9335V97.0607C182.018 97.0607 183.838 96.575 185.488 95.598L184.405 93.7674Z" fill="#626161"/>
</svg>
