<svg width="60" height="60" viewBox="0 0 60 60" fill="none" xmlns="http://www.w3.org/2000/svg">
<g filter="url(#filter0_d_102_3224)">
<path d="M34.7057 26.6848C32.1212 26.6848 29.5367 26.6848 26.9521 26.6777C26.7445 26.6777 26.6443 26.7277 26.5727 26.9419C26.0429 28.5775 24.5466 29.6275 22.8069 29.6203C21.1603 29.6132 19.6711 28.5133 19.1628 26.9134C19.0984 26.7205 19.0053 26.6705 18.8192 26.6777C18.1963 26.6848 17.5663 26.6919 16.9434 26.6777C16.4423 26.6634 16.0628 26.2991 16.0055 25.8134C15.9554 25.3492 16.249 24.8992 16.7143 24.7778C16.8432 24.7421 16.9792 24.7421 17.1152 24.7349C17.6951 24.7278 18.2751 24.7278 18.8621 24.7349C19.0339 24.7349 19.1127 24.6849 19.17 24.5207C19.6926 22.985 20.7737 22.0851 22.3702 21.828C24.1815 21.5423 26.0358 22.6993 26.5799 24.4492C26.6443 24.6635 26.7374 24.7349 26.9665 24.7349C32.0639 24.7278 37.1613 24.7278 42.2659 24.7278C42.4163 24.7278 42.5738 24.7206 42.7241 24.7492C43.1895 24.8349 43.5331 25.2778 43.5045 25.7563C43.4759 26.242 43.0964 26.6277 42.6096 26.6705C42.495 26.6777 42.3805 26.6777 42.2588 26.6777C39.7387 26.6848 37.2186 26.6848 34.7057 26.6848ZM22.7926 27.6562C23.845 27.7347 24.7542 26.8991 24.833 25.7849C24.9046 24.7492 24.0813 23.8493 22.9787 23.7636C21.9263 23.6778 21.0171 24.5064 20.9312 25.6134C20.8453 26.6705 21.6757 27.5776 22.7926 27.6562Z" fill="#51FD97"/>
<path d="M23.3224 36.4843C21.2391 36.4843 19.1557 36.4843 17.0652 36.4843C16.5497 36.4843 16.1918 36.2343 16.0557 35.8058C15.8624 35.213 16.2634 34.5987 16.8862 34.5416C17.0222 34.5273 17.1511 34.5273 17.2871 34.5273C21.3823 34.5273 25.4845 34.5273 29.5797 34.5344C29.7945 34.5344 29.9019 34.4845 29.9806 34.263C30.5032 32.656 31.9995 31.5918 33.7035 31.5989C35.3859 31.6061 36.8679 32.6846 37.3833 34.2916C37.4406 34.4773 37.5265 34.5344 37.7198 34.5344C39.2734 34.5273 40.8341 34.5344 42.3877 34.5273C42.8531 34.5273 43.211 34.6844 43.4043 35.1273C43.6907 35.7772 43.2182 36.4772 42.4808 36.4843C40.9129 36.4915 39.3522 36.4915 37.7843 36.4843C37.5408 36.4843 37.4335 36.5415 37.3547 36.7843C36.8464 38.3699 35.3215 39.4341 33.6104 39.427C31.9781 39.4199 30.4531 38.3056 29.9663 36.7486C29.9019 36.5415 29.8159 36.4772 29.6012 36.4772C27.5106 36.4843 25.413 36.4843 23.3224 36.4843ZM33.639 37.4557C34.7129 37.4843 35.5935 36.6343 35.6365 35.5344C35.6723 34.4916 34.7845 33.5774 33.6963 33.5488C32.6439 33.5202 31.749 34.3916 31.7203 35.463C31.6917 36.5415 32.5436 37.4271 33.639 37.4557Z" fill="#51FD97"/>
<path d="M39.4308 14.9427C40.476 14.9427 41.4926 14.9356 42.5093 14.9427C42.9102 14.9427 43.2109 15.1356 43.3899 15.4998C43.5545 15.8427 43.5187 16.1784 43.3039 16.4855C43.082 16.7997 42.7598 16.8997 42.3947 16.8926C41.4998 16.8855 40.6049 16.8997 39.71 16.8855C39.4952 16.8855 39.4021 16.9497 39.3377 17.1569C38.8222 18.7496 37.3188 19.8281 35.6435 19.8281C33.9324 19.8281 32.4504 18.7639 31.935 17.1426C31.8634 16.9212 31.7488 16.8926 31.5483 16.8926C26.7802 16.8997 22.0121 16.8997 17.244 16.8926C17.0722 16.8926 16.9004 16.8926 16.7357 16.8569C16.2918 16.7569 15.9768 16.3212 16.0055 15.8641C16.0341 15.3927 16.3992 14.9999 16.8646 14.9499C16.9863 14.9356 17.1152 14.9427 17.2369 14.9427C22.005 14.9427 26.7731 14.9427 31.5412 14.9499C31.7846 14.9499 31.8777 14.8713 31.9493 14.6499C32.4647 13.0643 33.9825 11.9929 35.6864 12C37.3188 12.0072 38.8365 13.1143 39.3377 14.6642C39.3735 14.7499 39.395 14.8284 39.4308 14.9427ZM35.6292 13.9642C34.5481 13.9713 33.6603 14.8641 33.6747 15.9284C33.689 16.9926 34.5696 17.864 35.6292 17.8711C36.6959 17.8782 37.5908 16.9854 37.5908 15.9069C37.5908 14.8284 36.7102 13.9571 35.6292 13.9642Z" fill="#51FD97"/>
</g>
<defs>
<filter id="filter0_d_102_3224" x="0" y="0" width="59.5061" height="59.427" filterUnits="userSpaceOnUse" color-interpolation-filters="sRGB">
<feFlood flood-opacity="0" result="BackgroundImageFix"/>
<feColorMatrix in="SourceAlpha" type="matrix" values="0 0 0 0 0 0 0 0 0 0 0 0 0 0 0 0 0 0 127 0" result="hardAlpha"/>
<feOffset dy="4"/>
<feGaussianBlur stdDeviation="8"/>
<feComposite in2="hardAlpha" operator="out"/>
<feColorMatrix type="matrix" values="0 0 0 0 0.317647 0 0 0 0 0.992157 0 0 0 0 0.592157 0 0 0 1 0"/>
<feBlend mode="normal" in2="BackgroundImageFix" result="effect1_dropShadow_102_3224"/>
<feBlend mode="normal" in="SourceGraphic" in2="effect1_dropShadow_102_3224" result="shape"/>
</filter>
</defs>
</svg>
