<svg width="40" height="40" viewBox="0 0 40 40" fill="none" xmlns="http://www.w3.org/2000/svg">
<path d="M39.0572 13.7374C38.3838 11.7172 37.4411 9.96633 36.229 8.21549C35.0168 6.59933 33.5354 5.11785 31.9192 3.90572C30.1684 2.6936 28.2828 1.61616 26.3973 0.942761C24.3771 0.26936 22.3569 0 20.0673 0C17.9125 0 15.7576 0.26936 13.7374 0.942761C11.7172 1.61616 9.83165 2.6936 8.21549 3.90572C6.59933 5.11785 5.11785 6.59933 3.90572 8.21549C2.6936 9.83165 1.61616 11.7172 1.07744 13.7374C0.40404 15.7576 0 17.7778 0 20.0673C0 22.2222 0.40404 24.3771 1.07744 26.3973C1.61616 28.2828 2.6936 30.1683 3.90572 31.7845C5.11785 33.4007 6.59933 34.8822 8.21549 36.0943C9.02357 36.7677 9.83165 37.3064 10.7744 37.7104C10.7744 37.7104 10.9091 37.7104 10.9091 37.8451C11.8519 38.2492 12.7946 38.6532 13.7374 39.0572C15.7576 39.7306 17.9125 40 20.0673 40C22.2222 40 24.3771 39.7306 26.3973 39.0572C28.4175 38.3838 30.1684 37.4411 31.9192 36.229C33.5354 35.0168 35.0168 33.5354 36.229 31.9192C37.4411 30.303 38.3838 28.4175 39.0572 26.3973C39.7306 24.3771 40 22.3569 40 20.0673C40 17.7778 39.7306 15.7576 39.0572 13.7374ZM9.29293 34.7475C7.81145 33.5354 6.46465 32.3232 5.38721 30.7071C4.30976 29.2256 3.367 27.4747 2.82828 25.7239C2.15488 23.8384 1.88552 21.9529 1.88552 19.9327C1.88552 17.9125 2.15488 16.0269 2.82828 14.1414C3.367 12.3906 4.17508 10.7744 5.38721 9.29293C6.46465 7.81145 7.81145 6.46465 9.29293 5.38721C10.7744 4.17508 12.3906 3.367 14.2761 2.6936C16.0269 2.0202 18.0471 1.75084 20.0673 1.75084C22.0875 1.75084 23.9731 2.0202 25.7239 2.6936L9.15825 22.0875H19.798L11.5825 36.0943C10.7744 35.6902 9.96633 35.2862 9.29293 34.7475ZM37.3064 25.7239C36.633 27.6094 35.8249 29.2256 34.7475 30.7071C33.67 32.1885 32.3232 33.5354 30.8417 34.6128C29.3603 35.6902 27.6094 36.633 25.8586 37.1717C24.1077 37.8451 22.0875 38.1145 20.0673 38.1145C18.0471 38.1145 16.1616 37.8451 14.2761 37.1717C13.6027 36.9024 12.9293 36.633 12.2559 36.3636L30.9764 16.9697H19.6633L26.1279 2.6936C27.8788 3.23232 29.3603 4.17508 30.8417 5.11784C32.3232 6.19529 33.67 7.54209 34.7475 9.02357C35.8249 10.505 36.7677 12.2559 37.3064 14.0067C37.9798 15.7576 38.2492 17.7778 38.2492 19.798C38.2492 21.9529 37.8451 23.9731 37.3064 25.7239Z" fill="#FFFF00"/>
<path d="M10.909 37.8452L12.2558 36.4984L30.8417 17.1044H19.6633L25.9932 2.82833L26.6666 1.61621L25.5892 2.69365L9.1582 22.0876H19.7979L11.7171 36.229L10.7744 37.7105L10.909 37.8452Z" fill="#FFFF00"/>
</svg>
