<svg width="60" height="54" viewBox="0 0 60 54" fill="none" xmlns="http://www.w3.org/2000/svg">
<g filter="url(#filter0_d_102_3217)">
<path d="M40.1645 15.7904C40.0786 15.7476 39.9712 15.719 39.9067 15.6547C39.2481 15.0119 38.5966 14.362 37.9522 13.7048C37.3866 13.1263 37.6014 12.2478 38.346 12.0407C38.704 11.9407 39.0261 12.0264 39.2839 12.2835C40.6012 13.5834 41.9113 14.8905 43.2143 16.2047C43.6153 16.6118 43.6153 17.1689 43.2143 17.576C41.9042 18.8974 40.594 20.2116 39.2695 21.5115C38.8686 21.9043 38.2744 21.8901 37.895 21.5115C37.5084 21.1258 37.494 20.5544 37.8878 20.1402C38.5465 19.4616 39.2266 18.7974 39.8924 18.126C39.964 18.0546 40.0284 17.9903 40.1215 17.8832C39.9998 17.876 39.9282 17.8617 39.8495 17.8617C38.167 17.8617 36.4846 17.8546 34.8021 17.8617C31.9456 17.8689 29.8336 19.9259 29.7548 22.7757C29.6904 25.1113 28.731 26.9897 26.8267 28.3682C25.631 29.2325 24.2708 29.6182 22.796 29.6253C20.8987 29.6324 19.0015 29.6324 17.1043 29.6253C16.3239 29.6253 15.8299 28.9968 16.0662 28.3182C16.2094 27.904 16.5817 27.6611 17.0971 27.6611C18.4288 27.6611 19.7604 27.6611 21.0992 27.6611C21.7722 27.6611 22.438 27.6683 23.111 27.654C25.3876 27.5897 27.4066 25.7898 27.7144 23.5328C27.8075 22.8543 27.7932 22.1543 27.9292 21.4901C28.416 19.0759 29.8336 17.3903 32.0959 16.419C32.9622 16.0476 33.8786 15.9119 34.8164 15.919C36.4702 15.9261 38.1241 15.919 39.785 15.919C39.8781 15.919 39.9712 15.919 40.0714 15.919C40.1072 15.8761 40.1358 15.8333 40.1645 15.7904Z" fill="#51FD97"/>
<path d="M40.1504 29.6253C39.9785 29.6253 39.8783 29.6253 39.7852 29.6253C38.1243 29.6253 36.4562 29.6253 34.7952 29.6253C33.0555 29.6182 31.5162 29.0825 30.1846 27.954C29.7121 27.554 29.6262 26.9683 29.9913 26.5327C30.3493 26.097 30.9506 26.0398 31.4232 26.4398C32.4541 27.3112 33.6425 27.6826 34.9885 27.6612C36.5922 27.6326 38.1887 27.654 39.7924 27.654C39.8855 27.654 39.9857 27.654 40.136 27.654C40.043 27.5469 39.9857 27.4826 39.9284 27.4255C39.2626 26.7612 38.5968 26.1041 37.9381 25.4327C37.6446 25.1399 37.5658 24.7828 37.7019 24.3971C37.8379 24.0185 38.1243 23.8042 38.518 23.7614C38.833 23.7257 39.1051 23.8328 39.3199 24.0542C40.6157 25.347 41.9187 26.6326 43.2074 27.9397C43.6226 28.354 43.6226 28.9182 43.2146 29.3325C41.9116 30.6467 40.6014 31.9537 39.2841 33.2537C38.8688 33.6608 38.2675 33.6465 37.888 33.2608C37.4943 32.8608 37.5014 32.2752 37.931 31.8466C38.6397 31.1252 39.37 30.411 40.1504 29.6253Z" fill="#51FD97"/>
<path d="M20.1972 15.9188C21.1709 15.9188 22.1517 15.8974 23.1254 15.926C24.7577 15.9688 26.1896 16.5617 27.421 17.6259C27.8434 17.9901 27.9007 18.5758 27.5642 18.9901C27.2205 19.4186 26.6263 19.4972 26.1753 19.1258C25.4235 18.5044 24.5859 18.0687 23.6122 17.933C23.3044 17.8902 22.9894 17.8687 22.6743 17.8687C20.8416 17.8616 19.0088 17.8687 17.1688 17.8616C17.0113 17.8616 16.8467 17.8544 16.6892 17.8116C16.231 17.683 15.9446 17.2188 16.009 16.7617C16.0735 16.2903 16.4529 15.926 16.9397 15.9188C18.0351 15.9046 19.1162 15.9188 20.1972 15.9188Z" fill="#51FD97"/>
</g>
<defs>
<filter id="filter0_d_102_3217" x="0" y="0" width="59.5198" height="53.5544" filterUnits="userSpaceOnUse" color-interpolation-filters="sRGB">
<feFlood flood-opacity="0" result="BackgroundImageFix"/>
<feColorMatrix in="SourceAlpha" type="matrix" values="0 0 0 0 0 0 0 0 0 0 0 0 0 0 0 0 0 0 127 0" result="hardAlpha"/>
<feOffset dy="4"/>
<feGaussianBlur stdDeviation="8"/>
<feComposite in2="hardAlpha" operator="out"/>
<feColorMatrix type="matrix" values="0 0 0 0 0.317647 0 0 0 0 0.992157 0 0 0 0 0.592157 0 0 0 1 0"/>
<feBlend mode="normal" in2="BackgroundImageFix" result="effect1_dropShadow_102_3217"/>
<feBlend mode="normal" in="SourceGraphic" in2="effect1_dropShadow_102_3217" result="shape"/>
</filter>
</defs>
</svg>
