<svg width="59" height="54" viewBox="0 0 59 54" fill="none" xmlns="http://www.w3.org/2000/svg">
<g filter="url(#filter0_d_286_6501)">
<path d="M42.9934 19.8557C42.855 20.4393 42.7035 21.0164 42.5717 21.6C41.7216 25.4361 40.8716 29.2721 40.0216 33.1082C39.8898 33.7115 39.5735 33.9672 38.9804 33.9672C31.7056 33.9803 24.4375 33.9869 17.1627 34C17.0375 34 16.9189 34 16.7937 33.9803C16.339 33.9213 16.0359 33.5869 16.0029 33.1344C15.9963 33.0492 16.0029 32.9574 16.0029 32.8721C16.0029 26.2885 16.0029 19.7049 16.0029 13.1213C16.0029 12.3279 16.3258 12 17.1165 12C19.2318 12 21.3536 12 23.4688 12C23.8378 12 24.1475 12.0984 24.4375 12.3279C25.5445 13.1869 26.6647 14.0328 27.7849 14.8787C27.9035 14.9705 28.0814 15.0295 28.233 15.0295C31.7649 15.0361 35.2969 15.0361 38.8289 15.0361C39.6591 15.0361 39.982 15.3508 39.982 16.1705C39.982 17.0098 39.982 17.8426 39.982 18.7213C40.2456 18.7213 40.4894 18.7213 40.7332 18.7213C41.0759 18.7213 41.4185 18.741 41.7612 18.7148C42.3213 18.6754 42.7562 18.8393 43 19.3836C42.9934 19.541 42.9934 19.6984 42.9934 19.8557ZM19.3306 32.1639C25.7026 32.1639 32.0483 32.1639 38.394 32.1639C39.2572 28.282 40.1204 24.4066 40.977 20.5246C34.5984 20.5246 28.2593 20.5246 21.9137 20.5246C21.0505 24.4066 20.1938 28.2754 19.3306 32.1639ZM38.1765 18.7213C38.1765 18.0787 38.1765 17.4623 38.1765 16.8197C38.0579 16.8197 37.9525 16.8197 37.8536 16.8197C34.5325 16.8197 31.2114 16.8197 27.8903 16.8262C27.5279 16.8262 27.2314 16.7213 26.9415 16.5049C25.8344 15.6459 24.7142 14.8 23.594 13.9541C23.4754 13.8623 23.2975 13.8033 23.1459 13.8033C21.459 13.7902 19.7721 13.7967 18.0852 13.7967C17.9929 13.7967 17.9007 13.7967 17.8084 13.7967C17.8084 19.4361 17.8084 25.0295 17.8084 30.6295C17.8546 30.5508 17.8743 30.4656 17.8941 30.3869C18.6914 26.7934 19.4888 23.1934 20.2861 19.6C20.3256 19.4229 20.3915 19.2459 20.4969 19.1016C20.7144 18.7869 21.0439 18.7344 21.4063 18.7344C26.869 18.7344 32.3316 18.7344 37.7943 18.7344C37.9195 18.7213 38.0381 18.7213 38.1765 18.7213Z" fill="#51FD97"/>
</g>
<defs>
<filter id="filter0_d_286_6501" x="0" y="0" width="59" height="54" filterUnits="userSpaceOnUse" color-interpolation-filters="sRGB">
<feFlood flood-opacity="0" result="BackgroundImageFix"/>
<feColorMatrix in="SourceAlpha" type="matrix" values="0 0 0 0 0 0 0 0 0 0 0 0 0 0 0 0 0 0 127 0" result="hardAlpha"/>
<feOffset dy="4"/>
<feGaussianBlur stdDeviation="8"/>
<feComposite in2="hardAlpha" operator="out"/>
<feColorMatrix type="matrix" values="0 0 0 0 0.317647 0 0 0 0 0.992157 0 0 0 0 0.592157 0 0 0 1 0"/>
<feBlend mode="normal" in2="BackgroundImageFix" result="effect1_dropShadow_286_6501"/>
<feBlend mode="normal" in="SourceGraphic" in2="effect1_dropShadow_286_6501" result="shape"/>
</filter>
</defs>
</svg>
