<svg width="59" height="50" viewBox="0 0 59 50" fill="none" xmlns="http://www.w3.org/2000/svg">
<g filter="url(#filter0_d_286_6498)">
<path d="M43 21.6149C42.8347 22.0273 42.5749 22.3544 42.0711 22.4611C41.2838 22.6318 40.5832 22.134 40.5517 21.3731C40.5359 20.9464 40.5438 20.5197 40.5438 20.093C40.5438 18.7916 40.5438 17.4973 40.5438 16.1959C40.5438 16.0964 40.5438 15.9968 40.5438 15.8332C40.4021 15.9541 40.3155 16.0253 40.2289 16.1035C37.7097 18.372 35.1827 20.6406 32.6635 22.9091C31.9472 23.5492 31.3095 23.5492 30.601 22.9091C29.7744 22.1553 28.9478 21.4015 28.0582 20.605C27.9637 20.7188 27.9007 20.8184 27.8141 20.8966C24.6258 23.7838 21.4296 26.664 18.2413 29.5441C17.9737 29.7859 17.6903 29.985 17.2966 29.9992C16.7849 30.0135 16.3913 29.8286 16.1551 29.4232C15.9111 29.0107 15.9583 28.5983 16.2732 28.2214C16.3519 28.1289 16.4385 28.0507 16.533 27.9725C20.0441 24.8008 23.5552 21.6291 27.0663 18.4574C27.7748 17.8173 28.4282 17.8173 29.1288 18.4503C29.9633 19.2041 30.7899 19.9508 31.6323 20.7117C34.0097 18.5427 36.3714 16.3808 38.7253 14.219C38.6781 14.219 38.5678 14.219 38.4576 14.219C36.5289 14.219 34.5923 14.2261 32.6635 14.219C31.7346 14.2118 31.1363 13.4225 31.4984 12.6829C31.7425 12.1922 32.1991 12.0073 32.7738 12.0073C33.8838 12.0073 35.0016 12.0073 36.1117 12.0073C37.8751 12.0073 39.6385 12.0215 41.4019 12.0002C42.1498 11.9931 42.7087 12.1922 43 12.8464C43 15.7764 43 18.692 43 21.6149Z" fill="#51FD97"/>
</g>
<defs>
<filter id="filter0_d_286_6498" x="0" y="0" width="59" height="50" filterUnits="userSpaceOnUse" color-interpolation-filters="sRGB">
<feFlood flood-opacity="0" result="BackgroundImageFix"/>
<feColorMatrix in="SourceAlpha" type="matrix" values="0 0 0 0 0 0 0 0 0 0 0 0 0 0 0 0 0 0 127 0" result="hardAlpha"/>
<feOffset dy="4"/>
<feGaussianBlur stdDeviation="8"/>
<feComposite in2="hardAlpha" operator="out"/>
<feColorMatrix type="matrix" values="0 0 0 0 0.317647 0 0 0 0 0.992157 0 0 0 0 0.592157 0 0 0 1 0"/>
<feBlend mode="normal" in2="BackgroundImageFix" result="effect1_dropShadow_286_6498"/>
<feBlend mode="normal" in="SourceGraphic" in2="effect1_dropShadow_286_6498" result="shape"/>
</filter>
</defs>
</svg>
