<svg width="59" height="49" viewBox="0 0 59 49" fill="none" xmlns="http://www.w3.org/2000/svg">
<g filter="url(#filter0_d_286_6506)">
<path d="M29.5188 12C35.4972 12.242 39.9913 14.8128 42.8456 19.9847C43.0532 20.3678 43.0532 20.7105 42.8352 21.0836C39.763 26.5277 35.0301 29.2799 28.647 28.9775C22.9904 28.7053 18.8492 25.9228 16.161 21.0836C15.9534 20.7005 15.943 20.3678 16.1506 19.9847C18.6312 15.458 22.4611 12.8267 27.6921 12.121C27.8686 12.1008 28.0554 12.0706 28.2318 12.0605C28.6574 12.0403 29.0829 12.0202 29.5188 12ZM29.5085 13.5324C24.402 13.724 20.489 15.8613 17.8631 20.1661C17.7075 20.4182 17.6971 20.6198 17.8631 20.8819C20.1881 24.713 23.5924 27.0116 28.1592 27.3947C33.8469 27.8786 38.1958 25.6203 41.1642 20.8719C41.3199 20.6299 41.3199 20.4383 41.1746 20.1863C38.5383 15.8814 34.6254 13.734 29.5085 13.5324Z" fill="#51FD97"/>
<path d="M24.5157 20.509C24.526 17.8575 26.7679 15.6799 29.508 15.69C32.2377 15.69 34.4796 17.8676 34.4796 20.5292C34.4796 23.2008 32.2273 25.3784 29.4769 25.3684C26.7368 25.3583 24.5053 23.1706 24.5157 20.509ZM26.114 20.5393C26.1244 22.364 27.6501 23.8259 29.5184 23.8158C31.3866 23.7956 32.8708 22.3439 32.8812 20.5393C32.8916 18.7246 31.3762 17.2425 29.4976 17.2425C27.619 17.2425 26.1037 18.7246 26.114 20.5393Z" fill="#51FD97"/>
</g>
<defs>
<filter id="filter0_d_286_6506" x="0" y="0" width="59" height="49" filterUnits="userSpaceOnUse" color-interpolation-filters="sRGB">
<feFlood flood-opacity="0" result="BackgroundImageFix"/>
<feColorMatrix in="SourceAlpha" type="matrix" values="0 0 0 0 0 0 0 0 0 0 0 0 0 0 0 0 0 0 127 0" result="hardAlpha"/>
<feOffset dy="4"/>
<feGaussianBlur stdDeviation="8"/>
<feComposite in2="hardAlpha" operator="out"/>
<feColorMatrix type="matrix" values="0 0 0 0 0.317647 0 0 0 0 0.992157 0 0 0 0 0.592157 0 0 0 1 0"/>
<feBlend mode="normal" in2="BackgroundImageFix" result="effect1_dropShadow_286_6506"/>
<feBlend mode="normal" in="SourceGraphic" in2="effect1_dropShadow_286_6506" result="shape"/>
</filter>
</defs>
</svg>
