<svg width="59" height="59" viewBox="0 0 59 59" fill="none" xmlns="http://www.w3.org/2000/svg">
<g filter="url(#filter0_d_286_6509)">
<path d="M43 24.7077C43 25.2351 43 25.7625 43 26.2899C42.9802 26.481 42.9538 26.6722 42.934 26.8568C42.6109 29.7641 41.5029 32.3219 39.5442 34.4974C37.4667 36.8047 34.8881 38.2419 31.8214 38.789C31.3135 38.8813 30.7991 38.9275 30.2847 39C29.7571 39 29.2295 39 28.7019 39C28.2468 38.9407 27.7984 38.9011 27.3499 38.8286C24.5272 38.3605 22.0739 37.1409 20.0492 35.1237C17.0155 32.0912 15.6767 28.406 16.0658 24.1407C16.323 21.2796 17.4441 18.7482 19.3633 16.5925C21.9024 13.7379 25.1076 12.2019 28.9261 12.0173C31.5905 11.8855 34.0967 12.5052 36.3786 13.8962C39.8871 16.0321 42.0371 19.1305 42.7956 23.1717C42.8813 23.6793 42.934 24.1935 43 24.7077ZM41.2655 25.4988C41.2655 19.0053 35.996 13.7314 29.4933 13.7314C22.9972 13.7314 17.7211 18.9987 17.7211 25.4988C17.7211 31.9923 22.9972 37.2662 29.4933 37.2662C35.9894 37.2728 41.2655 31.9989 41.2655 25.4988Z" fill="#51FD97"/>
<path d="M26.0108 29.718C25.6415 29.718 25.3117 29.7246 24.9754 29.718C24.4412 29.7114 24.0653 29.3554 24.0587 28.861C24.0521 28.3666 24.4214 28.004 24.9556 27.9842C25.2986 27.9776 25.6349 27.9842 26.0108 27.9842C26.0108 27.7667 26.0108 27.5821 26.0108 27.3909C26.0108 27.2063 26.0108 27.0217 26.0108 26.8042C25.6679 26.8042 25.3447 26.8305 25.0282 26.7976C24.7973 26.7712 24.5335 26.6987 24.3555 26.5668C24.0653 26.3493 23.9993 26.0197 24.1114 25.6637C24.2236 25.3275 24.5203 25.0967 24.8831 25.0835C25.2524 25.0704 25.6151 25.0835 26.0108 25.0835C26.0108 24.9583 26.0108 24.866 26.0108 24.7671C26.0108 23.0861 26.0108 21.4116 26.0108 19.7305C26.0108 19.0383 26.3406 18.7087 27.0265 18.7087C28.3982 18.7153 29.77 18.6823 31.1418 18.7549C32.6191 18.8406 33.8589 19.4602 34.6899 20.7326C36.0617 22.8289 35.2109 25.4461 32.8895 26.3822C32.1113 26.6987 31.2935 26.8042 30.4625 26.8042C29.6645 26.8108 28.8599 26.8042 28.0619 26.8042C27.9696 26.8042 27.8706 26.8042 27.7585 26.8042C27.7585 27.2063 27.7585 27.5755 27.7585 27.9842C27.864 27.9842 27.963 27.9842 28.0685 27.9842C29.4996 27.9842 30.9373 27.9842 32.3685 27.9842C32.8301 27.9842 33.1599 28.1886 33.2918 28.5511C33.5028 29.1379 33.0807 29.7114 32.4278 29.7114C31.3396 29.718 30.2448 29.7114 29.1567 29.7114C28.7016 29.7114 28.2465 29.7114 27.7453 29.7114C27.7453 29.8367 27.7453 29.9421 27.7453 30.0542C27.7453 30.4959 27.7519 30.931 27.7453 31.3727C27.7321 31.9133 27.343 32.3022 26.855 32.2824C26.3604 32.2627 26.024 31.8869 26.0174 31.3529C26.0042 30.8255 26.0108 30.2915 26.0108 29.718ZM27.7519 25.044C28.8269 25.044 29.8689 25.0506 30.9175 25.044C31.4386 25.044 31.9464 24.9253 32.4146 24.6946C33.5622 24.1277 33.9447 22.8553 33.2852 21.7544C32.8169 20.9699 32.0783 20.5612 31.2011 20.5018C30.0734 20.4293 28.939 20.4557 27.8047 20.4425C27.7915 20.4425 27.7717 20.4557 27.7453 20.4755C27.7519 21.9917 27.7519 23.5146 27.7519 25.044Z" fill="#51FD97"/>
</g>
<defs>
<filter id="filter0_d_286_6509" x="0" y="0" width="59" height="59" filterUnits="userSpaceOnUse" color-interpolation-filters="sRGB">
<feFlood flood-opacity="0" result="BackgroundImageFix"/>
<feColorMatrix in="SourceAlpha" type="matrix" values="0 0 0 0 0 0 0 0 0 0 0 0 0 0 0 0 0 0 127 0" result="hardAlpha"/>
<feOffset dy="4"/>
<feGaussianBlur stdDeviation="8"/>
<feComposite in2="hardAlpha" operator="out"/>
<feColorMatrix type="matrix" values="0 0 0 0 0.317647 0 0 0 0 0.992157 0 0 0 0 0.592157 0 0 0 1 0"/>
<feBlend mode="normal" in2="BackgroundImageFix" result="effect1_dropShadow_286_6509"/>
<feBlend mode="normal" in="SourceGraphic" in2="effect1_dropShadow_286_6509" result="shape"/>
</filter>
</defs>
</svg>
