<svg width="59" height="59" viewBox="0 0 59 59" fill="none" xmlns="http://www.w3.org/2000/svg">
<g filter="url(#filter0_d_286_6503)">
<path d="M42.9994 26.7394C42.7605 27.3098 42.3108 27.4788 41.7136 27.4717C38.0248 27.4577 34.3361 27.4647 30.6474 27.4647C29.3757 27.4647 28.4201 26.9225 27.851 25.7605C27.6332 25.3239 27.591 24.852 27.591 24.3732C27.591 20.6408 27.598 16.9084 27.584 13.176C27.584 12.5915 27.7948 12.1972 28.3498 12C28.7011 12 29.0524 12 29.4038 12C29.481 12.0141 29.5583 12.0352 29.6356 12.0423C31.0619 12.1479 32.4531 12.4366 33.774 12.9859C38.7626 15.0774 41.7838 18.7817 42.7956 24.1126C42.894 24.6126 42.9361 25.1196 42.9994 25.6267C42.9994 25.9999 42.9994 26.3661 42.9994 26.7394ZM29.5091 13.9789C29.5091 14.0845 29.5091 14.169 29.5091 14.2606C29.5091 17.6408 29.5091 21.0211 29.5091 24.3943C29.5091 25.1549 29.8745 25.5211 30.6404 25.5211C34.0059 25.5211 37.3644 25.5211 40.7299 25.5211C40.8212 25.5211 40.9196 25.5211 41.018 25.5211C40.6315 19.6408 35.8538 14.4648 29.5091 13.9789Z" fill="#51FD97"/>
<path d="M30.4443 38.9927C23.1933 39.1899 17.7902 35.3167 16.3498 29.359C14.8603 23.183 18.2469 16.8872 24.2402 14.6971C24.8444 14.4788 25.3925 14.69 25.5962 15.2253C25.8 15.7675 25.5189 16.2957 24.9006 16.521C22.3572 17.4647 20.439 19.1407 19.1603 21.5351C16.8206 25.9294 17.9658 31.528 21.8302 34.6688C24.0786 36.4927 26.6502 37.3589 29.5238 37.0561C33.7887 36.6054 36.7538 34.3167 38.419 30.3519C38.4611 30.2463 38.4962 30.1336 38.5384 30.028C38.7492 29.4998 39.2691 29.2533 39.775 29.4364C40.2739 29.6195 40.5198 30.1547 40.3301 30.69C39.7961 32.2181 39.0091 33.6054 37.9271 34.8097C35.475 37.5491 32.3975 38.9293 30.4443 38.9927Z" fill="#51FD97"/>
</g>
<defs>
<filter id="filter0_d_286_6503" x="0" y="0" width="59" height="59" filterUnits="userSpaceOnUse" color-interpolation-filters="sRGB">
<feFlood flood-opacity="0" result="BackgroundImageFix"/>
<feColorMatrix in="SourceAlpha" type="matrix" values="0 0 0 0 0 0 0 0 0 0 0 0 0 0 0 0 0 0 127 0" result="hardAlpha"/>
<feOffset dy="4"/>
<feGaussianBlur stdDeviation="8"/>
<feComposite in2="hardAlpha" operator="out"/>
<feColorMatrix type="matrix" values="0 0 0 0 0.317647 0 0 0 0 0.992157 0 0 0 0 0.592157 0 0 0 1 0"/>
<feBlend mode="normal" in2="BackgroundImageFix" result="effect1_dropShadow_286_6503"/>
<feBlend mode="normal" in="SourceGraphic" in2="effect1_dropShadow_286_6503" result="shape"/>
</filter>
</defs>
</svg>
