<svg width="60" height="60" viewBox="0 0 60 60" fill="none" xmlns="http://www.w3.org/2000/svg">
<g filter="url(#filter0_d_286_6487)">
<path d="M30.6039 37.1057C30.6039 37.5842 30.6039 38.0342 30.6039 38.4913C30.6039 39.0342 30.2388 39.4199 29.7448 39.4199C29.2508 39.4199 28.8929 39.0342 28.8929 38.4842C28.8929 38.0271 28.8929 37.5771 28.8929 37.1057C26.0721 36.8486 23.6451 35.7629 21.6548 33.7702C19.6717 31.7917 18.5763 29.3776 18.3257 26.5564C17.8389 26.5564 17.3592 26.5635 16.8795 26.5564C16.2423 26.5492 15.8271 25.9421 16.0705 25.385C16.2137 25.0422 16.4929 24.8636 16.8652 24.8493C17.1086 24.8422 17.3449 24.8493 17.5883 24.8493C17.8174 24.8493 18.0536 24.8493 18.3185 24.8493C18.5691 22.0495 19.6573 19.6282 21.6476 17.6426C23.6379 15.657 26.0578 14.5642 28.8857 14.3071C28.8857 13.8143 28.8785 13.3357 28.8857 12.8572C28.8929 12.3715 29.2651 12.0001 29.7305 12.0001C30.2102 11.993 30.5896 12.3715 30.5968 12.8643C30.6039 13.15 30.5968 13.4357 30.5968 13.7214C30.5968 13.9071 30.5968 14.0928 30.5968 14.3071C33.4104 14.5571 35.8302 15.6499 37.8205 17.6283C39.8108 19.6139 40.9062 22.0352 41.1639 24.8493C41.6221 24.8493 42.0732 24.8493 42.517 24.8493C43.0898 24.8493 43.4764 25.1993 43.4835 25.6993C43.4835 26.2064 43.0969 26.5564 42.5242 26.5635C42.0803 26.5635 41.6293 26.5635 41.1639 26.5635C40.9133 29.3705 39.818 31.7917 37.8277 33.7773C35.8445 35.7629 33.4247 36.8629 30.6039 37.1057ZM39.4171 26.5635C39.1665 26.5635 38.9159 26.5635 38.6725 26.5635C38.1499 26.5564 37.7632 26.1849 37.7704 25.6993C37.7776 25.2136 38.157 24.8565 38.6796 24.8493C38.9302 24.8493 39.1736 24.8493 39.4242 24.8493C39.1092 20.2639 35.2145 16.3641 30.6039 16.057C30.6039 16.307 30.6039 16.557 30.6039 16.7998C30.5968 17.3212 30.2316 17.7069 29.752 17.7069C29.2723 17.7069 28.9 17.3212 28.8929 16.7998C28.8929 16.5498 28.8929 16.307 28.8929 16.057C24.1749 16.3498 20.2874 20.4853 20.0941 24.8493C20.3375 24.8493 20.5737 24.8493 20.8171 24.8493C21.3398 24.8565 21.7264 25.2136 21.7335 25.6993C21.7407 26.1921 21.3469 26.5635 20.81 26.5635C20.5666 26.5635 20.316 26.5635 20.0726 26.5635C20.4807 31.606 24.7762 35.1415 28.8929 35.3487C28.8929 35.1058 28.8929 34.8701 28.8929 34.6273C28.9 34.0845 29.2651 33.6988 29.7591 33.7059C30.246 33.7131 30.6039 34.0987 30.6111 34.6201C30.6111 34.8701 30.6111 35.113 30.6111 35.363C35.4723 34.9987 39.1665 30.8775 39.4171 26.5635Z" fill="#51FD97"/>
<path d="M29.4705 32.2537C27.8989 32.2537 26.3272 32.2537 24.7556 32.2537C24.1806 32.2537 23.9659 32.0542 23.9812 31.4786C24.0042 30.6957 23.9582 29.8899 24.1039 29.1301C24.4412 27.411 25.9975 26.1676 27.7455 26.1369C28.9108 26.1139 30.0838 26.1062 31.2492 26.1369C33.3115 26.183 34.9828 27.8945 35.0134 29.959C35.0211 30.4885 35.0211 31.0104 35.0134 31.54C35.0134 32.0388 34.7911 32.2537 34.2928 32.2614C32.6905 32.2614 31.0805 32.2537 29.4705 32.2537ZM25.1772 31.0104C28.0905 31.0104 30.9348 31.0104 33.7945 31.0104C33.7945 30.6343 33.8175 30.2736 33.7945 29.9283C33.6871 28.401 32.5601 27.3572 31.0268 27.3572C29.9765 27.3572 28.9185 27.3496 27.8682 27.3572C26.6109 27.3726 25.5222 28.2398 25.2845 29.4831C25.1849 29.9666 25.2079 30.4808 25.1772 31.0104Z" fill="#51FD97" stroke="#51FD97" stroke-width="0.6" stroke-miterlimit="10"/>
<path d="M32.5613 21.8239C32.5613 23.5277 31.189 24.8938 29.4947 24.8862C27.7927 24.8785 26.4357 23.5047 26.4434 21.8086C26.4511 20.1201 27.808 18.7694 29.5024 18.7617C31.2043 18.7617 32.5613 20.1201 32.5613 21.8239ZM31.3423 21.8316C31.3423 20.8109 30.522 19.982 29.5024 19.982C28.498 19.982 27.67 20.7955 27.6624 21.8009C27.6547 22.8217 28.475 23.6582 29.487 23.6659C30.5067 23.6735 31.3423 22.8447 31.3423 21.8316Z" fill="#51FD97" stroke="#51FD97" stroke-width="0.6" stroke-miterlimit="10"/>
</g>
<defs>
<filter id="filter0_d_286_6487" x="0" y="0" width="59.4844" height="59.4199" filterUnits="userSpaceOnUse" color-interpolation-filters="sRGB">
<feFlood flood-opacity="0" result="BackgroundImageFix"/>
<feColorMatrix in="SourceAlpha" type="matrix" values="0 0 0 0 0 0 0 0 0 0 0 0 0 0 0 0 0 0 127 0" result="hardAlpha"/>
<feOffset dy="4"/>
<feGaussianBlur stdDeviation="8"/>
<feComposite in2="hardAlpha" operator="out"/>
<feColorMatrix type="matrix" values="0 0 0 0 0.317647 0 0 0 0 0.992157 0 0 0 0 0.592157 0 0 0 1 0"/>
<feBlend mode="normal" in2="BackgroundImageFix" result="effect1_dropShadow_286_6487"/>
<feBlend mode="normal" in="SourceGraphic" in2="effect1_dropShadow_286_6487" result="shape"/>
</filter>
</defs>
</svg>
