<svg width="59" height="53" viewBox="0 0 59 53" fill="none" xmlns="http://www.w3.org/2000/svg">
<g filter="url(#filter0_d_286_6483)">
<path d="M39.7092 15.6929C39.6249 15.6512 39.5195 15.6233 39.4563 15.5607C38.8101 14.9344 38.1709 14.3012 37.5387 13.661C36.9838 13.0973 37.1945 12.2414 37.925 12.0396C38.2763 11.9422 38.5923 12.0257 38.8452 12.2762C40.1376 13.5427 41.423 14.8161 42.7014 16.0965C43.0948 16.4932 43.0948 17.036 42.7014 17.4326C41.416 18.72 40.1306 20.0004 38.8312 21.2668C38.4378 21.6496 37.8548 21.6356 37.4825 21.2668C37.1032 20.8911 37.0892 20.3344 37.4755 19.9308C38.1217 19.2697 38.789 18.6225 39.4422 17.9684C39.5125 17.8988 39.5757 17.8362 39.667 17.7318C39.5476 17.7249 39.4774 17.7109 39.4001 17.7109C37.7494 17.7109 36.0988 17.704 34.4481 17.7109C31.6455 17.7179 29.5734 19.722 29.4961 22.4985C29.4329 24.774 28.4917 26.6041 26.6233 27.9472C25.4502 28.7892 24.1157 29.1649 22.6687 29.1719C20.8073 29.1789 18.9459 29.1789 17.0845 29.1719C16.3189 29.1719 15.8343 28.5595 16.0661 27.8985C16.2065 27.4949 16.5718 27.2583 17.0775 27.2583C18.384 27.2583 19.6905 27.2583 21.004 27.2583C21.6643 27.2583 22.3175 27.2652 22.9778 27.2513C25.2114 27.1887 27.1922 25.4351 27.4943 23.2361C27.5856 22.5751 27.5715 21.8931 27.705 21.246C28.1826 18.8939 29.5734 17.2517 31.793 16.3053C32.6429 15.9434 33.542 15.8112 34.4622 15.8182C36.0847 15.8251 37.7073 15.8182 39.3369 15.8182C39.4282 15.8182 39.5195 15.8182 39.6179 15.8182C39.653 15.7764 39.6811 15.7347 39.7092 15.6929Z" fill="#51FD97"/>
<path d="M39.6949 29.1718C39.5264 29.1718 39.428 29.1718 39.3367 29.1718C37.7071 29.1718 36.0705 29.1718 34.4409 29.1718C32.7341 29.1649 31.2239 28.6429 29.9174 27.5435C29.4538 27.1538 29.3695 26.5832 29.7277 26.1587C30.0789 25.7342 30.669 25.6785 31.1326 26.0682C32.144 26.9172 33.31 27.279 34.6306 27.2582C36.204 27.2303 37.7703 27.2512 39.3437 27.2512C39.435 27.2512 39.5334 27.2512 39.6809 27.2512C39.5896 27.1468 39.5334 27.0842 39.4772 27.0285C38.8239 26.3814 38.1707 25.7412 37.5245 25.0871C37.2365 24.8018 37.1592 24.4538 37.2927 24.0781C37.4262 23.7092 37.7071 23.5005 38.0934 23.4587C38.4025 23.4239 38.6694 23.5283 38.8801 23.744C40.1515 25.0036 41.4299 26.2561 42.6942 27.5296C43.1016 27.9332 43.1016 28.4829 42.7013 28.8865C41.4229 30.1669 40.1375 31.4403 38.845 32.7068C38.4376 33.1035 37.8476 33.0896 37.4753 32.7138C37.089 32.3241 37.096 31.7535 37.5175 31.336C38.2128 30.6331 38.9293 29.9373 39.6949 29.1718Z" fill="#51FD97"/>
<path d="M20.1179 15.8181C21.0732 15.8181 22.0355 15.7972 22.9908 15.825C24.5923 15.8668 25.9971 16.4443 27.2053 17.4812C27.6197 17.8361 27.6759 18.4067 27.3457 18.8103C27.0086 19.2278 26.4256 19.3044 25.9831 18.9425C25.2455 18.3371 24.4237 17.9126 23.4684 17.7804C23.1664 17.7387 22.8573 17.7178 22.5483 17.7178C20.7501 17.7108 18.9519 17.7178 17.1468 17.7108C16.9922 17.7108 16.8307 17.7039 16.6761 17.6621C16.2266 17.5369 15.9456 17.0845 16.0088 16.6392C16.0721 16.1799 16.4443 15.825 16.922 15.8181C17.9967 15.8041 19.0573 15.8181 20.1179 15.8181Z" fill="#51FD97"/>
</g>
<defs>
<filter id="filter0_d_286_6483" x="0" y="0" width="59" height="53" filterUnits="userSpaceOnUse" color-interpolation-filters="sRGB">
<feFlood flood-opacity="0" result="BackgroundImageFix"/>
<feColorMatrix in="SourceAlpha" type="matrix" values="0 0 0 0 0 0 0 0 0 0 0 0 0 0 0 0 0 0 127 0" result="hardAlpha"/>
<feOffset dy="4"/>
<feGaussianBlur stdDeviation="8"/>
<feComposite in2="hardAlpha" operator="out"/>
<feColorMatrix type="matrix" values="0 0 0 0 0.317647 0 0 0 0 0.992157 0 0 0 0 0.592157 0 0 0 1 0"/>
<feBlend mode="normal" in2="BackgroundImageFix" result="effect1_dropShadow_286_6483"/>
<feBlend mode="normal" in="SourceGraphic" in2="effect1_dropShadow_286_6483" result="shape"/>
</filter>
</defs>
</svg>
