<svg width="63" height="63" viewBox="0 0 63 63" fill="none" xmlns="http://www.w3.org/2000/svg">
<g filter="url(#filter0_d_286_6414)">
<path d="M44.2938 17.6168C42.2938 15.5168 39.0938 15.2168 36.6938 16.8168C35.3938 17.7168 34.5938 18.9168 34.1938 20.5168C33.7938 22.3168 34.1938 24.0168 35.3938 25.5168L35.2938 25.6168C34.3938 26.5168 33.5938 27.3168 32.6938 28.2168V18.5168C32.6938 18.5168 32.6938 17.8168 32.5938 17.5168C32.1938 15.0168 30.0938 13.1168 27.5938 13.0168C24.8938 12.8168 22.5938 14.4168 21.8938 16.9168C21.6938 17.5168 21.6938 18.1168 21.5938 18.8168C17.6938 19.3168 15.4938 24.1168 18.1938 27.6168C15.4938 31.1168 17.6938 35.9168 21.5938 36.4168C21.4938 37.7168 21.8938 38.9168 22.5938 39.9168C23.3938 41.0168 24.3938 41.7168 25.5938 42.0168C28.4938 42.6168 30.5938 41.5168 31.9938 39.1168L32.2938 38.2168C32.2938 38.1168 32.3938 37.9168 32.3938 37.8168C32.3938 37.4168 32.4938 36.8168 32.4938 36.7168V30.2168C33.6938 29.0168 34.7938 27.8168 35.9938 26.7168L36.0938 26.6168C38.8938 28.8168 42.4938 28.1168 44.4938 25.7168C46.4938 23.3168 46.4938 19.9168 44.2938 17.6168ZM30.8938 27.6168V33.9168C30.8938 34.5168 30.8938 35.1168 30.8938 35.7168V36.8168C30.8938 39.3168 28.5938 41.1168 25.8938 40.3168C24.3938 39.9168 23.3938 38.4168 23.3938 36.9168C23.3938 36.5168 23.3938 36.3168 23.5938 36.3168C24.5938 36.1168 25.3938 35.7168 26.1938 35.0168C26.5938 34.6168 26.6938 34.1168 26.3938 33.7168C25.9938 33.3168 25.4938 33.3168 25.0938 33.7168C23.7938 34.9168 21.9938 35.0168 20.4938 34.1168C18.4938 32.8168 18.1938 30.0168 19.8938 28.4168C20.3938 27.9168 20.3938 27.3168 19.8938 26.8168C18.3938 25.4168 18.3938 23.1168 19.8938 21.6168C21.2938 20.2168 23.5938 20.1168 25.0938 21.4168C25.2938 21.5168 25.4938 21.7168 25.6938 21.7168C26.0938 21.8168 26.3938 21.6168 26.5938 21.3168C26.7938 21.0168 26.6938 20.5168 26.3938 20.3168C25.6938 19.6168 24.7938 19.1168 23.7938 18.9168C23.3938 18.8168 23.3938 18.6168 23.3938 18.2168C23.4938 16.7168 24.4938 15.3168 25.8938 14.9168C28.4938 14.2168 30.7938 16.0168 30.7938 18.4168C30.8938 21.5168 30.8938 24.5168 30.8938 27.6168ZM39.9938 26.4168C37.4938 26.4168 35.3938 24.3168 35.2938 21.8168C35.2938 19.3168 37.3938 17.2168 39.8938 17.1168C42.4938 17.1168 44.5938 19.2168 44.5938 21.7168C44.6938 24.3168 42.5938 26.4168 39.9938 26.4168Z" fill="#BDFF57" stroke="#BDFF57" stroke-width="0.25" stroke-miterlimit="10"/>
<path d="M45.75 34.25C45.75 33.8358 45.4142 33.5 45 33.5C44.5858 33.5 44.25 33.8358 44.25 34.25H45.75ZM42.25 32C42.25 31.5858 41.9142 31.25 41.5 31.25C41.0858 31.25 40.75 31.5858 40.75 32H42.25ZM38.75 35.75C38.75 35.3358 38.4142 35 38 35C37.5858 35 37.25 35.3358 37.25 35.75H38.75ZM35.75 34.25C35.75 33.8358 35.4142 33.5 35 33.5C34.5858 33.5 34.25 33.8358 34.25 34.25H35.75ZM45.75 37V34.25H44.25V37H45.75ZM41.5 38.75H44V37.25H41.5V38.75ZM42.25 38V32H40.75V38H42.25ZM38 38.75H41.5V37.25H38V38.75ZM38.75 38V35.75H37.25V38H38.75ZM32 38.75H35V37.25H32V38.75ZM35 38.75H38V37.25H35V38.75ZM35.75 38V34.25H34.25V38H35.75ZM44.25 37C44.25 37.1381 44.1381 37.25 44 37.25V38.75C44.9665 38.75 45.75 37.9665 45.75 37H44.25Z" fill="#BDFF57"/>
<path d="M40.793 19.2169C41.893 19.2169 42.793 20.1169 42.793 21.2169" stroke="#BDFF57" stroke-width="1.5" stroke-miterlimit="10" stroke-linecap="round" stroke-linejoin="round"/>
</g>
<defs>
<filter id="filter0_d_286_6414" x="0.875" y="0.875" width="61.2188" height="61.4279" filterUnits="userSpaceOnUse" color-interpolation-filters="sRGB">
<feFlood flood-opacity="0" result="BackgroundImageFix"/>
<feColorMatrix in="SourceAlpha" type="matrix" values="0 0 0 0 0 0 0 0 0 0 0 0 0 0 0 0 0 0 127 0" result="hardAlpha"/>
<feOffset dy="4"/>
<feGaussianBlur stdDeviation="8"/>
<feComposite in2="hardAlpha" operator="out"/>
<feColorMatrix type="matrix" values="0 0 0 0 0.741176 0 0 0 0 1 0 0 0 0 0.341176 0 0 0 1 0"/>
<feBlend mode="normal" in2="BackgroundImageFix" result="effect1_dropShadow_286_6414"/>
<feBlend mode="normal" in="SourceGraphic" in2="effect1_dropShadow_286_6414" result="shape"/>
</filter>
</defs>
</svg>
