<svg width="61" height="63" viewBox="0 0 61 63" fill="none" xmlns="http://www.w3.org/2000/svg">
<g filter="url(#filter0_d_286_6373)">
<path d="M32.5387 28.2072L32.5387 27.4072L32.5387 24.1072L32.5387 18.5072C32.5387 18.4795 32.531 18.4058 32.5199 18.3072C32.4909 18.0501 32.4387 17.6241 32.4387 17.4072C32.4387 17.2072 32.3387 17.1072 32.3387 17.0072L32.0387 16.1072C30.5387 13.6072 28.5387 12.5072 25.6387 13.2072C24.3387 13.5072 23.3387 14.3072 22.6387 15.3072C21.8387 16.3072 21.5387 17.5072 21.6387 18.8072C17.7387 19.3072 15.4387 24.1072 18.2387 27.6072C15.5387 31.1072 17.7387 35.9072 21.6387 36.4072C21.7387 37.0072 21.7387 37.7072 21.9387 38.3072C22.6387 40.7072 24.9387 42.4072 27.5387 42.2072C30.0387 42.1072 32.1387 40.1072 32.5387 37.7072C32.5387 37.4072 32.6387 37.0072 32.6387 36.7072L32.6387 31.9072L32.5387 28.2072ZM30.7387 36.7072C30.7387 39.1072 28.4387 41.0072 25.8387 40.2072C24.3387 39.8072 23.4387 38.4072 23.3387 36.9072C23.3387 36.4072 23.3387 36.2072 23.6387 36.2072C24.6387 36.0072 25.5387 35.5072 26.2387 34.8072C26.5387 34.5072 26.6387 34.1072 26.4387 33.8072C26.2387 33.5072 25.8387 33.3072 25.5387 33.4072C25.3387 33.5072 25.1387 33.6072 24.9387 33.7072C23.4387 35.1072 21.1387 35.0072 19.7387 33.5072C18.3387 32.0072 18.3387 29.7072 19.7387 28.3072C20.2387 27.8072 20.2387 27.2072 19.7387 26.7072C18.0387 25.0072 18.3387 22.2072 20.3387 21.0072C21.7387 20.1072 23.6387 20.2072 24.9387 21.4072C25.4387 21.8072 25.9387 21.8072 26.2387 21.4072C26.5387 21.0072 26.5387 20.5072 26.0387 20.1072C25.3387 19.4072 24.4387 19.0072 23.4387 18.8072C23.1387 18.7072 23.1387 18.6072 23.2387 18.2072C23.2387 16.7072 24.2387 15.2072 25.7387 14.8072C28.3387 14.0072 30.7387 15.9072 30.7387 18.3072L30.7387 19.8072C30.7387 20.2072 30.7387 20.7072 30.7387 21.1072L30.7387 27.5072C30.7387 30.6072 30.8387 33.7072 30.7387 36.7072Z" fill="#BDFF57"/>
<path d="M32.6387 36.7072C32.6387 37.0072 32.5387 37.4072 32.5387 37.7072C32.1387 40.1072 30.0387 42.1072 27.5387 42.2072C24.9387 42.4072 22.6387 40.7072 21.9387 38.3072C21.7387 37.7072 21.7387 37.0072 21.6387 36.4072C17.7387 35.9072 15.5387 31.1072 18.2387 27.6072C15.4387 24.1072 17.7387 19.3072 21.6387 18.8072C21.5387 17.5072 21.8387 16.3072 22.6387 15.3072C23.3387 14.3072 24.3387 13.5072 25.6387 13.2072C28.5387 12.5072 30.5387 13.6072 32.0387 16.1072L32.3387 17.0072C32.3387 17.1072 32.4387 17.2072 32.4387 17.4072C32.4387 17.6241 32.4909 18.0501 32.5199 18.3072M32.6387 36.7072L32.6387 31.9072L32.5387 28.2072L32.5387 27.4072L32.5387 24.1072L32.5387 18.5072C32.5387 18.4795 32.531 18.4058 32.5199 18.3072M32.6387 36.7072L31.6887 36.7072L30.7387 36.7072M30.7387 36.7072C30.7387 39.1072 28.4387 41.0072 25.8387 40.2072C24.3387 39.8072 23.4387 38.4072 23.3387 36.9072C23.3387 36.4072 23.3387 36.2072 23.6387 36.2072C24.6387 36.0072 25.5387 35.5072 26.2387 34.8072C26.5387 34.5072 26.6387 34.1072 26.4387 33.8072C26.2387 33.5072 25.8387 33.3072 25.5387 33.4072C25.3387 33.5072 25.1387 33.6072 24.9387 33.7072C23.4387 35.1072 21.1387 35.0072 19.7387 33.5072C18.3387 32.0072 18.3387 29.7072 19.7387 28.3072C20.2387 27.8072 20.2387 27.2072 19.7387 26.7072C18.0387 25.0072 18.3387 22.2072 20.3387 21.0072C21.7387 20.1072 23.6387 20.2072 24.9387 21.4072C25.4387 21.8072 25.9387 21.8072 26.2387 21.4072C26.5387 21.0072 26.5387 20.5072 26.0387 20.1072C25.3387 19.4072 24.4387 19.0072 23.4387 18.8072C23.1387 18.7072 23.1387 18.6072 23.2387 18.2072C23.2387 16.7072 24.2387 15.2072 25.7387 14.8072C28.3387 14.0072 30.7387 15.9072 30.7387 18.3072M30.7387 36.7072C30.8387 33.7072 30.7387 30.6072 30.7387 27.5072L30.7387 21.1072C30.7387 20.7072 30.7387 20.2072 30.7387 19.8072L30.7387 18.3072M30.7387 18.3072L31.6293 18.3072L32.5199 18.3072" stroke="#BDFF57" stroke-width="0.25" stroke-miterlimit="10"/>
<path d="M37.7391 25.2662C38.1533 25.2662 38.4891 24.9304 38.4891 24.5162C38.4891 24.102 38.1533 23.7662 37.7391 23.7662V25.2662ZM34.1304 23.7662C33.7162 23.7662 33.3804 24.102 33.3804 24.5162C33.3804 24.9304 33.7162 25.2662 34.1304 25.2662V23.7662ZM39.8261 28.9436C40.2403 28.9436 40.5761 28.6078 40.5761 28.1936C40.5761 27.7794 40.2403 27.4436 39.8261 27.4436V28.9436ZM34.1304 27.4436C33.7162 27.4436 33.3804 27.7794 33.3804 28.1936C33.3804 28.6078 33.7162 28.9436 34.1304 28.9436V27.4436ZM39.8261 32.621C40.2403 32.621 40.5761 32.2852 40.5761 31.871C40.5761 31.4568 40.2403 31.121 39.8261 31.121V32.621ZM34.1304 31.121C33.7162 31.121 33.3804 31.4568 33.3804 31.871C33.3804 32.2852 33.7162 32.621 34.1304 32.621V31.121ZM32 38.7501H43V37.2501H32V38.7501ZM44.75 37.0001V20.0001H43.25V37.0001H44.75ZM43 18.2501H32V19.7501H43V18.2501ZM37.7391 23.7662H34.1304V25.2662H37.7391V23.7662ZM39.8261 27.4436H34.1304V28.9436H39.8261V27.4436ZM39.8261 31.121H34.1304V32.621H39.8261V31.121ZM44.75 20.0001C44.75 19.0336 43.9665 18.2501 43 18.2501V19.7501C43.1381 19.7501 43.25 19.862 43.25 20.0001H44.75ZM43 38.7501C43.9665 38.7501 44.75 37.9666 44.75 37.0001H43.25C43.25 37.1381 43.1381 37.2501 43 37.2501V38.7501Z" fill="#BDFF57"/>
</g>
<defs>
<filter id="filter0_d_286_6373" x="0.875" y="0.875061" width="59.875" height="61.4731" filterUnits="userSpaceOnUse" color-interpolation-filters="sRGB">
<feFlood flood-opacity="0" result="BackgroundImageFix"/>
<feColorMatrix in="SourceAlpha" type="matrix" values="0 0 0 0 0 0 0 0 0 0 0 0 0 0 0 0 0 0 127 0" result="hardAlpha"/>
<feOffset dy="4"/>
<feGaussianBlur stdDeviation="8"/>
<feComposite in2="hardAlpha" operator="out"/>
<feColorMatrix type="matrix" values="0 0 0 0 0.741176 0 0 0 0 1 0 0 0 0 0.341176 0 0 0 1 0"/>
<feBlend mode="normal" in2="BackgroundImageFix" result="effect1_dropShadow_286_6373"/>
<feBlend mode="normal" in="SourceGraphic" in2="effect1_dropShadow_286_6373" result="shape"/>
</filter>
</defs>
</svg>
