<svg width="60" height="63" viewBox="0 0 60 63" fill="none" xmlns="http://www.w3.org/2000/svg">
<g filter="url(#filter0_d_286_6378)">
<path d="M20.6394 36.4258C18.6335 36.0297 17.1481 34.9327 16.3978 33.0053C15.6398 31.0779 15.992 29.2724 17.2247 27.6269C14.499 24.1226 16.7117 19.3688 20.5935 18.8127C20.7007 18.1499 20.7389 17.4872 20.915 16.8625C21.5735 14.5542 23.7785 12.9467 26.1826 13.0001C27.645 13.0382 28.893 13.6019 29.9189 14.638C30.0491 14.7751 30.1792 14.8208 30.3706 14.8208C32.1392 14.8132 33.9079 14.8132 35.6841 14.8208C36.1129 14.8208 36.4421 15.0417 36.5799 15.4074C36.7178 15.7731 36.6565 16.1311 36.3579 16.3673C36.1741 16.5196 35.8985 16.6187 35.6612 16.6339C35.0793 16.672 34.4974 16.6492 33.9002 16.6492C33.9002 17.2738 33.9002 17.8833 33.9002 18.5232C36.2124 18.7365 38.272 19.5821 40.0712 21.0829C40.5612 20.603 41.0206 20.123 41.5106 19.6659C42.0313 19.1708 42.8505 19.3917 43.0419 20.0773C43.1414 20.4278 43.0342 20.7325 42.7816 20.9915C42.3222 21.4486 41.8705 21.9133 41.3881 22.3932C41.4723 22.4923 41.5489 22.5989 41.6331 22.698C46.3724 28.6553 43.6085 37.6295 36.3349 39.915C34.4438 40.5092 32.5221 40.6006 30.585 40.1816C30.4013 40.1435 30.317 40.1892 30.2022 40.3187C28.7245 41.9642 26.887 42.6499 24.7279 42.0633C22.5305 41.4691 21.2136 39.9607 20.7696 37.7362C20.6624 37.3019 20.67 36.8677 20.6394 36.4258ZM29.7352 27.6574C29.7352 24.5949 29.7352 21.5248 29.7352 18.4623C29.7352 16.4435 28.112 14.7522 26.1367 14.7141C24.0618 14.6761 22.3391 16.4358 22.3851 18.5385C22.3927 18.767 22.454 18.866 22.6913 18.9194C23.6943 19.1327 24.5595 19.6202 25.3021 20.3363C25.6007 20.6258 25.662 21.0372 25.4706 21.38C25.2945 21.7076 24.9193 21.8981 24.5442 21.7914C24.3451 21.7381 24.146 21.6009 23.9929 21.4638C22.4693 20.1002 20.1647 20.1764 18.7713 21.6467C17.3625 23.1322 17.4008 25.41 18.8555 26.8422C19.4527 27.4364 19.4603 27.825 18.8631 28.4039C16.9337 30.2932 17.5845 33.531 20.1111 34.4985C21.5352 35.047 22.8368 34.7803 23.9852 33.79C24.4829 33.3634 24.9959 33.3176 25.3557 33.6986C25.7232 34.0947 25.6467 34.6127 25.1413 35.0622C24.4217 35.7097 23.5948 36.1364 22.6454 36.342C22.4769 36.3801 22.4004 36.4258 22.3927 36.6087C22.2549 38.6732 24.0006 40.532 26.0754 40.5244C28.0814 40.5168 29.7352 38.8256 29.7428 36.7839C29.7352 33.7443 29.7352 30.697 29.7352 27.6574ZM31.4578 20.443C31.4578 20.5725 31.4578 20.6868 31.4578 20.801C31.4578 25.8976 31.4578 30.9865 31.4578 36.083C31.4578 36.8601 31.4732 37.6448 31.2205 38.3989C33.4638 38.9627 37.1771 38.4523 39.7573 35.5955C42.4294 32.6244 42.8964 28.3811 40.9441 24.9529C38.9304 21.4105 34.9798 19.8259 31.4578 20.443ZM31.2205 16.6644C31.32 17.3119 31.4196 17.9442 31.5114 18.5842C31.6646 18.5689 31.833 18.5461 32.0091 18.5232C32.0091 17.8985 32.0091 17.2891 32.0091 16.6644C31.7335 16.6644 31.4732 16.6644 31.2205 16.6644Z" fill="#BDFF57"/>
<path d="M33.8688 26.4308C33.8688 27.2384 33.8611 28.0459 33.8764 28.861C33.8764 28.9829 33.9453 29.1353 34.0296 29.2267C34.7722 29.9809 35.5302 30.7198 36.2805 31.4664C36.7169 31.9007 36.7476 32.4492 36.3647 32.8301C35.9743 33.2262 35.4154 33.1957 34.9713 32.7539C34.1061 31.893 33.241 31.0322 32.3758 30.1713C32.1384 29.9352 32.0312 29.6685 32.0312 29.3333C32.0389 27.5812 32.0312 25.829 32.0312 24.0768C32.0312 23.4674 32.3988 23.056 32.9424 23.0484C33.4936 23.0408 33.8688 23.4598 33.8688 24.0921C33.8688 24.8691 33.8688 25.6538 33.8688 26.4308Z" fill="#BDFF57"/>
</g>
<defs>
<filter id="filter0_d_286_6378" x="0" y="0.998779" width="59.9824" height="61.2714" filterUnits="userSpaceOnUse" color-interpolation-filters="sRGB">
<feFlood flood-opacity="0" result="BackgroundImageFix"/>
<feColorMatrix in="SourceAlpha" type="matrix" values="0 0 0 0 0 0 0 0 0 0 0 0 0 0 0 0 0 0 127 0" result="hardAlpha"/>
<feOffset dy="4"/>
<feGaussianBlur stdDeviation="8"/>
<feComposite in2="hardAlpha" operator="out"/>
<feColorMatrix type="matrix" values="0 0 0 0 0.741176 0 0 0 0 1 0 0 0 0 0.341176 0 0 0 1 0"/>
<feBlend mode="normal" in2="BackgroundImageFix" result="effect1_dropShadow_286_6378"/>
<feBlend mode="normal" in="SourceGraphic" in2="effect1_dropShadow_286_6378" result="shape"/>
</filter>
</defs>
</svg>
