<svg width="61" height="61" viewBox="0 0 61 61" fill="none" xmlns="http://www.w3.org/2000/svg">
<g filter="url(#filter0_d_393_19516)">
<path d="M17.0007 25.2869C17.0183 25.2397 17.0422 25.1932 17.0528 25.1446C17.3161 23.9815 18.2751 23.1964 19.4658 23.1732C20.0431 23.1619 20.0389 23.1598 20.2558 22.6176C20.379 22.3085 20.5036 21.998 20.655 21.7023C20.7416 21.5333 20.7339 21.4298 20.5902 21.3017C20.1361 20.8954 19.7896 20.4187 19.6784 19.8005C19.5334 18.9985 19.7094 18.2754 20.2586 17.672C20.6902 17.1989 21.1457 16.7454 21.6147 16.3089C22.6011 15.3928 24.0621 15.383 25.0134 16.3321C25.3619 16.6799 25.6189 16.7736 26.0428 16.5046C26.3188 16.3293 26.6525 16.2399 26.968 16.1343C27.1179 16.0843 27.1729 16.0195 27.1729 15.8582C27.1722 15.5696 27.1707 15.2752 27.2243 14.9936C27.4376 13.8692 28.424 13.0299 29.5668 13.0123C30.3033 13.001 31.0475 12.9757 31.7749 13.063C32.9127 13.1996 33.8161 14.229 33.802 15.3703C33.7956 15.8977 33.9139 16.2011 34.4568 16.2927C34.642 16.3237 34.8152 16.4321 34.9912 16.5102C35.1665 16.5884 35.3383 16.6736 35.5805 16.7884C35.727 16.618 35.8636 16.4187 36.0389 16.2617C36.9824 15.4175 38.3906 15.4147 39.3285 16.2659C39.7896 16.6849 40.2283 17.1306 40.6564 17.5826C41.6147 18.5951 41.5999 20.0603 40.6346 21.0721C40.2473 21.4777 40.2522 21.4756 40.4684 21.9762C40.6106 22.3057 40.7479 22.6387 40.8648 22.9781C40.9176 23.1309 40.9901 23.1823 41.1465 23.1739C41.7168 23.1429 42.2702 23.2048 42.7687 23.5153C43.5425 23.997 43.9643 24.6954 43.984 25.6044C43.9995 26.3226 44.0262 27.0506 43.9354 27.7597C43.784 28.9461 42.761 29.7917 41.564 29.8241C41.3563 29.8297 41.1014 29.7762 40.9549 29.8762C40.8183 29.9698 40.8007 30.2332 40.7226 30.4184C40.5966 30.7176 40.479 31.0211 40.3297 31.3076C40.2452 31.4703 40.2579 31.566 40.3938 31.6871C40.855 32.0998 41.2063 32.5828 41.3161 33.2108C41.4549 34.0036 41.2802 34.719 40.7402 35.3161C40.317 35.7843 39.8657 36.2307 39.4059 36.6637C38.3983 37.6129 36.9402 37.5988 35.9354 36.6468C35.5179 36.2511 35.52 36.2568 34.9877 36.4877C34.6659 36.6271 34.3392 36.7553 34.0083 36.8707C33.8696 36.9193 33.8231 36.982 33.8182 37.1306C33.8069 37.4713 33.8182 37.8241 33.7302 38.148C33.4717 39.1013 32.8296 39.6871 31.8755 39.9343C31.8185 39.9491 31.7636 39.9723 31.708 39.9913C30.8997 39.9913 30.0914 39.9913 29.283 39.9913C29.2021 39.9646 29.1218 39.9329 29.0394 39.9111C28.3698 39.735 27.8608 39.3464 27.5038 38.7563C27.2052 38.2627 27.1391 37.7199 27.17 37.1587C27.1792 36.9933 27.1299 36.9137 26.9623 36.8595C26.6377 36.7546 26.3237 36.6173 26.0076 36.4877C25.8301 36.4152 25.6393 36.2455 25.4865 36.2765C25.319 36.311 25.1866 36.525 25.0408 36.6616C24.0488 37.5903 22.6054 37.6086 21.6112 36.6842C21.1422 36.2483 20.6867 35.7949 20.2558 35.3217C19.708 34.7183 19.5305 33.9952 19.6784 33.1939C19.7798 32.6468 20.0642 32.2047 20.4571 31.8209C20.7592 31.5259 20.7515 31.5245 20.5818 31.1527C20.4614 30.8901 20.3494 30.6232 20.2431 30.3543C20.0382 29.8347 20.041 29.8332 19.4904 29.8241C18.2688 29.8037 17.3161 29.0235 17.0486 27.8259C17.0394 27.7857 17.0162 27.7484 17 27.7097C17.0007 26.9035 17.0007 26.0952 17.0007 25.2869ZM30.5033 14.5873C30.2308 14.5873 29.9583 14.5845 29.6865 14.588C29.131 14.5951 28.7606 14.9605 28.7522 15.5118C28.7465 15.8808 28.7564 16.2497 28.7486 16.6187C28.7395 17.0376 28.5304 17.3193 28.1262 17.4291C27.3003 17.6537 26.5187 17.979 25.7745 18.4015C25.376 18.6282 25.0577 18.5775 24.724 18.2522C24.4726 18.0072 24.229 17.753 23.9762 17.5087C23.5622 17.1094 23.0503 17.1087 22.642 17.5087C22.2589 17.8839 21.8801 18.2628 21.5048 18.6451C21.1035 19.0549 21.1035 19.5667 21.5027 19.9794C21.7471 20.2321 22.0012 20.4743 22.2463 20.7264C22.5786 21.0686 22.623 21.3819 22.3843 21.7995C21.9695 22.5275 21.652 23.2943 21.4295 24.1019C21.3063 24.549 21.0331 24.7475 20.562 24.7525C20.2015 24.756 19.8418 24.7482 19.4813 24.7553C18.9623 24.7658 18.5899 25.139 18.5835 25.6607C18.5765 26.2142 18.5772 26.7676 18.5828 27.321C18.5885 27.8688 18.9637 28.2363 19.5186 28.2441C19.8784 28.249 20.2389 28.2406 20.5994 28.2469C21.0352 28.2539 21.3112 28.4595 21.4267 28.8813C21.6499 29.6981 21.9717 30.4726 22.3899 31.2091C22.6251 31.6231 22.5765 31.935 22.2399 32.28C21.9942 32.5314 21.74 32.7743 21.4964 33.0271C21.1084 33.4298 21.1063 33.9431 21.495 34.3423C21.8752 34.7324 22.2603 35.1175 22.6504 35.4977C23.0489 35.8864 23.5622 35.8864 23.9664 35.5006C24.2142 35.264 24.4515 35.0168 24.6951 34.776C25.0606 34.4148 25.3689 34.3655 25.8083 34.6155C26.5286 35.026 27.2883 35.3372 28.0868 35.5604C28.5508 35.69 28.7465 35.9561 28.7507 36.4441C28.7536 36.7954 28.7465 37.1467 28.7529 37.4981C28.7627 38.0318 29.1359 38.4036 29.6724 38.4099C30.2174 38.4162 30.7617 38.4148 31.3066 38.4106C31.8615 38.4057 32.2332 38.0374 32.2424 37.4875C32.248 37.1277 32.2403 36.7672 32.2452 36.4074C32.2515 35.9575 32.4564 35.6857 32.893 35.5646C33.7006 35.3414 34.4681 35.026 35.1961 34.6106C35.6235 34.367 35.9319 34.4148 36.2882 34.7641C36.5388 35.0098 36.781 35.2647 37.0359 35.5076C37.4295 35.8822 37.9435 35.8843 38.3322 35.5083C38.73 35.1232 39.1215 34.7317 39.5066 34.3346C39.884 33.9452 39.8833 33.434 39.5087 33.0383C39.2609 32.7771 38.9989 32.5293 38.7476 32.2716C38.4145 31.9294 38.3702 31.6181 38.6096 31.1992C39.0201 30.4789 39.3341 29.7199 39.5573 28.9221C39.6918 28.4412 39.9523 28.2497 40.4585 28.2462C40.8014 28.2441 41.1436 28.2497 41.4865 28.2441C42.0371 28.2349 42.4061 27.8639 42.411 27.3097C42.416 26.7739 42.4152 26.2381 42.411 25.7023C42.4068 25.1313 42.04 24.7616 41.4739 24.7546C41.1141 24.7496 40.7536 24.7581 40.3931 24.7517C39.9593 24.744 39.6819 24.5356 39.5672 24.1159C39.344 23.2992 39.0215 22.5254 38.6039 21.7889C38.3695 21.3749 38.4181 21.0637 38.7567 20.7187C39.0025 20.468 39.2574 20.2251 39.4996 19.9709C39.8868 19.5646 39.8868 19.0535 39.4982 18.6549C39.1179 18.2649 38.7328 17.8797 38.3427 17.4995C37.9435 17.1108 37.4302 17.1115 37.0275 17.4988C36.7803 17.7361 36.543 17.9839 36.2994 18.224C35.9333 18.5845 35.6242 18.6331 35.1855 18.3824C34.4659 17.9698 33.7055 17.6593 32.9071 17.4375C32.4529 17.3115 32.2508 17.0447 32.2452 16.5792C32.241 16.2194 32.2494 15.8589 32.2424 15.4992C32.2325 14.9654 31.8587 14.5972 31.3221 14.588C31.0482 14.5831 30.7757 14.5873 30.5033 14.5873Z" fill="#51FD97" stroke="#51FD97" stroke-width="0.1"/>
<path d="M30.4994 30C28.5661 29.9996 27.0025 28.4367 27 26.503C26.9975 24.5646 28.5724 22.9925 30.5086 23C32.4452 23.0076 34.0034 24.5717 34 26.5042C33.9966 28.4384 32.4322 30.0004 30.4994 30ZM33.0567 26.4958C33.0542 25.0804 31.9105 23.9404 30.496 23.943C29.0806 23.9455 27.9408 25.0888 27.9433 26.5034C27.9454 27.9176 29.0903 29.0592 30.504 29.0562C31.9189 29.0537 33.0596 27.91 33.0567 26.4958Z" fill="#51FD97" stroke="#51FD97" stroke-width="0.6"/>
</g>
<defs>
<filter id="filter0_d_393_19516" x="0.949219" y="0.949951" width="59.1016" height="59.0913" filterUnits="userSpaceOnUse" color-interpolation-filters="sRGB">
<feFlood flood-opacity="0" result="BackgroundImageFix"/>
<feColorMatrix in="SourceAlpha" type="matrix" values="0 0 0 0 0 0 0 0 0 0 0 0 0 0 0 0 0 0 127 0" result="hardAlpha"/>
<feOffset dy="4"/>
<feGaussianBlur stdDeviation="8"/>
<feComposite in2="hardAlpha" operator="out"/>
<feColorMatrix type="matrix" values="0 0 0 0 0.317647 0 0 0 0 0.992157 0 0 0 0 0.592157 0 0 0 1 0"/>
<feBlend mode="normal" in2="BackgroundImageFix" result="effect1_dropShadow_393_19516"/>
<feBlend mode="normal" in="SourceGraphic" in2="effect1_dropShadow_393_19516" result="shape"/>
</filter>
</defs>
</svg>
