<svg width="60" height="59" viewBox="0 0 60 59" fill="none" xmlns="http://www.w3.org/2000/svg">
<g filter="url(#filter0_d_393_19512)">
<path d="M29.0652 31.3511C29.0652 31.8765 29.0556 32.4019 29.0748 32.9176C29.0844 33.1025 29.0844 33.1025 28.9119 33.1706C27.6088 33.6571 26.8136 35.068 27.0627 36.4691C27.331 37.9286 28.5095 38.9697 29.9275 38.9989C31.3552 39.0183 32.6103 38.0259 32.917 36.6442C33.2236 35.1944 32.4762 33.7252 31.1827 33.2095C30.9336 33.1122 30.9144 33.0733 30.924 32.8106C30.9528 32.3046 30.9432 31.8084 30.9432 31.3024L30.9432 31.0592L37.7173 31.0592L37.7173 31.4873C37.7173 31.9641 37.7173 32.4506 37.7364 32.9274C37.7364 33.0636 37.7173 33.0928 37.7173 33.1025C37.7173 33.1025 37.6981 33.1317 37.5927 33.1706C36.2417 33.6571 35.456 35.0874 35.7339 36.5664C36.0022 37.948 37.2573 38.9989 38.6658 38.9989C40.1222 38.9989 41.3295 37.948 41.6073 36.4496C41.8469 35.068 41.0324 33.6376 39.7006 33.1511C39.6048 33.1122 39.5856 33.0928 39.5761 33.0247C39.6048 32.5673 39.5952 32.1003 39.5952 31.643L39.5952 31.1078C39.5952 29.8235 38.9437 29.1716 37.6598 29.1521L30.9528 29.1521L30.9528 27.1185L38.7233 27.1185C38.752 27.1185 38.8191 27.1088 38.9149 27.0991C39.1641 27.0699 39.5665 27.0212 39.7773 27.0212C39.9689 27.0212 40.0647 26.9239 40.1605 26.9239L41.0228 26.632C43.4182 25.1725 44.4722 23.2265 43.8015 20.4048C43.514 19.1399 42.7475 18.1669 41.7894 17.4858C40.8312 16.7074 39.6814 16.4155 38.4359 16.5128C37.9568 12.7181 33.3577 10.4802 30.0042 13.2046C26.6507 10.5775 22.0516 12.7181 21.5725 16.5128C20.9976 16.6101 20.3269 16.6101 19.7521 16.8047C17.4525 17.4858 15.8237 19.7237 16.0153 22.2535C16.1111 24.686 18.0274 26.7293 20.3269 27.1185C20.6144 27.1185 20.9976 27.2158 21.2851 27.2158L25.8842 27.2158L29.0748 27.1283L29.0556 29.1521L28.9407 29.1521C26.7082 29.1521 24.4757 29.1521 22.2528 29.1618C21.1126 29.1618 20.4228 29.8527 20.4036 31.0008C20.394 31.6722 20.394 32.3241 20.4036 32.9955C20.4132 33.0149 20.4132 33.0247 20.4132 33.0344C20.4132 33.0733 20.4036 33.0928 20.4036 33.0928C20.4036 33.1025 20.3749 33.1122 20.3078 33.1414C19.1197 33.589 18.3532 34.7371 18.3532 35.9728C18.3532 36.1869 18.3819 36.401 18.4202 36.615C18.7556 38.0551 20.0108 39.0378 21.4576 38.9989C22.8181 38.96 24.0541 37.8605 24.2745 36.4983C24.5332 35.029 23.7379 33.6474 22.3582 33.1414C22.3103 33.122 22.2816 33.1025 22.2816 33.1025C22.2816 33.0928 22.272 33.0733 22.272 33.0149C22.2911 32.4992 22.3103 31.8279 22.272 31.1565L22.272 31.0495L22.4157 31.0495C24.0637 31.0592 25.7213 31.0592 27.3789 31.0592L29.0269 31.0495C29.0365 31.0495 29.0556 31.0495 29.0652 31.0592L29.0652 31.3511ZM21.2851 25.3671C18.9855 25.3671 17.1651 23.1292 17.9316 20.5994C18.3148 19.1399 19.6562 18.2642 21.0935 18.1669C21.5725 18.1669 21.7642 18.1669 21.7642 18.4588C21.9558 19.4318 22.4349 20.3075 23.1056 20.9886C23.393 21.2805 23.7763 21.3778 24.0637 21.1832C24.3512 20.9886 24.5428 20.5994 24.447 20.3075C24.3512 20.1129 24.2553 19.9183 24.1595 19.7237C22.8181 18.2642 22.9139 16.0263 24.3512 14.6641C25.7884 13.3019 27.9921 13.3019 29.3335 14.6641C29.8126 15.1506 30.3875 15.1506 30.8665 14.6641C32.4954 13.01 35.1782 13.3019 36.3279 15.2479C37.1903 16.6101 37.0945 18.4588 35.9447 19.7237C35.5614 20.2102 35.5614 20.6967 35.9447 20.9886C36.3279 21.2805 36.807 21.2805 37.1903 20.794C37.861 20.1129 38.2442 19.2372 38.4359 18.2642C38.5317 17.9723 38.6275 17.9723 39.0107 18.0696C40.448 18.0696 41.8852 19.0426 42.2684 20.5021C43.035 23.0319 41.2145 25.3671 38.9149 25.3671L30.1 25.3671C27.1298 25.3671 24.1595 25.4644 21.2851 25.3671ZM31.1156 35.9631C31.1252 36.2356 31.0102 36.5372 30.7995 36.761C30.5791 36.975 30.3012 37.0918 30.0138 37.0918C29.7168 37.1015 29.4293 36.9848 29.2185 36.7707C29.0077 36.5566 28.8928 36.2745 28.8928 35.9728C28.8928 35.3501 29.391 34.8344 30.0138 34.8344C30.6078 34.8442 31.1061 35.3501 31.1156 35.9631ZM39.7773 35.9826C39.7773 36.2745 39.6527 36.5566 39.4419 36.7707C39.2311 36.9848 38.9533 37.1015 38.6467 37.0918C38.0526 37.0918 37.5544 36.5956 37.5448 35.9826C37.5544 35.7004 37.6598 35.3988 37.8706 35.1847C38.0909 34.9609 38.3688 34.8344 38.6658 34.8344C38.9628 34.8344 39.2407 34.9609 39.4515 35.175C39.6623 35.389 39.7773 35.6712 39.7773 35.9631C39.7773 35.9728 39.7773 35.9729 39.7773 35.9826ZM22.4444 35.9826C22.4444 36.5956 21.9654 37.0918 21.3617 37.0918C21.0551 37.1015 20.7677 36.9848 20.5569 36.7707C20.3557 36.5664 20.2311 36.2842 20.2311 35.9826C20.2311 35.6712 20.3461 35.3793 20.5569 35.1653C20.7581 34.9609 21.0456 34.8344 21.3426 34.8344C21.9654 34.8344 22.4444 35.3404 22.4444 35.9826Z" fill="#51FD97"/>
</g>
<defs>
<filter id="filter0_d_393_19512" x="0" y="0" width="60" height="59" filterUnits="userSpaceOnUse" color-interpolation-filters="sRGB">
<feFlood flood-opacity="0" result="BackgroundImageFix"/>
<feColorMatrix in="SourceAlpha" type="matrix" values="0 0 0 0 0 0 0 0 0 0 0 0 0 0 0 0 0 0 127 0" result="hardAlpha"/>
<feOffset dy="4"/>
<feGaussianBlur stdDeviation="8"/>
<feComposite in2="hardAlpha" operator="out"/>
<feColorMatrix type="matrix" values="0 0 0 0 0.317647 0 0 0 0 0.992157 0 0 0 0 0.592157 0 0 0 1 0"/>
<feBlend mode="normal" in2="BackgroundImageFix" result="effect1_dropShadow_393_19512"/>
<feBlend mode="normal" in="SourceGraphic" in2="effect1_dropShadow_393_19512" result="shape"/>
</filter>
</defs>
</svg>
