<svg width="58" height="60" viewBox="0 0 58 60" fill="none" xmlns="http://www.w3.org/2000/svg">
<g filter="url(#filter0_d_393_19514)">
<path d="M29.4581 13.0066C29.8932 13.1457 30.3483 13.2385 30.7634 13.424C32.2561 14.1196 33.1798 15.7956 32.9723 17.3591C32.7313 19.1411 31.4863 20.4926 29.7794 20.8238C29.6455 20.8503 29.5652 20.8702 29.5652 21.0358C29.5719 22.4667 29.5719 23.8977 29.5719 25.3286C29.5719 25.3617 29.5786 25.3949 29.592 25.4479C29.6924 25.4479 29.7794 25.4479 29.8731 25.4479C31.406 25.4479 32.9388 25.4876 34.465 25.4346C36.2589 25.3684 37.6512 26.7264 37.5776 28.5085C37.5441 29.3167 37.5776 30.1315 37.5709 30.9464C37.5709 31.0988 37.6111 31.165 37.7717 31.1915C39.6661 31.5559 41.0584 33.2452 40.9981 35.1001C40.9379 37.0941 39.5054 38.6907 37.5308 38.9623C35.4356 39.2538 33.4342 37.8229 33.066 35.7692C32.6845 33.6294 34.0768 31.6022 36.2054 31.1783C36.2857 31.165 36.4196 31.0656 36.4196 31.006C36.4263 30.052 36.4598 29.0915 36.3995 28.1375C36.3393 27.1703 35.6163 26.5741 34.6324 26.5608C34.0701 26.5542 33.5011 26.5608 32.9388 26.5608C29.766 26.5608 26.5932 26.5608 23.4203 26.5608C22.5233 26.5608 21.8741 27.0179 21.6465 27.8129C21.5929 27.9984 21.5728 28.1971 21.5728 28.3892C21.5661 29.224 21.5728 30.0653 21.5661 30.9C21.5661 31.0723 21.5996 31.1451 21.7937 31.1849C23.7148 31.5492 25.0536 33.2452 24.9933 35.2127C24.9398 37.0941 23.4605 38.6973 21.5394 38.9557C19.3907 39.2472 17.4093 37.803 17.0545 35.6764C16.6998 33.5963 18.1122 31.5956 20.2274 31.1849C20.3947 31.1518 20.4282 31.0921 20.4282 30.9331C20.4215 30.1183 20.455 29.3035 20.4215 28.4952C20.3479 26.6933 21.7603 25.3617 23.5073 25.4214C25.0469 25.4744 26.5865 25.4346 28.126 25.4346C28.2197 25.4346 28.3068 25.4346 28.4139 25.4346C28.4205 25.3352 28.4272 25.2624 28.4272 25.1895C28.4272 23.8248 28.4272 22.4667 28.4339 21.102C28.4339 20.9165 28.3938 20.8437 28.193 20.8106C26.3388 20.4594 24.9599 18.7635 25 16.902C25.0402 14.9742 26.4727 13.3379 28.3737 13.053C28.4272 13.0464 28.4808 13.0199 28.541 13C28.8423 13.0066 29.1502 13.0066 29.4581 13.0066ZM18.1456 35.0603C18.1523 36.6172 19.4375 37.8891 21.0039 37.8825C22.5702 37.8759 23.8621 36.5973 23.8554 35.0471C23.8554 33.4969 22.5568 32.225 20.9905 32.225C19.4174 32.2316 18.1389 33.5035 18.1456 35.0603ZM39.8468 35.0603C39.8535 33.5035 38.575 32.2316 37.0019 32.225C35.4356 32.2183 34.1437 33.4903 34.137 35.0471C34.1303 36.5907 35.4222 37.8759 36.9886 37.8825C38.5482 37.8891 39.8401 36.6172 39.8468 35.0603ZM28.9627 19.7903C30.5157 19.8235 31.8143 18.5648 31.8544 16.9947C31.8879 15.4644 30.6094 14.166 29.0297 14.1328C27.4767 14.0997 26.1781 15.365 26.138 16.9285C26.1045 18.4654 27.3763 19.7506 28.9627 19.7903Z" fill="#51FD97" stroke="#51FD97" stroke-width="0.8"/>
</g>
<defs>
<filter id="filter0_d_393_19514" x="0.601562" y="0.598633" width="56.7969" height="58.8013" filterUnits="userSpaceOnUse" color-interpolation-filters="sRGB">
<feFlood flood-opacity="0" result="BackgroundImageFix"/>
<feColorMatrix in="SourceAlpha" type="matrix" values="0 0 0 0 0 0 0 0 0 0 0 0 0 0 0 0 0 0 127 0" result="hardAlpha"/>
<feOffset dy="4"/>
<feGaussianBlur stdDeviation="8"/>
<feComposite in2="hardAlpha" operator="out"/>
<feColorMatrix type="matrix" values="0 0 0 0 0.317647 0 0 0 0 0.992157 0 0 0 0 0.592157 0 0 0 1 0"/>
<feBlend mode="normal" in2="BackgroundImageFix" result="effect1_dropShadow_393_19514"/>
<feBlend mode="normal" in="SourceGraphic" in2="effect1_dropShadow_393_19514" result="shape"/>
</filter>
</defs>
</svg>
