<svg width="61" height="61" viewBox="0 0 61 61" fill="none" xmlns="http://www.w3.org/2000/svg">
<g filter="url(#filter0_d_393_19519)">
<path d="M44 16.325C43.9446 16.5156 43.9016 16.7122 43.8401 16.9028C43.1695 18.808 40.8873 19.4964 39.2817 18.2795C39.2202 18.2303 39.1526 18.1873 39.1156 18.1627C37.5285 19.7484 35.9476 21.3218 34.3666 22.9013C35.437 24.4747 35.437 26.0665 34.3482 27.6707C34.3912 27.7198 34.4343 27.7752 34.4835 27.8243C35.6338 28.9736 36.7842 30.1229 37.9345 31.2723C38.0453 31.3829 38.1252 31.4259 38.2913 31.3522C39.0787 30.9834 40.0076 31.1924 40.5674 31.8377C41.1518 32.5199 41.2133 33.4726 40.7274 34.2101C40.2598 34.9107 39.3556 35.2426 38.5497 34.9968C37.6823 34.7325 37.1164 33.995 37.1471 33.0915C37.1594 32.7781 37.2702 32.4646 37.3317 32.1573C36.1075 30.9342 34.8526 29.6804 33.6161 28.4451C33.247 28.6172 32.841 28.8138 32.4227 28.9982C32.2689 29.0658 32.1028 29.1088 31.9429 29.1211C31.7522 29.1396 31.7214 29.2318 31.7214 29.3977C31.7276 30.8974 31.7276 32.4031 31.7214 33.9028C31.7214 34.1056 31.7891 34.1671 31.9737 34.2162C33.3024 34.5666 34.2005 35.7466 34.1882 37.1049C34.1759 38.4324 33.2286 39.6002 31.906 39.9198C29.9621 40.3869 28.0982 38.7459 28.3258 36.7669C28.4672 35.5069 29.2854 34.542 30.5096 34.2224C30.7003 34.1732 30.7618 34.1056 30.7618 33.9089C30.7556 32.4154 30.7556 30.9219 30.7618 29.4284C30.7618 29.2379 30.7126 29.158 30.5096 29.1211C29.9006 29.0228 29.3592 28.7585 28.8486 28.3775C28.7748 28.4451 28.7072 28.5127 28.6395 28.5741C26.671 30.5409 24.6963 32.5138 22.7217 34.4805C22.5802 34.6157 22.5617 34.7141 22.6355 34.9046C23.0969 36.0293 22.9554 37.0864 22.1557 38.0022C21.3376 38.9364 20.2795 39.2376 19.0984 38.8872C17.948 38.5431 17.2468 37.7379 17.0438 36.5456C16.8346 35.3471 17.3882 34.1794 18.4279 33.5586C19.4613 32.9256 20.7224 32.9993 21.7067 33.7368C21.7682 33.786 21.8358 33.829 21.8727 33.8598C23.952 31.7824 26.0189 29.7173 28.092 27.6461C26.9909 26.1157 27.0708 24.2965 28.1166 22.8706C28.0735 22.8214 28.0305 22.7661 27.9813 22.7169C26.8309 21.5676 25.6806 20.4183 24.5302 19.269C24.4072 19.1461 24.3211 19.1276 24.1488 19.2014C23.2938 19.5947 22.2849 19.2997 21.7436 18.5253C21.2268 17.7632 21.3253 16.6938 21.9896 16.0362C22.654 15.3785 23.7244 15.2802 24.481 15.8088C25.2684 16.3558 25.5452 17.376 25.1454 18.2365C25.1208 18.2918 25.09 18.3471 25.0777 18.384C26.3326 19.6439 27.5814 20.8916 28.8425 22.1515C30.4235 21.0698 32.0229 21.0698 33.6346 22.1638C33.6899 22.1146 33.7392 22.0716 33.7884 22.0224C35.2955 20.5166 36.7965 19.017 38.3036 17.5112C38.4021 17.4129 38.4636 17.3453 38.3898 17.1793C37.5777 15.3724 38.6174 13.4179 40.5797 13.043C40.6105 13.0369 40.6412 13.0123 40.672 13C40.9181 13 41.1641 13 41.4102 13C41.4532 13.0123 41.4902 13.0369 41.5332 13.043C42.6959 13.2643 43.4648 13.9465 43.8524 15.0528C43.9139 15.2249 43.9508 15.4031 43.9939 15.5813C44 15.8333 44 16.0792 44 16.325ZM31.2293 22.3359C29.6053 22.3359 28.2765 23.6634 28.2827 25.286C28.2889 26.8963 29.6053 28.2054 31.2232 28.2238C32.8349 28.2361 34.1821 26.9024 34.1821 25.2798C34.1821 23.6573 32.8533 22.3297 31.2293 22.3359ZM31.2416 39.004C32.3304 38.9979 33.1978 38.119 33.1917 37.0373C33.1794 35.9679 32.3058 35.0951 31.2416 35.0951C30.1651 35.0951 29.2793 35.974 29.2793 37.0557C29.2731 38.1374 30.1528 39.0102 31.2416 39.004ZM17.9788 36.0601C17.9726 37.1356 18.8523 38.0207 19.9288 38.0268C20.9931 38.0329 21.8912 37.1418 21.8974 36.0723C21.9035 35.0029 21.0177 34.1117 19.9411 34.1056C18.8769 34.0933 17.9849 34.9845 17.9788 36.0601ZM41.0657 13.9957C39.9892 13.9895 39.0972 14.8684 39.091 15.944C39.0849 17.0072 39.9523 17.8923 41.0226 17.9107C42.0992 17.9291 42.9911 17.0564 43.0034 15.9747C43.0219 14.8868 42.1545 14.0018 41.0657 13.9957ZM39.0787 34.0995C39.6262 34.1056 40.0691 33.6692 40.063 33.1222C40.0568 32.5875 39.6262 32.1512 39.091 32.145C38.5558 32.1389 38.0945 32.5937 38.1006 33.1284C38.1068 33.6569 38.5497 34.0933 39.0787 34.0995ZM23.3737 18.3962C23.9089 18.3962 24.3457 17.9722 24.3518 17.4375C24.3641 16.9028 23.9089 16.4418 23.3737 16.4418C22.8324 16.4418 22.3833 16.8966 22.3956 17.4375C22.4018 17.9722 22.8324 18.3962 23.3737 18.3962Z" fill="#51FD97" stroke="#51FD97"/>
</g>
<defs>
<filter id="filter0_d_393_19519" x="0.5" y="0.5" width="60" height="60.0002" filterUnits="userSpaceOnUse" color-interpolation-filters="sRGB">
<feFlood flood-opacity="0" result="BackgroundImageFix"/>
<feColorMatrix in="SourceAlpha" type="matrix" values="0 0 0 0 0 0 0 0 0 0 0 0 0 0 0 0 0 0 127 0" result="hardAlpha"/>
<feOffset dy="4"/>
<feGaussianBlur stdDeviation="8"/>
<feComposite in2="hardAlpha" operator="out"/>
<feColorMatrix type="matrix" values="0 0 0 0 0.317647 0 0 0 0 0.992157 0 0 0 0 0.592157 0 0 0 1 0"/>
<feBlend mode="normal" in2="BackgroundImageFix" result="effect1_dropShadow_393_19519"/>
<feBlend mode="normal" in="SourceGraphic" in2="effect1_dropShadow_393_19519" result="shape"/>
</filter>
</defs>
</svg>
