<svg width="61" height="58" viewBox="0 0 61 58" fill="none" xmlns="http://www.w3.org/2000/svg">
<g filter="url(#filter0_d_393_19521)">
<path d="M17 20.1559C17.0888 19.6597 17.1409 19.1535 17.272 18.6693C17.9753 16.0743 19.4933 14.1912 22.0739 13.3461C24.7772 12.4604 27.4946 13.3048 29.305 15.5332C29.6989 16.018 30.0175 16.5648 30.3691 17.0831C30.4121 17.1458 30.4487 17.2127 30.5037 17.3024C30.6721 17.0219 30.818 16.7627 30.9787 16.5128C31.8039 15.2285 32.8405 14.1776 34.25 13.5561C36.7714 12.4455 39.7989 13.0506 41.7587 15.0875C43.4726 16.8681 44.1406 19.0417 43.9757 21.4922C43.8341 23.5967 42.8919 25.3581 41.6199 26.9692C40.2372 28.7206 38.5959 30.2115 36.9286 31.6724C34.997 33.3654 33.0498 35.0413 31.1098 36.7244C30.7074 37.0732 30.3275 37.0953 29.9505 36.7657C27.4763 34.6063 24.9936 32.4577 22.539 30.2762C21.2114 29.0965 19.976 27.8193 18.9351 26.3641C17.9098 24.9302 17.1867 23.3746 17.0373 21.5855C17.0345 21.552 17.0134 21.52 17.0007 21.4872C17 21.0437 17 20.5994 17 20.1559ZM30.5009 35.1296C30.5728 35.0705 30.6341 35.0221 30.6933 34.9708C31.8286 33.9898 32.9646 33.0094 34.0999 32.0276C35.849 30.5147 37.6122 29.0154 39.2027 27.3273C40.2858 26.1776 41.2978 24.9637 41.8785 23.4686C42.8538 20.9575 42.6121 18.5739 40.8792 16.4708C39.0491 14.2496 35.3937 13.7847 33.1309 16.3028C32.2838 17.2454 31.694 18.3333 31.2958 19.5336C31.1499 19.9736 30.8899 20.2014 30.5171 20.2079C30.1373 20.2143 29.8603 19.9793 29.713 19.5322C29.3867 18.539 28.916 17.6228 28.2881 16.7884C26.1091 13.8929 22.7681 14.2147 20.8477 15.7717C19.3439 16.9906 18.6793 18.6344 18.5898 20.5396C18.5158 22.1123 19.0098 23.5255 19.8344 24.8377C20.699 26.2131 21.7801 27.4071 22.9696 28.49C24.8498 30.2015 26.7716 31.866 28.6778 33.5484C29.2782 34.0773 29.8878 34.5978 30.5009 35.1296Z" fill="#51FD97" stroke="#51FD97" stroke-width="0.3"/>
</g>
<defs>
<filter id="filter0_d_393_19521" x="0.851562" y="0.849976" width="59.2969" height="56.3" filterUnits="userSpaceOnUse" color-interpolation-filters="sRGB">
<feFlood flood-opacity="0" result="BackgroundImageFix"/>
<feColorMatrix in="SourceAlpha" type="matrix" values="0 0 0 0 0 0 0 0 0 0 0 0 0 0 0 0 0 0 127 0" result="hardAlpha"/>
<feOffset dy="4"/>
<feGaussianBlur stdDeviation="8"/>
<feComposite in2="hardAlpha" operator="out"/>
<feColorMatrix type="matrix" values="0 0 0 0 0.317647 0 0 0 0 0.992157 0 0 0 0 0.592157 0 0 0 1 0"/>
<feBlend mode="normal" in2="BackgroundImageFix" result="effect1_dropShadow_393_19521"/>
<feBlend mode="normal" in="SourceGraphic" in2="effect1_dropShadow_393_19521" result="shape"/>
</filter>
</defs>
</svg>
