<svg width="61" height="62" viewBox="0 0 61 62" fill="none" xmlns="http://www.w3.org/2000/svg">
<g filter="url(#filter0_d_393_18826)">
<path d="M31.5381 27.2072V26.4072V23.1072V17.5072C31.5381 17.4772 31.5281 17.4072 31.5181 17.3072C31.4881 17.0472 31.4381 16.6272 31.4381 16.4072C31.4381 16.2072 31.3381 16.1072 31.3381 16.0072L31.0381 15.1072C29.5381 12.6072 27.5381 11.5072 24.6381 12.2072C23.3381 12.5072 22.3381 13.3072 21.6381 14.3072C20.8381 15.3072 20.5381 16.5072 20.6381 17.8072C16.7381 18.3072 14.4381 23.1072 17.2381 26.6072C14.5381 30.1072 16.7381 34.9072 20.6381 35.4072C20.7381 36.0072 20.7381 36.7072 20.9381 37.3072C21.6381 39.7072 23.9381 41.4072 26.5381 41.2072C29.0381 41.1072 31.1381 39.1072 31.5381 36.7072C31.5381 36.4072 31.6381 36.0072 31.6381 35.7072V30.9072L31.5381 27.2072ZM29.7381 35.7072C29.7381 38.1072 27.4381 40.0072 24.8381 39.2072C23.3381 38.8072 22.4381 37.4072 22.3381 35.9072C22.3381 35.4072 22.3381 35.2072 22.6381 35.2072C23.6381 35.0072 24.5381 34.5072 25.2381 33.8072C25.5381 33.5072 25.6381 33.1072 25.4381 32.8072C25.2381 32.5072 24.8381 32.3072 24.5381 32.4072C24.3381 32.5072 24.1381 32.6072 23.9381 32.7072C22.4381 34.1072 20.1381 34.0072 18.7381 32.5072C17.3381 31.0072 17.3381 28.7072 18.7381 27.3072C19.2381 26.8072 19.2381 26.2072 18.7381 25.7072C17.0381 24.0072 17.3381 21.2072 19.3381 20.0072C20.7381 19.1072 22.6381 19.2072 23.9381 20.4072C24.4381 20.8072 24.9381 20.8072 25.2381 20.4072C25.5381 20.0072 25.5381 19.5072 25.0381 19.1072C24.3381 18.4072 23.4381 18.0072 22.4381 17.8072C22.1381 17.7072 22.1381 17.6072 22.2381 17.2072C22.2381 15.7072 23.2381 14.2072 24.7381 13.8072C27.3381 13.0072 29.7381 14.9072 29.7381 17.3072V18.8072C29.7381 19.2072 29.7381 19.7072 29.7381 20.1072V26.5072C29.7381 29.6072 29.8381 32.7072 29.7381 35.7072Z" fill="#BDFF57"/>
<path d="M36.9418 17.301C35.5642 16.9581 34.1743 16.906 32.7768 17.1558C31.8154 17.3279 30.9089 17.6301 30.0736 18.0427V19.7981C31.9555 18.5973 34.1197 18.2692 36.5307 18.7806C36.6897 18.814 36.868 18.8287 37.0232 18.7915C37.3709 18.7074 37.5902 18.3882 37.5799 18.0427C37.569 17.6805 37.3317 17.398 36.9418 17.301Z" fill="#BDFF57"/>
<path d="M42.8172 28.5379C42.047 32.9882 37.6351 36.1182 33.1963 35.3572C32.0619 35.1628 30.9716 34.741 30 34.1275V35.9204C31.9059 36.8879 34.1351 37.2533 36.3909 36.8188C42.0149 35.7355 45.5885 30.1331 44.1994 24.5763C44.0845 24.1177 43.692 23.8467 43.2771 23.9399C42.8301 24.04 42.5896 24.4536 42.7063 24.9391C42.9936 26.1316 43.0263 27.328 42.8172 28.5379Z" fill="#BDFF57"/>
<path d="M36.9418 17.301C35.5642 16.9581 34.1743 16.906 32.7768 17.1558C31.8154 17.3279 30.9089 17.6301 30.0736 18.0427V19.7981C31.9555 18.5973 34.1197 18.2692 36.5307 18.7806C36.6897 18.814 36.868 18.8287 37.0232 18.7915C37.3709 18.7074 37.5902 18.3882 37.5799 18.0427C37.569 17.6805 37.3317 17.398 36.9418 17.301Z" stroke="#BDFF57" stroke-width="0.3"/>
<path d="M42.8172 28.5379C42.047 32.9882 37.6351 36.1182 33.1963 35.3572C32.0619 35.1628 30.9716 34.741 30 34.1275V35.9204C31.9059 36.8879 34.1351 37.2533 36.3909 36.8188C42.0149 35.7355 45.5885 30.1331 44.1994 24.5763C44.0845 24.1177 43.692 23.8467 43.2771 23.9399C42.8301 24.04 42.5896 24.4536 42.7063 24.9391C42.9936 26.1316 43.0263 27.328 42.8172 28.5379Z" stroke="#BDFF57" stroke-width="0.3"/>
<path d="M34.5404 27.5823C34.6128 27.4828 34.6603 27.3967 34.727 27.3293C37.515 24.5351 40.3049 21.7429 43.0928 18.9488C43.2621 18.7793 43.4411 18.6418 43.6919 18.6361C44.0093 18.6284 44.2518 18.7619 44.4012 19.0406C44.557 19.3296 44.5218 19.6135 44.33 19.8755C44.2736 19.9525 44.2004 20.0167 44.1325 20.0848C41.2072 23.0138 38.282 25.9422 35.3562 28.8705C35.2542 28.9726 35.158 29.0799 35.0535 29.1794C34.7289 29.4902 34.2749 29.4934 33.958 29.1768C32.8818 28.1018 31.8082 27.0242 30.7365 25.9441C30.4004 25.6057 30.3914 25.1426 30.7025 24.828C31.011 24.5159 31.4818 24.521 31.8165 24.8549C32.708 25.7412 33.5937 26.6332 34.5404 27.5823Z" fill="#BDFF57" stroke="#BDFF57" stroke-width="0.3"/>
</g>
<defs>
<filter id="filter0_d_393_18826" x="0" y="0" width="60.6484" height="61.2232" filterUnits="userSpaceOnUse" color-interpolation-filters="sRGB">
<feFlood flood-opacity="0" result="BackgroundImageFix"/>
<feColorMatrix in="SourceAlpha" type="matrix" values="0 0 0 0 0 0 0 0 0 0 0 0 0 0 0 0 0 0 127 0" result="hardAlpha"/>
<feOffset dy="4"/>
<feGaussianBlur stdDeviation="8"/>
<feComposite in2="hardAlpha" operator="out"/>
<feColorMatrix type="matrix" values="0 0 0 0 0.741176 0 0 0 0 1 0 0 0 0 0.341176 0 0 0 1 0"/>
<feBlend mode="normal" in2="BackgroundImageFix" result="effect1_dropShadow_393_18826"/>
<feBlend mode="normal" in="SourceGraphic" in2="effect1_dropShadow_393_18826" result="shape"/>
</filter>
</defs>
</svg>
