<svg width="59" height="62" viewBox="0 0 59 62" fill="none" xmlns="http://www.w3.org/2000/svg">
<g filter="url(#filter0_d_393_18855)">
<path d="M42.3681 18.6172C42.3281 18.5072 42.2881 18.4072 42.2481 18.2972C42.1581 18.0372 42.0581 17.7672 41.8881 17.5172C41.3981 16.7672 40.6081 16.3772 39.6181 16.3772H31.4381C31.4281 16.1972 31.3381 16.0972 31.3381 16.0072L31.0381 15.1072C29.5381 12.6072 27.5381 11.5072 24.6381 12.2072C23.3381 12.5072 22.3381 13.3072 21.6381 14.3072C20.8381 15.3072 20.5381 16.5072 20.6381 17.8072C16.7381 18.3072 14.4381 23.1072 17.2381 26.6072C14.5381 30.1072 16.7381 34.9072 20.6381 35.4072C20.7381 36.0072 20.7381 36.7072 20.9381 37.3072C21.6381 39.7072 23.9381 41.4072 26.5381 41.2072C28.8281 41.1172 30.7881 39.4272 31.4081 37.2872H39.6081C40.8781 37.2872 41.8981 36.5672 42.2681 35.4272C42.2981 35.3272 42.3181 35.2272 42.3481 35.1272L42.3981 18.7572L42.3681 18.6172ZM29.7381 35.7072C29.7381 38.1072 27.4381 40.0072 24.8381 39.2072C23.3381 38.8072 22.4381 37.4072 22.3381 35.9072C22.3381 35.4072 22.3381 35.2072 22.6381 35.2072C23.6381 35.0072 24.5381 34.5072 25.2381 33.8072C25.5381 33.5072 25.6381 33.1072 25.4381 32.8072C25.2381 32.5072 24.8381 32.3072 24.5381 32.4072C24.3381 32.5072 24.1381 32.6072 23.9381 32.7072C22.4381 34.1072 20.1381 34.0072 18.7381 32.5072C17.3381 31.0072 17.3381 28.7072 18.7381 27.3072C19.2381 26.8072 19.2381 26.2072 18.7381 25.7072C17.0381 24.0072 17.3381 21.2072 19.3381 20.0072C20.7381 19.1072 22.6381 19.2072 23.9381 20.4072C24.4381 20.8072 24.9381 20.8072 25.2381 20.4072C25.5381 20.0072 25.5381 19.5072 25.0381 19.1072C24.3381 18.4072 23.4381 18.0072 22.4381 17.8072C22.1381 17.7072 22.1381 17.6072 22.2381 17.2072C22.2381 15.7072 23.2381 14.2072 24.7381 13.8072C27.3381 13.0072 29.7381 14.9072 29.7381 17.3072V26.5072C29.7381 29.6072 29.8381 32.7072 29.7381 35.7072ZM35.2181 35.5872H31.8781V32.7072H35.2181V35.5872ZM35.2281 31.0172H31.8781V28.1272H35.2281V31.0172ZM31.8781 26.4472V23.5572H35.2181V26.4472H31.8781ZM40.7281 33.4872C40.7381 33.8472 40.7381 34.1972 40.7281 34.5472C40.7281 35.1972 40.3181 35.6072 39.6781 35.6072C38.9181 35.6072 38.1481 35.6172 37.3881 35.6072H36.9081V32.7172H40.7281V33.4872ZM40.7181 28.1372V31.0272H36.9081V28.1372H40.7181ZM36.9081 26.4372V23.5572H40.7181V26.4372H36.9081ZM40.7281 22.2272H31.8681L31.8781 18.0472H39.1481C40.3381 18.0472 40.7281 18.4472 40.7281 19.1772V22.2272Z" fill="#BDFF57"/>
</g>
<defs>
<filter id="filter0_d_393_18855" x="0" y="0" width="58.3984" height="61.2232" filterUnits="userSpaceOnUse" color-interpolation-filters="sRGB">
<feFlood flood-opacity="0" result="BackgroundImageFix"/>
<feColorMatrix in="SourceAlpha" type="matrix" values="0 0 0 0 0 0 0 0 0 0 0 0 0 0 0 0 0 0 127 0" result="hardAlpha"/>
<feOffset dy="4"/>
<feGaussianBlur stdDeviation="8"/>
<feComposite in2="hardAlpha" operator="out"/>
<feColorMatrix type="matrix" values="0 0 0 0 0.741176 0 0 0 0 1 0 0 0 0 0.341176 0 0 0 1 0"/>
<feBlend mode="normal" in2="BackgroundImageFix" result="effect1_dropShadow_393_18855"/>
<feBlend mode="normal" in="SourceGraphic" in2="effect1_dropShadow_393_18855" result="shape"/>
</filter>
</defs>
</svg>
