<svg width="62" height="62" viewBox="0 0 62 62" fill="none" xmlns="http://www.w3.org/2000/svg">
<g filter="url(#filter0_d_393_18833)">
<path d="M44.8421 18.2122C44.7503 18.1183 44.6172 18.0695 44.5029 18H32.4657V18.7697H44.1542C44.1197 18.8247 44.0936 18.8685 44.0649 18.9109C42.704 21.4921 39.2215 26.2934 37.8208 28.3587C37.5138 28.8113 37.3625 29.3043 37.3643 29.8592C37.3691 31.2475 37.364 35.6294 37.3691 37.0177C37.3691 37.0177 37.4823 38.0335 37.3691 38.0778H33.3357C33.294 38.0946 33.2505 38.1068 33.1873 38.1278V37.942C33.1873 36.2514 33.1815 31.5676 33.1906 29.8771C33.1935 29.3043 33.0375 28.8017 32.7222 28.3369L32.4657 27.9586L32.4671 29.8764C32.4588 30.0462 32.4657 33.2104 32.4657 33.381C32.4657 34.9937 32.466 36.6067 32.4649 38.2194C32.4646 38.4308 32.4958 38.6289 32.6514 38.78C32.8597 38.9822 33.3357 38.9841 33.3357 38.9841C35.8211 39.0199 37.6035 38.9841 37.6035 38.9841C37.9577 38.8417 38.086 38.6208 38.086 38.2194C38.086 36.7868 38.0933 31.3246 38.086 29.892C38.0842 29.4757 38.1945 29.1154 38.4249 28.7758C39.9012 26.4809 43.6231 21.4921 44.8138 19.1124C44.8541 19.0529 44.8922 18.9914 44.9248 18.9273C45.0478 18.6842 45.0261 18.4007 44.8421 18.2122Z" fill="#BDFF57"/>
<path d="M32.4945 29.892C32.4963 29.4757 32.386 29.1154 32.1556 28.7758C31.6536 27.9955 31.3354 27.1948 30.5019 26L30.4453 25.9188V24.6727C31.5304 26.2504 32.1322 27.4335 32.7597 28.3587C33.0667 28.8113 33.218 29.3043 33.2161 29.8592C33.2114 31.2475 33.2165 35.6294 33.2114 37.0177C33.2114 37.0177 33.0982 38.0335 33.2114 38.0778H37.2447C37.2865 38.0946 37.33 38.1068 37.3931 38.1278V37.942C37.3931 36.2514 37.399 31.5676 37.3899 29.8771C37.387 29.3043 37.543 28.8017 37.8583 28.3369L38.1148 27.9586L38.1134 29.8764C38.1217 30.0462 38.1148 33.2104 38.1148 33.381C38.1148 34.9937 38.1145 36.6067 38.1155 38.2194C38.1159 38.4308 38.0847 38.6289 37.929 38.78C37.7208 38.9822 37.2447 38.9841 37.2447 38.9841C34.7594 39.0199 32.977 38.9841 32.977 38.9841C32.6228 38.8417 32.4945 38.6208 32.4945 38.2194C32.4945 36.7868 32.4872 31.3246 32.4945 29.892Z" fill="#BDFF57"/>
<path d="M38.1148 18V18.7697H30.4453V18H38.1148Z" fill="#BDFF57"/>
<path d="M44.8421 18.2122C44.7503 18.1183 44.6172 18.0695 44.5029 18H32.4657V18.7697H44.1542C44.1197 18.8247 44.0936 18.8685 44.0649 18.9109C42.704 21.4921 39.2215 26.2934 37.8208 28.3587C37.5138 28.8113 37.3625 29.3043 37.3643 29.8592C37.3691 31.2475 37.364 35.6294 37.3691 37.0177C37.3691 37.0177 37.4823 38.0335 37.3691 38.0778H33.3357C33.294 38.0946 33.2505 38.1068 33.1873 38.1278V37.942C33.1873 36.2514 33.1815 31.5676 33.1906 29.8771C33.1935 29.3043 33.0375 28.8017 32.7222 28.3369L32.4657 27.9586L32.4671 29.8764C32.4588 30.0462 32.4657 33.2104 32.4657 33.381C32.4657 34.9937 32.466 36.6067 32.4649 38.2194C32.4646 38.4308 32.4958 38.6289 32.6514 38.78C32.8597 38.9822 33.3357 38.9841 33.3357 38.9841C35.8211 39.0199 37.6035 38.9841 37.6035 38.9841C37.9577 38.8417 38.086 38.6208 38.086 38.2194C38.086 36.7868 38.0933 31.3246 38.086 29.892C38.0842 29.4757 38.1945 29.1154 38.4249 28.7758C39.9012 26.4809 43.6231 21.4921 44.8138 19.1124C44.8541 19.0529 44.8922 18.9914 44.9248 18.9273C45.0478 18.6842 45.0261 18.4007 44.8421 18.2122Z" stroke="#BDFF57" stroke-width="0.8"/>
<path d="M32.4945 29.892C32.4963 29.4757 32.386 29.1154 32.1556 28.7758C31.6536 27.9955 31.3354 27.1948 30.5019 26L30.4453 25.9188V24.6727C31.5304 26.2504 32.1322 27.4335 32.7597 28.3587C33.0667 28.8113 33.218 29.3043 33.2161 29.8592C33.2114 31.2475 33.2165 35.6294 33.2114 37.0177C33.2114 37.0177 33.0982 38.0335 33.2114 38.0778H37.2447C37.2865 38.0946 37.33 38.1068 37.3931 38.1278V37.942C37.3931 36.2514 37.399 31.5676 37.3899 29.8771C37.387 29.3043 37.543 28.8017 37.8583 28.3369L38.1148 27.9586L38.1134 29.8764C38.1217 30.0462 38.1148 33.2104 38.1148 33.381C38.1148 34.9937 38.1145 36.6067 38.1155 38.2194C38.1159 38.4308 38.0847 38.6289 37.929 38.78C37.7208 38.9822 37.2447 38.9841 37.2447 38.9841C34.7594 39.0199 32.977 38.9841 32.977 38.9841C32.6228 38.8417 32.4945 38.6208 32.4945 38.2194C32.4945 36.7868 32.4872 31.3246 32.4945 29.892Z" stroke="#BDFF57" stroke-width="0.8"/>
<path d="M38.1148 18V18.7697H30.4453V18H38.1148Z" stroke="#BDFF57" stroke-width="0.8"/>
<path d="M33.1365 21.3734L35.1704 24.8551C35.3524 25.0483 35.6475 25.0483 35.8296 24.8551L37.8635 21.3734C38.0455 21.1803 38.0455 20.8671 37.8635 20.674C37.6815 20.4809 37.3864 20.4809 37.2044 20.674L35.9661 23.3115C35.9661 23.3115 36.0148 22.6242 35.9712 18.4645C35.9685 18.2077 35.7594 18 35.5027 18C35.2438 18 35.0339 18.209 35.0339 18.4678V23.3115L33.7956 20.674C33.6136 20.4809 33.3185 20.4809 33.1365 20.674C32.9545 20.8671 32.9545 21.1803 33.1365 21.3734Z" fill="#BDFF57" stroke="#BDFF57" stroke-width="0.5"/>
<path d="M31.5381 27.2072V26.4072V23.1072V17.5072C31.5381 17.4772 31.5281 17.4072 31.5181 17.3072C31.4881 17.0472 31.4381 16.6272 31.4381 16.4072C31.4381 16.2072 31.3381 16.1072 31.3381 16.0072L31.0381 15.1072C29.5381 12.6072 27.5381 11.5072 24.6381 12.2072C23.3381 12.5072 22.3381 13.3072 21.6381 14.3072C20.8381 15.3072 20.5381 16.5072 20.6381 17.8072C16.7381 18.3072 14.4381 23.1072 17.2381 26.6072C14.5381 30.1072 16.7381 34.9072 20.6381 35.4072C20.7381 36.0072 20.7381 36.7072 20.9381 37.3072C21.6381 39.7072 23.9381 41.4072 26.5381 41.2072C29.0381 41.1072 31.1381 39.1072 31.5381 36.7072C31.5381 36.4072 31.6381 36.0072 31.6381 35.7072V30.9072L31.5381 27.2072ZM29.7381 35.7072C29.7381 38.1072 27.4381 40.0072 24.8381 39.2072C23.3381 38.8072 22.4381 37.4072 22.3381 35.9072C22.3381 35.4072 22.3381 35.2072 22.6381 35.2072C23.6381 35.0072 24.5381 34.5072 25.2381 33.8072C25.5381 33.5072 25.6381 33.1072 25.4381 32.8072C25.2381 32.5072 24.8381 32.3072 24.5381 32.4072C24.3381 32.5072 24.1381 32.6072 23.9381 32.7072C22.4381 34.1072 20.1381 34.0072 18.7381 32.5072C17.3381 31.0072 17.3381 28.7072 18.7381 27.3072C19.2381 26.8072 19.2381 26.2072 18.7381 25.7072C17.0381 24.0072 17.3381 21.2072 19.3381 20.0072C20.7381 19.1072 22.6381 19.2072 23.9381 20.4072C24.4381 20.8072 24.9381 20.8072 25.2381 20.4072C25.5381 20.0072 25.5381 19.5072 25.0381 19.1072C24.3381 18.4072 23.4381 18.0072 22.4381 17.8072C22.1381 17.7072 22.1381 17.6072 22.2381 17.2072C22.2381 15.7072 23.2381 14.2072 24.7381 13.8072C27.3381 13.0072 29.7381 14.9072 29.7381 17.3072V18.8072C29.7381 19.2072 29.7381 19.7072 29.7381 20.1072V26.5072C29.7381 29.6072 29.8381 32.7072 29.7381 35.7072Z" fill="#BDFF57"/>
</g>
<defs>
<filter id="filter0_d_393_18833" x="0" y="0" width="61.4023" height="61.2232" filterUnits="userSpaceOnUse" color-interpolation-filters="sRGB">
<feFlood flood-opacity="0" result="BackgroundImageFix"/>
<feColorMatrix in="SourceAlpha" type="matrix" values="0 0 0 0 0 0 0 0 0 0 0 0 0 0 0 0 0 0 127 0" result="hardAlpha"/>
<feOffset dy="4"/>
<feGaussianBlur stdDeviation="8"/>
<feComposite in2="hardAlpha" operator="out"/>
<feColorMatrix type="matrix" values="0 0 0 0 0.741176 0 0 0 0 1 0 0 0 0 0.341176 0 0 0 1 0"/>
<feBlend mode="normal" in2="BackgroundImageFix" result="effect1_dropShadow_393_18833"/>
<feBlend mode="normal" in="SourceGraphic" in2="effect1_dropShadow_393_18833" result="shape"/>
</filter>
</defs>
</svg>
