<svg width="76" height="67" viewBox="0 0 76 67" fill="none" xmlns="http://www.w3.org/2000/svg">
<g filter="url(#filter0_d_364_147)">
<path d="M17.034 14.7226C17.0793 14.6206 17.1247 14.53 17.1587 14.428C17.4533 13.646 18.02 13.1813 18.8359 13.034C19.0513 13 19.2666 13 19.4933 13C31.8462 13 44.1991 13 56.5407 13C56.7674 13 57.0054 13 57.2321 13.0453C58.1954 13.2153 58.898 13.9746 58.9887 14.9493C59 15.0966 59 15.2439 59 15.4026C59 22.9617 59 30.5094 59 38.0685C59 39.6325 58.15 40.4825 56.5974 40.4825C52.7442 40.4825 48.891 40.4825 45.0378 40.4825C44.8791 40.4825 44.7091 40.4825 44.5165 40.4825C44.5165 41.9557 44.5165 43.4064 44.5165 44.9023C44.6525 44.9137 44.7998 44.925 44.9471 44.925C45.7518 44.925 46.5564 44.9137 47.361 44.9363C47.837 44.9477 48.109 45.231 48.0977 45.639C48.0863 46.0243 47.8144 46.2736 47.3497 46.2963C47.2704 46.2963 47.191 46.2963 47.1004 46.2963C41.0372 46.2963 34.9741 46.2963 28.8996 46.2963C28.741 46.2963 28.571 46.2963 28.4123 46.2623C28.0836 46.1829 27.9023 45.9563 27.9023 45.6163C27.9023 45.2763 28.0836 45.0496 28.4236 44.9816C28.5823 44.9476 28.7523 44.9363 28.911 44.9363C29.7609 44.9363 30.5996 44.9363 31.4835 44.9363C31.4835 43.463 31.4835 42.0124 31.4835 40.4938C31.3249 40.4938 31.1662 40.4938 31.0076 40.4938C27.2337 40.4938 23.4711 40.4598 19.6972 40.5051C18.36 40.5165 17.4193 40.0745 17 38.7598C17.034 30.7361 17.034 22.735 17.034 14.7226ZM38.068 14.3713C31.8915 14.3713 25.7151 14.3713 19.5386 14.3713C18.6093 14.3713 18.4053 14.5753 18.4053 15.4933C18.4053 22.9843 18.4053 30.4754 18.4053 37.9552C18.4053 38.0799 18.4053 38.2045 18.4166 38.3292C18.4506 38.7938 18.6886 39.0432 19.1533 39.0998C19.3119 39.1225 19.4819 39.1112 19.6406 39.1112C31.9029 39.1112 44.1538 39.1112 56.4161 39.1112C56.5747 39.1112 56.7447 39.1112 56.9034 39.0998C57.3794 39.0432 57.606 38.7938 57.64 38.3292C57.6514 38.2159 57.6514 38.1139 57.6514 38.0005C57.6514 30.4868 57.6514 22.973 57.6514 15.4479C57.6514 15.3006 57.6514 15.1419 57.6287 14.9946C57.572 14.6433 57.3567 14.4393 57.0054 14.3826C56.8354 14.36 56.6541 14.36 56.4727 14.36C50.3416 14.3713 44.2105 14.3713 38.068 14.3713ZM43.1225 44.891C43.1225 43.4064 43.1225 41.9671 43.1225 40.5051C39.7113 40.5051 36.3227 40.5051 32.9342 40.5051C32.9342 41.9784 32.9342 43.4177 32.9342 44.891C36.3341 44.891 39.7113 44.891 43.1225 44.891Z" fill="#FEFF00" stroke="#FEFF00" stroke-width="1.2"/>
<path d="M47.3236 29.5925C47.3236 31.535 47.3236 33.4845 47.3236 35.427C47.3236 36.0722 46.5376 36.4929 45.7612 36.2755C45.3051 36.1493 45.014 35.8548 45.0043 35.4831C44.9946 35.0834 45.0043 34.6766 45.0043 34.2769C45.0043 30.7916 45.0043 29.5465 45.0043 26.0612C45.0043 25.43 45.6448 25.0303 46.4308 25.1566C46.984 25.2477 47.3333 25.5843 47.3333 26.0542C47.3333 27.9826 47.3236 27.664 47.3236 29.5925Z" fill="#FEFF00"/>
<path d="M50.5996 31.5217C50.5996 30.1955 50.5996 31.0048 50.5996 29.6786C50.5996 29.2521 51.0371 28.9189 51.6302 28.8722C52.2038 28.8256 52.7482 29.0788 52.8941 29.472C52.9329 29.5653 52.9329 29.6719 52.9329 29.7652C52.9329 32.3643 52.9329 32.8345 52.9329 35.4336C52.9329 35.9667 52.4663 36.3266 51.776 36.3333C51.076 36.3399 50.5996 35.9667 50.5996 35.4203C50.5996 34.1207 50.5996 32.8212 50.5996 31.5217Z" fill="#FEFF00"/>
<path d="M39.4101 32.3266C39.4101 31.3555 39.4101 32.7271 39.4101 31.756C39.4101 31.138 39.8651 30.7407 40.5622 30.7334C41.2593 30.726 41.7337 31.1307 41.7337 31.7413C41.7337 33.7424 41.7337 33.4007 41.7337 35.4018C41.7337 35.7991 41.5014 36.0934 41.0173 36.2553C40.5816 36.4024 40.1653 36.3362 39.7973 36.1008C39.5166 35.9168 39.4004 35.6741 39.4004 35.3871C39.4198 34.3719 39.4101 33.3492 39.4101 32.3266Z" fill="#FEFF00"/>
<path d="M39.9669 17.6716C40.067 17.6865 40.162 17.7013 40.262 17.7162C41.2324 17.8947 42.0128 18.6781 42.1628 19.64C42.2979 20.4927 42.0628 21.2315 41.4275 21.8215C40.9173 22.2975 40.297 22.5008 39.5968 22.4512C39.4267 22.4413 39.2616 22.3967 39.0965 22.3669C39.0615 22.362 39.0365 22.362 39.0115 22.3917C38.945 22.4615 38.8783 22.5312 38.8114 22.6007C38.5363 22.8866 38.2587 23.1705 37.9811 23.4577C37.6159 23.8345 37.2458 24.2113 36.8806 24.5882C36.7356 24.7369 36.5955 24.8807 36.4554 25.0245C36.5205 25.1385 36.5805 25.2426 36.6355 25.3567C37.3308 26.735 36.5005 28.4307 34.9848 28.748C33.8693 28.981 32.7789 28.4654 32.2887 27.4688C31.9735 26.8292 31.9635 26.1698 32.2137 25.5104C32.2337 25.4558 32.2287 25.431 32.1836 25.3914C31.8035 25.0542 31.4233 24.7121 31.0482 24.37C31.0332 24.3601 31.0231 24.3452 31.0031 24.3303C30.613 24.5782 30.1878 24.7171 29.7226 24.727C29.2574 24.7369 28.8272 24.6229 28.4271 24.3849C27.9319 24.96 27.4416 25.5302 26.9464 26.1053C26.9614 26.1252 26.9714 26.145 26.9865 26.1648C27.3066 26.6011 27.4717 27.087 27.4667 27.6225C27.4567 28.6241 26.8364 29.4868 25.886 29.8388C25.6409 29.928 25.3908 29.9826 25.1307 29.9975C25.1157 29.9975 25.1057 30.0024 25.0907 30.0074C25.0406 30.0074 24.9956 30.0074 24.9456 30.0074C24.8606 29.9974 24.7805 29.9925 24.6955 29.9776C24.1353 29.8933 23.6551 29.6504 23.2649 29.2438C22.9247 28.8868 22.7097 28.4654 22.6346 27.9795C22.6196 27.8903 22.6096 27.801 22.5996 27.7118C22.5996 27.6324 22.5996 27.5531 22.5996 27.4738C22.6096 27.3895 22.6196 27.3002 22.6346 27.2159C22.7897 26.1896 23.62 25.3715 24.6605 25.2228C25.0356 25.1682 25.4058 25.198 25.7659 25.312C25.806 25.3269 25.826 25.322 25.856 25.2872C26.3912 24.6625 26.9214 24.0428 27.4617 23.423C27.4917 23.3883 27.4867 23.3685 27.4717 23.3337C27.3166 23.0115 27.2366 22.6694 27.2416 22.3173C27.2466 21.6877 27.4617 21.1373 27.8918 20.6762C28.322 20.2201 28.8572 19.9821 29.4775 19.9275C30.4229 19.8482 31.1432 20.23 31.6734 20.9886C31.9535 21.3803 32.0936 21.8215 32.0886 22.3074C32.0836 22.6347 32.0136 22.952 31.8885 23.2544C31.8735 23.2842 31.8735 23.304 31.9035 23.3288C32.3037 23.6808 32.6989 24.0378 33.099 24.3948C33.104 24.3997 33.104 24.3997 33.104 24.3849C33.2941 24.3006 33.4842 24.2014 33.6793 24.127C34.2245 23.9337 34.7697 23.9634 35.31 24.1568C35.36 24.1766 35.39 24.1717 35.425 24.132C36.0102 23.5271 36.5955 22.9272 37.1857 22.3273C37.3904 22.1154 37.5991 21.9036 37.8045 21.6917C37.8251 21.6705 37.8456 21.6493 37.866 21.6282C37.876 21.6182 37.886 21.6034 37.891 21.5984C37.801 21.4546 37.706 21.3158 37.6259 21.172C37.1357 20.2746 37.3108 19.1243 38.0361 18.4004C38.4463 17.9889 38.9365 17.7509 39.5117 17.6815C39.5467 17.6765 39.5817 17.6716 39.6168 17.6666C39.7518 17.6716 39.8619 17.6716 39.9669 17.6716ZM39.7818 21.1175C40.3721 21.1175 40.8373 20.6465 40.8323 20.0564C40.8323 19.5011 40.3521 19.04 39.7818 19.04C39.1616 19.04 38.7164 19.5507 38.7264 20.106C38.7414 20.6514 39.2116 21.1175 39.7818 21.1175ZM29.6526 21.296C29.0873 21.3059 28.6121 21.7819 28.6271 22.362C28.6421 22.9173 29.1023 23.3982 29.7076 23.3833C30.2678 23.3734 30.728 22.8974 30.723 22.3223C30.718 21.7571 30.2278 21.2712 29.6526 21.296ZM34.4596 27.4291C35.0348 27.4291 35.51 26.9631 35.51 26.3929C35.51 25.8277 35.0348 25.3467 34.4696 25.3467C33.8944 25.3467 33.4142 25.8277 33.4142 26.3979C33.4142 26.9631 33.8894 27.4291 34.4596 27.4291ZM25.0757 28.634C25.6459 28.634 26.1211 28.1679 26.1261 27.6176C26.1361 27.0474 25.6809 26.5615 25.0857 26.5565C24.4954 26.5565 24.0252 27.0226 24.0252 27.5928C24.0252 28.158 24.5054 28.634 25.0757 28.634Z" fill="#FEFF00"/>
<path d="M37.8045 21.6917C37.5991 21.9036 37.3904 22.1154 37.1857 22.3273C36.5955 22.9272 36.0102 23.5271 35.425 24.132C35.39 24.1717 35.36 24.1766 35.31 24.1568C34.7697 23.9634 34.2245 23.9337 33.6793 24.127C33.4842 24.2014 33.2941 24.3006 33.104 24.3849C33.104 24.3997 33.104 24.3997 33.099 24.3948C32.6989 24.0378 32.3037 23.6808 31.9035 23.3288C31.8735 23.304 31.8735 23.2842 31.8885 23.2544C32.0136 22.952 32.0836 22.6347 32.0886 22.3074C32.0936 21.8215 31.9535 21.3803 31.6734 20.9886C31.1432 20.23 30.4229 19.8482 29.4775 19.9275C28.8572 19.9821 28.322 20.2201 27.8918 20.6762C27.4617 21.1373 27.2466 21.6877 27.2416 22.3173C27.2366 22.6694 27.3166 23.0115 27.4717 23.3337C27.4867 23.3685 27.4917 23.3883 27.4617 23.423C26.9214 24.0428 26.3912 24.6625 25.856 25.2872C25.826 25.322 25.806 25.3269 25.7659 25.312C25.4058 25.198 25.0356 25.1682 24.6605 25.2228C23.62 25.3715 22.7897 26.1896 22.6346 27.2159C22.6196 27.3002 22.6096 27.3895 22.5996 27.4738C22.5996 27.5531 22.5996 27.6324 22.5996 27.7118C22.6096 27.801 22.6196 27.8903 22.6346 27.9795C22.7097 28.4654 22.9247 28.8868 23.2649 29.2438C23.6551 29.6504 24.1353 29.8933 24.6955 29.9776C24.7805 29.9925 24.8606 29.9974 24.9456 30.0074C24.9956 30.0074 25.0406 30.0074 25.0907 30.0074C25.1057 30.0024 25.1157 29.9975 25.1307 29.9975C25.3908 29.9826 25.6409 29.928 25.886 29.8388C26.8364 29.4868 27.4567 28.6241 27.4667 27.6225C27.4717 27.087 27.3066 26.6011 26.9865 26.1648C26.9714 26.145 26.9614 26.1252 26.9464 26.1053C27.4416 25.5302 27.9319 24.96 28.4271 24.3849C28.8272 24.6229 29.2574 24.7369 29.7226 24.727C30.1878 24.7171 30.613 24.5782 31.0031 24.3303C31.0231 24.3452 31.0332 24.3601 31.0482 24.37C31.4233 24.7121 31.8035 25.0542 32.1836 25.3914C32.2287 25.431 32.2337 25.4558 32.2137 25.5104C31.9635 26.1698 31.9735 26.8292 32.2887 27.4688C32.7789 28.4654 33.8693 28.981 34.9848 28.748C36.5005 28.4307 37.3308 26.735 36.6355 25.3567C36.5805 25.2426 36.5205 25.1385 36.4554 25.0245C36.5955 24.8807 36.7356 24.7369 36.8806 24.5882C37.2458 24.2113 37.6159 23.8345 37.9811 23.4577C38.2587 23.1705 38.5363 22.8866 38.8114 22.6007M37.8045 21.6917C37.8251 21.6705 37.8456 21.6493 37.866 21.6282C37.876 21.6182 37.886 21.6034 37.891 21.5984C37.801 21.4546 37.706 21.3158 37.6259 21.172C37.1357 20.2746 37.3108 19.1243 38.0361 18.4004C38.4463 17.9889 38.9365 17.7509 39.5117 17.6815C39.5467 17.6765 39.5817 17.6716 39.6168 17.6666C39.7518 17.6716 39.8619 17.6716 39.9669 17.6716C40.067 17.6865 40.162 17.7013 40.262 17.7162C41.2324 17.8947 42.0128 18.6781 42.1628 19.64C42.2979 20.4927 42.0628 21.2315 41.4275 21.8215C40.9173 22.2975 40.297 22.5008 39.5968 22.4512C39.4267 22.4413 39.2616 22.3967 39.0965 22.3669C39.0615 22.362 39.0365 22.362 39.0115 22.3917C38.945 22.4615 38.8783 22.5312 38.8114 22.6007M37.8045 21.6917L38.8114 22.6007M39.7818 21.1175C40.3721 21.1175 40.8373 20.6465 40.8323 20.0564C40.8323 19.5011 40.3521 19.04 39.7818 19.04C39.1616 19.04 38.7164 19.5507 38.7264 20.106C38.7414 20.6514 39.2116 21.1175 39.7818 21.1175ZM29.6526 21.296C29.0873 21.3059 28.6121 21.7819 28.6271 22.362C28.6421 22.9173 29.1023 23.3982 29.7076 23.3833C30.2678 23.3734 30.728 22.8974 30.723 22.3223C30.718 21.7571 30.2278 21.2712 29.6526 21.296ZM34.4596 27.4291C35.0348 27.4291 35.51 26.9631 35.51 26.3929C35.51 25.8277 35.0348 25.3467 34.4696 25.3467C33.8944 25.3467 33.4142 25.8277 33.4142 26.3979C33.4142 26.9631 33.8894 27.4291 34.4596 27.4291ZM25.0757 28.634C25.6459 28.634 26.1211 28.1679 26.1261 27.6176C26.1361 27.0474 25.6809 26.5615 25.0857 26.5565C24.4954 26.5565 24.0252 27.0226 24.0252 27.5928C24.0252 28.158 24.5054 28.634 25.0757 28.634Z" stroke="#FEFF00" stroke-width="0.6"/>
</g>
<defs>
<filter id="filter0_d_364_147" x="0.400391" y="0.400024" width="75.1992" height="66.4962" filterUnits="userSpaceOnUse" color-interpolation-filters="sRGB">
<feFlood flood-opacity="0" result="BackgroundImageFix"/>
<feColorMatrix in="SourceAlpha" type="matrix" values="0 0 0 0 0 0 0 0 0 0 0 0 0 0 0 0 0 0 127 0" result="hardAlpha"/>
<feOffset dy="4"/>
<feGaussianBlur stdDeviation="8"/>
<feComposite in2="hardAlpha" operator="out"/>
<feColorMatrix type="matrix" values="0 0 0 0 0.996078 0 0 0 0 1 0 0 0 0 0 0 0 0 1 0"/>
<feBlend mode="normal" in2="BackgroundImageFix" result="effect1_dropShadow_364_147"/>
<feBlend mode="normal" in="SourceGraphic" in2="effect1_dropShadow_364_147" result="shape"/>
</filter>
</defs>
</svg>
