<svg width="76" height="76" viewBox="0 0 76 76" fill="none" xmlns="http://www.w3.org/2000/svg">
<g filter="url(#filter0_d_358_38)">
<path d="M59 18.1723C58.9139 18.4686 58.8469 18.7746 58.7512 19.071C57.7082 22.0347 54.158 23.1055 51.6605 21.2125C51.5648 21.136 51.4595 21.0691 51.4021 21.0309C48.9333 23.4975 46.474 25.945 44.0147 28.4021C45.6798 30.8496 45.6798 33.3257 43.986 35.821C44.053 35.8975 44.12 35.9836 44.1966 36.0601C45.986 37.8479 47.7754 39.6357 49.5648 41.4235C49.7371 41.5956 49.8615 41.6625 50.1198 41.5478C51.3447 40.9742 52.7896 41.2992 53.6604 42.3031C54.5695 43.3643 54.6652 44.8462 53.9092 45.9935C53.182 47.0834 51.7753 47.5996 50.5218 47.2172C49.1725 46.8061 48.2921 45.6589 48.34 44.2535C48.3591 43.7659 48.5314 43.2783 48.6271 42.8002C46.7228 40.8977 44.7707 38.9473 42.8473 37.0257C42.2732 37.2934 41.6416 37.5993 40.9909 37.8861C40.7517 37.9913 40.4933 38.0582 40.2445 38.0773C39.9479 38.106 39.9 38.2494 39.9 38.5076C39.9096 40.8403 39.9096 43.1827 39.9 45.5154C39.9 45.8309 40.0053 45.9265 40.2923 46.003C42.3593 46.548 43.7564 48.3836 43.7372 50.4965C43.7181 52.5616 42.2444 54.3781 40.1871 54.8752C37.1632 55.6018 34.2638 53.0492 34.6178 49.9707C34.8379 48.0107 36.1106 46.5097 38.0149 46.0126C38.3115 45.9361 38.4072 45.8309 38.4072 45.525C38.3977 43.2018 38.3977 40.8786 38.4072 38.5554C38.4072 38.259 38.3307 38.1347 38.0149 38.0773C37.0675 37.9244 36.2255 37.5133 35.4312 36.9205C35.3164 37.0257 35.2111 37.1308 35.1059 37.2264C32.0438 40.2858 28.9721 43.3548 25.9004 46.4141C25.6803 46.6245 25.6516 46.7774 25.7664 47.0738C26.4841 48.8234 26.264 50.4678 25.02 51.8923C23.7473 53.3455 22.1014 53.814 20.2642 53.2691C18.4747 52.7337 17.3838 51.4812 17.0681 49.6265C16.7427 47.7622 17.6039 45.9457 19.2211 44.98C20.8287 43.9953 22.7904 44.11 24.3215 45.2573C24.4172 45.3338 24.5224 45.4007 24.5798 45.4485C27.8142 42.2171 31.0294 39.0047 34.2542 35.7828C32.5413 33.4022 32.6657 30.5723 34.2925 28.3542C34.2255 28.2778 34.1585 28.1917 34.082 28.1152C32.2926 26.3274 30.5031 24.5396 28.7137 22.7518C28.5223 22.5606 28.3883 22.5319 28.1204 22.6466C26.7903 23.2585 25.221 22.7996 24.3789 21.5949C23.5751 20.4094 23.7282 18.7459 24.7616 17.7229C25.7951 16.6999 27.4601 16.547 28.6371 17.3692C29.862 18.2201 30.2926 19.8071 29.6706 21.1456C29.6323 21.2316 29.5845 21.3177 29.5653 21.375C31.5175 23.335 33.46 25.2758 35.4217 27.2357C37.8809 25.553 40.3689 25.553 42.876 27.2548C42.9621 27.1783 43.0387 27.1114 43.1152 27.0349C45.4597 24.6926 47.7945 22.3598 50.139 20.0174C50.2921 19.8645 50.3878 19.7593 50.273 19.5012C49.0098 16.6904 50.627 13.6501 53.6796 13.0669C53.7274 13.0574 53.7753 13.0191 53.8231 13C54.2059 13 54.5886 13 54.9714 13C55.0384 13.0191 55.0958 13.0574 55.1628 13.0669C56.9713 13.4111 58.1675 14.4723 58.7703 16.1932C58.866 16.4609 58.9235 16.7382 58.9904 17.0154C59 17.4074 59 17.7898 59 18.1723ZM39.1345 27.5225C36.6082 27.5225 34.5413 29.5876 34.5509 32.1115C34.5604 34.6164 36.6082 36.6528 39.1249 36.6815C41.632 36.7006 43.7277 34.626 43.7277 32.102C43.7277 29.578 41.6607 27.5129 39.1345 27.5225ZM39.1536 53.4507C40.8474 53.4411 42.1966 52.074 42.187 50.3913C42.1679 48.7278 40.8091 47.3702 39.1536 47.3702C37.479 47.3702 36.1011 48.7373 36.1011 50.42C36.0915 52.1027 37.4599 53.4603 39.1536 53.4507ZM18.5226 48.8712C18.513 50.5443 19.8814 51.921 21.556 51.9306C23.2114 51.9401 24.6085 50.5539 24.6181 48.8903C24.6277 47.2268 23.2497 45.8405 21.5751 45.8309C19.9197 45.8118 18.5321 47.1981 18.5226 48.8712ZM54.4355 14.5488C52.7609 14.5392 51.3734 15.9064 51.3638 17.5795C51.3543 19.2335 52.7035 20.6102 54.3685 20.6389C56.0431 20.6676 57.4307 19.31 57.4498 17.6273C57.4785 15.9351 56.1293 14.5584 54.4355 14.5488ZM51.3447 45.8214C52.1963 45.8309 52.8853 45.1521 52.8758 44.3013C52.8662 43.4695 52.1963 42.7907 51.3638 42.7811C50.5313 42.7716 49.8136 43.479 49.8232 44.3108C49.8328 45.133 50.5217 45.8118 51.3447 45.8214ZM26.9147 21.3942C27.7472 21.3942 28.4266 20.7345 28.4362 19.9027C28.4553 19.071 27.7472 18.3539 26.9147 18.3539C26.0726 18.3539 25.3741 19.0614 25.3932 19.9027C25.4028 20.7345 26.0726 21.3942 26.9147 21.3942Z" fill="#FEFF00" stroke="#FEFF00"/>
</g>
<defs>
<filter id="filter0_d_358_38" x="0.5" y="0.5" width="75" height="75.0002" filterUnits="userSpaceOnUse" color-interpolation-filters="sRGB">
<feFlood flood-opacity="0" result="BackgroundImageFix"/>
<feColorMatrix in="SourceAlpha" type="matrix" values="0 0 0 0 0 0 0 0 0 0 0 0 0 0 0 0 0 0 127 0" result="hardAlpha"/>
<feOffset dy="4"/>
<feGaussianBlur stdDeviation="8"/>
<feComposite in2="hardAlpha" operator="out"/>
<feColorMatrix type="matrix" values="0 0 0 0 0.996078 0 0 0 0 1 0 0 0 0 0 0 0 0 1 0"/>
<feBlend mode="normal" in2="BackgroundImageFix" result="effect1_dropShadow_358_38"/>
<feBlend mode="normal" in="SourceGraphic" in2="effect1_dropShadow_358_38" result="shape"/>
</filter>
</defs>
</svg>
