<svg width="73" height="76" viewBox="0 0 73 76" fill="none" xmlns="http://www.w3.org/2000/svg">
<g filter="url(#filter0_d_364_153)">
<path d="M37.1246 13.0107C37.8274 13.2354 38.5627 13.3853 39.2331 13.6849C41.6444 14.8086 43.1366 17.516 42.8014 20.0416C42.4121 22.9203 40.4009 25.1034 37.6436 25.6385C37.4274 25.6813 37.2976 25.7134 37.2976 25.9809C37.3084 28.2924 37.3084 30.6039 37.3084 32.9155C37.3084 32.969 37.3192 33.0225 37.3408 33.1081C37.503 33.1081 37.6436 33.1081 37.795 33.1081C40.2712 33.1081 42.7474 33.1723 45.2127 33.0867C48.1106 32.9797 50.3597 35.1735 50.2408 38.0522C50.1867 39.3578 50.2407 40.674 50.2299 41.9903C50.2299 42.2365 50.2948 42.3435 50.5543 42.3863C53.6144 42.9749 55.8635 45.7037 55.7662 48.7001C55.6689 51.9213 53.3549 54.5004 50.1651 54.9391C46.7806 55.41 43.5475 53.0985 42.9528 49.781C42.3365 46.3244 44.5856 43.0498 48.0241 42.3649C48.1538 42.3435 48.3701 42.1829 48.3701 42.0866C48.3809 40.5456 48.435 38.9939 48.3377 37.4529C48.2403 35.8905 47.0725 34.9273 45.483 34.9059C44.5747 34.8952 43.6556 34.9059 42.7473 34.9059C37.622 34.9059 32.4966 34.9059 27.3713 34.9059C25.9223 34.9059 24.8735 35.6443 24.5058 36.9285C24.4193 37.2282 24.3869 37.5492 24.3869 37.8595C24.3761 39.2079 24.3869 40.567 24.3761 41.9154C24.3761 42.1936 24.4301 42.3114 24.7437 42.3756C27.847 42.9642 30.0096 45.7037 29.9123 48.8821C29.8258 51.9213 27.4361 54.5111 24.3328 54.9284C20.8618 55.3993 17.6612 53.0664 17.0881 49.6312C16.515 46.2709 18.7966 43.0391 22.2135 42.3756C22.4838 42.3221 22.5379 42.2258 22.5379 41.9689C22.5271 40.6526 22.5811 39.3364 22.527 38.0308C22.4081 35.12 24.6896 32.969 27.5118 33.0653C29.9988 33.1509 32.4858 33.0867 34.9728 33.0867C35.1242 33.0867 35.2648 33.0867 35.4378 33.0867C35.4486 32.9262 35.4594 32.8084 35.4594 32.6907C35.4594 30.4862 35.4594 28.2924 35.4702 26.0879C35.4702 25.7883 35.4053 25.6706 35.0809 25.617C32.0857 25.0499 29.8583 22.3103 29.9231 19.3032C29.988 16.189 32.302 13.5458 35.3729 13.0856C35.4594 13.0749 35.5459 13.0321 35.6432 13C36.1298 13.0107 36.6272 13.0107 37.1246 13.0107ZM18.8506 48.6359C18.8614 51.1508 20.9375 53.2055 23.4678 53.1948C25.998 53.1841 28.0849 51.1187 28.0741 48.6145C28.0741 46.1104 25.9764 44.0557 23.4462 44.0557C20.9051 44.0664 18.8398 46.1211 18.8506 48.6359ZM53.9064 48.6359C53.9172 46.1211 51.8519 44.0664 49.3108 44.0557C46.7806 44.045 44.6937 46.0997 44.6829 48.6145C44.6721 51.108 46.759 53.1841 49.2892 53.1948C51.8086 53.2055 53.8955 51.1508 53.9064 48.6359ZM36.3244 23.969C38.833 24.0225 40.9308 21.9892 40.9956 19.453C41.0497 16.981 38.9844 14.8835 36.4326 14.83C33.9239 14.7764 31.8262 16.8204 31.7613 19.346C31.7073 21.8287 33.7617 23.9048 36.3244 23.969Z" fill="#FEFF00" stroke="#FEFF00" stroke-width="0.8"/>
</g>
<defs>
<filter id="filter0_d_364_153" x="0.599609" y="0.598633" width="71.5703" height="74.8014" filterUnits="userSpaceOnUse" color-interpolation-filters="sRGB">
<feFlood flood-opacity="0" result="BackgroundImageFix"/>
<feColorMatrix in="SourceAlpha" type="matrix" values="0 0 0 0 0 0 0 0 0 0 0 0 0 0 0 0 0 0 127 0" result="hardAlpha"/>
<feOffset dy="4"/>
<feGaussianBlur stdDeviation="8"/>
<feComposite in2="hardAlpha" operator="out"/>
<feColorMatrix type="matrix" values="0 0 0 0 0.996078 0 0 0 0 1 0 0 0 0 0 0 0 0 1 0"/>
<feBlend mode="normal" in2="BackgroundImageFix" result="effect1_dropShadow_364_153"/>
<feBlend mode="normal" in="SourceGraphic" in2="effect1_dropShadow_364_153" result="shape"/>
</filter>
</defs>
</svg>
