<svg width="75" height="74" viewBox="0 0 75 74" fill="none" xmlns="http://www.w3.org/2000/svg">
<g filter="url(#filter0_d_286_15742)">
<path d="M38.3694 50.4553C38.3694 51.1883 38.3694 51.8776 38.3694 52.5778C38.3694 53.4092 37.8101 54 37.0534 54C36.2968 54 35.7485 53.4092 35.7485 52.5668C35.7485 51.8666 35.7485 51.1774 35.7485 50.4553C31.4278 50.0615 27.7102 48.3986 24.6616 45.3462C21.624 42.3157 19.9462 38.6179 19.5624 34.2965C18.8167 34.2965 18.0819 34.3074 17.3472 34.2965C16.3712 34.2856 15.7352 33.3556 16.108 32.5023C16.3273 31.9772 16.755 31.7036 17.3253 31.6818C17.6981 31.6708 18.06 31.6818 18.4328 31.6818C18.7838 31.6818 19.1456 31.6818 19.5514 31.6818C19.9352 27.3932 21.6021 23.6844 24.6507 20.643C27.6993 17.6016 31.4058 15.9277 35.7375 15.5339C35.7375 14.779 35.7265 14.046 35.7375 13.313C35.7485 12.569 36.3187 12.0002 37.0315 12.0002C37.7662 11.9892 38.3474 12.569 38.3584 13.3239C38.3694 13.7615 38.3584 14.1992 38.3584 14.6368C38.3584 14.9212 38.3584 15.2057 38.3584 15.5339C42.6681 15.9168 46.3747 17.5907 49.4233 20.6211C52.4719 23.6625 54.1497 27.3713 54.5445 31.6818C55.2464 31.6818 55.9372 31.6818 56.6171 31.6818C57.4944 31.6818 58.0866 32.2178 58.0976 32.9837C58.0976 33.7604 57.5054 34.2965 56.6281 34.3074C55.9482 34.3074 55.2573 34.3074 54.5445 34.3074C54.1607 38.607 52.4829 42.3157 49.4343 45.3572C46.3966 48.3986 42.6901 50.0834 38.3694 50.4553ZM51.8688 34.3074C51.4849 34.3074 51.1011 34.3074 50.7283 34.3074C49.9277 34.2965 49.3356 33.7276 49.3465 32.9837C49.3575 32.2397 49.9387 31.6927 50.7392 31.6818C51.1231 31.6818 51.4959 31.6818 51.8797 31.6818C51.3972 24.6581 45.4316 18.6847 38.3694 18.2142C38.3694 18.5972 38.3694 18.9801 38.3694 19.352C38.3584 20.1507 37.7991 20.7415 37.0644 20.7415C36.3297 20.7415 35.7594 20.1507 35.7485 19.352C35.7485 18.9691 35.7485 18.5972 35.7485 18.2142C28.5217 18.6628 22.5671 24.9972 22.271 31.6818C22.6439 31.6818 23.0057 31.6818 23.3786 31.6818C24.1791 31.6927 24.7713 32.2397 24.7823 32.9837C24.7932 33.7385 24.1901 34.3074 23.3676 34.3074C22.9948 34.3074 22.611 34.3074 22.2381 34.3074C22.8632 42.0313 29.4429 47.4468 35.7485 47.764C35.7485 47.3921 35.7485 47.031 35.7485 46.659C35.7594 45.8276 36.3187 45.2368 37.0754 45.2478C37.8211 45.2587 38.3694 45.8495 38.3803 46.6481C38.3803 47.031 38.3803 47.403 38.3803 47.7859C45.8264 47.2279 51.4849 40.9154 51.8688 34.3074Z" fill="#FEFF00"/>
<path d="M37.9737 34.3544H32C31.4477 34.3544 31 33.9067 31 33.3544V33.1364C31 32.5841 31.4477 32.1364 32 32.1364H37.897C38.4169 32.1364 38.843 32.0597 39.1754 31.9062C39.5078 31.7528 39.7528 31.5355 39.9105 31.2543C40.0682 30.973 40.147 30.6406 40.147 30.2571C40.147 29.8821 40.0682 29.5433 39.9105 29.2408C39.7528 28.9382 39.5121 28.6974 39.1882 28.5185C38.8643 28.3395 38.4595 28.25 37.9737 28.25H36.6087C36.0564 28.25 35.6087 28.6977 35.6087 29.25V39.0909C35.6087 39.6432 35.1609 40.0909 34.6087 40.0909H33.8601C33.3078 40.0909 32.8601 39.6432 32.8601 39.0909V27C32.8601 26.4477 33.3078 26 33.8601 26H37.9737C39.0092 26 39.8956 26.1854 40.6328 26.5561C41.3743 26.9226 41.9411 27.4254 42.3331 28.0646C42.7251 28.6996 42.919 29.4197 42.9148 30.2251C42.919 31.0689 42.7209 31.7997 42.3203 32.4176C41.9197 33.0355 41.3487 33.5128 40.6072 33.8494C39.8658 34.1861 38.9879 34.3544 37.9737 34.3544ZM37.4659 36.1982C38.0182 36.1982 38.4659 36.6459 38.4659 37.1982V37.4162C38.4659 37.9685 38.0182 38.4162 37.4659 38.4162H32C31.4477 38.4162 31 37.9685 31 37.4162V37.1982C31 36.6459 31.4477 36.1982 32 36.1982H37.4659Z" fill="#FEFF00"/>
</g>
<defs>
<filter id="filter0_d_286_15742" x="0" y="0" width="74.0977" height="74" filterUnits="userSpaceOnUse" color-interpolation-filters="sRGB">
<feFlood flood-opacity="0" result="BackgroundImageFix"/>
<feColorMatrix in="SourceAlpha" type="matrix" values="0 0 0 0 0 0 0 0 0 0 0 0 0 0 0 0 0 0 127 0" result="hardAlpha"/>
<feOffset dy="4"/>
<feGaussianBlur stdDeviation="8"/>
<feComposite in2="hardAlpha" operator="out"/>
<feColorMatrix type="matrix" values="0 0 0 0 0.996078 0 0 0 0 1 0 0 0 0 0 0 0 0 1 0"/>
<feBlend mode="normal" in2="BackgroundImageFix" result="effect1_dropShadow_286_15742"/>
<feBlend mode="normal" in="SourceGraphic" in2="effect1_dropShadow_286_15742" result="shape"/>
</filter>
</defs>
</svg>
