<svg width="61" height="62" viewBox="0 0 61 62" fill="none" xmlns="http://www.w3.org/2000/svg">
<g filter="url(#filter0_d_406_61994)">
<path d="M44.1982 26.9C44.1982 26.4 43.9982 25.8 43.8982 25.3L43.7982 25C43.6982 24.6 43.3982 24.4 42.9982 24.4C42.5982 24.4 42.2982 24.7 42.2982 25.1C42.2982 25.3 42.2982 25.5 42.3982 25.6C42.8982 27.6 42.7982 29.4 42.0982 31.2C40.6982 34.7 37.9982 36.7 34.2982 37C33.5982 37.1 32.8982 37 32.1982 36.9C32.1982 36.7 32.2982 36.4 32.2982 36.2V31.7C32.7982 31.9 33.1982 32 33.6982 32C34.5982 32 35.3982 31.7 36.1982 31C37.1982 30.2 37.6982 29.2 37.6982 27.9C37.6982 27.5 37.3982 27.1 36.9982 27.1C36.5982 27 36.1982 27.3 36.0982 27.7C36.0982 27.8 36.0982 27.9 36.0982 27.9C36.0982 28.6 35.6982 29.3 35.0982 29.8C34.4982 30.3 33.7982 30.4 32.9982 30.3C32.6982 30.2 32.3982 30.1 32.1982 29.9L32.0982 27.7V25.8C32.4982 25.5 32.9982 25.3 33.4982 25.3H33.9982C34.2982 25.3 34.4982 25.1 34.6982 24.8C34.7982 24.5 34.7982 24.2 34.4982 24C34.2982 23.8 34.0982 23.7 33.7982 23.7C33.1982 23.7 32.5982 23.7 32.0982 24V19C33.3982 18.8 34.6982 18.9 36.0982 19.3C36.2982 19.3 36.3982 19.3 36.4982 19.3C36.8982 19.3 37.0982 19 37.0982 18.6C37.0982 18.2 36.8982 17.9 36.4982 17.8C34.9982 17.4 33.4982 17.3 31.9982 17.5C31.9982 17.3 31.9982 17.2 31.9982 17.1C31.9982 16.9 31.8982 16.8 31.8982 16.7L31.5982 15.8C30.0982 13.3 28.0982 12.2 25.1982 12.9C23.9982 13.1 22.9982 13.9 22.2982 14.9C21.4982 15.9 21.1982 17.1 21.2982 18.4C17.3982 18.9 15.0982 23.7 17.8982 27.2C15.1982 30.7 17.3982 35.5 21.2982 36C21.3982 36.6 21.3982 37.3 21.5982 37.9C22.2982 40.3 24.5982 42 27.1982 41.8C29.2982 41.7 31.0982 40.3 31.8982 38.5C32.0982 38.5 32.1982 38.5 32.3982 38.6C32.4982 38.6 32.6982 38.6 32.8982 38.7H32.9982H33.0982H34.3982C34.5982 38.7 34.6982 38.6 34.8982 38.6C37.9982 38.2 40.3982 36.8 42.2982 34.3C43.7982 32.1 44.3982 29.7 44.1982 26.9ZM30.3982 36.3C30.3982 38.7 28.0982 40.6 25.4982 39.8C23.9982 39.4 23.0982 38 22.9982 36.5C22.9982 36 22.9982 35.8 23.2982 35.8C24.2982 35.6 25.1982 35.1 25.8982 34.4C26.1982 34.1 26.2982 33.7 26.0982 33.4C25.8982 33.1 25.4982 32.9 25.1982 33C24.9982 33.1 24.7982 33.2 24.5982 33.3C23.0982 34.7 20.7982 34.6 19.3982 33.1C17.9982 31.6 17.9982 29.3 19.3982 27.9C19.8982 27.4 19.8982 26.8 19.3982 26.3C17.6982 24.6 17.9982 21.8 19.9982 20.6C21.3982 19.7 23.2982 19.8 24.5982 21C25.0982 21.4 25.5982 21.4 25.8982 21C26.1982 20.6 26.1982 20.1 25.6982 19.7C24.9982 19 24.0982 18.6 23.0982 18.4C22.7982 18.3 22.7982 18.2 22.8982 17.8C22.8982 16.3 23.8982 14.8 25.3982 14.4C27.9982 13.6 30.3982 15.5 30.3982 17.9V36.3Z" fill="#BDFF57"/>
<path d="M43.4992 20.5H42.9992C42.3992 20.5 41.8992 20.4 41.2992 20.4C41.2992 20.1 41.2992 19.8 41.1992 19.5C41.1992 19.1 41.0992 18.7 41.0992 18.3C41.0992 17.9 40.8992 17.6 40.5992 17.5C40.2992 17.4 39.9992 17.5 39.6992 17.8C38.8992 18.6 38.1992 19.3 37.4992 20C37.2992 20.2 37.1992 20.5 37.0992 20.8C37.0992 21.2 36.9992 21.6 36.9992 22C36.8992 22.5 36.8992 23.1 36.7992 23.6C36.7992 23.8 36.6992 23.9 36.5992 24C35.8992 24.7 35.2992 25.3 34.5992 26L32.9992 27.6C32.6992 27.8 32.6992 28.1 32.6992 28.4C32.7992 28.7 32.9992 28.9 33.1992 28.9C33.2992 28.9 33.2992 28.9 33.3992 28.9C33.5992 28.9 33.7992 28.8 33.9992 28.6L34.6992 27.9C35.5992 27 36.4992 26.1 37.4992 25.1C37.6992 24.9 37.9992 24.8 38.2992 24.7C39.0992 24.6 39.9992 24.5 41.0992 24.4C41.2992 24.4 41.4992 24.3 41.5992 24.2C42.3992 23.4 43.1992 22.7 43.8992 21.9C43.9992 21.8 43.9992 21.7 44.0992 21.6C44.0992 21.5 44.0992 21.5 44.1992 21.5C44.1992 20.8 43.8992 20.5 43.4992 20.5ZM41.6992 22C41.4992 22.2 41.2992 22.3 41.1992 22.5C40.8992 22.8 40.6992 22.9 40.2992 22.9C39.8992 22.9 39.3992 23 38.9992 23C38.7992 23 38.6992 23 38.4992 23.1V22.9C38.4992 22.7 38.4992 22.5 38.5992 22.3C38.5992 21.8 38.6992 21.3 38.7992 20.9C38.7992 20.8 38.7992 20.8 38.7992 20.8C38.9992 20.5 39.1992 20.3 39.4992 20L39.5992 19.9V20C39.5992 20.3 39.6992 20.5 39.6992 20.8C39.7992 21.7 39.9992 21.8 40.7992 21.9C41.0992 21.9 41.2992 21.9 41.6992 22C41.6992 21.9 41.6992 22 41.6992 22Z" fill="#BDFF57"/>
</g>
<defs>
<filter id="filter0_d_406_61994" x="0.660156" y="0.69281" width="59.5742" height="61.1232" filterUnits="userSpaceOnUse" color-interpolation-filters="sRGB">
<feFlood flood-opacity="0" result="BackgroundImageFix"/>
<feColorMatrix in="SourceAlpha" type="matrix" values="0 0 0 0 0 0 0 0 0 0 0 0 0 0 0 0 0 0 127 0" result="hardAlpha"/>
<feOffset dy="4"/>
<feGaussianBlur stdDeviation="8"/>
<feComposite in2="hardAlpha" operator="out"/>
<feColorMatrix type="matrix" values="0 0 0 0 0.741176 0 0 0 0 1 0 0 0 0 0.341176 0 0 0 1 0"/>
<feBlend mode="normal" in2="BackgroundImageFix" result="effect1_dropShadow_406_61994"/>
<feBlend mode="normal" in="SourceGraphic" in2="effect1_dropShadow_406_61994" result="shape"/>
</filter>
</defs>
</svg>
