<svg width="62" height="62" viewBox="0 0 62 62" fill="none" xmlns="http://www.w3.org/2000/svg">
<g filter="url(#filter0_d_102_3159)">
<path d="M40.7661 35.4676C40.8656 38.6139 38.7754 40.427 37.0375 41.006C34.9549 41.6917 32.2982 41.1127 30.7286 38.8272C28.9677 41.067 26.7473 41.8897 24.0293 40.846C21.8702 40.0157 20.7907 38.2025 20.6605 35.4676C18.6546 35.0715 17.1616 33.9821 16.4036 32.0623C15.638 30.1349 15.9902 28.3294 17.2228 26.6534C15.9978 25.0079 15.638 23.2024 16.3959 21.2598C17.1539 19.3324 18.6316 18.2354 20.6452 17.8393C20.6682 15.1805 21.809 13.215 24.3585 12.339C26.9464 11.4553 29.0749 12.3466 30.7133 14.4644C32.3901 12.3161 34.5185 11.4933 37.1829 12.3618C38.339 12.7351 39.2272 13.4969 39.8933 14.5101C40.5517 15.5157 40.8274 16.628 40.7584 17.8316C42.795 18.2278 44.2804 19.3248 45.0383 21.2522C45.7963 23.1796 45.4441 24.9851 44.2115 26.6458C45.4441 28.2913 45.7963 30.0968 45.046 32.0242C44.2804 33.9592 42.8027 35.0715 40.7661 35.4676ZM29.8482 26.6687C29.8482 23.5909 29.8558 20.5208 29.8482 17.4431C29.8405 15.3557 28.1331 13.7102 26.0276 13.7407C23.9834 13.7712 22.3449 15.5005 22.3832 17.565C22.3909 17.7859 22.4445 17.8926 22.6818 17.9459C23.6848 18.1592 24.5576 18.6468 25.2926 19.3629C25.5912 19.6524 25.6525 20.0638 25.4687 20.4066C25.2926 20.7341 24.9175 20.9246 24.5423 20.8179C24.3432 20.7646 24.1442 20.6275 23.991 20.4904C22.4598 19.1267 20.1705 19.2029 18.7694 20.6732C17.353 22.1587 17.3989 24.4594 18.8766 25.8916C19.4508 26.4478 19.4508 26.8668 18.8766 27.4153C17.2305 29.0075 17.3913 31.6509 19.2135 33.0374C20.6912 34.1573 22.7507 34.0202 24.0753 32.748C24.4734 32.3671 25.0246 32.3747 25.3539 32.7403C25.6907 33.106 25.6448 33.6317 25.239 34.0126C24.4964 34.7058 23.6312 35.1705 22.6359 35.3838C22.4598 35.4219 22.3985 35.4829 22.3909 35.6581C22.2684 37.715 23.9604 39.5357 26.0276 39.5662C28.1408 39.6043 29.8482 37.9511 29.8482 35.8409C29.8558 32.786 29.8482 29.7236 29.8482 26.6687ZM31.5708 33.2279C31.5708 34.1192 31.5555 34.9801 31.5708 35.8485C31.6015 37.3874 32.3211 38.5377 33.7069 39.2005C35.0774 39.8557 36.4249 39.6957 37.6117 38.7511C38.8137 37.7912 39.2425 36.5189 38.9286 35.0029C38.898 34.8353 38.8673 34.6601 38.8903 34.5001C38.9439 34.1192 39.2961 33.7764 39.9086 33.7916C41.4628 33.8221 42.841 32.8927 43.4075 31.4757C43.9818 30.0588 43.6372 28.4742 42.5194 27.4076C41.9758 26.8896 41.9758 26.4401 42.5194 25.9221C43.6372 24.8479 43.9818 23.271 43.4075 21.854C42.8333 20.437 41.4628 19.5229 39.9086 19.5229C39.0894 19.5229 38.7448 19.0886 38.9286 18.2887C39.388 16.2775 38.14 14.3121 36.1034 13.8397C34.1357 13.3826 32.0608 14.6168 31.6933 16.628C31.4943 17.7402 31.6015 18.8982 31.5708 20.0409C31.5708 20.0561 31.5938 20.0714 31.6168 20.0942C32.1068 20.0942 32.6044 20.079 33.1021 20.1018C33.3471 20.1095 33.4543 20.0333 33.5691 19.8124C34.0745 18.8448 34.8937 18.3421 35.9885 18.3954C37.0681 18.4411 37.8567 19.0048 38.2625 20.0028C38.6683 21.016 38.4692 21.9607 37.7112 22.7453C36.4632 24.0404 34.3118 23.6671 33.5232 22.0368C33.4849 21.953 33.4084 21.8235 33.3394 21.8235C32.7499 21.8083 32.1604 21.8159 31.5708 21.8159C31.5708 23.1643 31.5708 24.4747 31.5708 25.8002C31.6168 25.8078 31.655 25.8154 31.6933 25.8154C32.9719 25.8154 34.2582 25.8154 35.5368 25.8231C35.7206 25.8231 35.7512 25.724 35.8124 25.6021C36.2642 24.688 36.9992 24.1699 38.0251 24.109C39.3344 24.0328 40.4675 24.947 40.6972 26.2116C40.9269 27.4762 40.1842 28.718 38.9669 29.1141C37.7189 29.5179 36.379 28.9465 35.8278 27.7428C35.7435 27.56 35.644 27.5219 35.4602 27.5219C34.2582 27.5295 33.0485 27.5219 31.8465 27.5219C31.7546 27.5219 31.6627 27.5219 31.5785 27.5219C31.5785 28.8779 31.5785 30.1883 31.5785 31.5214C32.0915 31.5214 32.5815 31.5062 33.0791 31.5291C33.3241 31.5367 33.4543 31.4757 33.5691 31.2319C34.151 30.0359 35.5598 29.5026 36.8078 29.9826C38.0481 30.4549 38.7142 31.8109 38.3467 33.0832C38.0481 34.1116 37.1446 34.8582 36.0804 34.942C35.0162 35.0258 34.0055 34.4468 33.5309 33.4793C33.4849 33.3879 33.3854 33.2508 33.3088 33.2508C32.7422 33.2203 32.168 33.2279 31.5708 33.2279ZM38.1783 27.5143C38.6453 27.5143 39.0358 27.1258 39.0358 26.6687C39.0358 26.204 38.6529 25.8154 38.1859 25.8078C37.7112 25.8002 37.3054 26.1964 37.3131 26.6687C37.3207 27.1258 37.7112 27.5143 38.1783 27.5143ZM35.889 33.2279C36.356 33.2203 36.7389 32.8318 36.7389 32.3671C36.7389 31.9023 36.3484 31.5138 35.8813 31.5138C35.4067 31.5138 35.0085 31.9176 35.0162 32.3899C35.0315 32.847 35.4296 33.2355 35.889 33.2279ZM35.866 20.0866C35.399 20.0942 35.0162 20.4904 35.0162 20.9475C35.0162 21.4122 35.4143 21.8007 35.8737 21.8007C36.3484 21.8007 36.7465 21.3969 36.7389 20.9246C36.7236 20.4599 36.3254 20.079 35.866 20.0866Z" fill="#BDFF57"/>
</g>
<defs>
<filter id="filter0_d_102_3159" x="0" y="0" width="61.4382" height="61.2941" filterUnits="userSpaceOnUse" color-interpolation-filters="sRGB">
<feFlood flood-opacity="0" result="BackgroundImageFix"/>
<feColorMatrix in="SourceAlpha" type="matrix" values="0 0 0 0 0 0 0 0 0 0 0 0 0 0 0 0 0 0 127 0" result="hardAlpha"/>
<feOffset dy="4"/>
<feGaussianBlur stdDeviation="8"/>
<feComposite in2="hardAlpha" operator="out"/>
<feColorMatrix type="matrix" values="0 0 0 0 0.741176 0 0 0 0 1 0 0 0 0 0.341176 0 0 0 1 0"/>
<feBlend mode="normal" in2="BackgroundImageFix" result="effect1_dropShadow_102_3159"/>
<feBlend mode="normal" in="SourceGraphic" in2="effect1_dropShadow_102_3159" result="shape"/>
</filter>
</defs>
</svg>
