<svg width="643" height="344" viewBox="0 0 643 344" fill="none" xmlns="http://www.w3.org/2000/svg">
<rect x="378" y="68" width="51" height="210" fill="#FEFF00"/>
<path d="M30 20.2C29.0667 20.2 28.26 20.0267 27.58 19.68C26.9 19.32 26.3733 18.82 26 18.18C25.6267 17.5267 25.44 16.76 25.44 15.88V9.52C25.44 8.64 25.6267 7.88 26 7.24C26.3733 6.58667 26.9 6.08667 27.58 5.74C28.26 5.38 29.0667 5.2 30 5.2C30.9467 5.2 31.7533 5.38 32.42 5.74C33.1 6.08667 33.6267 6.58667 34 7.24C34.3733 7.88 34.56 8.63333 34.56 9.5V15.88C34.56 16.76 34.3733 17.5267 34 18.18C33.6267 18.82 33.1 19.32 32.42 19.68C31.7533 20.0267 30.9467 20.2 30 20.2ZM30 18.08C30.68 18.08 31.2067 17.8867 31.58 17.5C31.9667 17.1133 32.16 16.5733 32.16 15.88V9.52C32.16 8.82667 31.9667 8.28667 31.58 7.9C31.2067 7.51333 30.68 7.32 30 7.32C29.32 7.32 28.7867 7.51333 28.4 7.9C28.0267 8.28667 27.84 8.82667 27.84 9.52V15.88C27.84 16.5733 28.0333 17.1133 28.42 17.5C28.8067 17.8867 29.3333 18.08 30 18.08ZM25.78 16.32L32.54 9.08H34.22L27.46 16.32H25.78ZM37.2402 14V12.248H36.3042V11.168H37.2402V10.232H36.3042V9.128H37.2402V5.24H39.9282C40.4882 5.24 40.9722 5.344 41.3802 5.552C41.7882 5.752 42.1042 6.04 42.3282 6.416C42.5522 6.784 42.6642 7.224 42.6642 7.736C42.6642 8.24 42.5522 8.68 42.3282 9.056C42.1042 9.432 41.7882 9.724 41.3802 9.932C40.9722 10.132 40.4882 10.232 39.9282 10.232H38.5362V11.168H41.2002V12.248H38.5362V14H37.2402ZM38.5362 9.128H39.9282C40.3682 9.128 40.7122 9.004 40.9602 8.756C41.2162 8.5 41.3442 8.16 41.3442 7.736C41.3442 7.312 41.2162 6.976 40.9602 6.728C40.7122 6.472 40.3682 6.344 39.9282 6.344H38.5362V9.128Z" fill="#FEFF00"/>
<path d="M24.288 322V311.78H27.578C28.2127 311.78 28.7633 311.906 29.23 312.158C29.6967 312.401 30.056 312.746 30.308 313.194C30.5693 313.642 30.7 314.174 30.7 314.79C30.7 315.397 30.5693 315.929 30.308 316.386C30.056 316.834 29.6967 317.184 29.23 317.436C28.7633 317.679 28.2127 317.8 27.578 317.8H25.548V322H24.288ZM25.548 316.666H27.578C28.1287 316.666 28.5673 316.498 28.894 316.162C29.23 315.817 29.398 315.359 29.398 314.79C29.398 314.211 29.23 313.754 28.894 313.418C28.5673 313.082 28.1287 312.914 27.578 312.914H25.548V316.666ZM32.7105 322V311.78H38.3945V312.928H33.9705V316.008H35.6645C36.3179 316.008 36.8779 316.134 37.3445 316.386C37.8112 316.629 38.1705 316.974 38.4225 317.422C38.6839 317.87 38.8145 318.397 38.8145 319.004C38.8145 319.611 38.6839 320.138 38.4225 320.586C38.1705 321.034 37.8112 321.384 37.3445 321.636C36.8779 321.879 36.3179 322 35.6645 322H32.7105ZM33.9705 320.852H35.6645C36.2432 320.852 36.6959 320.689 37.0225 320.362C37.3492 320.026 37.5125 319.573 37.5125 319.004C37.5125 318.425 37.3492 317.973 37.0225 317.646C36.6959 317.319 36.2432 317.156 35.6645 317.156H33.9705V320.852ZM41.0771 322V311.78H42.3371V316.162H43.8491L46.1171 311.78H47.4891L44.9551 316.694L47.6291 322H46.1871L43.8071 317.268H42.3371V322H41.0771Z" fill="white"/>
<path d="M94.064 322V311.78H95.716L96.78 315.084C96.8827 315.383 96.976 315.681 97.06 315.98C97.144 316.269 97.2047 316.493 97.242 316.652C97.2887 316.493 97.3493 316.269 97.424 315.98C97.4987 315.681 97.5827 315.378 97.676 315.07L98.684 311.78H100.336V322H99.104V318.29C99.104 317.879 99.118 317.413 99.146 316.89C99.174 316.367 99.2113 315.835 99.258 315.294C99.3047 314.743 99.3513 314.221 99.398 313.726C99.454 313.222 99.5007 312.783 99.538 312.41L97.886 317.52H96.556L94.89 312.41C94.9367 312.774 94.9833 313.199 95.03 313.684C95.0767 314.16 95.1187 314.669 95.156 315.21C95.1933 315.742 95.226 316.274 95.254 316.806C95.282 317.338 95.296 317.833 95.296 318.29V322H94.064ZM103.887 324.52L105.021 321.524L102.165 314.3H103.565L105.357 319.06C105.422 319.219 105.483 319.41 105.539 319.634C105.595 319.849 105.641 320.031 105.679 320.18C105.716 320.031 105.763 319.849 105.819 319.634C105.875 319.41 105.931 319.219 105.987 319.06L107.667 314.3H109.025L105.231 324.52H103.887ZM113.359 322V312.914H110.559V311.766H117.419V312.914H114.619V322H113.359ZM121.712 322.14C120.9 322.14 120.26 321.935 119.794 321.524C119.327 321.104 119.094 320.539 119.094 319.83C119.094 319.111 119.327 318.547 119.794 318.136C120.26 317.725 120.89 317.52 121.684 317.52H124.064V316.75C124.064 316.274 123.919 315.91 123.63 315.658C123.35 315.397 122.948 315.266 122.426 315.266C121.968 315.266 121.586 315.364 121.278 315.56C120.97 315.747 120.792 316.003 120.746 316.33H119.486C119.57 315.667 119.882 315.14 120.424 314.748C120.965 314.356 121.642 314.16 122.454 314.16C123.34 314.16 124.04 314.389 124.554 314.846C125.067 315.303 125.324 315.924 125.324 316.708V322H124.092V320.53H123.882L124.092 320.32C124.092 320.88 123.872 321.323 123.434 321.65C123.004 321.977 122.43 322.14 121.712 322.14ZM122.02 321.146C122.617 321.146 123.107 320.997 123.49 320.698C123.872 320.399 124.064 320.017 124.064 319.55V318.458H121.712C121.292 318.458 120.96 318.575 120.718 318.808C120.475 319.041 120.354 319.359 120.354 319.76C120.354 320.189 120.498 320.53 120.788 320.782C121.086 321.025 121.497 321.146 122.02 321.146ZM128.132 322V314.3H129.364V315.77H129.658L129.252 316.68C129.252 315.849 129.429 315.224 129.784 314.804C130.148 314.375 130.685 314.16 131.394 314.16C132.206 314.16 132.85 314.417 133.326 314.93C133.811 315.434 134.054 316.12 134.054 316.988V317.45H132.794V317.1C132.794 316.493 132.645 316.031 132.346 315.714C132.057 315.387 131.641 315.224 131.1 315.224C130.568 315.224 130.148 315.387 129.84 315.714C129.541 316.041 129.392 316.503 129.392 317.1V322H128.132ZM137.227 324.52V323.372H139.677C140.069 323.372 140.353 323.283 140.531 323.106C140.717 322.929 140.811 322.653 140.811 322.28V321.3L140.839 319.9H140.587L140.825 319.69C140.825 320.25 140.638 320.693 140.265 321.02C139.891 321.347 139.392 321.51 138.767 321.51C137.973 321.51 137.348 321.253 136.891 320.74C136.433 320.217 136.205 319.517 136.205 318.64V317.016C136.205 316.139 136.433 315.443 136.891 314.93C137.348 314.417 137.973 314.16 138.767 314.16C139.392 314.16 139.891 314.323 140.265 314.65C140.638 314.977 140.825 315.42 140.825 315.98L140.587 315.77H140.825V314.3H142.071V322.28C142.071 322.971 141.856 323.517 141.427 323.918C141.007 324.319 140.419 324.52 139.663 324.52H137.227ZM139.145 320.418C139.667 320.418 140.078 320.255 140.377 319.928C140.675 319.601 140.825 319.149 140.825 318.57V317.1C140.825 316.521 140.675 316.069 140.377 315.742C140.078 315.415 139.667 315.252 139.145 315.252C138.613 315.252 138.197 315.411 137.899 315.728C137.609 316.045 137.465 316.503 137.465 317.1V318.57C137.465 319.167 137.609 319.625 137.899 319.942C138.197 320.259 138.613 320.418 139.145 320.418ZM147.567 322.14C146.961 322.14 146.429 322.019 145.971 321.776C145.523 321.533 145.173 321.193 144.921 320.754C144.679 320.306 144.557 319.788 144.557 319.2V317.1C144.557 316.503 144.679 315.985 144.921 315.546C145.173 315.107 145.523 314.767 145.971 314.524C146.429 314.281 146.961 314.16 147.567 314.16C148.174 314.16 148.701 314.281 149.149 314.524C149.607 314.767 149.957 315.107 150.199 315.546C150.451 315.985 150.577 316.503 150.577 317.1V318.458H145.789V319.2C145.789 319.807 145.943 320.273 146.251 320.6C146.559 320.917 146.998 321.076 147.567 321.076C148.053 321.076 148.445 320.992 148.743 320.824C149.042 320.647 149.224 320.385 149.289 320.04H150.549C150.465 320.684 150.148 321.197 149.597 321.58C149.056 321.953 148.379 322.14 147.567 322.14ZM149.345 317.618V317.1C149.345 316.493 149.191 316.027 148.883 315.7C148.585 315.373 148.146 315.21 147.567 315.21C146.998 315.21 146.559 315.373 146.251 315.7C145.943 316.027 145.789 316.493 145.789 317.1V317.506H149.443L149.345 317.618ZM156.802 322C156.139 322 155.621 321.823 155.248 321.468C154.884 321.113 154.702 320.614 154.702 319.97V315.448H152.532V314.3H154.702V312.13H155.962V314.3H159.042V315.448H155.962V319.97C155.962 320.558 156.242 320.852 156.802 320.852H158.902V322H156.802Z" fill="white"/>
<path d="M187.47 322V320.852H189.556V312.928H187.47V311.78H192.93V312.928H190.844V320.852H192.93V322H187.47ZM195.683 322V314.3H196.943V315.77H197.209L196.943 316.064C196.943 315.457 197.125 314.991 197.489 314.664C197.853 314.328 198.357 314.16 199.001 314.16C199.775 314.16 200.391 314.398 200.849 314.874C201.306 315.35 201.535 315.999 201.535 316.82V322H200.275V316.96C200.275 316.409 200.125 315.989 199.827 315.7C199.537 315.401 199.141 315.252 198.637 315.252C198.114 315.252 197.699 315.411 197.391 315.728C197.092 316.045 196.943 316.503 196.943 317.1V322H195.683ZM207.829 322C207.166 322 206.648 321.823 206.275 321.468C205.911 321.113 205.729 320.614 205.729 319.97V315.448H203.559V314.3H205.729V312.13H206.989V314.3H210.069V315.448H206.989V319.97C206.989 320.558 207.269 320.852 207.829 320.852H209.929V322H207.829ZM215.384 322.14C214.777 322.14 214.245 322.019 213.788 321.776C213.34 321.533 212.99 321.193 212.738 320.754C212.495 320.306 212.374 319.788 212.374 319.2V317.1C212.374 316.503 212.495 315.985 212.738 315.546C212.99 315.107 213.34 314.767 213.788 314.524C214.245 314.281 214.777 314.16 215.384 314.16C215.99 314.16 216.518 314.281 216.966 314.524C217.423 314.767 217.773 315.107 218.016 315.546C218.268 315.985 218.394 316.503 218.394 317.1V318.458H213.606V319.2C213.606 319.807 213.76 320.273 214.068 320.6C214.376 320.917 214.814 321.076 215.384 321.076C215.869 321.076 216.261 320.992 216.56 320.824C216.858 320.647 217.04 320.385 217.106 320.04H218.366C218.282 320.684 217.964 321.197 217.414 321.58C216.872 321.953 216.196 322.14 215.384 322.14ZM217.162 317.618V317.1C217.162 316.493 217.008 316.027 216.7 315.7C216.401 315.373 215.962 315.21 215.384 315.21C214.814 315.21 214.376 315.373 214.068 315.7C213.76 316.027 213.606 316.493 213.606 317.1V317.506H217.26L217.162 317.618ZM221.132 322V314.3H222.364V315.77H222.658L222.252 316.68C222.252 315.849 222.429 315.224 222.784 314.804C223.148 314.375 223.685 314.16 224.394 314.16C225.206 314.16 225.85 314.417 226.326 314.93C226.811 315.434 227.054 316.12 227.054 316.988V317.45H225.794V317.1C225.794 316.493 225.645 316.031 225.346 315.714C225.057 315.387 224.641 315.224 224.1 315.224C223.568 315.224 223.148 315.387 222.84 315.714C222.541 316.041 222.392 316.503 222.392 317.1V322H221.132ZM229.261 322V314.3H230.521V315.77H230.787L230.521 316.064C230.521 315.457 230.703 314.991 231.067 314.664C231.431 314.328 231.935 314.16 232.579 314.16C233.353 314.16 233.969 314.398 234.427 314.874C234.884 315.35 235.113 315.999 235.113 316.82V322H233.853V316.96C233.853 316.409 233.703 315.989 233.405 315.7C233.115 315.401 232.719 315.252 232.215 315.252C231.692 315.252 231.277 315.411 230.969 315.728C230.67 316.045 230.521 316.503 230.521 317.1V322H229.261ZM240.567 322.14C239.961 322.14 239.429 322.019 238.971 321.776C238.523 321.533 238.173 321.193 237.921 320.754C237.679 320.306 237.557 319.788 237.557 319.2V317.1C237.557 316.503 237.679 315.985 237.921 315.546C238.173 315.107 238.523 314.767 238.971 314.524C239.429 314.281 239.961 314.16 240.567 314.16C241.174 314.16 241.701 314.281 242.149 314.524C242.607 314.767 242.957 315.107 243.199 315.546C243.451 315.985 243.577 316.503 243.577 317.1V318.458H238.789V319.2C238.789 319.807 238.943 320.273 239.251 320.6C239.559 320.917 239.998 321.076 240.567 321.076C241.053 321.076 241.445 320.992 241.743 320.824C242.042 320.647 242.224 320.385 242.289 320.04H243.549C243.465 320.684 243.148 321.197 242.597 321.58C242.056 321.953 241.379 322.14 240.567 322.14ZM242.345 317.618V317.1C242.345 316.493 242.191 316.027 241.883 315.7C241.585 315.373 241.146 315.21 240.567 315.21C239.998 315.21 239.559 315.373 239.251 315.7C238.943 316.027 238.789 316.493 238.789 317.1V317.506H242.443L242.345 317.618ZM249.802 322C249.139 322 248.621 321.823 248.248 321.468C247.884 321.113 247.702 320.614 247.702 319.97V315.448H245.532V314.3H247.702V312.13H248.962V314.3H252.042V315.448H248.962V319.97C248.962 320.558 249.242 320.852 249.802 320.852H251.902V322H249.802Z" fill="white"/>
<path d="M285.57 322V318.178L282.49 311.78H283.792L285.822 315.98C285.934 316.213 286.023 316.414 286.088 316.582C286.153 316.741 286.195 316.857 286.214 316.932C286.233 316.857 286.275 316.741 286.34 316.582C286.415 316.414 286.508 316.213 286.62 315.98L288.608 311.78H289.91L286.83 318.178V322H285.57ZM294.595 322.112C293.979 322.112 293.447 321.995 292.999 321.762C292.551 321.529 292.201 321.193 291.949 320.754C291.706 320.306 291.585 319.779 291.585 319.172V317.128C291.585 316.512 291.706 315.985 291.949 315.546C292.201 315.107 292.551 314.771 292.999 314.538C293.447 314.305 293.979 314.188 294.595 314.188C295.211 314.188 295.743 314.305 296.191 314.538C296.639 314.771 296.984 315.107 297.227 315.546C297.479 315.985 297.605 316.507 297.605 317.114V319.172C297.605 319.779 297.479 320.306 297.227 320.754C296.984 321.193 296.639 321.529 296.191 321.762C295.743 321.995 295.211 322.112 294.595 322.112ZM294.595 320.992C295.145 320.992 295.575 320.838 295.883 320.53C296.191 320.222 296.345 319.769 296.345 319.172V317.128C296.345 316.531 296.191 316.078 295.883 315.77C295.575 315.462 295.145 315.308 294.595 315.308C294.053 315.308 293.624 315.462 293.307 315.77C292.999 316.078 292.845 316.531 292.845 317.128V319.172C292.845 319.769 292.999 320.222 293.307 320.53C293.624 320.838 294.053 320.992 294.595 320.992ZM302.975 322.14C302.088 322.14 301.379 321.879 300.847 321.356C300.315 320.824 300.049 320.105 300.049 319.2V314.3H301.309V319.2C301.309 319.779 301.458 320.231 301.757 320.558C302.056 320.875 302.462 321.034 302.975 321.034C303.498 321.034 303.908 320.875 304.207 320.558C304.515 320.231 304.669 319.779 304.669 319.2V314.3H305.929V319.2C305.929 320.105 305.658 320.824 305.117 321.356C304.576 321.879 303.862 322.14 302.975 322.14ZM310.754 322V312.914H307.954V311.766H314.814V312.914H312.014V322H310.754ZM319.764 322.14C318.877 322.14 318.168 321.879 317.636 321.356C317.104 320.824 316.838 320.105 316.838 319.2V314.3H318.098V319.2C318.098 319.779 318.247 320.231 318.546 320.558C318.845 320.875 319.251 321.034 319.764 321.034C320.287 321.034 320.697 320.875 320.996 320.558C321.304 320.231 321.458 319.779 321.458 319.2V314.3H322.718V319.2C322.718 320.105 322.447 320.824 321.906 321.356C321.365 321.879 320.651 322.14 319.764 322.14ZM328.621 322.14C327.986 322.14 327.477 321.972 327.095 321.636C326.712 321.291 326.521 320.824 326.521 320.236L326.773 320.53H326.521V322H325.261V311.78H326.521V314.02L326.493 315.77H326.773L326.521 316.064C326.521 315.485 326.712 315.023 327.095 314.678C327.487 314.333 327.995 314.16 328.621 314.16C329.395 314.16 330.016 314.417 330.483 314.93C330.949 315.443 331.183 316.143 331.183 317.03V319.284C331.183 320.161 330.949 320.857 330.483 321.37C330.016 321.883 329.395 322.14 328.621 322.14ZM328.201 321.048C328.733 321.048 329.153 320.889 329.461 320.572C329.769 320.255 329.923 319.797 329.923 319.2V317.1C329.923 316.503 329.769 316.045 329.461 315.728C329.153 315.411 328.733 315.252 328.201 315.252C327.687 315.252 327.277 315.415 326.969 315.742C326.67 316.069 326.521 316.521 326.521 317.1V319.2C326.521 319.779 326.67 320.231 326.969 320.558C327.277 320.885 327.687 321.048 328.201 321.048ZM336.567 322.14C335.961 322.14 335.429 322.019 334.971 321.776C334.523 321.533 334.173 321.193 333.921 320.754C333.679 320.306 333.557 319.788 333.557 319.2V317.1C333.557 316.503 333.679 315.985 333.921 315.546C334.173 315.107 334.523 314.767 334.971 314.524C335.429 314.281 335.961 314.16 336.567 314.16C337.174 314.16 337.701 314.281 338.149 314.524C338.607 314.767 338.957 315.107 339.199 315.546C339.451 315.985 339.577 316.503 339.577 317.1V318.458H334.789V319.2C334.789 319.807 334.943 320.273 335.251 320.6C335.559 320.917 335.998 321.076 336.567 321.076C337.053 321.076 337.445 320.992 337.743 320.824C338.042 320.647 338.224 320.385 338.289 320.04H339.549C339.465 320.684 339.148 321.197 338.597 321.58C338.056 321.953 337.379 322.14 336.567 322.14ZM338.345 317.618V317.1C338.345 316.493 338.191 316.027 337.883 315.7C337.585 315.373 337.146 315.21 336.567 315.21C335.998 315.21 335.559 315.373 335.251 315.7C334.943 316.027 334.789 316.493 334.789 317.1V317.506H338.443L338.345 317.618Z" fill="white"/>
<path d="M379.1 322L381.2 317.52C380.584 317.333 380.099 316.993 379.744 316.498C379.39 316.003 379.212 315.411 379.212 314.72C379.212 314.132 379.338 313.619 379.59 313.18C379.842 312.741 380.197 312.401 380.654 312.158C381.112 311.906 381.644 311.78 382.25 311.78H385.386V322H384.126V317.66H382.502L380.556 322H379.1ZM382.25 316.54H384.126V312.9H382.25C381.737 312.9 381.317 313.068 380.99 313.404C380.673 313.731 380.514 314.169 380.514 314.72C380.514 315.261 380.673 315.7 380.99 316.036C381.308 316.372 381.728 316.54 382.25 316.54ZM388.027 322V314.3H389.287V317.506H392.535V314.3H393.795V322H392.535V318.654H389.287V322H388.027ZM395.525 323.96V320.922H396.155C396.314 320.763 396.477 320.451 396.645 319.984C396.823 319.517 396.916 318.925 396.925 318.206L397.009 314.3H402.035V320.922H403.015V323.96H401.895V322H396.645V323.96H395.525ZM397.485 320.922H400.775V315.42H398.199L398.143 318.234C398.134 318.971 398.055 319.569 397.905 320.026C397.756 320.483 397.616 320.782 397.485 320.922ZM407.7 322.14C407.093 322.14 406.561 322.019 406.104 321.776C405.656 321.533 405.306 321.193 405.054 320.754C404.811 320.306 404.69 319.788 404.69 319.2V317.1C404.69 316.503 404.811 315.985 405.054 315.546C405.306 315.107 405.656 314.767 406.104 314.524C406.561 314.281 407.093 314.16 407.7 314.16C408.307 314.16 408.834 314.281 409.282 314.524C409.739 314.767 410.089 315.107 410.332 315.546C410.584 315.985 410.71 316.503 410.71 317.1V318.458H405.922V319.2C405.922 319.807 406.076 320.273 406.384 320.6C406.692 320.917 407.131 321.076 407.7 321.076C408.185 321.076 408.577 320.992 408.876 320.824C409.175 320.647 409.357 320.385 409.422 320.04H410.682C410.598 320.684 410.281 321.197 409.73 321.58C409.189 321.953 408.512 322.14 407.7 322.14ZM409.478 317.618V317.1C409.478 316.493 409.324 316.027 409.016 315.7C408.717 315.373 408.279 315.21 407.7 315.21C407.131 315.21 406.692 315.373 406.384 315.7C406.076 316.027 405.922 316.493 405.922 317.1V317.506H409.576L409.478 317.618ZM413.253 322V314.3H414.513V317.478H415.829L418.069 314.3H419.511L416.921 317.968L419.553 322H418.083L415.843 318.57H414.513V322H413.253ZM424.517 322.14C423.901 322.14 423.36 322.023 422.893 321.79C422.436 321.557 422.081 321.221 421.829 320.782C421.577 320.334 421.451 319.807 421.451 319.2V317.1C421.451 316.484 421.577 315.957 421.829 315.518C422.081 315.079 422.436 314.743 422.893 314.51C423.36 314.277 423.901 314.16 424.517 314.16C425.404 314.16 426.118 314.398 426.659 314.874C427.2 315.35 427.485 315.999 427.513 316.82H426.253C426.225 316.325 426.057 315.947 425.749 315.686C425.45 315.415 425.04 315.28 424.517 315.28C423.966 315.28 423.528 315.439 423.201 315.756C422.874 316.064 422.711 316.507 422.711 317.086V319.2C422.711 319.779 422.874 320.227 423.201 320.544C423.528 320.861 423.966 321.02 424.517 321.02C425.04 321.02 425.45 320.885 425.749 320.614C426.057 320.343 426.225 319.965 426.253 319.48H427.513C427.485 320.301 427.2 320.95 426.659 321.426C426.118 321.902 425.404 322.14 424.517 322.14ZM379.604 340V329.78H382.25C382.913 329.78 383.482 329.906 383.958 330.158C384.444 330.41 384.817 330.765 385.078 331.222C385.349 331.679 385.484 332.221 385.484 332.846V336.92C385.484 337.545 385.349 338.091 385.078 338.558C384.817 339.015 384.444 339.37 383.958 339.622C383.482 339.874 382.913 340 382.25 340H379.604ZM380.864 338.88H382.25C382.866 338.88 383.347 338.707 383.692 338.362C384.047 338.017 384.224 337.536 384.224 336.92V332.846C384.224 332.239 384.047 331.763 383.692 331.418C383.347 331.073 382.866 330.9 382.25 330.9H380.864V338.88ZM387.901 340V338.852H390.631V333.448H388.251V332.3H391.891V338.852H394.481V340H387.901ZM391.121 330.914C390.813 330.914 390.57 330.835 390.393 330.676C390.216 330.517 390.127 330.303 390.127 330.032C390.127 329.752 390.216 329.533 390.393 329.374C390.57 329.206 390.813 329.122 391.121 329.122C391.429 329.122 391.672 329.206 391.849 329.374C392.026 329.533 392.115 329.752 392.115 330.032C392.115 330.303 392.026 330.517 391.849 330.676C391.672 330.835 391.429 330.914 391.121 330.914ZM396.659 340V332.3H397.891V333.77H398.185L397.779 334.68C397.779 333.849 397.957 333.224 398.311 332.804C398.675 332.375 399.212 332.16 399.921 332.16C400.733 332.16 401.377 332.417 401.853 332.93C402.339 333.434 402.581 334.12 402.581 334.988V335.45H401.321V335.1C401.321 334.493 401.172 334.031 400.873 333.714C400.584 333.387 400.169 333.224 399.627 333.224C399.095 333.224 398.675 333.387 398.367 333.714C398.069 334.041 397.919 334.503 397.919 335.1V340H396.659ZM407.7 340.14C407.093 340.14 406.561 340.019 406.104 339.776C405.656 339.533 405.306 339.193 405.054 338.754C404.811 338.306 404.69 337.788 404.69 337.2V335.1C404.69 334.503 404.811 333.985 405.054 333.546C405.306 333.107 405.656 332.767 406.104 332.524C406.561 332.281 407.093 332.16 407.7 332.16C408.307 332.16 408.834 332.281 409.282 332.524C409.739 332.767 410.089 333.107 410.332 333.546C410.584 333.985 410.71 334.503 410.71 335.1V336.458H405.922V337.2C405.922 337.807 406.076 338.273 406.384 338.6C406.692 338.917 407.131 339.076 407.7 339.076C408.185 339.076 408.577 338.992 408.876 338.824C409.175 338.647 409.357 338.385 409.422 338.04H410.682C410.598 338.684 410.281 339.197 409.73 339.58C409.189 339.953 408.512 340.14 407.7 340.14ZM409.478 335.618V335.1C409.478 334.493 409.324 334.027 409.016 333.7C408.717 333.373 408.279 333.21 407.7 333.21C407.131 333.21 406.692 333.373 406.384 333.7C406.076 334.027 405.922 334.493 405.922 335.1V335.506H409.576L409.478 335.618ZM416.151 340.14C415.535 340.14 414.993 340.023 414.527 339.79C414.069 339.557 413.715 339.221 413.463 338.782C413.211 338.334 413.085 337.807 413.085 337.2V335.1C413.085 334.484 413.211 333.957 413.463 333.518C413.715 333.079 414.069 332.743 414.527 332.51C414.993 332.277 415.535 332.16 416.151 332.16C417.037 332.16 417.751 332.398 418.293 332.874C418.834 333.35 419.119 333.999 419.147 334.82H417.887C417.859 334.325 417.691 333.947 417.383 333.686C417.084 333.415 416.673 333.28 416.151 333.28C415.6 333.28 415.161 333.439 414.835 333.756C414.508 334.064 414.345 334.507 414.345 335.086V337.2C414.345 337.779 414.508 338.227 414.835 338.544C415.161 338.861 415.6 339.02 416.151 339.02C416.673 339.02 417.084 338.885 417.383 338.614C417.691 338.343 417.859 337.965 417.887 337.48H419.147C419.119 338.301 418.834 338.95 418.293 339.426C417.751 339.902 417.037 340.14 416.151 340.14ZM425.329 340C424.666 340 424.148 339.823 423.775 339.468C423.411 339.113 423.229 338.614 423.229 337.97V333.448H421.059V332.3H423.229V330.13H424.489V332.3H427.569V333.448H424.489V337.97C424.489 338.558 424.769 338.852 425.329 338.852H427.429V340H425.329Z" fill="white"/>
<path d="M548.907 20V5.4H557.147V20H555.347V7.04H550.707V20H548.907ZM560.86 23.6V9H562.66V11.1H563.02L562.66 11.52C562.66 10.68 562.933 10.02 563.48 9.54C564.04 9.04667 564.773 8.8 565.68 8.8C566.786 8.8 567.666 9.16667 568.32 9.9C568.986 10.62 569.32 11.6133 569.32 12.88V16.1C569.32 16.94 569.166 17.6667 568.86 18.28C568.566 18.8933 568.146 19.3667 567.6 19.7C567.066 20.0333 566.426 20.2 565.68 20.2C564.786 20.2 564.06 19.9533 563.5 19.46C562.94 18.9667 562.66 18.3067 562.66 17.48L563.02 17.9H562.62L562.66 20.4V23.6H560.86ZM565.08 18.64C565.84 18.64 566.433 18.4133 566.86 17.96C567.3 17.5067 567.52 16.8533 567.52 16V13C567.52 12.1467 567.3 11.4933 566.86 11.04C566.433 10.5867 565.84 10.36 565.08 10.36C564.346 10.36 563.76 10.5933 563.32 11.06C562.88 11.5267 562.66 12.1733 562.66 13V16C562.66 16.8267 562.88 17.4733 563.32 17.94C563.76 18.4067 564.346 18.64 565.08 18.64ZM577.012 20.16C576.132 20.16 575.372 19.9933 574.732 19.66C574.092 19.3267 573.592 18.8467 573.232 18.22C572.885 17.58 572.712 16.8267 572.712 15.96V13.04C572.712 12.16 572.885 11.4067 573.232 10.78C573.592 10.1533 574.092 9.67333 574.732 9.34C575.372 9.00667 576.132 8.84 577.012 8.84C577.892 8.84 578.652 9.00667 579.292 9.34C579.932 9.67333 580.425 10.1533 580.772 10.78C581.132 11.4067 581.312 12.1533 581.312 13.02V15.96C581.312 16.8267 581.132 17.58 580.772 18.22C580.425 18.8467 579.932 19.3267 579.292 19.66C578.652 19.9933 577.892 20.16 577.012 20.16ZM577.012 18.56C577.798 18.56 578.412 18.34 578.852 17.9C579.292 17.46 579.512 16.8133 579.512 15.96V13.04C579.512 12.1867 579.292 11.54 578.852 11.1C578.412 10.66 577.798 10.44 577.012 10.44C576.238 10.44 575.625 10.66 575.172 11.1C574.732 11.54 574.512 12.1867 574.512 13.04V15.96C574.512 16.8133 574.732 17.46 575.172 17.9C575.625 18.34 576.238 18.56 577.012 18.56ZM583.604 22.8V18.46H584.504C584.731 18.2333 584.964 17.7867 585.204 17.12C585.457 16.4533 585.591 15.6067 585.604 14.58L585.724 9H592.904V18.46H594.304V22.8H592.704V20H585.204V22.8H583.604ZM586.404 18.46H591.104V10.6H587.424L587.344 14.62C587.331 15.6733 587.217 16.5267 587.004 17.18C586.791 17.8333 586.591 18.26 586.404 18.46ZM600.036 20.2C598.876 20.2 597.963 19.9067 597.296 19.32C596.629 18.72 596.296 17.9133 596.296 16.9C596.296 15.8733 596.629 15.0667 597.296 14.48C597.963 13.8933 598.863 13.6 599.996 13.6H603.396V12.5C603.396 11.82 603.189 11.3 602.776 10.94C602.376 10.5667 601.803 10.38 601.056 10.38C600.403 10.38 599.856 10.52 599.416 10.8C598.976 11.0667 598.723 11.4333 598.656 11.9H596.856C596.976 10.9533 597.423 10.2 598.196 9.64C598.969 9.08 599.936 8.8 601.096 8.8C602.363 8.8 603.363 9.12667 604.096 9.78C604.829 10.4333 605.196 11.32 605.196 12.44V20H603.436V17.9H603.136L603.436 17.6C603.436 18.4 603.123 19.0333 602.496 19.5C601.883 19.9667 601.063 20.2 600.036 20.2ZM600.476 18.78C601.329 18.78 602.029 18.5667 602.576 18.14C603.123 17.7133 603.396 17.1667 603.396 16.5V14.94H600.036C599.436 14.94 598.963 15.1067 598.616 15.44C598.269 15.7733 598.096 16.2267 598.096 16.8C598.096 17.4133 598.303 17.9 598.716 18.26C599.143 18.6067 599.729 18.78 600.476 18.78ZM607.348 20L609.748 14.36L607.508 9H609.248L611.168 13.8H612.228V9H613.748V13.8H614.768L616.748 9H618.468L616.228 14.3L618.628 20H616.828L614.828 15H613.748V20H612.228V15H611.148L609.128 20H607.348ZM624.02 20.2C622.86 20.2 621.947 19.9067 621.28 19.32C620.614 18.72 620.28 17.9133 620.28 16.9C620.28 15.8733 620.614 15.0667 621.28 14.48C621.947 13.8933 622.847 13.6 623.98 13.6H627.38V12.5C627.38 11.82 627.174 11.3 626.76 10.94C626.36 10.5667 625.787 10.38 625.04 10.38C624.387 10.38 623.84 10.52 623.4 10.8C622.96 11.0667 622.707 11.4333 622.64 11.9H620.84C620.96 10.9533 621.407 10.2 622.18 9.64C622.954 9.08 623.92 8.8 625.08 8.8C626.347 8.8 627.347 9.12667 628.08 9.78C628.814 10.4333 629.18 11.32 629.18 12.44V20H627.42V17.9H627.12L627.42 17.6C627.42 18.4 627.107 19.0333 626.48 19.5C625.867 19.9667 625.047 20.2 624.02 20.2ZM624.46 18.78C625.314 18.78 626.014 18.5667 626.56 18.14C627.107 17.7133 627.38 17.1667 627.38 16.5V14.94H624.02C623.42 14.94 622.947 15.1067 622.6 15.44C622.254 15.7733 622.08 16.2267 622.08 16.8C622.08 17.4133 622.287 17.9 622.7 18.26C623.127 18.6067 623.714 18.78 624.46 18.78Z" fill="white"/>
<path d="M122 20.2C121.067 20.2 120.26 20.0267 119.58 19.68C118.9 19.32 118.373 18.82 118 18.18C117.627 17.5267 117.44 16.76 117.44 15.88V9.52C117.44 8.64 117.627 7.88 118 7.24C118.373 6.58667 118.9 6.08667 119.58 5.74C120.26 5.38 121.067 5.2 122 5.2C122.947 5.2 123.753 5.38 124.42 5.74C125.1 6.08667 125.627 6.58667 126 7.24C126.373 7.88 126.56 8.63333 126.56 9.5V15.88C126.56 16.76 126.373 17.5267 126 18.18C125.627 18.82 125.1 19.32 124.42 19.68C123.753 20.0267 122.947 20.2 122 20.2ZM122 18.08C122.68 18.08 123.207 17.8867 123.58 17.5C123.967 17.1133 124.16 16.5733 124.16 15.88V9.52C124.16 8.82667 123.967 8.28667 123.58 7.9C123.207 7.51333 122.68 7.32 122 7.32C121.32 7.32 120.787 7.51333 120.4 7.9C120.027 8.28667 119.84 8.82667 119.84 9.52V15.88C119.84 16.5733 120.033 17.1133 120.42 17.5C120.807 17.8867 121.333 18.08 122 18.08ZM117.78 16.32L124.54 9.08H126.22L119.46 16.32H117.78ZM129.24 14V12.248H128.304V11.168H129.24V10.232H128.304V9.128H129.24V5.24H131.928C132.488 5.24 132.972 5.344 133.38 5.552C133.788 5.752 134.104 6.04 134.328 6.416C134.552 6.784 134.664 7.224 134.664 7.736C134.664 8.24 134.552 8.68 134.328 9.056C134.104 9.432 133.788 9.724 133.38 9.932C132.972 10.132 132.488 10.232 131.928 10.232H130.536V11.168H133.2V12.248H130.536V14H129.24ZM130.536 9.128H131.928C132.368 9.128 132.712 9.004 132.96 8.756C133.216 8.5 133.344 8.16 133.344 7.736C133.344 7.312 133.216 6.976 132.96 6.728C132.712 6.472 132.368 6.344 131.928 6.344H130.536V9.128Z" fill="#FEFF00"/>
<path d="M214 20.2C213.067 20.2 212.26 20.0267 211.58 19.68C210.9 19.32 210.373 18.82 210 18.18C209.627 17.5267 209.44 16.76 209.44 15.88V9.52C209.44 8.64 209.627 7.88 210 7.24C210.373 6.58667 210.9 6.08667 211.58 5.74C212.26 5.38 213.067 5.2 214 5.2C214.947 5.2 215.753 5.38 216.42 5.74C217.1 6.08667 217.627 6.58667 218 7.24C218.373 7.88 218.56 8.63333 218.56 9.5V15.88C218.56 16.76 218.373 17.5267 218 18.18C217.627 18.82 217.1 19.32 216.42 19.68C215.753 20.0267 214.947 20.2 214 20.2ZM214 18.08C214.68 18.08 215.207 17.8867 215.58 17.5C215.967 17.1133 216.16 16.5733 216.16 15.88V9.52C216.16 8.82667 215.967 8.28667 215.58 7.9C215.207 7.51333 214.68 7.32 214 7.32C213.32 7.32 212.787 7.51333 212.4 7.9C212.027 8.28667 211.84 8.82667 211.84 9.52V15.88C211.84 16.5733 212.033 17.1133 212.42 17.5C212.807 17.8867 213.333 18.08 214 18.08ZM209.78 16.32L216.54 9.08H218.22L211.46 16.32H209.78ZM221.24 14V12.248H220.304V11.168H221.24V10.232H220.304V9.128H221.24V5.24H223.928C224.488 5.24 224.972 5.344 225.38 5.552C225.788 5.752 226.104 6.04 226.328 6.416C226.552 6.784 226.664 7.224 226.664 7.736C226.664 8.24 226.552 8.68 226.328 9.056C226.104 9.432 225.788 9.724 225.38 9.932C224.972 10.132 224.488 10.232 223.928 10.232H222.536V11.168H225.2V12.248H222.536V14H221.24ZM222.536 9.128H223.928C224.368 9.128 224.712 9.004 224.96 8.756C225.216 8.5 225.344 8.16 225.344 7.736C225.344 7.312 225.216 6.976 224.96 6.728C224.712 6.472 224.368 6.344 223.928 6.344H222.536V9.128Z" fill="#FEFF00"/>
<path d="M306 20.2C305.067 20.2 304.26 20.0267 303.58 19.68C302.9 19.32 302.373 18.82 302 18.18C301.627 17.5267 301.44 16.76 301.44 15.88V9.52C301.44 8.64 301.627 7.88 302 7.24C302.373 6.58667 302.9 6.08667 303.58 5.74C304.26 5.38 305.067 5.2 306 5.2C306.947 5.2 307.753 5.38 308.42 5.74C309.1 6.08667 309.627 6.58667 310 7.24C310.373 7.88 310.56 8.63333 310.56 9.5V15.88C310.56 16.76 310.373 17.5267 310 18.18C309.627 18.82 309.1 19.32 308.42 19.68C307.753 20.0267 306.947 20.2 306 20.2ZM306 18.08C306.68 18.08 307.207 17.8867 307.58 17.5C307.967 17.1133 308.16 16.5733 308.16 15.88V9.52C308.16 8.82667 307.967 8.28667 307.58 7.9C307.207 7.51333 306.68 7.32 306 7.32C305.32 7.32 304.787 7.51333 304.4 7.9C304.027 8.28667 303.84 8.82667 303.84 9.52V15.88C303.84 16.5733 304.033 17.1133 304.42 17.5C304.807 17.8867 305.333 18.08 306 18.08ZM301.78 16.32L308.54 9.08H310.22L303.46 16.32H301.78ZM313.24 14V12.248H312.304V11.168H313.24V10.232H312.304V9.128H313.24V5.24H315.928C316.488 5.24 316.972 5.344 317.38 5.552C317.788 5.752 318.104 6.04 318.328 6.416C318.552 6.784 318.664 7.224 318.664 7.736C318.664 8.24 318.552 8.68 318.328 9.056C318.104 9.432 317.788 9.724 317.38 9.932C316.972 10.132 316.488 10.232 315.928 10.232H314.536V11.168H317.2V12.248H314.536V14H313.24ZM314.536 9.128H315.928C316.368 9.128 316.712 9.004 316.96 8.756C317.216 8.5 317.344 8.16 317.344 7.736C317.344 7.312 317.216 6.976 316.96 6.728C316.712 6.472 316.368 6.344 315.928 6.344H314.536V9.128Z" fill="#FEFF00"/>
<path d="M381.68 20V17.8H385.48V7.62L381.66 10.46V7.82L385.02 5.4H387.98V17.8H391.04V20H381.68ZM397.992 20.2C397.059 20.2 396.252 20.0267 395.572 19.68C394.892 19.32 394.366 18.82 393.992 18.18C393.619 17.5267 393.432 16.76 393.432 15.88V9.52C393.432 8.64 393.619 7.88 393.992 7.24C394.366 6.58667 394.892 6.08667 395.572 5.74C396.252 5.38 397.059 5.2 397.992 5.2C398.939 5.2 399.746 5.38 400.412 5.74C401.092 6.08667 401.619 6.58667 401.992 7.24C402.366 7.88 402.552 8.63333 402.552 9.5V15.88C402.552 16.76 402.366 17.5267 401.992 18.18C401.619 18.82 401.092 19.32 400.412 19.68C399.746 20.0267 398.939 20.2 397.992 20.2ZM397.992 18.08C398.672 18.08 399.199 17.8867 399.572 17.5C399.959 17.1133 400.152 16.5733 400.152 15.88V9.52C400.152 8.82667 399.959 8.28667 399.572 7.9C399.199 7.51333 398.672 7.32 397.992 7.32C397.312 7.32 396.779 7.51333 396.392 7.9C396.019 8.28667 395.832 8.82667 395.832 9.52V15.88C395.832 16.5733 396.026 17.1133 396.412 17.5C396.799 17.8867 397.326 18.08 397.992 18.08ZM393.772 16.32L400.532 9.08H402.212L395.452 16.32H393.772ZM409.984 20.2C409.051 20.2 408.244 20.0267 407.564 19.68C406.884 19.32 406.358 18.82 405.984 18.18C405.611 17.5267 405.424 16.76 405.424 15.88V9.52C405.424 8.64 405.611 7.88 405.984 7.24C406.358 6.58667 406.884 6.08667 407.564 5.74C408.244 5.38 409.051 5.2 409.984 5.2C410.931 5.2 411.738 5.38 412.404 5.74C413.084 6.08667 413.611 6.58667 413.984 7.24C414.358 7.88 414.544 8.63333 414.544 9.5V15.88C414.544 16.76 414.358 17.5267 413.984 18.18C413.611 18.82 413.084 19.32 412.404 19.68C411.738 20.0267 410.931 20.2 409.984 20.2ZM409.984 18.08C410.664 18.08 411.191 17.8867 411.564 17.5C411.951 17.1133 412.144 16.5733 412.144 15.88V9.52C412.144 8.82667 411.951 8.28667 411.564 7.9C411.191 7.51333 410.664 7.32 409.984 7.32C409.304 7.32 408.771 7.51333 408.384 7.9C408.011 8.28667 407.824 8.82667 407.824 9.52V15.88C407.824 16.5733 408.018 17.1133 408.404 17.5C408.791 17.8867 409.318 18.08 409.984 18.08ZM405.764 16.32L412.524 9.08H414.204L407.444 16.32H405.764ZM417.225 14V12.248H416.289V11.168H417.225V10.232H416.289V9.128H417.225V5.24H419.913C420.473 5.24 420.957 5.344 421.365 5.552C421.773 5.752 422.089 6.04 422.313 6.416C422.537 6.784 422.649 7.224 422.649 7.736C422.649 8.24 422.537 8.68 422.313 9.056C422.089 9.432 421.773 9.724 421.365 9.932C420.957 10.132 420.473 10.232 419.913 10.232H418.521V11.168H421.185V12.248H418.521V14H417.225ZM418.521 9.128H419.913C420.353 9.128 420.697 9.004 420.945 8.756C421.201 8.5 421.329 8.16 421.329 7.736C421.329 7.312 421.201 6.976 420.945 6.728C420.697 6.472 420.353 6.344 419.913 6.344H418.521V9.128Z" fill="#FEFF00"/>
<path d="M560.52 215V211.7H566.22V196.43L560.49 200.69V196.73L565.53 193.1H569.97V211.7H574.56V215H560.52ZM584.988 215.3C583.588 215.3 582.378 215.04 581.358 214.52C580.338 213.98 579.548 213.23 578.988 212.27C578.428 211.29 578.148 210.14 578.148 208.82V199.28C578.148 197.96 578.428 196.82 578.988 195.86C579.548 194.88 580.338 194.13 581.358 193.61C582.378 193.07 583.588 192.8 584.988 192.8C586.408 192.8 587.618 193.07 588.618 193.61C589.638 194.13 590.428 194.88 590.988 195.86C591.548 196.82 591.828 197.95 591.828 199.25V208.82C591.828 210.14 591.548 211.29 590.988 212.27C590.428 213.23 589.638 213.98 588.618 214.52C587.618 215.04 586.408 215.3 584.988 215.3ZM584.988 212.12C586.008 212.12 586.798 211.83 587.358 211.25C587.938 210.67 588.228 209.86 588.228 208.82V199.28C588.228 198.24 587.938 197.43 587.358 196.85C586.798 196.27 586.008 195.98 584.988 195.98C583.968 195.98 583.168 196.27 582.588 196.85C582.028 197.43 581.748 198.24 581.748 199.28V208.82C581.748 209.86 582.038 210.67 582.618 211.25C583.198 211.83 583.988 212.12 584.988 212.12ZM578.658 209.48L588.798 198.62H591.318L581.178 209.48H578.658ZM602.977 215.3C601.577 215.3 600.367 215.04 599.347 214.52C598.327 213.98 597.537 213.23 596.977 212.27C596.417 211.29 596.137 210.14 596.137 208.82V199.28C596.137 197.96 596.417 196.82 596.977 195.86C597.537 194.88 598.327 194.13 599.347 193.61C600.367 193.07 601.577 192.8 602.977 192.8C604.397 192.8 605.607 193.07 606.607 193.61C607.627 194.13 608.417 194.88 608.977 195.86C609.537 196.82 609.817 197.95 609.817 199.25V208.82C609.817 210.14 609.537 211.29 608.977 212.27C608.417 213.23 607.627 213.98 606.607 214.52C605.607 215.04 604.397 215.3 602.977 215.3ZM602.977 212.12C603.997 212.12 604.787 211.83 605.347 211.25C605.927 210.67 606.217 209.86 606.217 208.82V199.28C606.217 198.24 605.927 197.43 605.347 196.85C604.787 196.27 603.997 195.98 602.977 195.98C601.957 195.98 601.157 196.27 600.577 196.85C600.017 197.43 599.737 198.24 599.737 199.28V208.82C599.737 209.86 600.027 210.67 600.607 211.25C601.187 211.83 601.977 212.12 602.977 212.12ZM596.647 209.48L606.787 198.62H609.307L599.167 209.48H596.647ZM613.837 205V202.372H612.433V200.752H613.837V199.348H612.433V197.692H613.837V191.86H617.869C618.709 191.86 619.435 192.016 620.047 192.328C620.659 192.628 621.133 193.06 621.469 193.624C621.805 194.176 621.973 194.836 621.973 195.604C621.973 196.36 621.805 197.02 621.469 197.584C621.133 198.148 620.659 198.586 620.047 198.898C619.435 199.198 618.709 199.348 617.869 199.348H615.781V200.752H619.777V202.372H615.781V205H613.837ZM615.781 197.692H617.869C618.529 197.692 619.045 197.506 619.417 197.134C619.801 196.75 619.993 196.24 619.993 195.604C619.993 194.968 619.801 194.464 619.417 194.092C619.045 193.708 618.529 193.516 617.869 193.516H615.781V197.692Z" fill="white"/>
<g opacity="0.5">
<rect x="0.5" y="58.5" width="71" height="229" stroke="#FEFF00"/>
<rect x="0.5" y="58.5" width="71" height="229" stroke="url(#paint0_linear_761_65)"/>
</g>
<g opacity="0.5">
<rect x="92.5" y="58.5" width="71" height="229" stroke="#FEFF00"/>
<rect x="92.5" y="58.5" width="71" height="229" stroke="url(#paint1_linear_761_65)"/>
</g>
<g opacity="0.5">
<rect x="184.5" y="58.5" width="71" height="229" stroke="#FEFF00"/>
<rect x="184.5" y="58.5" width="71" height="229" stroke="url(#paint2_linear_761_65)"/>
</g>
<g opacity="0.5">
<rect x="276.5" y="58.5" width="71" height="229" stroke="#FEFF00"/>
<rect x="276.5" y="58.5" width="71" height="229" stroke="url(#paint3_linear_761_65)"/>
</g>
<rect opacity="0.5" x="368" y="58" width="72" height="230" fill="#FEFF00"/>
<rect opacity="0.5" x="533.5" y="118.5" width="109" height="109" stroke="url(#paint4_linear_761_65)"/>
<path opacity="0.5" d="M459 188H494.337L534 118" stroke="#FEFF00" stroke-dasharray="4 4"/>
<g filter="url(#filter0_d_761_65)">
<path d="M553.322 144.367C553.083 143.339 552.844 142.333 552.61 141.328C552.083 139.094 551.555 136.861 551.038 134.628C550.994 134.428 550.927 134.35 550.705 134.356C550.099 134.378 549.499 134.361 548.894 134.361C548.472 134.361 548.166 134.083 548.166 133.694C548.166 133.306 548.466 133.028 548.888 133.028C549.733 133.028 550.583 133.028 551.427 133.028C551.838 133.028 552.066 133.217 552.166 133.617C552.316 134.244 552.472 134.872 552.605 135.5C552.638 135.656 552.699 135.694 552.849 135.694C555.272 135.689 557.694 135.689 560.122 135.689C562.133 135.689 564.149 135.683 566.16 135.689C567.349 135.694 568.288 136.711 568.149 137.872C568.088 138.367 567.944 138.85 567.833 139.333C567.46 140.911 567.094 142.494 566.716 144.072C566.472 145.1 565.716 145.689 564.66 145.689C560.994 145.689 557.327 145.689 553.66 145.689C553.572 145.689 553.477 145.683 553.388 145.7C553.049 145.756 552.81 146.061 552.833 146.4C552.855 146.728 553.122 146.994 553.455 147.022C553.533 147.028 553.605 147.022 553.683 147.022C557.355 147.022 561.027 147.022 564.705 147.028C564.86 147.028 565.027 147.056 565.166 147.122C565.422 147.244 565.549 147.561 565.488 147.828C565.427 148.106 565.194 148.322 564.91 148.35C564.855 148.356 564.799 148.356 564.744 148.356C561.016 148.356 557.288 148.356 553.555 148.356C552.527 148.356 551.716 147.694 551.533 146.722C551.327 145.628 552.06 144.583 553.16 144.394C553.205 144.394 553.255 144.383 553.322 144.367ZM552.977 137.028C552.988 137.094 552.994 137.144 553.005 137.189C553.555 139.528 554.11 141.872 554.66 144.211C554.694 144.356 554.766 144.361 554.877 144.361C558.149 144.361 561.416 144.361 564.688 144.361C565.099 144.361 565.327 144.178 565.422 143.772C565.877 141.844 566.333 139.917 566.788 137.983C566.927 137.383 566.644 137.028 566.022 137.028C561.755 137.028 557.483 137.028 553.216 137.028C553.138 137.028 553.06 137.028 552.977 137.028Z" fill="#FEFF00"/>
<path d="M555.504 149.028C556.604 149.028 557.504 149.928 557.498 151.028C557.498 152.128 556.604 153.022 555.498 153.022C554.41 153.022 553.504 152.128 553.504 151.039C553.493 149.928 554.387 149.028 555.504 149.028ZM556.165 151.033C556.171 150.672 555.871 150.367 555.51 150.361C555.143 150.356 554.843 150.65 554.832 151.011C554.821 151.383 555.126 151.694 555.498 151.694C555.86 151.694 556.16 151.4 556.165 151.033Z" fill="#FEFF00"/>
<path d="M564.832 151.033C564.832 152.133 563.932 153.028 562.827 153.028C561.727 153.028 560.827 152.122 560.832 151.022C560.838 149.917 561.732 149.028 562.838 149.028C563.938 149.028 564.832 149.928 564.832 151.033ZM563.499 151.028C563.499 150.667 563.199 150.361 562.843 150.361C562.477 150.361 562.177 150.65 562.171 151.017C562.165 151.389 562.465 151.694 562.838 151.694C563.199 151.689 563.493 151.394 563.499 151.028Z" fill="#FEFF00"/>
</g>
<defs>
<filter id="filter0_d_761_65" x="532.166" y="121.028" width="51.9961" height="52" filterUnits="userSpaceOnUse" color-interpolation-filters="sRGB">
<feFlood flood-opacity="0" result="BackgroundImageFix"/>
<feColorMatrix in="SourceAlpha" type="matrix" values="0 0 0 0 0 0 0 0 0 0 0 0 0 0 0 0 0 0 127 0" result="hardAlpha"/>
<feOffset dy="4"/>
<feGaussianBlur stdDeviation="8"/>
<feComposite in2="hardAlpha" operator="out"/>
<feColorMatrix type="matrix" values="0 0 0 0 0.996078 0 0 0 0 1 0 0 0 0 0 0 0 0 1 0"/>
<feBlend mode="normal" in2="BackgroundImageFix" result="effect1_dropShadow_761_65"/>
<feBlend mode="normal" in="SourceGraphic" in2="effect1_dropShadow_761_65" result="shape"/>
</filter>
<linearGradient id="paint0_linear_761_65" x1="36" y1="58" x2="36" y2="288" gradientUnits="userSpaceOnUse">
<stop stop-color="#626161" stop-opacity="0"/>
<stop offset="1" stop-color="#626161"/>
</linearGradient>
<linearGradient id="paint1_linear_761_65" x1="128" y1="58" x2="128" y2="288" gradientUnits="userSpaceOnUse">
<stop stop-color="#626161" stop-opacity="0"/>
<stop offset="1" stop-color="#626161"/>
</linearGradient>
<linearGradient id="paint2_linear_761_65" x1="220" y1="58" x2="220" y2="288" gradientUnits="userSpaceOnUse">
<stop stop-color="#626161" stop-opacity="0"/>
<stop offset="1" stop-color="#626161"/>
</linearGradient>
<linearGradient id="paint3_linear_761_65" x1="312" y1="58" x2="312" y2="288" gradientUnits="userSpaceOnUse">
<stop stop-color="#626161" stop-opacity="0"/>
<stop offset="1" stop-color="#626161"/>
</linearGradient>
<linearGradient id="paint4_linear_761_65" x1="588" y1="118" x2="588" y2="228" gradientUnits="userSpaceOnUse">
<stop stop-color="#FDFF00"/>
<stop offset="1" stop-color="#626161" stop-opacity="0"/>
</linearGradient>
</defs>
</svg>
