<svg width="642" height="344" viewBox="0 0 642 344" fill="none" xmlns="http://www.w3.org/2000/svg">
<path d="M18.6917 20V17.8H22.4917V7.62L18.6717 10.46V7.82L22.0317 5.4H24.9917V17.8H28.0517V20H18.6917ZM35.0039 20.2C34.0706 20.2 33.2639 20.0267 32.5839 19.68C31.9039 19.32 31.3772 18.82 31.0039 18.18C30.6306 17.5267 30.4439 16.76 30.4439 15.88V9.52C30.4439 8.64 30.6306 7.88 31.0039 7.24C31.3772 6.58667 31.9039 6.08667 32.5839 5.74C33.2639 5.38 34.0706 5.2 35.0039 5.2C35.9506 5.2 36.7572 5.38 37.4239 5.74C38.1039 6.08667 38.6306 6.58667 39.0039 7.24C39.3772 7.88 39.5639 8.63333 39.5639 9.5V15.88C39.5639 16.76 39.3772 17.5267 39.0039 18.18C38.6306 18.82 38.1039 19.32 37.4239 19.68C36.7572 20.0267 35.9506 20.2 35.0039 20.2ZM35.0039 18.08C35.6839 18.08 36.2106 17.8867 36.5839 17.5C36.9706 17.1133 37.1639 16.5733 37.1639 15.88V9.52C37.1639 8.82667 36.9706 8.28667 36.5839 7.9C36.2106 7.51333 35.6839 7.32 35.0039 7.32C34.3239 7.32 33.7906 7.51333 33.4039 7.9C33.0306 8.28667 32.8439 8.82667 32.8439 9.52V15.88C32.8439 16.5733 33.0372 17.1133 33.4239 17.5C33.8106 17.8867 34.3372 18.08 35.0039 18.08ZM30.7839 16.32L37.5439 9.08H39.2239L32.4639 16.32H30.7839ZM42.2441 14V12.248H41.3081V11.168H42.2441V10.232H41.3081V9.128H42.2441V5.24H44.9321C45.4921 5.24 45.9761 5.344 46.3841 5.552C46.7921 5.752 47.1081 6.04 47.3321 6.416C47.5561 6.784 47.6681 7.224 47.6681 7.736C47.6681 8.24 47.5561 8.68 47.3321 9.056C47.1081 9.432 46.7921 9.724 46.3841 9.932C45.9761 10.132 45.4921 10.232 44.9321 10.232H43.5401V11.168H46.2041V12.248H43.5401V14H42.2441ZM43.5401 9.128H44.9321C45.3721 9.128 45.7161 9.004 45.9641 8.756C46.2201 8.5 46.3481 8.16 46.3481 7.736C46.3481 7.312 46.2201 6.976 45.9641 6.728C45.7161 6.472 45.3721 6.344 44.9321 6.344H43.5401V9.128Z" fill="#FEFF00"/>
<path d="M23.288 322V311.78H26.578C27.2127 311.78 27.7633 311.906 28.23 312.158C28.6967 312.401 29.056 312.746 29.308 313.194C29.5693 313.642 29.7 314.174 29.7 314.79C29.7 315.397 29.5693 315.929 29.308 316.386C29.056 316.834 28.6967 317.184 28.23 317.436C27.7633 317.679 27.2127 317.8 26.578 317.8H24.548V322H23.288ZM24.548 316.666H26.578C27.1287 316.666 27.5673 316.498 27.894 316.162C28.23 315.817 28.398 315.359 28.398 314.79C28.398 314.211 28.23 313.754 27.894 313.418C27.5673 313.082 27.1287 312.914 26.578 312.914H24.548V316.666ZM31.7105 322V311.78H37.3945V312.928H32.9705V316.008H34.6645C35.3179 316.008 35.8779 316.134 36.3445 316.386C36.8112 316.629 37.1705 316.974 37.4225 317.422C37.6839 317.87 37.8145 318.397 37.8145 319.004C37.8145 319.611 37.6839 320.138 37.4225 320.586C37.1705 321.034 36.8112 321.384 36.3445 321.636C35.8779 321.879 35.3179 322 34.6645 322H31.7105ZM32.9705 320.852H34.6645C35.2432 320.852 35.6959 320.689 36.0225 320.362C36.3492 320.026 36.5125 319.573 36.5125 319.004C36.5125 318.425 36.3492 317.973 36.0225 317.646C35.6959 317.319 35.2432 317.156 34.6645 317.156H32.9705V320.852ZM40.0771 322V311.78H41.3371V316.162H42.8491L45.1171 311.78H46.4891L43.9551 316.694L46.6291 322H45.1871L42.8071 317.268H41.3371V322H40.0771Z" fill="white"/>
<path d="M93.064 322V311.78H94.716L95.78 315.084C95.8827 315.383 95.976 315.681 96.06 315.98C96.144 316.269 96.2047 316.493 96.242 316.652C96.2887 316.493 96.3493 316.269 96.424 315.98C96.4987 315.681 96.5827 315.378 96.676 315.07L97.684 311.78H99.336V322H98.104V318.29C98.104 317.879 98.118 317.413 98.146 316.89C98.174 316.367 98.2113 315.835 98.258 315.294C98.3047 314.743 98.3513 314.221 98.398 313.726C98.454 313.222 98.5007 312.783 98.538 312.41L96.886 317.52H95.556L93.89 312.41C93.9367 312.774 93.9833 313.199 94.03 313.684C94.0767 314.16 94.1187 314.669 94.156 315.21C94.1933 315.742 94.226 316.274 94.254 316.806C94.282 317.338 94.296 317.833 94.296 318.29V322H93.064ZM102.887 324.52L104.021 321.524L101.165 314.3H102.565L104.357 319.06C104.422 319.219 104.483 319.41 104.539 319.634C104.595 319.849 104.641 320.031 104.679 320.18C104.716 320.031 104.763 319.849 104.819 319.634C104.875 319.41 104.931 319.219 104.987 319.06L106.667 314.3H108.025L104.231 324.52H102.887ZM112.359 322V312.914H109.559V311.766H116.419V312.914H113.619V322H112.359ZM120.712 322.14C119.9 322.14 119.26 321.935 118.794 321.524C118.327 321.104 118.094 320.539 118.094 319.83C118.094 319.111 118.327 318.547 118.794 318.136C119.26 317.725 119.89 317.52 120.684 317.52H123.064V316.75C123.064 316.274 122.919 315.91 122.63 315.658C122.35 315.397 121.948 315.266 121.426 315.266C120.968 315.266 120.586 315.364 120.278 315.56C119.97 315.747 119.792 316.003 119.746 316.33H118.486C118.57 315.667 118.882 315.14 119.424 314.748C119.965 314.356 120.642 314.16 121.454 314.16C122.34 314.16 123.04 314.389 123.554 314.846C124.067 315.303 124.324 315.924 124.324 316.708V322H123.092V320.53H122.882L123.092 320.32C123.092 320.88 122.872 321.323 122.434 321.65C122.004 321.977 121.43 322.14 120.712 322.14ZM121.02 321.146C121.617 321.146 122.107 320.997 122.49 320.698C122.872 320.399 123.064 320.017 123.064 319.55V318.458H120.712C120.292 318.458 119.96 318.575 119.718 318.808C119.475 319.041 119.354 319.359 119.354 319.76C119.354 320.189 119.498 320.53 119.788 320.782C120.086 321.025 120.497 321.146 121.02 321.146ZM127.132 322V314.3H128.364V315.77H128.658L128.252 316.68C128.252 315.849 128.429 315.224 128.784 314.804C129.148 314.375 129.685 314.16 130.394 314.16C131.206 314.16 131.85 314.417 132.326 314.93C132.811 315.434 133.054 316.12 133.054 316.988V317.45H131.794V317.1C131.794 316.493 131.645 316.031 131.346 315.714C131.057 315.387 130.641 315.224 130.1 315.224C129.568 315.224 129.148 315.387 128.84 315.714C128.541 316.041 128.392 316.503 128.392 317.1V322H127.132ZM136.227 324.52V323.372H138.677C139.069 323.372 139.353 323.283 139.531 323.106C139.717 322.929 139.811 322.653 139.811 322.28V321.3L139.839 319.9H139.587L139.825 319.69C139.825 320.25 139.638 320.693 139.265 321.02C138.891 321.347 138.392 321.51 137.767 321.51C136.973 321.51 136.348 321.253 135.891 320.74C135.433 320.217 135.205 319.517 135.205 318.64V317.016C135.205 316.139 135.433 315.443 135.891 314.93C136.348 314.417 136.973 314.16 137.767 314.16C138.392 314.16 138.891 314.323 139.265 314.65C139.638 314.977 139.825 315.42 139.825 315.98L139.587 315.77H139.825V314.3H141.071V322.28C141.071 322.971 140.856 323.517 140.427 323.918C140.007 324.319 139.419 324.52 138.663 324.52H136.227ZM138.145 320.418C138.667 320.418 139.078 320.255 139.377 319.928C139.675 319.601 139.825 319.149 139.825 318.57V317.1C139.825 316.521 139.675 316.069 139.377 315.742C139.078 315.415 138.667 315.252 138.145 315.252C137.613 315.252 137.197 315.411 136.899 315.728C136.609 316.045 136.465 316.503 136.465 317.1V318.57C136.465 319.167 136.609 319.625 136.899 319.942C137.197 320.259 137.613 320.418 138.145 320.418ZM146.567 322.14C145.961 322.14 145.429 322.019 144.971 321.776C144.523 321.533 144.173 321.193 143.921 320.754C143.679 320.306 143.557 319.788 143.557 319.2V317.1C143.557 316.503 143.679 315.985 143.921 315.546C144.173 315.107 144.523 314.767 144.971 314.524C145.429 314.281 145.961 314.16 146.567 314.16C147.174 314.16 147.701 314.281 148.149 314.524C148.607 314.767 148.957 315.107 149.199 315.546C149.451 315.985 149.577 316.503 149.577 317.1V318.458H144.789V319.2C144.789 319.807 144.943 320.273 145.251 320.6C145.559 320.917 145.998 321.076 146.567 321.076C147.053 321.076 147.445 320.992 147.743 320.824C148.042 320.647 148.224 320.385 148.289 320.04H149.549C149.465 320.684 149.148 321.197 148.597 321.58C148.056 321.953 147.379 322.14 146.567 322.14ZM148.345 317.618V317.1C148.345 316.493 148.191 316.027 147.883 315.7C147.585 315.373 147.146 315.21 146.567 315.21C145.998 315.21 145.559 315.373 145.251 315.7C144.943 316.027 144.789 316.493 144.789 317.1V317.506H148.443L148.345 317.618ZM155.802 322C155.139 322 154.621 321.823 154.248 321.468C153.884 321.113 153.702 320.614 153.702 319.97V315.448H151.532V314.3H153.702V312.13H154.962V314.3H158.042V315.448H154.962V319.97C154.962 320.558 155.242 320.852 155.802 320.852H157.902V322H155.802Z" fill="white"/>
<path d="M186.47 322V320.852H188.556V312.928H186.47V311.78H191.93V312.928H189.844V320.852H191.93V322H186.47ZM194.683 322V314.3H195.943V315.77H196.209L195.943 316.064C195.943 315.457 196.125 314.991 196.489 314.664C196.853 314.328 197.357 314.16 198.001 314.16C198.775 314.16 199.391 314.398 199.849 314.874C200.306 315.35 200.535 315.999 200.535 316.82V322H199.275V316.96C199.275 316.409 199.125 315.989 198.827 315.7C198.537 315.401 198.141 315.252 197.637 315.252C197.114 315.252 196.699 315.411 196.391 315.728C196.092 316.045 195.943 316.503 195.943 317.1V322H194.683ZM206.829 322C206.166 322 205.648 321.823 205.275 321.468C204.911 321.113 204.729 320.614 204.729 319.97V315.448H202.559V314.3H204.729V312.13H205.989V314.3H209.069V315.448H205.989V319.97C205.989 320.558 206.269 320.852 206.829 320.852H208.929V322H206.829ZM214.384 322.14C213.777 322.14 213.245 322.019 212.788 321.776C212.34 321.533 211.99 321.193 211.738 320.754C211.495 320.306 211.374 319.788 211.374 319.2V317.1C211.374 316.503 211.495 315.985 211.738 315.546C211.99 315.107 212.34 314.767 212.788 314.524C213.245 314.281 213.777 314.16 214.384 314.16C214.99 314.16 215.518 314.281 215.966 314.524C216.423 314.767 216.773 315.107 217.016 315.546C217.268 315.985 217.394 316.503 217.394 317.1V318.458H212.606V319.2C212.606 319.807 212.76 320.273 213.068 320.6C213.376 320.917 213.814 321.076 214.384 321.076C214.869 321.076 215.261 320.992 215.56 320.824C215.858 320.647 216.04 320.385 216.106 320.04H217.366C217.282 320.684 216.964 321.197 216.414 321.58C215.872 321.953 215.196 322.14 214.384 322.14ZM216.162 317.618V317.1C216.162 316.493 216.008 316.027 215.7 315.7C215.401 315.373 214.962 315.21 214.384 315.21C213.814 315.21 213.376 315.373 213.068 315.7C212.76 316.027 212.606 316.493 212.606 317.1V317.506H216.26L216.162 317.618ZM220.132 322V314.3H221.364V315.77H221.658L221.252 316.68C221.252 315.849 221.429 315.224 221.784 314.804C222.148 314.375 222.685 314.16 223.394 314.16C224.206 314.16 224.85 314.417 225.326 314.93C225.811 315.434 226.054 316.12 226.054 316.988V317.45H224.794V317.1C224.794 316.493 224.645 316.031 224.346 315.714C224.057 315.387 223.641 315.224 223.1 315.224C222.568 315.224 222.148 315.387 221.84 315.714C221.541 316.041 221.392 316.503 221.392 317.1V322H220.132ZM228.261 322V314.3H229.521V315.77H229.787L229.521 316.064C229.521 315.457 229.703 314.991 230.067 314.664C230.431 314.328 230.935 314.16 231.579 314.16C232.353 314.16 232.969 314.398 233.427 314.874C233.884 315.35 234.113 315.999 234.113 316.82V322H232.853V316.96C232.853 316.409 232.703 315.989 232.405 315.7C232.115 315.401 231.719 315.252 231.215 315.252C230.692 315.252 230.277 315.411 229.969 315.728C229.67 316.045 229.521 316.503 229.521 317.1V322H228.261ZM239.567 322.14C238.961 322.14 238.429 322.019 237.971 321.776C237.523 321.533 237.173 321.193 236.921 320.754C236.679 320.306 236.557 319.788 236.557 319.2V317.1C236.557 316.503 236.679 315.985 236.921 315.546C237.173 315.107 237.523 314.767 237.971 314.524C238.429 314.281 238.961 314.16 239.567 314.16C240.174 314.16 240.701 314.281 241.149 314.524C241.607 314.767 241.957 315.107 242.199 315.546C242.451 315.985 242.577 316.503 242.577 317.1V318.458H237.789V319.2C237.789 319.807 237.943 320.273 238.251 320.6C238.559 320.917 238.998 321.076 239.567 321.076C240.053 321.076 240.445 320.992 240.743 320.824C241.042 320.647 241.224 320.385 241.289 320.04H242.549C242.465 320.684 242.148 321.197 241.597 321.58C241.056 321.953 240.379 322.14 239.567 322.14ZM241.345 317.618V317.1C241.345 316.493 241.191 316.027 240.883 315.7C240.585 315.373 240.146 315.21 239.567 315.21C238.998 315.21 238.559 315.373 238.251 315.7C237.943 316.027 237.789 316.493 237.789 317.1V317.506H241.443L241.345 317.618ZM248.802 322C248.139 322 247.621 321.823 247.248 321.468C246.884 321.113 246.702 320.614 246.702 319.97V315.448H244.532V314.3H246.702V312.13H247.962V314.3H251.042V315.448H247.962V319.97C247.962 320.558 248.242 320.852 248.802 320.852H250.902V322H248.802Z" fill="white"/>
<path d="M284.57 322V318.178L281.49 311.78H282.792L284.822 315.98C284.934 316.213 285.023 316.414 285.088 316.582C285.153 316.741 285.195 316.857 285.214 316.932C285.233 316.857 285.275 316.741 285.34 316.582C285.415 316.414 285.508 316.213 285.62 315.98L287.608 311.78H288.91L285.83 318.178V322H284.57ZM293.595 322.112C292.979 322.112 292.447 321.995 291.999 321.762C291.551 321.529 291.201 321.193 290.949 320.754C290.706 320.306 290.585 319.779 290.585 319.172V317.128C290.585 316.512 290.706 315.985 290.949 315.546C291.201 315.107 291.551 314.771 291.999 314.538C292.447 314.305 292.979 314.188 293.595 314.188C294.211 314.188 294.743 314.305 295.191 314.538C295.639 314.771 295.984 315.107 296.227 315.546C296.479 315.985 296.605 316.507 296.605 317.114V319.172C296.605 319.779 296.479 320.306 296.227 320.754C295.984 321.193 295.639 321.529 295.191 321.762C294.743 321.995 294.211 322.112 293.595 322.112ZM293.595 320.992C294.145 320.992 294.575 320.838 294.883 320.53C295.191 320.222 295.345 319.769 295.345 319.172V317.128C295.345 316.531 295.191 316.078 294.883 315.77C294.575 315.462 294.145 315.308 293.595 315.308C293.053 315.308 292.624 315.462 292.307 315.77C291.999 316.078 291.845 316.531 291.845 317.128V319.172C291.845 319.769 291.999 320.222 292.307 320.53C292.624 320.838 293.053 320.992 293.595 320.992ZM301.975 322.14C301.088 322.14 300.379 321.879 299.847 321.356C299.315 320.824 299.049 320.105 299.049 319.2V314.3H300.309V319.2C300.309 319.779 300.458 320.231 300.757 320.558C301.056 320.875 301.462 321.034 301.975 321.034C302.498 321.034 302.908 320.875 303.207 320.558C303.515 320.231 303.669 319.779 303.669 319.2V314.3H304.929V319.2C304.929 320.105 304.658 320.824 304.117 321.356C303.576 321.879 302.862 322.14 301.975 322.14ZM309.754 322V312.914H306.954V311.766H313.814V312.914H311.014V322H309.754ZM318.764 322.14C317.877 322.14 317.168 321.879 316.636 321.356C316.104 320.824 315.838 320.105 315.838 319.2V314.3H317.098V319.2C317.098 319.779 317.247 320.231 317.546 320.558C317.845 320.875 318.251 321.034 318.764 321.034C319.287 321.034 319.697 320.875 319.996 320.558C320.304 320.231 320.458 319.779 320.458 319.2V314.3H321.718V319.2C321.718 320.105 321.447 320.824 320.906 321.356C320.365 321.879 319.651 322.14 318.764 322.14ZM327.621 322.14C326.986 322.14 326.477 321.972 326.095 321.636C325.712 321.291 325.521 320.824 325.521 320.236L325.773 320.53H325.521V322H324.261V311.78H325.521V314.02L325.493 315.77H325.773L325.521 316.064C325.521 315.485 325.712 315.023 326.095 314.678C326.487 314.333 326.995 314.16 327.621 314.16C328.395 314.16 329.016 314.417 329.483 314.93C329.949 315.443 330.183 316.143 330.183 317.03V319.284C330.183 320.161 329.949 320.857 329.483 321.37C329.016 321.883 328.395 322.14 327.621 322.14ZM327.201 321.048C327.733 321.048 328.153 320.889 328.461 320.572C328.769 320.255 328.923 319.797 328.923 319.2V317.1C328.923 316.503 328.769 316.045 328.461 315.728C328.153 315.411 327.733 315.252 327.201 315.252C326.687 315.252 326.277 315.415 325.969 315.742C325.67 316.069 325.521 316.521 325.521 317.1V319.2C325.521 319.779 325.67 320.231 325.969 320.558C326.277 320.885 326.687 321.048 327.201 321.048ZM335.567 322.14C334.961 322.14 334.429 322.019 333.971 321.776C333.523 321.533 333.173 321.193 332.921 320.754C332.679 320.306 332.557 319.788 332.557 319.2V317.1C332.557 316.503 332.679 315.985 332.921 315.546C333.173 315.107 333.523 314.767 333.971 314.524C334.429 314.281 334.961 314.16 335.567 314.16C336.174 314.16 336.701 314.281 337.149 314.524C337.607 314.767 337.957 315.107 338.199 315.546C338.451 315.985 338.577 316.503 338.577 317.1V318.458H333.789V319.2C333.789 319.807 333.943 320.273 334.251 320.6C334.559 320.917 334.998 321.076 335.567 321.076C336.053 321.076 336.445 320.992 336.743 320.824C337.042 320.647 337.224 320.385 337.289 320.04H338.549C338.465 320.684 338.148 321.197 337.597 321.58C337.056 321.953 336.379 322.14 335.567 322.14ZM337.345 317.618V317.1C337.345 316.493 337.191 316.027 336.883 315.7C336.585 315.373 336.146 315.21 335.567 315.21C334.998 315.21 334.559 315.373 334.251 315.7C333.943 316.027 333.789 316.493 333.789 317.1V317.506H337.443L337.345 317.618Z" fill="white"/>
<path d="M378.1 322L380.2 317.52C379.584 317.333 379.099 316.993 378.744 316.498C378.39 316.003 378.212 315.411 378.212 314.72C378.212 314.132 378.338 313.619 378.59 313.18C378.842 312.741 379.197 312.401 379.654 312.158C380.112 311.906 380.644 311.78 381.25 311.78H384.386V322H383.126V317.66H381.502L379.556 322H378.1ZM381.25 316.54H383.126V312.9H381.25C380.737 312.9 380.317 313.068 379.99 313.404C379.673 313.731 379.514 314.169 379.514 314.72C379.514 315.261 379.673 315.7 379.99 316.036C380.308 316.372 380.728 316.54 381.25 316.54ZM387.027 322V314.3H388.287V317.506H391.535V314.3H392.795V322H391.535V318.654H388.287V322H387.027ZM394.525 323.96V320.922H395.155C395.314 320.763 395.477 320.451 395.645 319.984C395.823 319.517 395.916 318.925 395.925 318.206L396.009 314.3H401.035V320.922H402.015V323.96H400.895V322H395.645V323.96H394.525ZM396.485 320.922H399.775V315.42H397.199L397.143 318.234C397.134 318.971 397.055 319.569 396.905 320.026C396.756 320.483 396.616 320.782 396.485 320.922ZM406.7 322.14C406.093 322.14 405.561 322.019 405.104 321.776C404.656 321.533 404.306 321.193 404.054 320.754C403.811 320.306 403.69 319.788 403.69 319.2V317.1C403.69 316.503 403.811 315.985 404.054 315.546C404.306 315.107 404.656 314.767 405.104 314.524C405.561 314.281 406.093 314.16 406.7 314.16C407.307 314.16 407.834 314.281 408.282 314.524C408.739 314.767 409.089 315.107 409.332 315.546C409.584 315.985 409.71 316.503 409.71 317.1V318.458H404.922V319.2C404.922 319.807 405.076 320.273 405.384 320.6C405.692 320.917 406.131 321.076 406.7 321.076C407.185 321.076 407.577 320.992 407.876 320.824C408.175 320.647 408.357 320.385 408.422 320.04H409.682C409.598 320.684 409.281 321.197 408.73 321.58C408.189 321.953 407.512 322.14 406.7 322.14ZM408.478 317.618V317.1C408.478 316.493 408.324 316.027 408.016 315.7C407.717 315.373 407.279 315.21 406.7 315.21C406.131 315.21 405.692 315.373 405.384 315.7C405.076 316.027 404.922 316.493 404.922 317.1V317.506H408.576L408.478 317.618ZM412.253 322V314.3H413.513V317.478H414.829L417.069 314.3H418.511L415.921 317.968L418.553 322H417.083L414.843 318.57H413.513V322H412.253ZM423.517 322.14C422.901 322.14 422.36 322.023 421.893 321.79C421.436 321.557 421.081 321.221 420.829 320.782C420.577 320.334 420.451 319.807 420.451 319.2V317.1C420.451 316.484 420.577 315.957 420.829 315.518C421.081 315.079 421.436 314.743 421.893 314.51C422.36 314.277 422.901 314.16 423.517 314.16C424.404 314.16 425.118 314.398 425.659 314.874C426.2 315.35 426.485 315.999 426.513 316.82H425.253C425.225 316.325 425.057 315.947 424.749 315.686C424.45 315.415 424.04 315.28 423.517 315.28C422.966 315.28 422.528 315.439 422.201 315.756C421.874 316.064 421.711 316.507 421.711 317.086V319.2C421.711 319.779 421.874 320.227 422.201 320.544C422.528 320.861 422.966 321.02 423.517 321.02C424.04 321.02 424.45 320.885 424.749 320.614C425.057 320.343 425.225 319.965 425.253 319.48H426.513C426.485 320.301 426.2 320.95 425.659 321.426C425.118 321.902 424.404 322.14 423.517 322.14ZM378.604 340V329.78H381.25C381.913 329.78 382.482 329.906 382.958 330.158C383.444 330.41 383.817 330.765 384.078 331.222C384.349 331.679 384.484 332.221 384.484 332.846V336.92C384.484 337.545 384.349 338.091 384.078 338.558C383.817 339.015 383.444 339.37 382.958 339.622C382.482 339.874 381.913 340 381.25 340H378.604ZM379.864 338.88H381.25C381.866 338.88 382.347 338.707 382.692 338.362C383.047 338.017 383.224 337.536 383.224 336.92V332.846C383.224 332.239 383.047 331.763 382.692 331.418C382.347 331.073 381.866 330.9 381.25 330.9H379.864V338.88ZM386.901 340V338.852H389.631V333.448H387.251V332.3H390.891V338.852H393.481V340H386.901ZM390.121 330.914C389.813 330.914 389.57 330.835 389.393 330.676C389.216 330.517 389.127 330.303 389.127 330.032C389.127 329.752 389.216 329.533 389.393 329.374C389.57 329.206 389.813 329.122 390.121 329.122C390.429 329.122 390.672 329.206 390.849 329.374C391.026 329.533 391.115 329.752 391.115 330.032C391.115 330.303 391.026 330.517 390.849 330.676C390.672 330.835 390.429 330.914 390.121 330.914ZM395.659 340V332.3H396.891V333.77H397.185L396.779 334.68C396.779 333.849 396.957 333.224 397.311 332.804C397.675 332.375 398.212 332.16 398.921 332.16C399.733 332.16 400.377 332.417 400.853 332.93C401.339 333.434 401.581 334.12 401.581 334.988V335.45H400.321V335.1C400.321 334.493 400.172 334.031 399.873 333.714C399.584 333.387 399.169 333.224 398.627 333.224C398.095 333.224 397.675 333.387 397.367 333.714C397.069 334.041 396.919 334.503 396.919 335.1V340H395.659ZM406.7 340.14C406.093 340.14 405.561 340.019 405.104 339.776C404.656 339.533 404.306 339.193 404.054 338.754C403.811 338.306 403.69 337.788 403.69 337.2V335.1C403.69 334.503 403.811 333.985 404.054 333.546C404.306 333.107 404.656 332.767 405.104 332.524C405.561 332.281 406.093 332.16 406.7 332.16C407.307 332.16 407.834 332.281 408.282 332.524C408.739 332.767 409.089 333.107 409.332 333.546C409.584 333.985 409.71 334.503 409.71 335.1V336.458H404.922V337.2C404.922 337.807 405.076 338.273 405.384 338.6C405.692 338.917 406.131 339.076 406.7 339.076C407.185 339.076 407.577 338.992 407.876 338.824C408.175 338.647 408.357 338.385 408.422 338.04H409.682C409.598 338.684 409.281 339.197 408.73 339.58C408.189 339.953 407.512 340.14 406.7 340.14ZM408.478 335.618V335.1C408.478 334.493 408.324 334.027 408.016 333.7C407.717 333.373 407.279 333.21 406.7 333.21C406.131 333.21 405.692 333.373 405.384 333.7C405.076 334.027 404.922 334.493 404.922 335.1V335.506H408.576L408.478 335.618ZM415.151 340.14C414.535 340.14 413.993 340.023 413.527 339.79C413.069 339.557 412.715 339.221 412.463 338.782C412.211 338.334 412.085 337.807 412.085 337.2V335.1C412.085 334.484 412.211 333.957 412.463 333.518C412.715 333.079 413.069 332.743 413.527 332.51C413.993 332.277 414.535 332.16 415.151 332.16C416.037 332.16 416.751 332.398 417.293 332.874C417.834 333.35 418.119 333.999 418.147 334.82H416.887C416.859 334.325 416.691 333.947 416.383 333.686C416.084 333.415 415.673 333.28 415.151 333.28C414.6 333.28 414.161 333.439 413.835 333.756C413.508 334.064 413.345 334.507 413.345 335.086V337.2C413.345 337.779 413.508 338.227 413.835 338.544C414.161 338.861 414.6 339.02 415.151 339.02C415.673 339.02 416.084 338.885 416.383 338.614C416.691 338.343 416.859 337.965 416.887 337.48H418.147C418.119 338.301 417.834 338.95 417.293 339.426C416.751 339.902 416.037 340.14 415.151 340.14ZM424.329 340C423.666 340 423.148 339.823 422.775 339.468C422.411 339.113 422.229 338.614 422.229 337.97V333.448H420.059V332.3H422.229V330.13H423.489V332.3H426.569V333.448H423.489V337.97C423.489 338.558 423.769 338.852 424.329 338.852H426.429V340H424.329Z" fill="white"/>
<path d="M547.907 20V5.4H556.147V20H554.347V7.04H549.707V20H547.907ZM559.86 23.6V9H561.66V11.1H562.02L561.66 11.52C561.66 10.68 561.933 10.02 562.48 9.54C563.04 9.04667 563.773 8.8 564.68 8.8C565.786 8.8 566.666 9.16667 567.32 9.9C567.986 10.62 568.32 11.6133 568.32 12.88V16.1C568.32 16.94 568.166 17.6667 567.86 18.28C567.566 18.8933 567.146 19.3667 566.6 19.7C566.066 20.0333 565.426 20.2 564.68 20.2C563.786 20.2 563.06 19.9533 562.5 19.46C561.94 18.9667 561.66 18.3067 561.66 17.48L562.02 17.9H561.62L561.66 20.4V23.6H559.86ZM564.08 18.64C564.84 18.64 565.433 18.4133 565.86 17.96C566.3 17.5067 566.52 16.8533 566.52 16V13C566.52 12.1467 566.3 11.4933 565.86 11.04C565.433 10.5867 564.84 10.36 564.08 10.36C563.346 10.36 562.76 10.5933 562.32 11.06C561.88 11.5267 561.66 12.1733 561.66 13V16C561.66 16.8267 561.88 17.4733 562.32 17.94C562.76 18.4067 563.346 18.64 564.08 18.64ZM576.012 20.16C575.132 20.16 574.372 19.9933 573.732 19.66C573.092 19.3267 572.592 18.8467 572.232 18.22C571.885 17.58 571.712 16.8267 571.712 15.96V13.04C571.712 12.16 571.885 11.4067 572.232 10.78C572.592 10.1533 573.092 9.67333 573.732 9.34C574.372 9.00667 575.132 8.84 576.012 8.84C576.892 8.84 577.652 9.00667 578.292 9.34C578.932 9.67333 579.425 10.1533 579.772 10.78C580.132 11.4067 580.312 12.1533 580.312 13.02V15.96C580.312 16.8267 580.132 17.58 579.772 18.22C579.425 18.8467 578.932 19.3267 578.292 19.66C577.652 19.9933 576.892 20.16 576.012 20.16ZM576.012 18.56C576.798 18.56 577.412 18.34 577.852 17.9C578.292 17.46 578.512 16.8133 578.512 15.96V13.04C578.512 12.1867 578.292 11.54 577.852 11.1C577.412 10.66 576.798 10.44 576.012 10.44C575.238 10.44 574.625 10.66 574.172 11.1C573.732 11.54 573.512 12.1867 573.512 13.04V15.96C573.512 16.8133 573.732 17.46 574.172 17.9C574.625 18.34 575.238 18.56 576.012 18.56ZM582.604 22.8V18.46H583.504C583.731 18.2333 583.964 17.7867 584.204 17.12C584.457 16.4533 584.591 15.6067 584.604 14.58L584.724 9H591.904V18.46H593.304V22.8H591.704V20H584.204V22.8H582.604ZM585.404 18.46H590.104V10.6H586.424L586.344 14.62C586.331 15.6733 586.217 16.5267 586.004 17.18C585.791 17.8333 585.591 18.26 585.404 18.46ZM599.036 20.2C597.876 20.2 596.963 19.9067 596.296 19.32C595.629 18.72 595.296 17.9133 595.296 16.9C595.296 15.8733 595.629 15.0667 596.296 14.48C596.963 13.8933 597.863 13.6 598.996 13.6H602.396V12.5C602.396 11.82 602.189 11.3 601.776 10.94C601.376 10.5667 600.803 10.38 600.056 10.38C599.403 10.38 598.856 10.52 598.416 10.8C597.976 11.0667 597.723 11.4333 597.656 11.9H595.856C595.976 10.9533 596.423 10.2 597.196 9.64C597.969 9.08 598.936 8.8 600.096 8.8C601.363 8.8 602.363 9.12667 603.096 9.78C603.829 10.4333 604.196 11.32 604.196 12.44V20H602.436V17.9H602.136L602.436 17.6C602.436 18.4 602.123 19.0333 601.496 19.5C600.883 19.9667 600.063 20.2 599.036 20.2ZM599.476 18.78C600.329 18.78 601.029 18.5667 601.576 18.14C602.123 17.7133 602.396 17.1667 602.396 16.5V14.94H599.036C598.436 14.94 597.963 15.1067 597.616 15.44C597.269 15.7733 597.096 16.2267 597.096 16.8C597.096 17.4133 597.303 17.9 597.716 18.26C598.143 18.6067 598.729 18.78 599.476 18.78ZM606.348 20L608.748 14.36L606.508 9H608.248L610.168 13.8H611.228V9H612.748V13.8H613.768L615.748 9H617.468L615.228 14.3L617.628 20H615.828L613.828 15H612.748V20H611.228V15H610.148L608.128 20H606.348ZM623.02 20.2C621.86 20.2 620.947 19.9067 620.28 19.32C619.614 18.72 619.28 17.9133 619.28 16.9C619.28 15.8733 619.614 15.0667 620.28 14.48C620.947 13.8933 621.847 13.6 622.98 13.6H626.38V12.5C626.38 11.82 626.174 11.3 625.76 10.94C625.36 10.5667 624.787 10.38 624.04 10.38C623.387 10.38 622.84 10.52 622.4 10.8C621.96 11.0667 621.707 11.4333 621.64 11.9H619.84C619.96 10.9533 620.407 10.2 621.18 9.64C621.954 9.08 622.92 8.8 624.08 8.8C625.347 8.8 626.347 9.12667 627.08 9.78C627.814 10.4333 628.18 11.32 628.18 12.44V20H626.42V17.9H626.12L626.42 17.6C626.42 18.4 626.107 19.0333 625.48 19.5C624.867 19.9667 624.047 20.2 623.02 20.2ZM623.46 18.78C624.314 18.78 625.014 18.5667 625.56 18.14C626.107 17.7133 626.38 17.1667 626.38 16.5V14.94H623.02C622.42 14.94 621.947 15.1067 621.6 15.44C621.254 15.7733 621.08 16.2267 621.08 16.8C621.08 17.4133 621.287 17.9 621.7 18.26C622.127 18.6067 622.714 18.78 623.46 18.78Z" fill="white"/>
<path d="M110.692 20V17.8H114.492V7.62L110.672 10.46V7.82L114.032 5.4H116.992V17.8H120.052V20H110.692ZM126.984 20.2C125.637 20.2 124.557 19.8667 123.744 19.2C122.931 18.52 122.484 17.6 122.404 16.44H124.904C124.957 16.9467 125.157 17.34 125.504 17.62C125.864 17.8867 126.357 18.02 126.984 18.02C127.677 18.02 128.204 17.84 128.564 17.48C128.924 17.1067 129.104 16.5933 129.104 15.94V14.52C129.104 13.8533 128.924 13.3467 128.564 13C128.204 12.64 127.677 12.46 126.984 12.46C126.557 12.46 126.191 12.5467 125.884 12.72C125.577 12.8933 125.344 13.1333 125.184 13.44H122.744L122.844 5.4H131.064V7.66H125.204L125.164 11.9H125.744L125.144 12.4C125.144 11.7867 125.384 11.3067 125.864 10.96C126.357 10.6 127.017 10.42 127.844 10.42C129.031 10.4067 129.951 10.7667 130.604 11.5C131.271 12.22 131.604 13.2267 131.604 14.52V15.94C131.604 17.26 131.191 18.3 130.364 19.06C129.551 19.82 128.424 20.2 126.984 20.2ZM134.244 14V12.248H133.308V11.168H134.244V10.232H133.308V9.128H134.244V5.24H136.932C137.492 5.24 137.976 5.344 138.384 5.552C138.792 5.752 139.108 6.04 139.332 6.416C139.556 6.784 139.668 7.224 139.668 7.736C139.668 8.24 139.556 8.68 139.332 9.056C139.108 9.432 138.792 9.724 138.384 9.932C137.976 10.132 137.492 10.232 136.932 10.232H135.54V11.168H138.204V12.248H135.54V14H134.244ZM135.54 9.128H136.932C137.372 9.128 137.716 9.004 137.964 8.756C138.22 8.5 138.348 8.16 138.348 7.736C138.348 7.312 138.22 6.976 137.964 6.728C137.716 6.472 137.372 6.344 136.932 6.344H135.54V9.128Z" fill="#FEFF00"/>
<path d="M202.692 20V17.8H206.492V7.62L202.672 10.46V7.82L206.032 5.4H208.992V17.8H212.052V20H202.692ZM219.004 20.2C218.071 20.2 217.264 20.0267 216.584 19.68C215.904 19.32 215.377 18.82 215.004 18.18C214.631 17.5267 214.444 16.76 214.444 15.88V9.52C214.444 8.64 214.631 7.88 215.004 7.24C215.377 6.58667 215.904 6.08667 216.584 5.74C217.264 5.38 218.071 5.2 219.004 5.2C219.951 5.2 220.757 5.38 221.424 5.74C222.104 6.08667 222.631 6.58667 223.004 7.24C223.377 7.88 223.564 8.63333 223.564 9.5V15.88C223.564 16.76 223.377 17.5267 223.004 18.18C222.631 18.82 222.104 19.32 221.424 19.68C220.757 20.0267 219.951 20.2 219.004 20.2ZM219.004 18.08C219.684 18.08 220.211 17.8867 220.584 17.5C220.971 17.1133 221.164 16.5733 221.164 15.88V9.52C221.164 8.82667 220.971 8.28667 220.584 7.9C220.211 7.51333 219.684 7.32 219.004 7.32C218.324 7.32 217.791 7.51333 217.404 7.9C217.031 8.28667 216.844 8.82667 216.844 9.52V15.88C216.844 16.5733 217.037 17.1133 217.424 17.5C217.811 17.8867 218.337 18.08 219.004 18.08ZM214.784 16.32L221.544 9.08H223.224L216.464 16.32H214.784ZM226.244 14V12.248H225.308V11.168H226.244V10.232H225.308V9.128H226.244V5.24H228.932C229.492 5.24 229.976 5.344 230.384 5.552C230.792 5.752 231.108 6.04 231.332 6.416C231.556 6.784 231.668 7.224 231.668 7.736C231.668 8.24 231.556 8.68 231.332 9.056C231.108 9.432 230.792 9.724 230.384 9.932C229.976 10.132 229.492 10.232 228.932 10.232H227.54V11.168H230.204V12.248H227.54V14H226.244ZM227.54 9.128H228.932C229.372 9.128 229.716 9.004 229.964 8.756C230.22 8.5 230.348 8.16 230.348 7.736C230.348 7.312 230.22 6.976 229.964 6.728C229.716 6.472 229.372 6.344 228.932 6.344H227.54V9.128Z" fill="#FEFF00"/>
<path d="M298.872 20.2C297.925 20.2 297.098 20.0267 296.392 19.68C295.698 19.3333 295.158 18.8467 294.772 18.22C294.385 17.5933 294.192 16.8533 294.192 16H296.712C296.712 16.6533 296.898 17.1667 297.272 17.54C297.658 17.9 298.198 18.08 298.892 18.08C299.585 18.08 300.118 17.8933 300.492 17.52C300.865 17.1467 301.052 16.64 301.052 16V14.86C301.052 14.2067 300.865 13.7 300.492 13.34C300.118 12.9667 299.585 12.78 298.892 12.78H297.252V10.52L300.472 7.54H294.852V5.4H303.012V7.66L298.892 11.44V10.64C300.332 10.64 301.472 11.02 302.312 11.78C303.152 12.54 303.572 13.5667 303.572 14.86V16C303.572 16.8533 303.378 17.5933 302.992 18.22C302.605 18.8467 302.058 19.3333 301.352 19.68C300.645 20.0267 299.818 20.2 298.872 20.2ZM311.004 20.2C310.071 20.2 309.264 20.0267 308.584 19.68C307.904 19.32 307.377 18.82 307.004 18.18C306.631 17.5267 306.444 16.76 306.444 15.88V9.52C306.444 8.64 306.631 7.88 307.004 7.24C307.377 6.58667 307.904 6.08667 308.584 5.74C309.264 5.38 310.071 5.2 311.004 5.2C311.951 5.2 312.757 5.38 313.424 5.74C314.104 6.08667 314.631 6.58667 315.004 7.24C315.377 7.88 315.564 8.63333 315.564 9.5V15.88C315.564 16.76 315.377 17.5267 315.004 18.18C314.631 18.82 314.104 19.32 313.424 19.68C312.757 20.0267 311.951 20.2 311.004 20.2ZM311.004 18.08C311.684 18.08 312.211 17.8867 312.584 17.5C312.971 17.1133 313.164 16.5733 313.164 15.88V9.52C313.164 8.82667 312.971 8.28667 312.584 7.9C312.211 7.51333 311.684 7.32 311.004 7.32C310.324 7.32 309.791 7.51333 309.404 7.9C309.031 8.28667 308.844 8.82667 308.844 9.52V15.88C308.844 16.5733 309.037 17.1133 309.424 17.5C309.811 17.8867 310.337 18.08 311.004 18.08ZM306.784 16.32L313.544 9.08H315.224L308.464 16.32H306.784ZM318.244 14V12.248H317.308V11.168H318.244V10.232H317.308V9.128H318.244V5.24H320.932C321.492 5.24 321.976 5.344 322.384 5.552C322.792 5.752 323.108 6.04 323.332 6.416C323.556 6.784 323.668 7.224 323.668 7.736C323.668 8.24 323.556 8.68 323.332 9.056C323.108 9.432 322.792 9.724 322.384 9.932C321.976 10.132 321.492 10.232 320.932 10.232H319.54V11.168H322.204V12.248H319.54V14H318.244ZM319.54 9.128H320.932C321.372 9.128 321.716 9.004 321.964 8.756C322.22 8.5 322.348 8.16 322.348 7.736C322.348 7.312 322.22 6.976 321.964 6.728C321.716 6.472 321.372 6.344 320.932 6.344H319.54V9.128Z" fill="#FEFF00"/>
<path d="M390.872 20.2C389.925 20.2 389.098 20.0267 388.392 19.68C387.698 19.3333 387.158 18.8467 386.772 18.22C386.385 17.5933 386.192 16.8533 386.192 16H388.712C388.712 16.6533 388.898 17.1667 389.272 17.54C389.658 17.9 390.198 18.08 390.892 18.08C391.585 18.08 392.118 17.8933 392.492 17.52C392.865 17.1467 393.052 16.64 393.052 16V14.86C393.052 14.2067 392.865 13.7 392.492 13.34C392.118 12.9667 391.585 12.78 390.892 12.78H389.252V10.52L392.472 7.54H386.852V5.4H395.012V7.66L390.892 11.44V10.64C392.332 10.64 393.472 11.02 394.312 11.78C395.152 12.54 395.572 13.5667 395.572 14.86V16C395.572 16.8533 395.378 17.5933 394.992 18.22C394.605 18.8467 394.058 19.3333 393.352 19.68C392.645 20.0267 391.818 20.2 390.872 20.2ZM402.984 20.2C401.637 20.2 400.557 19.8667 399.744 19.2C398.931 18.52 398.484 17.6 398.404 16.44H400.904C400.957 16.9467 401.157 17.34 401.504 17.62C401.864 17.8867 402.357 18.02 402.984 18.02C403.677 18.02 404.204 17.84 404.564 17.48C404.924 17.1067 405.104 16.5933 405.104 15.94V14.52C405.104 13.8533 404.924 13.3467 404.564 13C404.204 12.64 403.677 12.46 402.984 12.46C402.557 12.46 402.191 12.5467 401.884 12.72C401.577 12.8933 401.344 13.1333 401.184 13.44H398.744L398.844 5.4H407.064V7.66H401.204L401.164 11.9H401.744L401.144 12.4C401.144 11.7867 401.384 11.3067 401.864 10.96C402.357 10.6 403.017 10.42 403.844 10.42C405.031 10.4067 405.951 10.7667 406.604 11.5C407.271 12.22 407.604 13.2267 407.604 14.52V15.94C407.604 17.26 407.191 18.3 406.364 19.06C405.551 19.82 404.424 20.2 402.984 20.2ZM410.244 14V12.248H409.308V11.168H410.244V10.232H409.308V9.128H410.244V5.24H412.932C413.492 5.24 413.976 5.344 414.384 5.552C414.792 5.752 415.108 6.04 415.332 6.416C415.556 6.784 415.668 7.224 415.668 7.736C415.668 8.24 415.556 8.68 415.332 9.056C415.108 9.432 414.792 9.724 414.384 9.932C413.976 10.132 413.492 10.232 412.932 10.232H411.54V11.168H414.204V12.248H411.54V14H410.244ZM411.54 9.128H412.932C413.372 9.128 413.716 9.004 413.964 8.756C414.22 8.5 414.348 8.16 414.348 7.736C414.348 7.312 414.22 6.976 413.964 6.728C413.716 6.472 413.372 6.344 412.932 6.344H411.54V9.128Z" fill="#FEFF00"/>
<path d="M559.52 215V211.7H565.22V196.43L559.49 200.69V196.73L564.53 193.1H568.97V211.7H573.56V215H559.52ZM583.988 215.3C582.588 215.3 581.378 215.04 580.358 214.52C579.338 213.98 578.548 213.23 577.988 212.27C577.428 211.29 577.148 210.14 577.148 208.82V199.28C577.148 197.96 577.428 196.82 577.988 195.86C578.548 194.88 579.338 194.13 580.358 193.61C581.378 193.07 582.588 192.8 583.988 192.8C585.408 192.8 586.618 193.07 587.618 193.61C588.638 194.13 589.428 194.88 589.988 195.86C590.548 196.82 590.828 197.95 590.828 199.25V208.82C590.828 210.14 590.548 211.29 589.988 212.27C589.428 213.23 588.638 213.98 587.618 214.52C586.618 215.04 585.408 215.3 583.988 215.3ZM583.988 212.12C585.008 212.12 585.798 211.83 586.358 211.25C586.938 210.67 587.228 209.86 587.228 208.82V199.28C587.228 198.24 586.938 197.43 586.358 196.85C585.798 196.27 585.008 195.98 583.988 195.98C582.968 195.98 582.168 196.27 581.588 196.85C581.028 197.43 580.748 198.24 580.748 199.28V208.82C580.748 209.86 581.038 210.67 581.618 211.25C582.198 211.83 582.988 212.12 583.988 212.12ZM577.658 209.48L587.798 198.62H590.318L580.178 209.48H577.658ZM601.977 215.3C600.577 215.3 599.367 215.04 598.347 214.52C597.327 213.98 596.537 213.23 595.977 212.27C595.417 211.29 595.137 210.14 595.137 208.82V199.28C595.137 197.96 595.417 196.82 595.977 195.86C596.537 194.88 597.327 194.13 598.347 193.61C599.367 193.07 600.577 192.8 601.977 192.8C603.397 192.8 604.607 193.07 605.607 193.61C606.627 194.13 607.417 194.88 607.977 195.86C608.537 196.82 608.817 197.95 608.817 199.25V208.82C608.817 210.14 608.537 211.29 607.977 212.27C607.417 213.23 606.627 213.98 605.607 214.52C604.607 215.04 603.397 215.3 601.977 215.3ZM601.977 212.12C602.997 212.12 603.787 211.83 604.347 211.25C604.927 210.67 605.217 209.86 605.217 208.82V199.28C605.217 198.24 604.927 197.43 604.347 196.85C603.787 196.27 602.997 195.98 601.977 195.98C600.957 195.98 600.157 196.27 599.577 196.85C599.017 197.43 598.737 198.24 598.737 199.28V208.82C598.737 209.86 599.027 210.67 599.607 211.25C600.187 211.83 600.977 212.12 601.977 212.12ZM595.647 209.48L605.787 198.62H608.307L598.167 209.48H595.647ZM612.837 205V202.372H611.433V200.752H612.837V199.348H611.433V197.692H612.837V191.86H616.869C617.709 191.86 618.435 192.016 619.047 192.328C619.659 192.628 620.133 193.06 620.469 193.624C620.805 194.176 620.973 194.836 620.973 195.604C620.973 196.36 620.805 197.02 620.469 197.584C620.133 198.148 619.659 198.586 619.047 198.898C618.435 199.198 617.709 199.348 616.869 199.348H614.781V200.752H618.777V202.372H614.781V205H612.837ZM614.781 197.692H616.869C617.529 197.692 618.045 197.506 618.417 197.134C618.801 196.75 618.993 196.24 618.993 195.604C618.993 194.968 618.801 194.464 618.417 194.092C618.045 193.708 617.529 193.516 616.869 193.516H614.781V197.692Z" fill="white"/>
<rect opacity="0.5" x="367" y="58" width="72" height="230" fill="#FEFF00"/>
<rect opacity="0.5" y="58" width="72" height="230" fill="#FEFF00"/>
<rect opacity="0.5" x="91" y="58" width="72" height="230" fill="#FEFF00"/>
<rect opacity="0.5" x="183" y="58" width="72" height="230" fill="#FEFF00"/>
<rect opacity="0.5" x="275" y="58" width="72" height="230" fill="#FEFF00"/>
<rect x="377" y="208" width="51" height="70" fill="#FEFF00"/>
<rect x="10.5" y="68.5" width="50" height="209" stroke="url(#paint0_linear_762_69)"/>
<rect x="101.5" y="68.5" width="50" height="209" stroke="url(#paint1_linear_762_69)"/>
<rect x="193.5" y="68.5" width="50" height="209" stroke="url(#paint2_linear_762_69)"/>
<rect x="285.5" y="68.5" width="50" height="209" stroke="url(#paint3_linear_762_69)"/>
<rect x="377.5" y="68.5" width="50" height="209" stroke="url(#paint4_linear_762_69)"/>
<rect x="10" y="258" width="51" height="20" fill="#FEFF00"/>
<rect x="101" y="248" width="51" height="30" fill="#FEFF00"/>
<rect x="193" y="258" width="51" height="20" fill="#FEFF00"/>
<rect x="285" y="218" width="51" height="60" fill="#FEFF00"/>
<rect opacity="0.5" x="532.5" y="118.5" width="109" height="109" stroke="url(#paint5_linear_762_69)"/>
<path opacity="0.5" d="M458 188H493.337L533 118" stroke="#FEFF00" stroke-dasharray="4 4"/>
<g filter="url(#filter0_d_762_69)">
<path d="M552.322 144.367C552.083 143.339 551.844 142.333 551.61 141.328C551.083 139.094 550.555 136.861 550.038 134.628C549.994 134.428 549.927 134.35 549.705 134.356C549.099 134.378 548.499 134.361 547.894 134.361C547.472 134.361 547.166 134.083 547.166 133.694C547.166 133.306 547.466 133.028 547.888 133.028C548.733 133.028 549.583 133.028 550.427 133.028C550.838 133.028 551.066 133.217 551.166 133.617C551.316 134.244 551.472 134.872 551.605 135.5C551.638 135.656 551.699 135.694 551.849 135.694C554.272 135.689 556.694 135.689 559.122 135.689C561.133 135.689 563.149 135.683 565.16 135.689C566.349 135.694 567.288 136.711 567.149 137.872C567.088 138.367 566.944 138.85 566.833 139.333C566.46 140.911 566.094 142.494 565.716 144.072C565.472 145.1 564.716 145.689 563.66 145.689C559.994 145.689 556.327 145.689 552.66 145.689C552.572 145.689 552.477 145.683 552.388 145.7C552.049 145.756 551.81 146.061 551.833 146.4C551.855 146.728 552.122 146.994 552.455 147.022C552.533 147.028 552.605 147.022 552.683 147.022C556.355 147.022 560.027 147.022 563.705 147.028C563.86 147.028 564.027 147.056 564.166 147.122C564.422 147.244 564.549 147.561 564.488 147.828C564.427 148.106 564.194 148.322 563.91 148.35C563.855 148.356 563.799 148.356 563.744 148.356C560.016 148.356 556.288 148.356 552.555 148.356C551.527 148.356 550.716 147.694 550.533 146.722C550.327 145.628 551.06 144.583 552.16 144.394C552.205 144.394 552.255 144.383 552.322 144.367ZM551.977 137.028C551.988 137.094 551.994 137.144 552.005 137.189C552.555 139.528 553.11 141.872 553.66 144.211C553.694 144.356 553.766 144.361 553.877 144.361C557.149 144.361 560.416 144.361 563.688 144.361C564.099 144.361 564.327 144.178 564.422 143.772C564.877 141.844 565.333 139.917 565.788 137.983C565.927 137.383 565.644 137.028 565.022 137.028C560.755 137.028 556.483 137.028 552.216 137.028C552.138 137.028 552.06 137.028 551.977 137.028Z" fill="#FEFF00"/>
<path d="M554.504 149.028C555.604 149.028 556.504 149.928 556.498 151.028C556.498 152.128 555.604 153.022 554.498 153.022C553.41 153.022 552.504 152.128 552.504 151.039C552.493 149.928 553.387 149.028 554.504 149.028ZM555.165 151.033C555.171 150.672 554.871 150.367 554.51 150.361C554.143 150.356 553.843 150.65 553.832 151.011C553.821 151.383 554.126 151.694 554.498 151.694C554.86 151.694 555.16 151.4 555.165 151.033Z" fill="#FEFF00"/>
<path d="M563.832 151.033C563.832 152.133 562.932 153.028 561.827 153.028C560.727 153.028 559.827 152.122 559.832 151.022C559.838 149.917 560.732 149.028 561.838 149.028C562.938 149.028 563.832 149.928 563.832 151.033ZM562.499 151.028C562.499 150.667 562.199 150.361 561.843 150.361C561.477 150.361 561.177 150.65 561.171 151.017C561.165 151.389 561.465 151.694 561.838 151.694C562.199 151.689 562.493 151.394 562.499 151.028Z" fill="#FEFF00"/>
</g>
<defs>
<filter id="filter0_d_762_69" x="531.166" y="121.028" width="51.9961" height="52" filterUnits="userSpaceOnUse" color-interpolation-filters="sRGB">
<feFlood flood-opacity="0" result="BackgroundImageFix"/>
<feColorMatrix in="SourceAlpha" type="matrix" values="0 0 0 0 0 0 0 0 0 0 0 0 0 0 0 0 0 0 127 0" result="hardAlpha"/>
<feOffset dy="4"/>
<feGaussianBlur stdDeviation="8"/>
<feComposite in2="hardAlpha" operator="out"/>
<feColorMatrix type="matrix" values="0 0 0 0 0.996078 0 0 0 0 1 0 0 0 0 0 0 0 0 1 0"/>
<feBlend mode="normal" in2="BackgroundImageFix" result="effect1_dropShadow_762_69"/>
<feBlend mode="normal" in="SourceGraphic" in2="effect1_dropShadow_762_69" result="shape"/>
</filter>
<linearGradient id="paint0_linear_762_69" x1="35.5" y1="68" x2="35.5" y2="278" gradientUnits="userSpaceOnUse">
<stop stop-color="#FEFF00"/>
<stop offset="1" stop-color="#FEFF00" stop-opacity="0"/>
</linearGradient>
<linearGradient id="paint1_linear_762_69" x1="126.5" y1="68" x2="126.5" y2="278" gradientUnits="userSpaceOnUse">
<stop stop-color="#FEFF00"/>
<stop offset="1" stop-color="#FEFF00" stop-opacity="0"/>
</linearGradient>
<linearGradient id="paint2_linear_762_69" x1="218.5" y1="68" x2="218.5" y2="278" gradientUnits="userSpaceOnUse">
<stop stop-color="#FEFF00"/>
<stop offset="1" stop-color="#FEFF00" stop-opacity="0"/>
</linearGradient>
<linearGradient id="paint3_linear_762_69" x1="310.5" y1="68" x2="310.5" y2="278" gradientUnits="userSpaceOnUse">
<stop stop-color="#FEFF00"/>
<stop offset="1" stop-color="#FEFF00" stop-opacity="0"/>
</linearGradient>
<linearGradient id="paint4_linear_762_69" x1="402.5" y1="68" x2="402.5" y2="278" gradientUnits="userSpaceOnUse">
<stop stop-color="#FEFF00"/>
<stop offset="1" stop-color="#FEFF00" stop-opacity="0"/>
</linearGradient>
<linearGradient id="paint5_linear_762_69" x1="587" y1="118" x2="587" y2="228" gradientUnits="userSpaceOnUse">
<stop stop-color="#FDFF00"/>
<stop offset="1" stop-color="#626161" stop-opacity="0"/>
</linearGradient>
</defs>
</svg>
