<svg width="61" height="62" viewBox="0 0 61 62" fill="none" xmlns="http://www.w3.org/2000/svg">
<g filter="url(#filter0_d_344_25)">
<path d="M39.2 29.9C39.1 30 39.1 30 39.2 29.9V29.9ZM39.2 29.9C39.1 30 39.1 30 39.2 29.9V29.9Z" fill="#BDFF57"/>
<path d="M31.5996 27.8L31.6996 33.1L31.5996 27.8Z" fill="#BDFF57"/>
<path d="M43.7997 36.7H41.6997V31.8813C41.6997 31.7614 41.6831 31.6391 41.62 31.5371C41.2597 30.9543 40.3397 30.9543 39.9794 31.5371C39.9163 31.6391 39.8997 31.7614 39.8997 31.8813V36.7H38.8997C38.8997 36.7 38.7997 36.7 38.5997 36.7C38.1997 36.7 37.5997 36.7 36.7997 36.7V34.8813C36.7997 34.7614 36.7831 34.6391 36.72 34.5371C36.3597 33.9543 35.4397 33.9543 35.0794 34.5371C35.0163 34.6391 34.9997 34.7614 34.9997 34.8813V36.7C33.7997 36.7 32.7997 36.7 32.7997 36.7C32.7997 36.7 32.6997 36.7 32.3997 36.7C32.0997 36.7 31.7997 36.6 31.5997 36.4L31.4997 33.6V33.1L31.3997 27.8L34.8997 31.6C35.0997 31.9 35.4997 32 35.7997 31.9C36.0997 31.8 36.3997 31.6 36.4997 31.3L40.5997 20.4L42.5997 24.4C42.8997 24.9 43.3997 25.1 43.8997 24.9C44.3997 24.7 44.5997 24 44.2997 23.6L41.5 17.6C41.5 17.6 41.2997 17 40.5997 17C39.9287 17 39.6915 17.5513 39.6731 17.597C39.6722 17.5992 39.6715 17.6011 39.6706 17.6034L35.3997 29.1L31.4997 24.8V24.4V22.3V17.6C31.4997 17.3 31.4997 16.9 31.3997 16.6C30.9997 14.1 28.8997 12.2 26.3997 12.1C23.8997 11.9 21.5997 13.5 20.8997 15.9C20.6997 16.5 20.6997 17.2 20.5997 17.8C16.6997 18.3 14.4997 23.1 17.1997 26.6C14.4997 30.1 16.6997 34.9 20.5997 35.4C20.4997 36.7 20.8997 37.9 21.5997 38.9C22.3997 39.9 23.3997 40.7 24.5997 41C27.4997 41.6 29.5997 40.5 30.9997 38.1C31.4997 38.4 31.9997 38.5 32.5997 38.5C36.2997 38.5 39.9997 38.5 43.6997 38.5C43.8997 38.5 44.0997 38.4 44.2997 38.3C44.5997 38 44.6997 37.7 44.5997 37.3C44.4997 36.9 44.1997 36.7 43.7997 36.7ZM29.7997 25.5V26.6C29.7997 29.7 29.7997 32.7 29.7997 35.8C29.7997 37.9 28.0997 39.6 25.9997 39.5C23.8997 39.5 22.1997 37.7 22.3997 35.6C22.3997 35.4 22.4997 35.4 22.5997 35.3C23.5997 35.1 24.3997 34.6 25.1997 34C25.5997 33.6 25.6997 33.1 25.3997 32.7C24.9997 32.3 24.4997 32.3 24.0997 32.7C22.7997 33.9 20.9997 34.1 19.4997 33.1C17.4997 31.8 17.1997 29 18.8997 27.4C19.3997 26.9 19.3997 26.3 18.8997 25.8C17.3997 24.4 17.3997 22.1 18.8997 20.6C20.1997 19.2 22.4997 19.1 23.9997 20.4C24.1997 20.5 24.3997 20.7 24.5997 20.7C24.9997 20.8 25.2997 20.6 25.4997 20.3C25.6997 20 25.5997 19.5 25.2997 19.3C24.4997 18.6 23.6997 18.1 22.6997 17.9C22.3997 17.9 22.3997 17.7 22.3997 17.5C22.2997 15.5 23.9997 13.7 25.9997 13.7C28.0997 13.7 29.7997 15.3 29.7997 17.4C29.7997 20.1 29.7997 22.8 29.7997 25.5Z" fill="#BDFF57"/>
</g>
<defs>
<filter id="filter0_d_344_25" x="0.00585938" y="0.0831299" width="60.6309" height="61.0779" filterUnits="userSpaceOnUse" color-interpolation-filters="sRGB">
<feFlood flood-opacity="0" result="BackgroundImageFix"/>
<feColorMatrix in="SourceAlpha" type="matrix" values="0 0 0 0 0 0 0 0 0 0 0 0 0 0 0 0 0 0 127 0" result="hardAlpha"/>
<feOffset dy="4"/>
<feGaussianBlur stdDeviation="8"/>
<feComposite in2="hardAlpha" operator="out"/>
<feColorMatrix type="matrix" values="0 0 0 0 0.741176 0 0 0 0 1 0 0 0 0 0.341176 0 0 0 1 0"/>
<feBlend mode="normal" in2="BackgroundImageFix" result="effect1_dropShadow_344_25"/>
<feBlend mode="normal" in="SourceGraphic" in2="effect1_dropShadow_344_25" result="shape"/>
</filter>
</defs>
</svg>
