<svg width="61" height="62" viewBox="0 0 61 62" fill="none" xmlns="http://www.w3.org/2000/svg">
<g filter="url(#filter0_d_319_18)">
<path d="M20.6609 35.45C16.7179 34.9015 14.4746 30.1478 17.2079 26.6282C14.4669 23.0934 16.7332 18.3397 20.5767 17.814C20.6762 17.1741 20.7069 16.5266 20.883 15.9247C21.572 13.4793 23.8919 11.8643 26.4491 12.009C28.9604 12.1537 31.0812 14.0659 31.487 16.557C31.5406 16.8846 31.5559 17.2198 31.5559 17.555C31.5636 19.1624 31.5559 20.7699 31.5559 22.3773C31.5865 22.4001 31.6095 22.423 31.6401 22.4458C31.6478 22.4078 31.6401 22.3544 31.6555 22.324C33.1178 20.0157 35.2692 18.7053 37.8724 18.0654C38.7529 17.8521 39.6563 17.7455 40.5521 17.5855C40.6364 17.5702 40.7206 17.555 40.8431 17.5321C40.7435 17.4483 40.6746 17.3874 40.6057 17.3341C40.1846 17.0217 39.7559 16.7094 39.3424 16.3894C38.9137 16.0618 38.8371 15.5057 39.151 15.0943C39.4573 14.6982 40.0009 14.6144 40.4296 14.9191C40.8737 15.2315 41.3025 15.5667 41.7389 15.8942C42.4815 16.4504 43.2242 16.9989 43.9669 17.555C44.6406 18.0578 44.6483 18.7206 43.9745 19.2234C42.8031 20.0995 41.6393 20.9755 40.4603 21.844C39.886 22.263 39.1434 22.004 38.9826 21.3412C38.8907 20.9451 39.0362 20.6327 39.3501 20.389C39.687 20.1376 40.0238 19.8862 40.3607 19.6348C40.4373 19.5814 40.4985 19.5205 40.6057 19.4291C37.1527 19.7947 34.2739 20.9908 32.6355 24.2361C32.3062 24.8913 31.9464 25.5312 31.6172 26.1864C31.5712 26.2854 31.5483 26.3997 31.5483 26.5139C31.5483 29.5688 31.5483 32.6237 31.5483 35.6862C31.5483 36.3109 31.9234 36.6918 32.5436 36.6918C33.4241 36.6918 34.3045 36.6918 35.2233 36.6918C35.2233 36.5775 35.2233 36.4785 35.2233 36.3794C35.2233 35.3053 35.2233 34.2311 35.2233 33.1493C35.2233 32.5399 35.5908 32.1285 36.1344 32.1209C36.6857 32.1133 37.0608 32.5323 37.0608 33.1646C37.0608 34.3225 37.0608 35.4881 37.0608 36.6689C37.9719 36.6689 38.8754 36.6689 39.8171 36.6689C39.8171 36.5699 39.8171 36.4708 39.8171 36.3718C39.8171 34.3606 39.8171 32.3571 39.8171 30.3459C39.8171 29.904 40.0468 29.5764 40.422 29.4393C40.7818 29.3098 41.1876 29.386 41.402 29.6983C41.5398 29.8964 41.6393 30.163 41.6393 30.4068C41.6546 32.3875 41.647 34.3682 41.647 36.349C41.647 36.4556 41.647 36.5546 41.647 36.6842C41.7465 36.6918 41.8231 36.6994 41.9073 36.6994C42.5275 36.6994 43.1476 36.6994 43.7755 36.6994C44.1583 36.6994 44.5028 36.9432 44.633 37.3088C44.7631 37.6669 44.6559 38.063 44.3497 38.3144C44.1812 38.4592 43.9975 38.5354 43.7601 38.5354C40.0698 38.5277 36.3718 38.5277 32.6814 38.5354C32.1072 38.5354 31.5559 38.4439 31.0659 38.1545C29.6189 40.6227 27.5287 41.7274 24.6652 41.0798C23.4249 40.7675 22.4219 40.0209 21.6639 38.9696C20.9059 37.9183 20.5997 36.7299 20.6609 35.45ZM29.8409 26.6511C29.8409 23.5733 29.8486 20.5032 29.8409 17.4255C29.8332 15.3381 28.1335 13.6926 26.028 13.7155C23.9838 13.7459 22.3377 15.46 22.3683 17.5245C22.3683 17.7607 22.4295 17.8673 22.6822 17.9207C23.6928 18.134 24.5504 18.6215 25.2854 19.3376C25.584 19.6271 25.6376 20.0461 25.4462 20.389C25.2624 20.7089 24.8872 20.8994 24.5197 20.7851C24.3207 20.7241 24.1293 20.587 23.9685 20.4499C22.4678 19.1015 20.1862 19.17 18.7851 20.6099C17.361 22.0802 17.3457 24.3885 18.8158 25.7978C19.3747 26.3311 19.367 26.9253 18.8234 27.4434C17.116 29.0889 17.4376 31.8923 19.4359 33.1722C20.883 34.1016 22.6975 33.934 24.0144 32.7456C24.4585 32.3494 24.9944 32.3342 25.339 32.7075C25.6835 33.0884 25.6222 33.6064 25.1782 34.0178C24.4432 34.6958 23.5933 35.1377 22.621 35.351C22.4449 35.3891 22.3913 35.4576 22.376 35.6329C22.2535 37.6898 23.9455 39.5105 26.0127 39.541C28.1335 39.5714 29.8332 37.9259 29.8332 35.8157C29.8486 32.7608 29.8409 29.7059 29.8409 26.6511Z" fill="#BDFF57"/>
</g>
<defs>
<filter id="filter0_d_319_18" x="0" y="0" width="60.6875" height="61.2618" filterUnits="userSpaceOnUse" color-interpolation-filters="sRGB">
<feFlood flood-opacity="0" result="BackgroundImageFix"/>
<feColorMatrix in="SourceAlpha" type="matrix" values="0 0 0 0 0 0 0 0 0 0 0 0 0 0 0 0 0 0 127 0" result="hardAlpha"/>
<feOffset dy="4"/>
<feGaussianBlur stdDeviation="8"/>
<feComposite in2="hardAlpha" operator="out"/>
<feColorMatrix type="matrix" values="0 0 0 0 0.741176 0 0 0 0 1 0 0 0 0 0.341176 0 0 0 1 0"/>
<feBlend mode="normal" in2="BackgroundImageFix" result="effect1_dropShadow_319_18"/>
<feBlend mode="normal" in="SourceGraphic" in2="effect1_dropShadow_319_18" result="shape"/>
</filter>
</defs>
</svg>
