<svg width="60" height="63" viewBox="0 0 60 63" fill="none" xmlns="http://www.w3.org/2000/svg">
<g filter="url(#filter0_d_286_3184)">
<path d="M20.6394 36.4258C18.6335 36.0296 17.1481 34.9326 16.3978 33.0052C15.6398 31.0779 15.992 29.2724 17.2247 27.6268C14.499 24.1225 16.7117 19.3688 20.5935 18.8126C20.7007 18.1499 20.7389 17.4871 20.915 16.8624C21.5735 14.5541 23.7785 12.9467 26.1826 13C27.645 13.0381 28.893 13.6018 29.9189 14.6379C30.0491 14.775 30.1792 14.8207 30.3706 14.8207C32.1392 14.8131 33.9079 14.8131 35.6841 14.8207C36.1129 14.8207 36.4421 15.0417 36.5799 15.4073C36.7178 15.773 36.6565 16.1311 36.3579 16.3672C36.1741 16.5196 35.8985 16.6186 35.6612 16.6339C35.0793 16.672 34.4974 16.6491 33.9002 16.6491C33.9002 17.2738 33.9002 17.8832 33.9002 18.5232C36.2124 18.7365 38.272 19.5821 40.0712 21.0829C40.5612 20.6029 41.0206 20.123 41.5106 19.6659C42.0313 19.1707 42.8505 19.3916 43.0419 20.0773C43.1414 20.4277 43.0342 20.7324 42.7816 20.9914C42.3222 21.4485 41.8705 21.9132 41.3881 22.3932C41.4723 22.4922 41.5489 22.5989 41.6331 22.6979C46.3724 28.6553 43.6085 37.6295 36.3349 39.9149C34.4438 40.5091 32.5221 40.6005 30.585 40.1815C30.4013 40.1434 30.317 40.1891 30.2022 40.3187C28.7245 41.9642 26.887 42.6498 24.7279 42.0632C22.5305 41.469 21.2136 39.9606 20.7696 37.7361C20.6624 37.3019 20.67 36.8676 20.6394 36.4258ZM29.7352 27.6573C29.7352 24.5948 29.7352 21.5247 29.7352 18.4622C29.7352 16.4434 28.112 14.7522 26.1367 14.7141C24.0618 14.676 22.3391 16.4358 22.3851 18.5384C22.3927 18.7669 22.454 18.866 22.6913 18.9193C23.6943 19.1326 24.5595 19.6202 25.3021 20.3363C25.6007 20.6258 25.662 21.0371 25.4706 21.38C25.2945 21.7075 24.9193 21.898 24.5442 21.7913C24.3451 21.738 24.146 21.6009 23.9929 21.4638C22.4693 20.1001 20.1647 20.1763 18.7713 21.6466C17.3625 23.1321 17.4008 25.41 18.8555 26.8422C19.4527 27.4364 19.4603 27.8249 18.8631 28.4039C16.9337 30.2932 17.5845 33.5309 20.1111 34.4984C21.5352 35.0469 22.8368 34.7803 23.9852 33.7899C24.4829 33.3633 24.9959 33.3176 25.3557 33.6985C25.7232 34.0946 25.6467 34.6127 25.1413 35.0621C24.4217 35.7097 23.5948 36.1363 22.6454 36.342C22.4769 36.3801 22.4004 36.4258 22.3927 36.6086C22.2549 38.6731 24.0006 40.532 26.0754 40.5243C28.0814 40.5167 29.7352 38.8255 29.7428 36.7838C29.7352 33.7442 29.7352 30.6969 29.7352 27.6573ZM31.4578 20.4429C31.4578 20.5724 31.4578 20.6867 31.4578 20.801C31.4578 25.8975 31.4578 30.9864 31.4578 36.083C31.4578 36.86 31.4732 37.6447 31.2205 38.3989C33.4638 38.9626 37.1771 38.4522 39.7573 35.5954C42.4294 32.6243 42.8964 28.381 40.9441 24.9529C38.9304 21.4104 34.9798 19.8259 31.4578 20.4429ZM31.2205 16.6643C31.32 17.3119 31.4196 17.9442 31.5114 18.5841C31.6646 18.5689 31.833 18.546 32.0091 18.5232C32.0091 17.8985 32.0091 17.289 32.0091 16.6643C31.7335 16.6643 31.4732 16.6643 31.2205 16.6643Z" fill="#BDFF57"/>
<path d="M33.8688 26.4308C33.8688 27.2383 33.8611 28.0458 33.8764 28.861C33.8764 28.9829 33.9453 29.1352 34.0296 29.2266C34.7722 29.9808 35.5302 30.7198 36.2805 31.4664C36.7169 31.9006 36.7476 32.4491 36.3647 32.83C35.9743 33.2262 35.4154 33.1957 34.9713 32.7538C34.1061 31.893 33.241 31.0321 32.3758 30.1713C32.1384 29.9351 32.0312 29.6685 32.0312 29.3333C32.0389 27.5811 32.0312 25.8289 32.0312 24.0768C32.0312 23.4673 32.3988 23.0559 32.9424 23.0483C33.4936 23.0407 33.8688 23.4597 33.8688 24.092C33.8688 24.8691 33.8688 25.6537 33.8688 26.4308Z" fill="#BDFF57"/>
</g>
<defs>
<filter id="filter0_d_286_3184" x="0" y="0.998718" width="59.9824" height="61.2714" filterUnits="userSpaceOnUse" color-interpolation-filters="sRGB">
<feFlood flood-opacity="0" result="BackgroundImageFix"/>
<feColorMatrix in="SourceAlpha" type="matrix" values="0 0 0 0 0 0 0 0 0 0 0 0 0 0 0 0 0 0 127 0" result="hardAlpha"/>
<feOffset dy="4"/>
<feGaussianBlur stdDeviation="8"/>
<feComposite in2="hardAlpha" operator="out"/>
<feColorMatrix type="matrix" values="0 0 0 0 0.741176 0 0 0 0 1 0 0 0 0 0.341176 0 0 0 1 0"/>
<feBlend mode="normal" in2="BackgroundImageFix" result="effect1_dropShadow_286_3184"/>
<feBlend mode="normal" in="SourceGraphic" in2="effect1_dropShadow_286_3184" result="shape"/>
</filter>
</defs>
</svg>
