<svg width="61" height="54" viewBox="0 0 61 54" fill="none" xmlns="http://www.w3.org/2000/svg">
<g filter="url(#filter0_d_347_47)">
<path d="M30.5191 13.0077C33.4115 13.0077 36.3039 13.0153 39.1885 13.0001C40.1293 12.9925 40.8446 13.3567 41.3811 14.1153C42.0808 15.1167 42.8039 16.1029 43.5115 17.0968C44.219 18.0906 44.1568 19.2816 43.3326 20.1844C39.6316 24.2052 35.9151 28.2336 32.1985 32.2544C31.2577 33.2709 29.7105 33.2406 28.7541 32.2089C26.095 29.3336 23.4437 26.4508 20.7923 23.5755C19.7738 22.4679 18.7552 21.3679 17.7367 20.2603C16.827 19.2665 16.757 18.1133 17.5423 17.0209C18.2421 16.0423 18.9496 15.0712 19.6416 14.0926C20.1625 13.3567 20.8701 13.0077 21.7876 13.0077C24.7033 13.0153 27.6112 13.0077 30.5191 13.0077ZM30.4647 31.2075C30.488 31.2075 30.5113 31.1999 30.5347 31.1999C32.1519 27.1108 33.7769 23.0293 35.4019 18.9251C32.1208 18.9251 28.8708 18.9251 25.5896 18.9251C27.2302 23.0445 28.8474 27.126 30.4647 31.2075ZM43.0838 18.9251C42.9517 18.9099 42.9128 18.9099 42.8739 18.9099C40.7901 18.9099 38.7064 18.9099 36.6149 18.9023C36.4283 18.9023 36.3738 18.9858 36.3116 19.1299C34.6711 23.2721 33.0227 27.4143 31.3822 31.5564C31.3511 31.6247 31.3355 31.7006 31.32 31.7688C31.3433 31.784 31.3744 31.7992 31.3977 31.8144C31.4677 31.7233 31.5377 31.6323 31.6154 31.5488C35.2931 27.5584 38.9707 23.568 42.6484 19.5775C42.8039 19.403 42.9128 19.183 43.0838 18.9251ZM29.6016 31.8371C29.6327 31.8144 29.6561 31.7916 29.6872 31.7688C29.6716 31.7082 29.6561 31.6475 29.6327 31.5868C27.9844 27.4294 26.336 23.2721 24.6877 19.1072C24.6177 18.9251 24.5089 18.9023 24.3378 18.9023C22.3085 18.9099 20.2869 18.9023 18.2576 18.9023C18.1721 18.9023 18.0943 18.9099 17.9311 18.9251C18.1021 19.183 18.211 19.4106 18.382 19.5927C22.0364 23.568 25.6985 27.5281 29.3528 31.4957C29.4384 31.6095 29.5161 31.7309 29.6016 31.8371ZM35.2775 17.9995C35.262 17.9464 35.262 17.9161 35.2542 17.8933C34.5389 16.6112 33.8313 15.3367 33.1082 14.0622C33.0616 13.9788 32.9139 13.9181 32.8128 13.9181C31.2811 13.9105 29.7494 13.9181 28.2176 13.9105C28.0466 13.9105 27.9611 13.9712 27.8833 14.1077C27.1991 15.3367 26.5149 16.5657 25.8307 17.7947C25.7996 17.8554 25.7762 17.9237 25.7451 17.9995C28.9252 17.9995 32.0819 17.9995 35.2775 17.9995ZM26.9114 13.9257C26.7948 13.9181 26.717 13.9105 26.6315 13.9105C24.9909 13.9105 23.3581 13.9105 21.7176 13.9105C21.1655 13.9105 20.7457 14.1229 20.4347 14.5629C19.7582 15.5112 19.0818 16.4519 18.4053 17.4002C18.2732 17.5823 18.1565 17.772 18.0166 17.992C18.1021 17.9995 18.141 18.0071 18.1721 18.0071C20.2636 18.0071 22.3629 18.0071 24.4545 17.9995C24.5555 17.9995 24.6955 17.8933 24.7499 17.8023C25.4419 16.5885 26.1183 15.3671 26.8026 14.1457C26.8337 14.085 26.8648 14.0167 26.9114 13.9257ZM42.9828 18.0071C42.9128 17.8858 42.8739 17.8023 42.8272 17.7264C42.0575 16.6492 41.2955 15.5643 40.518 14.487C40.2303 14.085 39.8182 13.9029 39.3206 13.9029C37.6645 13.9029 36.0084 13.9029 34.3445 13.9029C34.2745 13.9029 34.1968 13.9105 34.0957 13.9181C34.1501 14.0243 34.189 14.1153 34.2357 14.1912C34.8965 15.3747 35.5652 16.5581 36.2183 17.7568C36.3272 17.954 36.4516 18.0071 36.6693 18.0071C38.6675 17.9995 40.6657 17.9995 42.6562 17.9995C42.7573 18.0071 42.8428 18.0071 42.9828 18.0071Z" fill="#51FD97" stroke="#51FD97" stroke-width="0.7"/>
</g>
<defs>
<filter id="filter0_d_347_47" x="0.650391" y="0.649902" width="59.6992" height="52.7002" filterUnits="userSpaceOnUse" color-interpolation-filters="sRGB">
<feFlood flood-opacity="0" result="BackgroundImageFix"/>
<feColorMatrix in="SourceAlpha" type="matrix" values="0 0 0 0 0 0 0 0 0 0 0 0 0 0 0 0 0 0 127 0" result="hardAlpha"/>
<feOffset dy="4"/>
<feGaussianBlur stdDeviation="8"/>
<feComposite in2="hardAlpha" operator="out"/>
<feColorMatrix type="matrix" values="0 0 0 0 0.317647 0 0 0 0 0.992157 0 0 0 0 0.592157 0 0 0 1 0"/>
<feBlend mode="normal" in2="BackgroundImageFix" result="effect1_dropShadow_347_47"/>
<feBlend mode="normal" in="SourceGraphic" in2="effect1_dropShadow_347_47" result="shape"/>
</filter>
</defs>
</svg>
