<svg width="59" height="49" viewBox="0 0 59 49" fill="none" xmlns="http://www.w3.org/2000/svg">
<g filter="url(#filter0_d_286_3244)">
<path d="M39.9243 12.0068C40.0622 12.0273 40.1931 12.0478 40.3309 12.0683C41.6677 12.3142 42.7426 13.3933 42.9493 14.7184C43.1354 15.8931 42.8115 16.9108 41.9364 17.7236C41.2336 18.3793 40.3791 18.6593 39.4144 18.591C39.1802 18.5773 38.9528 18.5159 38.7254 18.4749C38.6771 18.4681 38.6427 18.4681 38.6082 18.509C38.5166 18.6052 38.4247 18.7011 38.3325 18.7969C37.9537 19.1908 37.5712 19.5819 37.1888 19.9775C36.6857 20.4966 36.1758 21.0157 35.6728 21.5348C35.473 21.7397 35.28 21.9377 35.0871 22.1358C35.1767 22.2929 35.2594 22.4363 35.3352 22.5934C36.293 24.4922 35.1491 26.828 33.0613 27.2652C31.5246 27.5862 30.0225 26.8759 29.3472 25.503C28.9131 24.6219 28.8993 23.7135 29.2438 22.8051C29.2714 22.73 29.2645 22.6959 29.2025 22.6412C28.6788 22.1768 28.1551 21.7055 27.6383 21.2342C27.6176 21.2206 27.6039 21.2001 27.5763 21.1796C27.0388 21.5211 26.4531 21.7123 25.8123 21.726C25.1715 21.7397 24.5789 21.5826 24.0276 21.2547C23.3454 22.047 22.6702 22.8325 21.988 23.6247C22.0086 23.6521 22.0224 23.6794 22.0431 23.7067C22.4841 24.3078 22.7115 24.9771 22.7046 25.7147C22.6908 27.0944 21.8364 28.2828 20.5272 28.7678C20.1895 28.8907 19.845 28.9659 19.4867 28.9863C19.466 28.9863 19.4522 28.9932 19.4315 29C19.3626 29 19.3006 29 19.2317 29C19.1146 28.9863 19.0043 28.9795 18.8872 28.959C18.1154 28.8429 17.4539 28.5082 16.9165 27.9482C16.4479 27.4564 16.1516 26.8759 16.0482 26.2065C16.0276 26.0836 16.0138 25.9606 16 25.8377C16 25.7284 16 25.6191 16 25.5098C16.0138 25.3937 16.0276 25.2708 16.0482 25.1547C16.2618 23.7409 17.4057 22.6139 18.8389 22.409C19.3557 22.3339 19.8657 22.3748 20.3618 22.5319C20.4169 22.5524 20.4445 22.5456 20.4858 22.4978C21.2231 21.6372 21.9535 20.7834 22.6977 19.9297C22.7391 19.8819 22.7322 19.8546 22.7115 19.8067C22.4979 19.3628 22.3876 18.8915 22.3945 18.4066C22.4014 17.5392 22.6977 16.781 23.2903 16.1458C23.8829 15.5175 24.6202 15.1896 25.4746 15.1145C26.777 15.0052 27.7692 15.5311 28.4996 16.5761C28.8855 17.1157 29.0785 17.7236 29.0716 18.3929C29.0647 18.8437 28.9682 19.2808 28.7959 19.6975C28.7753 19.7384 28.7753 19.7658 28.8166 19.7999C29.3679 20.2849 29.9122 20.7766 30.4635 21.2684C30.4704 21.2752 30.4704 21.2752 30.4704 21.2547C30.7322 21.1386 30.9941 21.002 31.2628 20.8996C32.0139 20.6332 32.765 20.6742 33.5091 20.9405C33.5781 20.9679 33.6194 20.961 33.6676 20.9064C34.4738 20.0731 35.28 19.2467 36.0931 18.4202C36.375 18.1284 36.6626 17.8366 36.9455 17.5448C36.9738 17.5156 37.0021 17.4864 37.0303 17.4572C37.0441 17.4436 37.0578 17.4231 37.0647 17.4162C36.9407 17.2182 36.8098 17.0269 36.6995 16.8288C36.0242 15.5926 36.2654 14.008 37.2646 13.0108C37.8296 12.444 38.5049 12.1161 39.2973 12.0205C39.3455 12.0137 39.3938 12.0068 39.442 12C39.628 12.0068 39.7796 12.0068 39.9243 12.0068ZM39.6694 16.7537C40.4825 16.7537 41.1233 16.1049 41.1164 15.2921C41.1164 14.5271 40.4549 13.8919 39.6694 13.8919C38.8149 13.8919 38.2017 14.5954 38.2155 15.3604C38.2361 16.1117 38.8839 16.7537 39.6694 16.7537ZM25.7158 16.9996C24.9372 17.0133 24.2826 17.6689 24.3032 18.4681C24.3239 19.233 24.9578 19.8955 25.7916 19.8751C26.5634 19.8614 27.1973 19.2057 27.1904 18.4134C27.1835 17.6348 26.5082 16.9654 25.7158 16.9996ZM32.3377 25.4484C33.1302 25.4484 33.7848 24.8063 33.7848 24.0209C33.7848 23.2423 33.1302 22.5798 32.3515 22.5798C31.5591 22.5798 30.8976 23.2423 30.8976 24.0277C30.8976 24.8063 31.5522 25.4484 32.3377 25.4484ZM19.4109 27.1081C20.1964 27.1081 20.851 26.4661 20.8579 25.7079C20.8717 24.9225 20.2446 24.2531 19.4247 24.2463C18.6116 24.2463 17.9638 24.8883 17.9638 25.6738C17.9638 26.4524 18.6253 27.1081 19.4109 27.1081Z" fill="#51FD97"/>
</g>
<defs>
<filter id="filter0_d_286_3244" x="0" y="0" width="59" height="49" filterUnits="userSpaceOnUse" color-interpolation-filters="sRGB">
<feFlood flood-opacity="0" result="BackgroundImageFix"/>
<feColorMatrix in="SourceAlpha" type="matrix" values="0 0 0 0 0 0 0 0 0 0 0 0 0 0 0 0 0 0 127 0" result="hardAlpha"/>
<feOffset dy="4"/>
<feGaussianBlur stdDeviation="8"/>
<feComposite in2="hardAlpha" operator="out"/>
<feColorMatrix type="matrix" values="0 0 0 0 0.317647 0 0 0 0 0.992157 0 0 0 0 0.592157 0 0 0 1 0"/>
<feBlend mode="normal" in2="BackgroundImageFix" result="effect1_dropShadow_286_3244"/>
<feBlend mode="normal" in="SourceGraphic" in2="effect1_dropShadow_286_3244" result="shape"/>
</filter>
</defs>
</svg>
