<svg width="71" height="77" viewBox="0 0 71 77" fill="none" xmlns="http://www.w3.org/2000/svg">
<g filter="url(#filter0_d_102_3205)">
<path d="M35.0921 56.2864C30.07 56.2864 25.0479 56.2864 20.0258 56.2864C19.1816 56.2864 18.6079 55.8972 18.4997 55.1835C18.4564 54.9024 18.5213 54.578 18.5971 54.2969C19.5279 51.1503 20.4587 48.0038 21.4112 44.868C21.5086 44.5436 21.4545 44.3382 21.2272 44.1111C18.9543 41.7323 17.4173 38.9318 16.5839 35.742C13.9646 25.4697 20.4154 14.8623 30.7627 12.4943C40.9043 10.1695 51.0351 16.2571 53.5353 26.3131C55.1588 32.8117 53.6869 38.6723 49.2492 43.7219C48.7838 44.2517 48.6756 44.6734 48.8921 45.3438C49.8229 48.3065 50.6887 51.2909 51.5871 54.2752C51.9551 55.5079 51.3706 56.2756 50.0826 56.2756C45.0822 56.2864 40.0926 56.2864 35.0921 56.2864ZM35.0704 47.3766C44.0431 47.3983 51.4572 40.0455 51.4356 31.0492C51.4031 21.9988 44.173 14.7217 35.0813 14.7217C26.022 14.7217 18.7703 21.9663 18.7486 31.0167C18.727 40.0455 25.9895 47.3117 35.0704 47.3766ZM23.7815 46.4467C23.078 48.7931 22.3745 51.1503 21.6493 53.5508C30.622 53.5508 39.5514 53.5508 48.524 53.5508C47.8097 51.1611 47.1062 48.7931 46.4026 46.4467C38.8479 51.3233 31.3363 51.3233 23.7815 46.4467Z" fill="#FEFF00"/>
</g>
<defs>
<filter id="filter0_d_102_3205" x="0" y="0" width="70.1763" height="76.2865" filterUnits="userSpaceOnUse" color-interpolation-filters="sRGB">
<feFlood flood-opacity="0" result="BackgroundImageFix"/>
<feColorMatrix in="SourceAlpha" type="matrix" values="0 0 0 0 0 0 0 0 0 0 0 0 0 0 0 0 0 0 127 0" result="hardAlpha"/>
<feOffset dy="4"/>
<feGaussianBlur stdDeviation="8"/>
<feComposite in2="hardAlpha" operator="out"/>
<feColorMatrix type="matrix" values="0 0 0 0 0.996078 0 0 0 0 1 0 0 0 0 0 0 0 0 1 0"/>
<feBlend mode="normal" in2="BackgroundImageFix" result="effect1_dropShadow_102_3205"/>
<feBlend mode="normal" in="SourceGraphic" in2="effect1_dropShadow_102_3205" result="shape"/>
</filter>
</defs>
</svg>
