<svg width="78" height="75" viewBox="0 0 78 75" fill="none" xmlns="http://www.w3.org/2000/svg">
<g filter="url(#filter0_d_102_3190)">
<path d="M31.5801 36.0422C31.342 36.0422 31.1665 36.0422 30.9785 36.0422C27.3561 36.0422 23.7462 36.0547 20.1238 36.0297C18.181 36.0172 16.5891 34.7274 16.1379 32.8616C16.0376 32.4735 16 32.0602 16 31.6595C16 26.5756 16 21.4791 16 16.3952C16.0125 13.7781 17.7924 12 20.3995 12C27.3811 12 34.3502 12 41.3192 12C43.9514 12 45.7188 13.7406 45.7188 16.3827C45.7313 20.8405 45.7188 25.2984 45.7188 29.7687C45.7188 29.9565 45.7188 30.1444 45.7188 30.3948C45.9318 30.3948 46.1199 30.3948 46.2953 30.3948C49.9303 30.3948 53.5652 30.3823 57.2002 30.4073C59.1179 30.4199 60.6972 31.6971 61.1485 33.5504C61.2487 33.9511 61.2863 34.3893 61.2863 34.8025C61.2989 39.874 61.2989 44.9454 61.2863 50.0168C61.2863 52.6714 59.519 54.437 56.8617 54.437C49.9052 54.437 42.9487 54.437 35.9922 54.437C33.3224 54.437 31.5676 52.6965 31.5676 50.0293C31.555 45.5715 31.5676 41.1136 31.5676 36.6433C31.5801 36.468 31.5801 36.2801 31.5801 36.0422ZM30.9033 33.2248C34.3502 33.2248 37.7971 33.2248 41.244 33.2248C42.4222 33.2248 42.8986 32.7489 42.8986 31.5844C42.8986 26.5631 42.8986 21.5418 42.8986 16.5204C42.8986 15.3183 42.4348 14.8425 41.219 14.8425C34.3251 14.8425 27.4313 14.8425 20.5499 14.8425C19.309 14.8425 18.8327 15.3183 18.8327 16.533C18.8327 21.5292 18.8327 26.513 18.8327 31.5093C18.8327 32.774 19.2965 33.2248 20.5625 33.2248C24.0094 33.2248 27.4563 33.2248 30.9033 33.2248ZM34.4379 36.0422C34.4254 36.2426 34.4128 36.3928 34.4128 36.5431C34.4128 41.0009 34.4128 45.4588 34.4128 49.9291C34.4128 51.1437 34.8766 51.6071 36.0924 51.6071C42.9863 51.6071 49.8801 51.6071 56.774 51.6071C58.0023 51.6071 58.4787 51.1312 58.4787 49.9041C58.4787 44.9078 58.4787 39.924 58.4787 34.9278C58.4787 33.6881 58.0023 33.2248 56.774 33.2248C53.1516 33.2248 49.5417 33.2248 45.9193 33.2248C45.7689 33.2248 45.606 33.2248 45.4681 33.2248C44.6283 35.2283 43.1367 36.1048 41.0184 36.0547C39.0004 36.0172 36.9824 36.0422 34.9518 36.0422C34.8014 36.0422 34.6259 36.0422 34.4379 36.0422Z" fill="#FEFF00"/>
<path d="M28.9231 24.0587C27.7198 22.8566 26.5792 21.7171 25.4386 20.5776C25.3007 20.4399 25.1503 20.2896 25.0124 20.1393C24.4985 19.5383 24.5236 18.7744 25.0626 18.236C25.589 17.6976 26.3787 17.6475 26.9678 18.1734C27.5068 18.6492 27.9956 19.1752 28.5095 19.6886C29.2992 20.4774 30.0763 21.2663 30.8659 22.0677C32.157 20.7654 33.3979 19.5132 34.6513 18.2736C35.3407 17.5974 36.3309 17.6725 36.8448 18.4364C37.2459 19.0249 37.1456 19.7261 36.5816 20.3021C35.4786 21.4166 34.3755 22.5185 33.26 23.6205C33.1346 23.7457 32.9842 23.8208 32.8088 23.946C33.0093 24.1589 33.1096 24.2841 33.2349 24.3968C34.3505 25.5113 35.466 26.6383 36.5941 27.7527C37.0579 28.216 37.2459 28.7545 36.9827 29.3681C36.5816 30.3322 35.4284 30.5326 34.6513 29.7688C33.5232 28.6668 32.4077 27.5398 31.2921 26.4129C31.1668 26.2876 31.079 26.1499 30.9286 25.9746C30.7531 26.1374 30.6278 26.2501 30.515 26.3628C29.3869 27.4898 28.2588 28.6293 27.1182 29.7437C26.4163 30.4324 25.4637 30.3823 24.9247 29.6435C24.486 29.0425 24.5612 28.3538 25.1252 27.7778C26.2408 26.6508 27.3563 25.5363 28.4844 24.4219C28.6098 24.3217 28.7477 24.209 28.9231 24.0587Z" fill="#FEFF00"/>
<path d="M44.3148 45.3961C45.656 44.0437 46.9595 42.7414 48.2631 41.4391C49.4413 40.2621 50.607 39.085 51.7852 37.9205C52.3242 37.3945 52.9634 37.3194 53.54 37.6825C54.0915 38.0332 54.3547 38.6718 54.1417 39.2603C54.0539 39.5108 53.8784 39.7612 53.6904 39.9615C50.9454 42.7289 48.1879 45.4837 45.4178 48.2261C44.6783 48.9523 43.9262 48.9523 43.1992 48.2261C41.833 46.8737 40.4668 45.5088 39.1131 44.1439C38.712 43.7432 38.524 43.2674 38.7245 42.6913C38.9125 42.1404 39.3011 41.8148 39.8777 41.7146C40.3916 41.6395 40.7927 41.8524 41.1311 42.203C42.184 43.2548 43.2243 44.2942 44.3148 45.3961Z" fill="#FEFF00"/>
</g>
<defs>
<filter id="filter0_d_102_3190" x="0" y="0" width="77.2957" height="74.437" filterUnits="userSpaceOnUse" color-interpolation-filters="sRGB">
<feFlood flood-opacity="0" result="BackgroundImageFix"/>
<feColorMatrix in="SourceAlpha" type="matrix" values="0 0 0 0 0 0 0 0 0 0 0 0 0 0 0 0 0 0 127 0" result="hardAlpha"/>
<feOffset dy="4"/>
<feGaussianBlur stdDeviation="8"/>
<feComposite in2="hardAlpha" operator="out"/>
<feColorMatrix type="matrix" values="0 0 0 0 0.996078 0 0 0 0 1 0 0 0 0 0 0 0 0 1 0"/>
<feBlend mode="normal" in2="BackgroundImageFix" result="effect1_dropShadow_102_3190"/>
<feBlend mode="normal" in="SourceGraphic" in2="effect1_dropShadow_102_3190" result="shape"/>
</filter>
</defs>
</svg>
