<svg width="74" height="74" viewBox="0 0 74 74" fill="none" xmlns="http://www.w3.org/2000/svg">
<g filter="url(#filter0_d_102_3199)">
<path d="M37.027 12C38.7975 12.0884 40.5347 12.3206 42.2387 12.7517C42.969 12.9396 43.4117 13.5034 43.3785 14.1777C43.3453 14.8852 42.8584 15.4158 42.1281 15.5042C41.8957 15.5374 41.6302 15.4711 41.3978 15.4158C31.6825 13.0944 22.8193 18.6547 19.8759 26.9566C16.4457 36.6402 21.5468 46.6665 30.742 50.1044C37.7241 52.7243 45.6579 50.6792 50.593 45.0747C53.138 42.1895 54.6539 38.8511 55.0744 35.0263C55.3178 32.8485 55.174 30.6929 54.6318 28.5705C54.4769 27.9736 54.6097 27.4319 55.1076 27.045C55.6055 26.6581 56.2694 26.6139 56.7563 27.0118C57.0219 27.2329 57.2542 27.5867 57.3317 27.9183C58.914 34.5841 57.6415 40.6861 53.4257 46.0696C49.8737 50.6129 45.1157 53.1775 39.3839 53.8519C28.3408 55.1673 18.2272 47.584 16.3129 36.596C14.3323 25.1658 21.9562 14.3656 33.4419 12.3869C34.6259 12.1879 35.832 12.1216 37.027 12Z" fill="#FEFF00"/>
<path d="M29.3253 42.0789C28.3626 42.09 27.6544 41.1724 27.9532 40.2881C28.0639 39.9786 28.2741 39.6691 28.5065 39.4369C35.5107 32.4284 42.5261 25.42 49.5304 18.4115C49.9287 18.0135 50.3713 17.7151 50.9578 17.8146C51.9979 17.9804 52.4848 19.0527 51.9315 19.9591C51.8209 20.147 51.666 20.3129 51.511 20.4676C44.5289 27.4429 37.5467 34.4182 30.5646 41.3935C30.2105 41.7583 29.8232 42.0458 29.3253 42.0789Z" fill="#FEFF00"/>
<path d="M25.6296 25.9949C25.6296 23.4081 27.7874 21.2746 30.3656 21.2857C32.9548 21.2857 35.0904 23.4413 35.0793 26.017C35.0793 28.6037 32.9216 30.7372 30.3434 30.7261C27.7652 30.7151 25.6296 28.5705 25.6296 25.9949ZM30.3545 27.9073C31.4057 27.9073 32.2577 27.0671 32.2688 26.028C32.2798 24.9557 31.4389 24.0935 30.3656 24.0935C29.3144 24.0935 28.4623 24.9226 28.4513 25.9727C28.4402 27.045 29.2812 27.9073 30.3545 27.9073Z" fill="#FEFF00"/>
<path d="M48.369 40.0894C48.369 42.6761 46.2223 44.8096 43.6441 44.8206C41.0659 44.8206 38.9193 42.6761 38.9082 40.1004C38.9082 37.5137 41.0548 35.3802 43.633 35.3691C46.2223 35.3691 48.369 37.5137 48.369 40.0894ZM43.5999 42.0018C44.6511 42.0128 45.5252 41.1837 45.5473 40.1557C45.5584 39.0724 44.7285 38.1991 43.6773 38.188C42.615 38.1769 41.752 39.006 41.7298 40.0341C41.7188 41.1174 42.5487 41.9907 43.5999 42.0018Z" fill="#FEFF00"/>
<path d="M57.9959 19.0306C57.9959 19.8486 58.007 20.6667 57.9959 21.4736C57.9849 22.0153 57.7857 22.4685 57.2767 22.7449C56.7677 23.0212 56.2587 22.9881 55.7829 22.6675C55.3181 22.369 55.1743 21.8937 55.1743 21.3741C55.1743 19.915 55.1743 18.4447 55.1743 16.9856C55.1743 15.6701 54.3997 14.8963 53.094 14.8963C51.6334 14.8963 50.1618 14.9073 48.7012 14.8963C47.495 14.8852 46.8533 13.7577 47.4287 12.7517C47.661 12.3427 48.0483 12.1106 48.4798 12.1106C50.3167 12.0995 52.1646 12.0111 53.9903 12.188C56.2808 12.4201 57.9406 14.4209 57.9849 16.7203C58.007 17.483 57.9959 18.2568 57.9959 19.0306Z" fill="#FEFF00"/>
</g>
<defs>
<filter id="filter0_d_102_3199" x="0" y="0" width="74.0007" height="74" filterUnits="userSpaceOnUse" color-interpolation-filters="sRGB">
<feFlood flood-opacity="0" result="BackgroundImageFix"/>
<feColorMatrix in="SourceAlpha" type="matrix" values="0 0 0 0 0 0 0 0 0 0 0 0 0 0 0 0 0 0 127 0" result="hardAlpha"/>
<feOffset dy="4"/>
<feGaussianBlur stdDeviation="8"/>
<feComposite in2="hardAlpha" operator="out"/>
<feColorMatrix type="matrix" values="0 0 0 0 0.996078 0 0 0 0 1 0 0 0 0 0 0 0 0 1 0"/>
<feBlend mode="normal" in2="BackgroundImageFix" result="effect1_dropShadow_102_3199"/>
<feBlend mode="normal" in="SourceGraphic" in2="effect1_dropShadow_102_3199" result="shape"/>
</filter>
</defs>
</svg>
