<svg width="75" height="75" viewBox="0 0 75 75" fill="none" xmlns="http://www.w3.org/2000/svg">
<g filter="url(#filter0_d_102_3194)">
<path d="M37.0419 54.5314C33.0811 54.5314 29.1203 54.5314 25.1594 54.5314C20.6471 54.5189 16.9996 51.5261 16.1473 47.0808C16.047 46.5298 16.0094 45.9664 16.0094 45.4029C15.9969 37.4639 15.9969 29.5375 16.0094 21.5986C16.0094 16.4395 19.9953 12.4575 25.1469 12.4575C33.1061 12.445 41.0654 12.445 49.0121 12.4575C54.1136 12.4575 58.112 16.4395 58.1246 21.536C58.1371 29.4999 58.1371 37.4639 58.1246 45.4279C58.1246 50.5494 54.1261 54.5189 48.9871 54.5314C45.0012 54.5439 41.0278 54.5314 37.0419 54.5314ZM37.0544 51.5261C41.0027 51.5261 44.951 51.5261 48.8993 51.5261C52.5468 51.5261 55.1163 48.9591 55.1163 45.3277C55.1163 37.4389 55.1163 29.55 55.1163 21.6612C55.1163 18.0298 52.5343 15.4628 48.8993 15.4628C41.0153 15.4628 33.1438 15.4628 25.2597 15.4628C21.5872 15.4628 19.0176 18.0173 19.0176 21.6862C19.0176 29.5626 19.0176 37.4264 19.0176 45.3027C19.0176 48.9591 21.5872 51.5261 25.2597 51.5261C29.1829 51.5261 33.1187 51.5261 37.0544 51.5261Z" fill="#FEFF00"/>
<path d="M38.5581 33.4819C38.5581 36.9505 38.5581 40.4316 38.5581 43.9002C38.5581 45.0522 37.5429 45.8035 36.5401 45.4153C35.951 45.1899 35.575 44.664 35.5625 44.0003C35.5499 43.2866 35.5625 42.5603 35.5625 41.8466C35.5625 35.6231 35.5625 29.3997 35.5625 23.1763C35.5625 22.0493 36.3897 21.3355 37.405 21.5609C38.1194 21.7237 38.5707 22.3248 38.5707 23.1638C38.5707 26.6073 38.5581 30.0383 38.5581 33.4819Z" fill="#FEFF00"/>
<path d="M44.5747 36.4746C44.5747 33.9827 44.5747 31.5034 44.5747 29.0115C44.5747 28.2101 45.1388 27.584 45.9033 27.4963C46.6429 27.4087 47.3448 27.8845 47.5328 28.6233C47.5829 28.7986 47.5829 28.999 47.5829 29.1743C47.5829 34.0579 47.5829 38.9414 47.5829 43.825C47.5829 44.8268 46.9813 45.503 46.0914 45.5155C45.1889 45.528 44.5747 44.8268 44.5747 43.8C44.5747 41.3582 44.5747 38.9164 44.5747 36.4746Z" fill="#FEFF00"/>
<path d="M26.5252 38.7037C26.5252 37.0508 26.5252 35.3853 26.5252 33.7324C26.5252 32.6806 27.1143 32.0044 28.0168 31.9919C28.9193 31.9793 29.5335 32.6681 29.5335 33.7074C29.5335 37.1134 29.5335 40.5319 29.5335 43.9378C29.5335 44.614 29.2326 45.1149 28.6059 45.3904C28.0419 45.6408 27.5029 45.5281 27.0266 45.1274C26.6631 44.8144 26.5127 44.4012 26.5127 43.9128C26.5378 42.1848 26.5252 40.4442 26.5252 38.7037Z" fill="#FEFF00"/>
</g>
<defs>
<filter id="filter0_d_102_3194" x="0" y="0.44812" width="74.134" height="74.0889" filterUnits="userSpaceOnUse" color-interpolation-filters="sRGB">
<feFlood flood-opacity="0" result="BackgroundImageFix"/>
<feColorMatrix in="SourceAlpha" type="matrix" values="0 0 0 0 0 0 0 0 0 0 0 0 0 0 0 0 0 0 127 0" result="hardAlpha"/>
<feOffset dy="4"/>
<feGaussianBlur stdDeviation="8"/>
<feComposite in2="hardAlpha" operator="out"/>
<feColorMatrix type="matrix" values="0 0 0 0 0.996078 0 0 0 0 1 0 0 0 0 0 0 0 0 1 0"/>
<feBlend mode="normal" in2="BackgroundImageFix" result="effect1_dropShadow_102_3194"/>
<feBlend mode="normal" in="SourceGraphic" in2="effect1_dropShadow_102_3194" result="shape"/>
</filter>
</defs>
</svg>
