<svg width="25" height="27" viewBox="0 0 25 27" fill="none" xmlns="http://www.w3.org/2000/svg">
<path d="M16.7791 8.50089C18.8782 7.76401 19.7068 8.04925 20.8274 9.87958C21.364 9.5468 21.948 9.4121 22.5793 9.46756C23.7709 9.57057 24.8441 10.6085 24.9467 11.805C24.9862 12.3042 24.9941 12.8113 24.9941 13.3184C25.002 15.3468 25.002 17.3831 24.9941 19.4116C24.9941 21.0834 24.5443 22.6285 23.5342 23.9676C22.1058 25.8613 20.204 26.8913 17.8366 26.9706C16.4793 27.0181 15.114 27.0102 13.7646 26.931C12.3363 26.8438 11.1289 26.1782 10.1188 25.164C6.97012 22.0105 3.82145 18.849 0.68067 15.6875C-0.400452 14.602 -0.163711 13.0648 1.17783 12.2646C2.53515 11.4564 3.98717 11.5356 5.27347 12.4864C5.91267 12.9618 6.54398 13.4452 7.18319 13.9206C7.26999 13.984 7.3568 14.0473 7.49884 14.1504C7.49884 13.984 7.49884 13.8651 7.49884 13.7542C7.49884 10.149 7.49884 6.53587 7.49884 2.93067C7.49884 2.3681 7.59354 1.8293 7.87763 1.33012C8.43792 0.347608 9.66109 -0.19119 10.7738 0.0623617C11.9101 0.323837 12.8098 1.31428 12.8413 2.44734C12.8887 3.87357 12.865 5.2998 12.8729 6.71811C12.8729 6.82903 12.8729 6.93204 12.8729 7.05089C15.0115 6.49625 15.6822 6.7498 16.7791 8.50089ZM8.85616 9.03177C8.85616 11.0998 8.85616 13.1758 8.85616 15.2438C8.85616 15.3706 8.85616 15.5053 8.8246 15.632C8.7299 16.0995 8.26431 16.3135 7.84606 16.0916C7.75926 16.0441 7.68034 15.9807 7.59354 15.9252C6.54398 15.1408 5.50232 14.3484 4.45276 13.564C3.55314 12.8905 2.49569 12.8905 1.69866 13.5482C1.23307 13.9285 1.21729 14.3167 1.64342 14.7525C4.7842 17.9061 7.91709 21.0517 11.0579 24.2053C12.0206 25.1719 13.1807 25.6394 14.5301 25.6394C15.5165 25.6394 16.5029 25.6474 17.4894 25.6394C19.3517 25.6157 20.9221 24.9422 22.1532 23.5239C23.1869 22.3353 23.6368 20.9408 23.6368 19.3719C23.6289 17.0345 23.6368 14.705 23.6368 12.3676C23.6368 12.2566 23.6289 12.1457 23.621 12.0348C23.55 11.29 22.9739 10.7749 22.2479 10.7908C21.5376 10.8066 20.9774 11.3851 20.9537 12.1299C20.9458 12.3517 20.9616 12.5736 20.9458 12.7954C20.9142 13.2471 20.5986 13.5165 20.1882 13.461C19.8489 13.4214 19.62 13.1599 19.62 12.7558C19.6121 12.1299 19.62 11.5039 19.6121 10.8779C19.6043 10.2203 19.2728 9.72111 18.7362 9.52303C17.8445 9.19024 16.9448 9.83204 16.9212 10.8225C16.9054 11.4722 16.9291 12.114 16.9133 12.7637C16.9054 13.2471 16.5345 13.5482 16.0926 13.4531C15.769 13.3818 15.5796 13.1124 15.5796 12.7004C15.5796 11.6386 15.5796 10.5769 15.5796 9.5151C15.5717 8.78614 15.1377 8.2315 14.4906 8.11264C13.6068 7.95417 12.9045 8.58013 12.8966 9.5468C12.8887 10.5452 12.8966 11.5514 12.8966 12.5498C12.8966 12.6845 12.8966 12.8113 12.8729 12.946C12.8255 13.2392 12.5809 13.4452 12.2889 13.4689C11.9733 13.4927 11.6971 13.3263 11.6103 13.0331C11.5708 12.8826 11.555 12.7162 11.555 12.5577C11.555 9.36456 11.555 6.17139 11.555 2.97821C11.555 2.84351 11.555 2.71674 11.5471 2.58204C11.4919 1.75799 10.687 1.17958 9.88994 1.38559C9.24284 1.55198 8.87984 2.05909 8.87194 2.81182C8.85616 4.88778 8.85616 6.95581 8.85616 9.03177Z" fill="white"/>
</svg>
