<svg width="14" height="28" viewBox="0 0 14 28" fill="none" xmlns="http://www.w3.org/2000/svg">
<g clip-path="url(#clip0_13_391)">
<path d="M8.89179 27.5001C7.22816 27.5001 5.61473 27.5001 3.97979 27.5001C3.97979 23.4056 3.97979 19.3182 3.97979 15.2093C2.64602 15.2093 1.33377 15.2093 0 15.2093C0 13.5672 0 11.9538 0 10.3117C1.30508 10.3117 2.61734 10.3117 3.97262 10.3117C3.97262 10.1826 3.97262 10.0822 3.97262 9.97466C3.98696 8.53333 3.94394 7.08483 4.02282 5.65067C4.11604 3.95836 4.69687 2.44532 6.03064 1.31234C7.07758 0.43033 8.32529 0.0144237 9.6734 8.21433e-05C10.9785 -0.0142594 12.2836 0.0933025 13.5887 0.150669C13.6317 0.150669 13.6747 0.172181 13.7321 0.186523C13.7321 1.63502 13.7321 3.06918 13.7321 4.55354C13.6317 4.55354 13.5313 4.55354 13.4237 4.55354C12.4844 4.56788 11.5378 4.5392 10.6056 4.6109C9.58018 4.68978 8.98501 5.25627 8.93481 6.27453C8.87027 7.6083 8.92047 8.94206 8.92047 10.3117C9.63755 10.3117 10.369 10.3117 11.1004 10.3117C11.8318 10.3117 12.5632 10.3117 13.3305 10.3117C13.1297 11.9538 12.9289 13.5672 12.721 15.2022C11.4518 15.2022 10.1897 15.2022 8.89179 15.2022C8.89179 19.3039 8.89179 23.3912 8.89179 27.5001Z" fill="white"/>
</g>
<defs>
<clipPath id="clip0_13_391">
<rect width="13.7321" height="27.5" fill="white"/>
</clipPath>
</defs>
</svg>
