<svg width="158" height="79" viewBox="0 0 158 79" fill="none" xmlns="http://www.w3.org/2000/svg">
<g clip-path="url(#clip0_13_414)">
<path d="M13.8016 42.9236L15.8144 49.2493H33.2102L41.8362 55L35.6542 64.0573L47.8744 72.3958H33.929L27.4595 52.556H20.4149L27.6033 74.6961L33.354 78.8653H50.606L55.9254 71.1019L44.1365 62.4759L50.1747 53.7061L34.2166 42.9236H13.8016Z" fill="#FFFF00"/>
<path d="M136.435 42.9236L139.598 52.556L143.192 55.1438L145.492 62.1884L118.464 42.9236L130.109 78.8653H137.154L131.403 61.3258L155.844 78.8653H158L148.368 49.5369L139.167 42.9236H136.435Z" fill="#FFFF00"/>
<path d="M107.25 50.2557L116.451 78.8653L121.627 71.5332L112.282 42.9236L107.25 50.2557Z" fill="#FFFF00"/>
<path d="M28.0346 18.4832L53.0501 36.3103H60.5259L59.5196 33.2912L47.4431 24.6651L53.6251 15.7516L48.0182 11.7261L41.8362 20.6397L33.929 15.0327L32.3476 10.1447H25.303L28.0346 18.4832Z" fill="#FFFF00"/>
<path d="M104.662 15.3203H89.2793L90.717 19.7771H92.5859L95.3175 21.646H106.675L104.662 15.3203Z" fill="#FFFF00"/>
<path d="M84.535 0.512283L85.9727 4.96906H87.8417L90.4295 6.83803H101.787L99.7743 0.512283H84.535Z" fill="#FFFF00"/>
<path d="M98.1929 34.4413L100.781 36.3103H111.419L109.407 29.9845H94.1674L95.6051 34.4413H98.1929Z" fill="#FFFF00"/>
<path d="M115.157 0.512283L117.17 6.83803H127.665L118.177 20.3521L111.707 0.512283H104.662L116.308 36.3103L136.866 6.9818L127.809 0.512283H115.157Z" fill="#FFFF00"/>
<path d="M3.30664 0.512283H0L2.01274 6.83803L6.46952 9.56961L12.2202 27.253L24.2966 36.3103H44.5678L35.798 29.9845H26.1656L18.2584 23.9463L12.6515 6.83803H31.1975L29.1847 0.512283H3.30664Z" fill="#FFFF00"/>
<path d="M48.8808 0.512283L50.8935 6.83803H68.2894L76.9154 12.5887L70.7334 21.5023L82.9536 29.9845H69.0082L62.5387 10.1447H55.4941L62.6824 32.141L68.5769 36.3103H85.6852L91.0045 28.6906L79.2156 20.0646L85.2539 11.2948L69.2957 0.512283H48.8808Z" fill="#FFFF00"/>
<path d="M131.116 21.5023L126.515 27.9718L135.285 34.2975H139.167L142.042 36.3103H151.962L131.116 21.5023Z" fill="#FFFF00"/>
<path d="M63.5451 49.2493H75.4778L65.2703 63.9136L58.5133 42.9236H49.1684L50.8936 48.5305L53.9127 50.687L63.1138 78.8653L83.6725 49.3931L74.6152 42.9236H61.5324L63.5451 49.2493Z" fill="#FFFF00"/>
<path d="M91.2921 54.1374L92.0109 56.2939L81.9472 70.6706L75.4777 66.0701L72.0273 71.3894L82.3785 78.8653H84.535L97.7616 59.8881L99.9181 66.6451L96.6114 70.6706L99.343 78.8653L107.25 67.364L99.343 42.9236L91.2921 54.1374Z" fill="#FFFF00"/>
</g>
<defs>
<clipPath id="clip0_13_414">
<rect width="158" height="78.3531" fill="white" transform="translate(0 0.512283)"/>
</clipPath>
</defs>
</svg>
