<svg width="202" height="541" viewBox="0 0 202 541" fill="none" xmlns="http://www.w3.org/2000/svg">
<g opacity="0.47">
<path d="M73.0798 491.954C73.0798 492.329 73.4545 492.516 73.6419 492.516C74.0167 492.516 74.2041 492.141 74.2041 491.954C74.2041 491.58 73.8293 491.393 73.6419 491.393C73.4545 491.393 73.0798 491.58 73.0798 491.954Z" fill="white"/>
<path d="M15.5529 539.877C15.5529 540.438 16.115 541 16.6772 541C17.2393 541 17.8015 540.438 17.8015 539.877C17.8015 539.315 17.2393 538.754 16.6772 538.754C16.115 538.754 15.5529 539.128 15.5529 539.877Z" fill="white"/>
<path d="M63.8979 492.703C63.8979 493.452 64.4601 493.826 65.0223 493.826C65.7718 493.826 66.1466 493.265 66.1466 492.703C66.1466 491.954 65.5844 491.58 65.0223 491.58C64.4601 491.393 63.8979 491.954 63.8979 492.703Z" fill="white"/>
<path d="M28.8571 436.918C28.8571 437.854 29.6067 438.79 30.731 438.79C31.6679 438.79 32.6048 438.042 32.6048 436.918C32.6048 435.982 31.8553 435.046 30.731 435.046C29.6067 435.046 28.8571 435.795 28.8571 436.918Z" fill="white"/>
<path d="M67.2709 405.656C67.2709 406.031 67.6456 406.405 68.0204 406.405C68.3952 406.405 68.7699 406.031 68.7699 405.656C68.7699 405.282 68.3952 404.908 68.0204 404.908C67.6456 404.908 67.2709 405.282 67.2709 405.656Z" fill="white"/>
<path d="M46.6586 423.627C46.6586 424.563 47.4082 425.499 48.5325 425.499C49.6568 425.499 50.4063 424.751 50.4063 423.627C50.4063 422.504 49.6568 421.755 48.5325 421.755C47.4082 421.755 46.6586 422.691 46.6586 423.627Z" fill="white"/>
<path d="M66.334 370.838C66.334 371.399 66.7087 371.774 67.2709 371.774C67.833 371.774 68.2078 371.399 68.2078 370.838C68.2078 370.276 67.833 369.902 67.2709 369.902C66.7087 369.902 66.334 370.276 66.334 370.838Z" fill="white"/>
<path d="M38.9759 376.828C38.9759 377.577 39.538 378.326 40.475 378.326C41.2245 378.326 41.974 377.764 41.974 376.828C41.974 376.079 41.4119 375.33 40.475 375.33C39.7254 375.518 38.9759 376.079 38.9759 376.828Z" fill="white"/>
<path d="M68.7699 320.856C68.7699 321.605 69.5195 322.354 70.269 322.354C71.0186 322.354 71.7681 321.605 71.7681 320.856C71.7681 320.107 71.0186 319.358 70.269 319.358C69.5195 319.358 68.7699 319.92 68.7699 320.856Z" fill="white"/>
<path d="M0 344.443C0 345.192 0.562152 345.753 1.31169 345.753C2.06122 345.753 2.62338 345.192 2.62338 344.443C2.62338 343.694 2.06122 343.133 1.31169 343.133C0.562152 343.133 0 343.881 0 344.443Z" fill="white"/>
<path d="M9.55658 295.023C9.55658 295.397 9.74396 295.584 10.1187 295.584C10.4935 295.584 10.6809 295.397 10.6809 295.023C10.6809 294.648 10.4935 294.461 10.1187 294.461C9.74396 294.461 9.55658 294.648 9.55658 295.023Z" fill="white"/>
<path d="M84.1354 220.144C84.1354 220.706 84.5102 221.08 85.0724 221.08C85.6345 221.08 86.0093 220.706 86.0093 220.144C86.0093 219.582 85.6345 219.208 85.0724 219.208C84.5102 219.395 84.1354 219.77 84.1354 220.144Z" fill="white"/>
<path d="M20.4249 248.598C20.4249 249.534 21.1744 250.47 22.2987 250.47C23.2356 250.47 24.1725 249.721 24.1725 248.598C24.1725 247.662 23.423 246.726 22.2987 246.726C21.1744 246.913 20.4249 247.662 20.4249 248.598Z" fill="white"/>
<path d="M198.814 194.311C198.814 195.247 199.564 195.808 200.314 195.808C201.25 195.808 201.813 195.06 201.813 194.311C201.813 193.375 201.063 192.813 200.314 192.813C199.564 192.626 198.814 193.375 198.814 194.311Z" fill="white"/>
<path d="M137.54 198.242C137.54 198.616 137.915 198.803 138.102 198.803C138.477 198.803 138.664 198.429 138.664 198.242C138.664 197.867 138.289 197.68 138.102 197.68C137.727 197.68 137.54 197.867 137.54 198.242Z" fill="white"/>
<path d="M95.5659 189.256C95.5659 189.631 95.9406 190.005 96.3154 190.005C96.6902 190.005 97.0649 189.631 97.0649 189.256C97.0649 188.882 96.6902 188.508 96.3154 188.508C95.9406 188.508 95.5659 188.882 95.5659 189.256Z" fill="white"/>
<path d="M48.7198 215.464C48.7198 216.4 49.4694 217.149 50.4063 217.149C51.3432 217.149 52.0928 216.4 52.0928 215.464C52.0928 214.528 51.3432 213.779 50.4063 213.779C49.4694 213.966 48.7198 214.715 48.7198 215.464Z" fill="white"/>
<path d="M168.458 148.26C168.458 149.009 169.02 149.571 169.77 149.571C170.519 149.571 171.082 149.009 171.082 148.26C171.082 147.511 170.519 146.95 169.77 146.95C169.02 146.95 168.458 147.511 168.458 148.26Z" fill="white"/>
<path d="M109.807 148.822C109.807 149.196 110.182 149.571 110.557 149.571C110.931 149.571 111.306 149.196 111.306 148.822C111.306 148.447 110.931 148.073 110.557 148.073C110.182 148.073 109.807 148.447 109.807 148.822Z" fill="white"/>
<path d="M58.4638 163.236C58.4638 163.985 59.026 164.734 59.9629 164.734C60.7124 164.734 61.462 164.172 61.462 163.236C61.462 162.487 60.8998 161.738 59.9629 161.738C59.2134 161.738 58.4638 162.3 58.4638 163.236Z" fill="white"/>
<path d="M11.0557 137.59C11.0557 138.152 11.4304 138.526 11.9926 138.526C12.5547 138.526 13.1169 138.152 13.1169 137.59C13.1169 137.028 12.5547 136.654 11.9926 136.654C11.4304 136.654 11.0557 137.028 11.0557 137.59Z" fill="white"/>
<path d="M123.111 87.4211C123.111 87.9827 123.673 88.5443 124.236 88.5443C124.798 88.5443 125.36 87.9827 125.36 87.4211C125.36 86.8595 124.798 86.2979 124.236 86.2979C123.673 86.2979 123.111 86.8595 123.111 87.4211Z" fill="white"/>
<path d="M39.7254 106.89C39.7254 107.826 40.475 108.574 41.4119 108.574C42.3488 108.574 43.0983 107.826 43.0983 106.89C43.0983 105.954 42.3488 105.205 41.4119 105.205C40.475 105.205 39.7254 105.954 39.7254 106.89Z" fill="white"/>
<path d="M30.5436 52.6024C30.5436 53.164 30.9184 53.5384 31.4805 53.5384C32.0427 53.5384 32.4174 53.164 32.4174 52.6024C32.4174 52.0408 32.0427 51.6664 31.4805 51.6664C30.9184 51.6664 30.5436 52.0408 30.5436 52.6024Z" fill="white"/>
<path d="M111.681 43.8042C111.681 44.7401 112.43 45.4889 113.367 45.4889C114.304 45.4889 115.054 44.7401 115.054 43.8042C115.054 42.8682 114.304 42.1194 113.367 42.1194C112.43 42.1194 111.681 42.8682 111.681 43.8042Z" fill="white"/>
<path d="M51.9054 35.9419C51.9054 36.6907 52.4675 37.2522 53.2171 37.2522C53.9666 37.2522 54.5288 36.6907 54.5288 35.9419C54.5288 35.1931 53.9666 34.6315 53.2171 34.6315C52.4675 34.6315 51.9054 35.1931 51.9054 35.9419Z" fill="white"/>
<path d="M15.3655 10.6702C15.3655 11.419 15.9276 11.9806 16.6772 11.9806C17.4267 11.9806 17.9889 11.419 17.9889 10.6702C17.9889 9.92145 17.4267 9.35986 16.6772 9.35986C15.9276 9.17266 15.3655 9.92145 15.3655 10.6702Z" fill="white"/>
<path d="M169.395 0.935986C169.395 1.49758 169.77 1.87197 170.332 1.87197C170.894 1.87197 171.269 1.49758 171.269 0.935986C171.269 0.374394 170.894 0 170.332 0C169.77 0 169.395 0.374394 169.395 0.935986Z" fill="white"/>
</g>
</svg>
