<svg width="26" height="25" viewBox="0 0 26 25" fill="none" xmlns="http://www.w3.org/2000/svg">
<path d="M16.1 1.6V0H21V1.6H22.6V3.2H24.2V4.8H25.8V11.3H24.2V14.5H22.6V16.1H21V17.7H19.4V19.3H17.8V21H16.2V22.6H14.6V24.2H11.4V22.6H9.7V21H8.1C8.1 20.5 8.1 20.1 8.1 19.6C8.1 19.4 8 19.3 7.8 19.3C7.4 19.3 6.9 19.3 6.5 19.3V17.7H4.8V16.1H3.2V14.5H1.6V11.3H0V4.8H1.6V3.2H3.2V1.6H4.8V0H9.6V1.6H11.2V3.2H14.4V1.6H16.1ZM6.4 4.8C6.9 4.8 7.3 4.8 7.8 4.8C8 4.8 8.1 4.7 8.1 4.6C8.1 4.2 8.1 3.8 8.1 3.4C8.1 3.2 8 3.2 7.8 3.2C7.4 3.2 7 3.2 6.6 3.2C6.4 3.2 6.3 3.3 6.3 3.5C6.3 3.8 6.3 4.1 6.3 4.4C6.3 4.7 6.2 4.8 6 4.8C5.7 4.8 5.4 4.8 5 4.8C4.8 4.8 4.7 4.9 4.7 5.1C4.7 5.4 4.7 5.8 4.7 6.1C4.7 6.3 4.6 6.4 4.4 6.4C4.1 6.4 3.7 6.4 3.4 6.4C3.2 6.4 3.1 6.4 3.1 6.7C3.1 7.1 3.1 7.5 3.1 7.9C3.1 8.1 3.2 8.2 3.4 8.2C3.7 8.2 4.1 8.2 4.4 8.2C4.7 8.2 4.8 8.1 4.8 7.8C4.8 7.4 4.8 7 4.8 6.5C5.3 6.5 5.7 6.5 6.1 6.5C6.4 6.5 6.4 6.4 6.4 6.2C6.4 5.7 6.4 5.3 6.4 4.8Z" fill="#FEFF00"/>
</svg>
