<svg width="156" height="20" viewBox="0 0 156 20" fill="none" xmlns="http://www.w3.org/2000/svg">
<g clip-path="url(#clip0_28_7271)">
<path d="M13.7129 5.28387L15.2226 9.81291L28.9355 19.5H32.9613L32.4581 17.8645L25.9161 13.2097L29.3129 8.30323L26.1677 6.16452L22.771 10.9452L18.4935 7.92581L17.6129 5.28387H13.7129Z" fill="white"/>
<path d="M56.7388 8.05161H48.3098L49.1905 10.4419H50.1969L51.5808 11.4484H57.7453L56.7388 8.05161Z" fill="white"/>
<path d="M45.7935 0L46.5483 2.39032H47.5547L48.9386 3.52258H55.2289L54.0967 0H45.7935Z" fill="white"/>
<path d="M50.9517 16.1032L51.7065 18.4935H53.2162L54.6 19.5H60.3871L59.2549 16.1032H50.9517Z" fill="white"/>
<path d="M62.7776 0L63.9098 3.52258H69.5711L64.4131 10.8194L60.8905 0H56.9905L63.4066 19.5L74.6034 3.52258L69.5711 0H62.7776Z" fill="white"/>
<path d="M1.76129 0H0L1.25806 3.9L3.52258 5.53548L6.54193 14.7194L13.2097 19.5H24.2806L19.5 16.1032H14.3419L9.6871 12.8323L6.66774 3.52258H16.9839L15.9774 0H1.76129Z" fill="white"/>
<path d="M26.6709 0L27.8032 3.52258H37.2386L41.8935 6.54193L38.4967 11.4484L45.1644 16.1032H37.6161L34.0935 5.28387H30.1935L34.2193 17.2355L37.3644 19.5H46.6741L49.5677 15.3484L43.1515 10.6935L46.5483 5.9129L37.8677 0H26.6709Z" fill="white"/>
<path d="M68.9419 14.971L73.7225 18.4936H75.8612L77.3709 19.5H82.7806L71.458 11.4484L68.9419 14.971Z" fill="white"/>
<path d="M143.797 0L145.432 5.28387L147.319 6.66774L148.578 10.4419L133.858 0L140.274 19.5H144.048L141.029 10.0645L154.239 19.5H155.371L150.213 3.64839L145.181 0H143.797Z" fill="white"/>
<path d="M127.442 4.02581L132.474 19.5L135.368 15.6L130.21 0L127.442 4.02581Z" fill="white"/>
<path d="M76.8677 0L77.9999 3.52258H86.429L90.958 6.66774L87.687 11.4484L94.229 16.1032H87.687L84.1645 5.28387H80.2645L84.1645 17.2355L87.4354 19.5H96.7451L99.5128 15.7258L92.3419 10.5677L95.6128 5.7871L87.5612 0H76.8677Z" fill="white"/>
<path d="M103.665 3.52258H110.206L104.671 11.4484L100.897 0H95.8645L96.7452 3.01936L98.3806 4.15161L103.413 19.5L114.61 3.52258L109.703 0H102.532L103.665 3.52258Z" fill="white"/>
<path d="M118.761 6.16452L119.139 7.29677L113.603 15.0968L110.206 12.5806L108.319 15.4742L113.981 19.5H115.113L122.284 9.30968L123.542 12.9581L121.655 15.0968L123.165 19.5L127.568 13.3355L123.165 0L118.761 6.16452Z" fill="white"/>
</g>
<defs>
<clipPath id="clip0_28_7271">
<rect width="155.371" height="19.5" fill="white"/>
</clipPath>
</defs>
</svg>
