<svg width="1322" height="492" viewBox="0 0 1322 492" fill="none" xmlns="http://www.w3.org/2000/svg">
<path d="M713.257 490.471C713.257 491.236 714.021 492 714.786 492C715.55 492 716.314 491.236 716.314 490.471C716.314 489.707 715.55 488.943 714.786 488.943C714.021 488.943 713.257 489.707 713.257 490.471Z" fill="#FFFF98"/>
<path d="M877.002 485.504C877.002 486.459 877.767 487.032 878.531 487.032C879.486 487.032 880.06 486.268 880.06 485.504C880.06 484.739 879.295 483.975 878.531 483.975C877.767 483.975 877.002 484.548 877.002 485.504Z" fill="#92803D"/>
<path d="M806.307 489.707C806.307 490.089 806.689 490.471 807.072 490.471C807.454 490.471 807.836 490.089 807.836 489.707C807.836 489.325 807.454 488.943 807.072 488.943C806.689 488.943 806.307 489.325 806.307 489.707Z" fill="#FFFF98"/>
<path d="M788.538 446.908C788.538 447.672 789.111 448.246 789.875 448.246C790.64 448.246 791.213 447.672 791.213 446.908C791.213 446.144 790.64 445.571 789.875 445.571C789.111 445.571 788.538 446.144 788.538 446.908Z" fill="#92803D"/>
<path d="M703.704 464.104C703.704 465.059 704.468 465.633 705.232 465.633C706.188 465.633 706.761 464.868 706.761 464.104C706.761 463.149 705.997 462.576 705.232 462.576C704.468 462.576 703.704 463.149 703.704 464.104Z" fill="#DBD57A"/>
<path d="M663.579 449.583C663.579 450.347 664.153 450.92 664.917 450.92C665.681 450.92 666.254 450.347 666.254 449.583C666.254 448.819 665.681 448.245 664.917 448.245C664.153 448.245 663.579 448.819 663.579 449.583Z" fill="#FFFF98"/>
<path d="M645.81 486.077C645.81 486.65 646.383 487.223 646.956 487.223C647.53 487.223 648.103 486.65 648.103 486.077C648.103 485.504 647.53 484.93 646.956 484.93C646.383 484.93 645.81 485.313 645.81 486.077Z" fill="#6E551E"/>
<path d="M500.025 444.997C500.025 445.57 500.407 445.953 500.98 445.953C501.554 445.953 501.936 445.57 501.936 444.997C501.936 444.424 501.554 444.042 500.98 444.042C500.407 443.851 500.025 444.424 500.025 444.997Z" fill="#B7AA5B"/>
<path d="M440.603 466.397C440.603 466.97 440.985 467.352 441.558 467.352C442.132 467.352 442.514 466.97 442.514 466.397C442.514 465.824 442.132 465.442 441.558 465.442C440.985 465.442 440.603 465.824 440.603 466.397Z" fill="#92803D"/>
<path d="M240.746 463.531C240.746 463.913 241.128 464.295 241.51 464.295C241.892 464.295 242.274 463.913 242.274 463.531C242.274 463.149 241.892 462.767 241.51 462.767C241.128 462.767 240.746 463.149 240.746 463.531Z" fill="#DBD57A"/>
<path d="M1106.67 423.216C1106.67 423.789 1107.05 424.171 1107.62 424.171C1108.19 424.171 1108.58 423.789 1108.58 423.216C1108.58 422.642 1108.19 422.26 1107.62 422.26C1107.05 422.26 1106.67 422.642 1106.67 423.216Z" fill="#6E551E"/>
<path d="M1048.39 418.057C1048.39 419.012 1049.15 419.776 1050.11 419.776C1051.07 419.776 1051.83 419.012 1051.83 418.057C1051.83 417.101 1051.07 416.337 1050.11 416.337C1049.15 416.337 1048.39 416.91 1048.39 418.057Z" fill="#FFFF98"/>
<path d="M986.293 417.484C986.293 418.248 986.867 419.012 987.822 419.012C988.586 419.012 989.35 418.439 989.35 417.484C989.35 416.719 988.777 415.955 987.822 415.955C986.867 416.146 986.293 416.719 986.293 417.484Z" fill="#B7AA5B"/>
<path d="M939.482 416.719C939.482 417.675 940.246 418.248 941.01 418.248C941.966 418.248 942.539 417.483 942.539 416.719C942.539 415.764 941.774 415.191 941.01 415.191C940.246 415.191 939.482 415.955 939.482 416.719Z" fill="#B7AA5B"/>
<path d="M875.092 454.36C875.092 454.742 875.283 454.933 875.665 454.933C876.047 454.933 876.238 454.742 876.238 454.36C876.238 453.977 876.047 453.786 875.665 453.786C875.283 453.595 875.092 453.977 875.092 454.36Z" fill="#B7AA5B"/>
<path d="M842.61 445.762C842.61 446.335 843.183 446.908 843.757 446.908C844.33 446.908 844.903 446.335 844.903 445.762C844.903 445.188 844.33 444.615 843.757 444.615C842.992 444.615 842.61 445.188 842.61 445.762Z" fill="#B7AA5B"/>
<path d="M774.017 423.789C774.017 424.362 774.59 424.935 775.163 424.935C775.736 424.935 776.31 424.362 776.31 423.789C776.31 423.216 775.736 422.642 775.163 422.642C774.59 422.642 774.017 423.024 774.017 423.789Z" fill="#DBD57A"/>
<path d="M737.905 416.528C737.905 417.292 738.478 418.057 739.433 418.057C740.198 418.057 740.962 417.484 740.962 416.528C740.962 415.764 740.389 415 739.433 415C738.478 415.191 737.905 415.764 737.905 416.528Z" fill="#B7AA5B"/>
<path d="M674.088 434.106C674.088 434.871 674.661 435.444 675.426 435.444C676.19 435.444 676.763 434.871 676.763 434.106C676.763 433.342 676.19 432.769 675.426 432.769C674.852 432.769 674.088 433.342 674.088 434.106Z" fill="#DBD57A"/>
<path d="M619.252 411.56C619.252 412.134 619.825 412.707 620.398 412.707C620.971 412.707 621.544 412.134 621.544 411.56C621.544 410.987 620.971 410.414 620.398 410.414C619.634 410.223 619.252 410.796 619.252 411.56Z" fill="#B7AA5B"/>
<path d="M594.986 441.558C594.986 442.513 595.75 443.278 596.706 443.278C597.661 443.278 598.425 442.513 598.425 441.558C598.425 440.603 597.661 439.838 596.706 439.838C595.75 439.838 594.986 440.603 594.986 441.558Z" fill="#6E551E"/>
<path d="M514.355 409.841C514.355 410.223 514.546 410.414 514.928 410.414C515.311 410.414 515.502 410.223 515.502 409.841C515.502 409.459 515.311 409.268 514.928 409.268C514.737 409.268 514.355 409.459 514.355 409.841Z" fill="#B7AA5B"/>
<path d="M475.377 435.253C475.377 435.826 475.759 436.208 476.333 436.208C476.906 436.208 477.288 435.826 477.288 435.253C477.288 434.68 476.906 434.297 476.333 434.297C475.759 434.489 475.377 434.871 475.377 435.253Z" fill="#DBD57A"/>
<path d="M382.518 431.623C382.518 432.005 382.9 432.387 383.283 432.387C383.665 432.387 384.047 432.005 384.047 431.623C384.047 431.24 383.665 430.858 383.283 430.858C382.709 430.858 382.518 431.24 382.518 431.623Z" fill="#92803D"/>
<path d="M361.31 409.841C361.31 410.414 361.692 410.796 362.265 410.796C362.838 410.796 363.22 410.414 363.22 409.841C363.22 409.268 362.838 408.885 362.265 408.885C361.692 408.885 361.31 409.268 361.31 409.841Z" fill="#DBD57A"/>
<path d="M265.585 404.109C265.585 405.064 266.349 405.828 267.304 405.828C268.26 405.828 269.024 405.064 269.024 404.109C269.024 403.153 268.26 402.389 267.304 402.389C266.349 402.389 265.585 403.153 265.585 404.109Z" fill="#DBD57A"/>
<path d="M243.421 417.675C243.421 418.248 243.803 418.821 244.567 418.821C245.14 418.821 245.714 418.439 245.714 417.675C245.714 417.101 245.331 416.528 244.567 416.528C243.994 416.528 243.421 417.101 243.421 417.675Z" fill="#DBD57A"/>
<path d="M1228.19 361.309C1228.19 361.692 1228.57 362.074 1228.95 362.074C1229.33 362.074 1229.71 361.692 1229.71 361.309C1229.71 360.927 1229.33 360.545 1228.95 360.545C1228.38 360.545 1228.19 360.927 1228.19 361.309Z" fill="#B7AA5B"/>
<path d="M1126.35 382.136C1126.35 382.518 1126.73 382.9 1127.11 382.9C1127.49 382.9 1127.87 382.518 1127.87 382.136C1127.87 381.754 1127.49 381.372 1127.11 381.372C1126.73 381.372 1126.35 381.754 1126.35 382.136Z" fill="#DBD57A"/>
<path d="M1078.96 347.553C1078.96 348.508 1079.73 349.081 1080.49 349.081C1081.25 349.081 1082.02 348.317 1082.02 347.553C1082.02 346.597 1081.25 346.024 1080.49 346.024C1079.73 346.024 1078.96 346.788 1078.96 347.553Z" fill="#92803D"/>
<path d="M1048.96 387.486C1048.96 388.25 1049.54 388.632 1050.11 388.632C1050.87 388.632 1051.26 388.059 1051.26 387.486C1051.26 386.913 1050.68 386.339 1050.11 386.339C1049.54 386.339 1048.96 386.913 1048.96 387.486Z" fill="#B7AA5B"/>
<path d="M993.936 394.746C993.936 395.702 994.7 396.657 995.847 396.657C996.802 396.657 997.757 395.893 997.757 394.746C997.757 393.791 996.993 392.836 995.847 392.836C994.891 393.027 993.936 393.791 993.936 394.746Z" fill="#B7AA5B"/>
<path d="M938.908 369.143C938.908 369.717 939.482 370.29 940.055 370.29C940.628 370.29 941.201 369.717 941.201 369.143C941.201 368.57 940.628 367.997 940.055 367.997C939.482 367.997 938.908 368.379 938.908 369.143Z" fill="#6E551E"/>
<path d="M889.613 382.136C889.613 382.709 889.995 383.091 890.568 383.091C891.142 383.091 891.524 382.709 891.524 382.136C891.524 381.563 891.142 381.181 890.568 381.181C890.186 381.181 889.613 381.563 889.613 382.136Z" fill="#B7AA5B"/>
<path d="M853.883 403.918C853.883 404.491 854.456 405.064 855.03 405.064C855.603 405.064 856.176 404.491 856.176 403.918C856.176 403.344 855.603 402.771 855.03 402.771C854.456 402.771 853.883 403.153 853.883 403.918Z" fill="#6E551E"/>
<path d="M819.873 404.109C819.873 404.682 820.255 405.064 820.828 405.064C821.402 405.064 821.784 404.682 821.784 404.109C821.784 403.536 821.402 403.153 820.828 403.153C820.255 402.962 819.873 403.536 819.873 404.109Z" fill="#B7AA5B"/>
<path d="M739.433 382.709C739.433 383.282 740.007 383.856 740.58 383.856C741.153 383.856 741.726 383.282 741.726 382.709C741.726 382.136 741.153 381.563 740.58 381.563C740.007 381.563 739.433 381.945 739.433 382.709Z" fill="#92803D"/>
<path d="M705.996 381.181C705.996 381.754 706.379 382.136 706.952 382.136C707.525 382.136 707.907 381.754 707.907 381.181C707.907 380.607 707.525 380.225 706.952 380.225C706.379 380.225 705.996 380.607 705.996 381.181Z" fill="#92803D"/>
<path d="M608.934 368.188C608.934 368.57 609.316 368.952 609.698 368.952C610.08 368.952 610.462 368.57 610.462 368.188C610.462 367.806 610.08 367.424 609.698 367.424C609.316 367.424 608.934 367.806 608.934 368.188Z" fill="#92803D"/>
<path d="M561.74 365.322C561.74 365.895 562.313 366.468 562.887 366.468C563.46 366.468 564.033 365.895 564.033 365.322C564.033 364.749 563.46 364.176 562.887 364.176C562.313 364.176 561.74 364.749 561.74 365.322Z" fill="#B7AA5B"/>
<path d="M488.179 370.481C488.179 371.245 488.943 372.009 489.707 372.009C490.472 372.009 491.236 371.245 491.236 370.481C491.236 369.717 490.472 368.952 489.707 368.952C488.943 368.952 488.179 369.525 488.179 370.481Z" fill="#B7AA5B"/>
<path d="M447.099 354.622C447.099 355.195 447.481 355.577 448.055 355.577C448.628 355.577 449.01 355.195 449.01 354.622C449.01 354.049 448.628 353.667 448.055 353.667C447.481 353.667 447.099 354.049 447.099 354.622Z" fill="#B7AA5B"/>
<path d="M387.677 397.803C387.677 398.186 388.059 398.568 388.441 398.568C388.824 398.568 389.206 398.186 389.206 397.803C389.206 397.421 388.824 397.039 388.441 397.039C388.059 397.039 387.677 397.421 387.677 397.803Z" fill="#6E551E"/>
<path d="M358.826 375.066C358.826 375.64 359.208 376.022 359.781 376.022C360.354 376.022 360.737 375.64 360.737 375.066C360.737 374.493 360.354 374.111 359.781 374.111C359.399 374.111 358.826 374.493 358.826 375.066Z" fill="#6E551E"/>
<path d="M292.525 376.404C292.525 376.977 292.907 377.359 293.481 377.359C294.054 377.359 294.436 376.977 294.436 376.404C294.436 375.831 294.054 375.448 293.481 375.448C292.907 375.448 292.525 375.831 292.525 376.404Z" fill="#B7AA5B"/>
<path d="M243.039 391.88C243.039 392.454 243.612 393.027 244.185 393.027C244.758 393.027 245.331 392.454 245.331 391.88C245.331 391.307 244.758 390.734 244.185 390.734C243.612 390.734 243.039 391.307 243.039 391.88Z" fill="#6E551E"/>
<path d="M1261.43 350.036C1261.43 350.419 1261.81 350.801 1262.2 350.801C1262.58 350.801 1262.96 350.419 1262.96 350.036C1262.96 349.654 1262.58 349.272 1262.2 349.272C1261.81 349.272 1261.43 349.654 1261.43 350.036Z" fill="#DBD57A"/>
<path d="M1223.79 347.553C1223.79 348.126 1224.36 348.699 1224.94 348.699C1225.51 348.699 1226.08 348.126 1226.08 347.553C1226.08 346.979 1225.51 346.406 1224.94 346.406C1224.36 346.406 1223.79 346.979 1223.79 347.553Z" fill="#92803D"/>
<path d="M1193.6 308.002C1193.6 308.384 1193.98 308.575 1194.18 308.575C1194.56 308.575 1194.75 308.193 1194.75 308.002C1194.75 307.619 1194.37 307.428 1194.18 307.428C1193.79 307.237 1193.6 307.619 1193.6 308.002Z" fill="#B7AA5B"/>
<path d="M1129.02 355.195C1129.02 355.96 1129.59 356.724 1130.55 356.724C1131.51 356.724 1132.08 356.151 1132.08 355.195C1132.08 354.431 1131.51 353.667 1130.55 353.667C1129.59 353.667 1129.02 354.24 1129.02 355.195Z" fill="#B7AA5B"/>
<path d="M1050.87 339.719C1050.87 340.101 1051.26 340.483 1051.64 340.483C1052.02 340.483 1052.4 340.101 1052.4 339.719C1052.4 339.337 1052.02 338.955 1051.64 338.955C1051.26 338.955 1050.87 339.146 1050.87 339.719Z" fill="#DBD57A"/>
<path d="M1012.85 334.751C1012.85 335.324 1013.43 335.897 1014 335.897C1014.57 335.897 1015.14 335.324 1015.14 334.751C1015.14 334.178 1014.57 333.605 1014 333.605C1013.23 333.796 1012.85 334.178 1012.85 334.751Z" fill="#FFFF98"/>
<path d="M928.209 337.235C928.209 337.999 928.973 338.764 929.737 338.764C930.502 338.764 931.266 337.999 931.266 337.235C931.266 336.471 930.502 335.706 929.737 335.706C928.782 335.706 928.209 336.28 928.209 337.235Z" fill="#92803D"/>
<path d="M910.057 326.344C910.057 326.917 910.439 327.299 911.013 327.299C911.586 327.299 911.968 326.917 911.968 326.344C911.968 325.771 911.586 325.389 911.013 325.389C910.439 325.198 910.057 325.771 910.057 326.344Z" fill="#DBD57A"/>
<path d="M820.446 347.744C820.446 348.317 820.828 348.699 821.402 348.699C821.975 348.699 822.357 348.317 822.357 347.744C822.357 347.17 821.975 346.788 821.402 346.788C820.828 346.788 820.446 347.362 820.446 347.744Z" fill="#B7AA5B"/>
<path d="M767.138 355.195C767.138 355.769 767.712 356.342 768.285 356.342C768.858 356.342 769.431 355.769 769.431 355.195C769.431 354.622 768.858 354.049 768.285 354.049C767.712 354.049 767.138 354.622 767.138 355.195Z" fill="#B7AA5B"/>
<path d="M728.16 341.821C728.16 342.585 728.734 343.158 729.498 343.158C730.262 343.158 730.835 342.585 730.835 341.821C730.835 341.056 730.262 340.483 729.498 340.483C728.734 340.483 728.16 341.056 728.16 341.821Z" fill="#DBD57A"/>
<path d="M670.649 320.039C670.649 320.612 671.222 321.185 671.795 321.185C672.369 321.185 672.942 320.612 672.942 320.039C672.942 319.466 672.369 318.892 671.795 318.892C671.222 318.701 670.649 319.275 670.649 320.039Z" fill="#6E551E"/>
<path d="M658.038 341.247C658.038 341.821 658.421 342.203 658.994 342.203C659.567 342.203 659.949 341.821 659.949 341.247C659.949 340.674 659.567 340.292 658.994 340.292C658.421 340.292 658.038 340.674 658.038 341.247Z" fill="#DBD57A"/>
<path d="M545.69 369.334C545.69 370.29 546.455 371.054 547.41 371.054C548.365 371.054 549.13 370.29 549.13 369.334C549.13 368.379 548.365 367.615 547.41 367.615C546.455 367.615 545.69 368.379 545.69 369.334Z" fill="#92803D"/>
<path d="M537.666 338.764C537.666 339.146 538.048 339.528 538.43 339.528C538.812 339.528 539.194 339.146 539.194 338.764C539.194 338.381 538.812 337.999 538.43 337.999C538.048 337.999 537.666 338.381 537.666 338.764Z" fill="#FFFF98"/>
<path d="M468.117 360.354C468.117 360.736 468.499 361.118 468.881 361.118C469.263 361.118 469.645 360.736 469.645 360.354C469.645 359.972 469.263 359.59 468.881 359.59C468.499 359.59 468.117 359.972 468.117 360.354Z" fill="#FFFF98"/>
<path d="M375.067 323.478C375.067 324.242 375.64 324.624 376.213 324.624C376.786 324.624 377.359 324.051 377.359 323.478C377.359 322.714 376.786 322.332 376.213 322.332C375.64 322.332 375.067 322.714 375.067 323.478Z" fill="#DBD57A"/>
<path d="M343.923 300.168C343.923 300.741 344.305 301.123 344.878 301.123C345.451 301.123 345.833 300.741 345.833 300.168C345.833 299.595 345.451 299.212 344.878 299.212C344.305 299.212 343.923 299.595 343.923 300.168Z" fill="#6E551E"/>
<path d="M299.213 306.091C299.213 306.473 299.404 306.664 299.786 306.664C300.168 306.664 300.359 306.473 300.359 306.091C300.359 305.709 300.168 305.518 299.786 305.518C299.595 305.518 299.213 305.709 299.213 306.091Z" fill="#B7AA5B"/>
<path d="M265.967 334.178C265.967 335.324 266.922 336.28 268.068 336.28C269.215 336.28 270.17 335.324 270.17 334.178C270.17 333.031 269.215 332.076 268.068 332.076C266.922 332.076 265.967 333.031 265.967 334.178Z" fill="#B7AA5B"/>
<path d="M139.48 319.657C139.48 320.421 140.053 321.185 141.008 321.185C141.773 321.185 142.537 320.612 142.537 319.657C142.537 318.892 141.964 318.128 141.008 318.128C140.244 318.128 139.48 318.892 139.48 319.657Z" fill="#92803D"/>
<path d="M58.849 340.292C58.849 340.865 59.2311 341.247 59.8043 341.247C60.1864 341.247 60.7596 340.865 60.7596 340.292C60.7596 339.91 60.3775 339.337 59.8043 339.337C59.2311 339.337 58.849 339.719 58.849 340.292Z" fill="#92803D"/>
<path d="M1253.98 264.82C1253.98 265.393 1254.55 265.967 1255.13 265.967C1255.7 265.967 1256.27 265.393 1256.27 264.82C1256.27 264.247 1255.7 263.674 1255.13 263.674C1254.55 263.674 1253.98 264.247 1253.98 264.82Z" fill="#92803D"/>
<path d="M1204.11 300.359C1204.11 300.932 1204.49 301.314 1205.07 301.314C1205.64 301.314 1206.02 300.932 1206.02 300.359C1206.02 299.786 1205.64 299.404 1205.07 299.404C1204.68 299.404 1204.11 299.786 1204.11 300.359Z" fill="#92803D"/>
<path d="M1162.65 257.942C1162.65 258.515 1163.03 258.897 1163.6 258.897C1164.18 258.897 1164.56 258.515 1164.56 257.942C1164.56 257.369 1164.18 256.986 1163.6 256.986C1163.03 256.986 1162.65 257.369 1162.65 257.942Z" fill="#B7AA5B"/>
<path d="M1114.5 276.475C1114.5 277.24 1115.07 277.813 1115.84 277.813C1116.6 277.813 1117.17 277.24 1117.17 276.475C1117.17 275.711 1116.6 275.138 1115.84 275.138C1115.07 275.138 1114.5 275.711 1114.5 276.475Z" fill="#B7AA5B"/>
<path d="M1064.82 245.522C1064.82 245.904 1065.2 246.287 1065.59 246.287C1065.97 246.287 1066.35 245.904 1066.35 245.522C1066.35 245.14 1065.97 244.758 1065.59 244.758C1065.2 244.758 1064.82 245.14 1064.82 245.522Z" fill="#B7AA5B"/>
<path d="M1004.64 284.882C1004.64 285.838 1005.4 286.602 1006.36 286.602C1007.31 286.602 1008.08 285.838 1008.08 284.882C1008.08 283.927 1007.31 283.163 1006.36 283.163C1005.4 283.163 1004.64 283.927 1004.64 284.882Z" fill="#92803D"/>
<path d="M945.787 265.776C945.787 266.158 946.169 266.54 946.551 266.54C946.933 266.54 947.315 266.158 947.315 265.776C947.315 265.393 946.933 265.011 946.551 265.011C946.36 265.011 945.787 265.393 945.787 265.776Z" fill="#6E551E"/>
<path d="M880.251 281.825C880.251 282.398 880.633 282.781 881.206 282.781C881.779 282.781 882.161 282.398 882.161 281.825C882.161 281.252 881.779 280.87 881.206 280.87C880.633 280.87 880.251 281.252 880.251 281.825Z" fill="#B7AA5B"/>
<path d="M804.397 269.406C804.397 269.979 804.97 270.552 805.543 270.552C806.116 270.552 806.689 269.979 806.689 269.406C806.689 268.833 806.116 268.259 805.543 268.259C804.97 268.259 804.397 268.833 804.397 269.406Z" fill="#DBD57A"/>
<path d="M778.602 305.709C778.602 306.473 779.176 307.237 780.131 307.237C780.895 307.237 781.659 306.664 781.659 305.709C781.659 304.944 781.086 304.18 780.131 304.18C779.176 304.18 778.602 304.753 778.602 305.709Z" fill="#6E551E"/>
<path d="M756.438 282.016C756.438 282.59 756.821 282.972 757.394 282.972C757.967 282.972 758.349 282.59 758.349 282.016C758.349 281.443 757.967 281.061 757.394 281.061C756.821 281.061 756.438 281.443 756.438 282.016Z" fill="#92803D"/>
<path d="M680.776 252.21C680.776 252.783 681.158 253.165 681.731 253.165C682.304 253.165 682.686 252.783 682.686 252.21C682.686 251.637 682.304 251.254 681.731 251.254C681.158 251.254 680.776 251.828 680.776 252.21Z" fill="#DBD57A"/>
<path d="M603.966 313.16C603.966 313.925 604.539 314.307 605.113 314.307C605.877 314.307 606.259 313.734 606.259 313.16C606.259 312.396 605.686 312.014 605.113 312.014C604.539 311.823 603.966 312.396 603.966 313.16Z" fill="#B7AA5B"/>
<path d="M570.529 280.297C570.529 280.87 571.102 281.443 571.676 281.443C572.249 281.443 572.822 280.87 572.822 280.297C572.822 279.723 572.249 279.15 571.676 279.15C570.911 279.15 570.529 279.723 570.529 280.297Z" fill="#FFFF98"/>
<path d="M548.939 266.54C548.939 267.113 549.512 267.686 550.085 267.686C550.658 267.686 551.231 267.113 551.231 266.54C551.231 265.967 550.658 265.393 550.085 265.393C549.321 265.393 548.939 265.776 548.939 266.54Z" fill="#DBD57A"/>
<path d="M462.958 278.577C462.958 279.15 463.34 279.532 463.913 279.532C464.486 279.532 464.869 279.15 464.869 278.577C464.869 278.004 464.486 277.622 463.913 277.622C463.34 277.431 462.958 278.004 462.958 278.577Z" fill="#B7AA5B"/>
<path d="M397.422 300.168C397.422 300.741 397.804 301.123 398.377 301.123C398.95 301.123 399.332 300.741 399.332 300.168C399.332 299.595 398.95 299.212 398.377 299.212C397.804 299.403 397.422 299.786 397.422 300.168Z" fill="#DBD57A"/>
<path d="M388.25 271.125C388.25 271.699 388.824 272.272 389.397 272.272C389.97 272.272 390.543 271.699 390.543 271.125C390.543 270.552 389.97 269.979 389.397 269.979C388.824 269.979 388.25 270.552 388.25 271.125Z" fill="#DBD57A"/>
<path d="M283.927 292.716C283.927 293.48 284.5 294.054 285.265 294.054C286.029 294.054 286.602 293.48 286.602 292.716C286.602 291.952 286.029 291.379 285.265 291.379C284.691 291.379 283.927 291.952 283.927 292.716Z" fill="#DBD57A"/>
<path d="M279.915 269.024C279.915 269.597 280.488 270.17 281.061 270.17C281.634 270.17 282.208 269.597 282.208 269.024C282.208 268.451 281.634 267.877 281.061 267.877C280.488 267.877 279.915 268.451 279.915 269.024Z" fill="#FFFF98"/>
<path d="M161.835 265.202C161.835 266.158 162.599 266.731 163.363 266.731C164.319 266.731 164.892 265.967 164.892 265.202C164.892 264.247 164.127 263.674 163.363 263.674C162.408 263.674 161.835 264.438 161.835 265.202Z" fill="#92803D"/>
<path d="M146.931 313.543C146.931 314.116 147.313 314.498 147.887 314.498C148.46 314.498 148.842 314.116 148.842 313.543C148.842 312.969 148.46 312.587 147.887 312.587C147.505 312.396 146.931 312.969 146.931 313.543Z" fill="#92803D"/>
<path d="M117.125 267.304C117.125 267.877 117.507 268.259 118.08 268.259C118.653 268.259 119.035 267.877 119.035 267.304C119.035 266.731 118.653 266.349 118.08 266.349C117.507 266.349 117.125 266.731 117.125 267.304Z" fill="#6E551E"/>
<path d="M1245.19 266.54C1245.19 267.304 1245.76 267.877 1246.53 267.877C1247.29 267.877 1247.87 267.304 1247.87 266.54C1247.87 265.776 1247.29 265.202 1246.53 265.202C1245.76 265.202 1245.19 265.776 1245.19 266.54Z" fill="#FFFF98"/>
<path d="M1237.55 252.783C1237.55 253.356 1237.93 253.738 1238.5 253.738C1239.08 253.738 1239.46 253.356 1239.46 252.783C1239.46 252.21 1239.08 251.828 1238.5 251.828C1238.12 251.828 1237.55 252.21 1237.55 252.783Z" fill="#FFFF98"/>
<path d="M1165.52 240.364C1165.52 240.746 1165.9 241.128 1166.28 241.128C1166.66 241.128 1167.04 240.746 1167.04 240.364C1167.04 239.981 1166.66 239.599 1166.28 239.599C1165.9 239.599 1165.52 239.981 1165.52 240.364Z" fill="#92803D"/>
<path d="M1091.76 257.56C1091.76 258.515 1092.53 259.088 1093.29 259.088C1094.25 259.088 1094.82 258.324 1094.82 257.56C1094.82 256.604 1094.06 256.031 1093.29 256.031C1092.53 256.031 1091.76 256.795 1091.76 257.56Z" fill="#6E551E"/>
<path d="M1029.86 256.413C1029.86 257.177 1030.43 257.751 1031.19 257.751C1031.96 257.751 1032.53 257.177 1032.53 256.413C1032.53 255.649 1031.96 255.076 1031.19 255.076C1030.62 254.885 1029.86 255.649 1029.86 256.413Z" fill="#B7AA5B"/>
<path d="M1015.53 194.507C1015.53 194.889 1015.91 195.271 1016.29 195.271C1016.67 195.271 1017.06 194.889 1017.06 194.507C1017.06 194.125 1016.67 193.743 1016.29 193.743C1015.91 193.743 1015.53 194.125 1015.53 194.507Z" fill="#92803D"/>
<path d="M959.544 226.798C959.544 227.18 959.926 227.562 960.308 227.562C960.69 227.562 961.072 227.18 961.072 226.798C961.072 226.416 960.69 226.033 960.308 226.033C959.926 226.033 959.544 226.416 959.544 226.798Z" fill="#B7AA5B"/>
<path d="M852.737 230.619C852.737 231.192 853.31 231.765 853.883 231.765C854.456 231.765 855.03 231.192 855.03 230.619C855.03 230.046 854.456 229.473 853.883 229.473C853.31 229.473 852.737 230.046 852.737 230.619Z" fill="#FFFF98"/>
<path d="M838.789 253.165C838.789 254.12 839.553 254.694 840.317 254.694C841.273 254.694 841.846 253.929 841.846 253.165C841.846 252.21 841.082 251.636 840.317 251.636C839.553 251.636 838.789 252.21 838.789 253.165Z" fill="#B7AA5B"/>
<path d="M772.106 257.178C772.106 257.751 772.488 258.133 773.061 258.133C773.635 258.133 774.017 257.751 774.017 257.178C774.017 256.604 773.635 256.222 773.061 256.222C772.488 256.222 772.106 256.604 772.106 257.178Z" fill="#B7AA5B"/>
<path d="M758.922 243.994C758.922 244.567 759.496 245.14 760.069 245.14C760.642 245.14 761.215 244.567 761.215 243.994C761.215 243.421 760.642 242.847 760.069 242.847C759.304 242.847 758.922 243.421 758.922 243.994Z" fill="#92803D"/>
<path d="M673.897 238.835C673.897 239.408 674.279 239.79 674.852 239.79C675.426 239.79 675.808 239.408 675.808 238.835C675.808 238.262 675.426 237.88 674.852 237.88C674.279 238.071 673.897 238.453 673.897 238.835Z" fill="#DBD57A"/>
<path d="M625.366 266.349C625.366 267.113 625.939 267.686 626.703 267.686C627.468 267.686 628.041 267.113 628.041 266.349C628.041 265.584 627.468 265.011 626.703 265.011C625.939 265.011 625.366 265.584 625.366 266.349Z" fill="#B7AA5B"/>
<path d="M555.626 250.681C555.626 251.637 556.39 252.592 557.537 252.592C558.683 252.592 559.447 251.828 559.447 250.681C559.447 249.726 558.683 248.771 557.537 248.771C556.39 248.771 555.626 249.535 555.626 250.681Z" fill="#92803D"/>
<path d="M529.067 250.872C529.067 251.445 529.45 251.828 530.023 251.828C530.596 251.828 530.978 251.445 530.978 250.872C530.978 250.299 530.596 249.917 530.023 249.917C529.45 249.917 529.067 250.299 529.067 250.872Z" fill="#DBD57A"/>
<path d="M469.836 224.887C469.836 225.46 470.41 226.033 470.983 226.033C471.556 226.033 472.129 225.46 472.129 224.887C472.129 224.314 471.556 223.741 470.983 223.741C470.41 223.741 469.836 224.123 469.836 224.887Z" fill="#DBD57A"/>
<path d="M393.409 228.708C393.409 229.281 393.982 229.855 394.556 229.855C395.129 229.855 395.702 229.281 395.702 228.708C395.702 228.135 395.129 227.562 394.556 227.562C393.791 227.562 393.409 228.135 393.409 228.708Z" fill="#B7AA5B"/>
<path d="M366.66 222.403C366.66 223.167 367.233 223.55 367.806 223.55C368.57 223.55 368.952 222.976 368.952 222.403C368.952 221.639 368.379 221.257 367.806 221.257C367.233 221.257 366.66 221.83 366.66 222.403Z" fill="#92803D"/>
<path d="M282.399 242.083C282.399 242.656 282.972 243.23 283.545 243.23C284.118 243.23 284.691 242.656 284.691 242.083C284.691 241.51 284.118 240.937 283.545 240.937C282.781 240.937 282.399 241.51 282.399 242.083Z" fill="#DBD57A"/>
<path d="M250.108 233.103C250.108 233.676 250.681 234.249 251.254 234.249C251.828 234.249 252.401 233.676 252.401 233.103C252.401 232.53 251.828 231.957 251.254 231.957C250.681 231.957 250.108 232.53 250.108 233.103Z" fill="#92803D"/>
<path d="M209.22 255.267C209.22 255.84 209.602 256.222 210.175 256.222C210.748 256.222 211.13 255.84 211.13 255.267C211.13 254.694 210.748 254.312 210.175 254.312C209.602 254.312 209.22 254.694 209.22 255.267Z" fill="#6E551E"/>
<path d="M120.373 259.852C120.373 260.426 120.946 260.999 121.519 260.999C122.092 260.999 122.666 260.426 122.666 259.852C122.666 259.279 122.092 258.706 121.519 258.706C120.946 258.897 120.373 259.279 120.373 259.852Z" fill="#FFFF98"/>
<path d="M70.313 211.894C70.313 212.468 70.8863 213.041 71.4595 213.041C72.0327 213.041 72.6059 212.468 72.6059 211.894C72.6059 211.321 72.0327 210.748 71.4595 210.748C70.8863 210.748 70.313 211.13 70.313 211.894Z" fill="#DBD57A"/>
<path d="M46.4295 215.716C46.4295 216.48 47.0027 217.053 47.767 217.053C48.5313 217.053 49.1045 216.48 49.1045 215.716C49.1045 214.951 48.5313 214.378 47.767 214.378C47.0027 214.378 46.4295 215.142 46.4295 215.716Z" fill="#DBD57A"/>
<path d="M1258.18 186.1C1258.18 186.673 1258.57 187.056 1259.14 187.056C1259.71 187.056 1260.09 186.673 1260.09 186.1C1260.09 185.527 1259.71 185.145 1259.14 185.145C1258.57 185.145 1258.18 185.527 1258.18 186.1Z" fill="#DBD57A"/>
<path d="M1191.12 220.301C1191.12 220.875 1191.69 221.448 1192.26 221.448C1192.84 221.448 1193.41 220.875 1193.41 220.301C1193.41 219.728 1192.84 219.155 1192.26 219.155C1191.69 219.155 1191.12 219.728 1191.12 220.301Z" fill="#FFFF98"/>
<path d="M1146.22 166.993C1146.22 167.376 1146.6 167.758 1146.98 167.758C1147.36 167.758 1147.75 167.376 1147.75 166.993C1147.75 166.611 1147.36 166.229 1146.98 166.229C1146.41 166.038 1146.22 166.42 1146.22 166.993Z" fill="#DBD57A"/>
<path d="M1111.83 188.966C1111.83 189.73 1112.4 190.304 1113.16 190.304C1113.93 190.304 1114.5 189.73 1114.5 188.966C1114.5 188.202 1113.93 187.629 1113.16 187.629C1112.4 187.629 1111.83 188.202 1111.83 188.966Z" fill="#FFFF98"/>
<path d="M1044.19 177.12C1044.19 177.884 1044.95 178.649 1045.72 178.649C1046.48 178.649 1047.24 177.884 1047.24 177.12C1047.24 176.356 1046.48 175.591 1045.72 175.591C1044.76 175.591 1044.19 176.356 1044.19 177.12Z" fill="#DBD57A"/>
<path d="M1015.34 196.609C1015.34 197.182 1015.72 197.564 1016.29 197.564C1016.86 197.564 1017.25 197.182 1017.25 196.609C1017.25 196.036 1016.86 195.654 1016.29 195.654C1015.72 195.462 1015.34 196.036 1015.34 196.609Z" fill="#6E551E"/>
<path d="M937.762 193.361C937.762 193.743 938.144 194.125 938.526 194.125C938.909 194.125 939.291 193.743 939.291 193.361C939.291 192.979 938.909 192.597 938.526 192.597C938.144 192.597 937.762 192.979 937.762 193.361Z" fill="#DBD57A"/>
<path d="M894.199 190.113C894.199 190.495 894.581 190.877 894.963 190.877C895.345 190.877 895.727 190.495 895.727 190.113C895.727 189.731 895.345 189.348 894.963 189.348C894.581 189.348 894.199 189.731 894.199 190.113Z" fill="#B7AA5B"/>
<path d="M825.223 175.782C825.223 176.738 825.987 177.502 826.943 177.502C827.898 177.502 828.662 176.738 828.662 175.782C828.662 174.827 827.898 174.063 826.943 174.063C826.178 174.063 825.223 174.827 825.223 175.782Z" fill="#B7AA5B"/>
<path d="M774.208 173.49C774.208 174.063 774.781 174.636 775.354 174.636C775.927 174.636 776.501 174.063 776.501 173.49C776.501 172.916 775.927 172.343 775.354 172.343C774.59 172.343 774.208 172.916 774.208 173.49Z" fill="#92803D"/>
<path d="M744.21 178.84C744.21 179.604 744.783 180.177 745.548 180.177C746.312 180.177 746.885 179.604 746.885 178.84C746.885 178.075 746.312 177.502 745.548 177.502C744.783 177.502 744.21 178.075 744.21 178.84Z" fill="#FFFF98"/>
<path d="M649.822 208.073C649.822 209.028 650.587 209.793 651.542 209.793C652.497 209.793 653.262 209.028 653.262 208.073C653.262 207.118 652.497 206.353 651.542 206.353C650.587 206.353 649.822 207.118 649.822 208.073Z" fill="#92803D"/>
<path d="M625.366 168.904C625.366 169.286 625.748 169.668 626.13 169.668C626.512 169.668 626.894 169.286 626.894 168.904C626.894 168.522 626.512 168.14 626.13 168.14C625.557 168.14 625.366 168.522 625.366 168.904Z" fill="#DBD57A"/>
<path d="M556.581 187.629C556.581 188.202 556.963 188.584 557.537 188.584C558.11 188.584 558.492 188.202 558.492 187.629C558.492 187.055 558.11 186.673 557.537 186.673C557.154 186.673 556.581 187.055 556.581 187.629Z" fill="#DBD57A"/>
<path d="M505.948 179.795C505.948 180.559 506.521 180.941 507.095 180.941C507.668 180.941 508.241 180.368 508.241 179.795C508.241 179.031 507.668 178.649 507.095 178.649C506.521 178.649 505.948 179.222 505.948 179.795Z" fill="#92803D"/>
<path d="M450.347 195.654C450.347 196.227 450.921 196.8 451.494 196.8C452.067 196.8 452.64 196.227 452.64 195.654C452.64 195.08 452.067 194.507 451.494 194.507C450.921 194.507 450.347 195.08 450.347 195.654Z" fill="#DBD57A"/>
<path d="M386.722 188.775C386.722 189.73 387.486 190.304 388.25 190.304C389.206 190.304 389.779 189.539 389.779 188.775C389.779 188.011 389.015 187.247 388.25 187.247C387.295 187.247 386.722 188.011 386.722 188.775Z" fill="#FFFF98"/>
<path d="M377.168 162.026C377.168 162.981 377.933 163.936 379.079 163.936C380.225 163.936 380.99 163.172 380.99 162.026C380.99 161.07 380.225 160.115 379.079 160.115C377.933 160.115 377.168 161.07 377.168 162.026Z" fill="#6E551E"/>
<path d="M286.029 169.477C286.029 170.624 286.984 171.388 287.94 171.388C289.086 171.388 289.85 170.433 289.85 169.477C289.85 168.331 288.895 167.567 287.94 167.567C286.793 167.567 286.029 168.331 286.029 169.477Z" fill="#DBD57A"/>
<path d="M249.153 192.597C249.153 192.979 249.344 193.17 249.726 193.17C250.108 193.17 250.299 192.979 250.299 192.597C250.299 192.214 250.108 192.023 249.726 192.023C249.535 192.023 249.153 192.405 249.153 192.597Z" fill="#92803D"/>
<path d="M167.185 215.334C167.185 216.098 167.758 216.671 168.522 216.671C169.286 216.671 169.86 216.098 169.86 215.334C169.86 214.569 169.286 213.996 168.522 213.996C167.758 213.996 167.185 214.569 167.185 215.334Z" fill="#DBD57A"/>
<path d="M126.678 199.666C126.678 200.621 127.442 201.195 128.207 201.195C129.162 201.195 129.735 200.43 129.735 199.666C129.735 198.711 128.971 198.138 128.207 198.138C127.251 197.946 126.678 198.711 126.678 199.666Z" fill="#92803D"/>
<path d="M85.9806 186.1C85.9806 186.673 86.5538 187.247 87.127 187.247C87.7002 187.247 88.2734 186.673 88.2734 186.1C88.2734 185.527 87.7002 184.954 87.127 184.954C86.3628 184.954 85.9806 185.527 85.9806 186.1Z" fill="#DBD57A"/>
<path d="M66.6828 194.316C66.6828 195.271 67.447 196.036 68.4024 196.036C69.3577 196.036 70.122 195.271 70.122 194.316C70.122 193.361 69.3577 192.597 68.4024 192.597C67.256 192.788 66.6828 193.361 66.6828 194.316Z" fill="#92803D"/>
<path d="M1320.28 160.497C1320.28 160.879 1320.66 161.261 1321.04 161.261C1321.43 161.261 1321.81 160.879 1321.81 160.497C1321.81 160.115 1321.43 159.733 1321.04 159.733C1320.66 159.733 1320.28 160.115 1320.28 160.497Z" fill="#B7AA5B"/>
<path d="M1284.93 157.822C1284.93 158.586 1285.51 159.16 1286.27 159.16C1287.03 159.16 1287.61 158.586 1287.61 157.822C1287.61 157.058 1287.03 156.485 1286.27 156.485C1285.51 156.485 1284.93 157.249 1284.93 157.822Z" fill="#DBD57A"/>
<path d="M1248.25 135.467C1248.25 136.04 1248.63 136.614 1249.39 136.614C1249.97 136.614 1250.54 136.231 1250.54 135.467C1250.54 134.894 1250.16 134.512 1249.39 134.512C1248.82 134.512 1248.25 134.894 1248.25 135.467Z" fill="#DBD57A"/>
<path d="M1138.77 154.956C1138.77 155.529 1139.34 156.103 1139.91 156.103C1140.49 156.103 1141.06 155.529 1141.06 154.956C1141.06 154.383 1140.49 153.81 1139.91 153.81C1139.15 153.81 1138.77 154.383 1138.77 154.956Z" fill="#92803D"/>
<path d="M1115.84 135.658C1115.84 136.423 1116.41 136.996 1117.18 136.996C1117.94 136.996 1118.51 136.423 1118.51 135.658C1118.51 134.894 1117.94 134.321 1117.18 134.321C1116.41 134.321 1115.84 134.894 1115.84 135.658Z" fill="#DBD57A"/>
<path d="M1057.75 136.614C1057.75 137.378 1058.33 138.142 1059.28 138.142C1060.24 138.142 1060.81 137.569 1060.81 136.614C1060.81 135.849 1060.24 135.085 1059.28 135.085C1058.33 135.085 1057.75 135.849 1057.75 136.614Z" fill="#DBD57A"/>
<path d="M1015.34 134.703C1015.34 135.085 1015.72 135.467 1016.1 135.467C1016.48 135.467 1016.86 135.085 1016.86 134.703C1016.86 134.321 1016.48 133.939 1016.1 133.939C1015.53 133.939 1015.34 134.321 1015.34 134.703Z" fill="#DBD57A"/>
<path d="M956.678 135.085C956.678 135.658 957.06 136.04 957.633 136.04C958.206 136.04 958.589 135.658 958.589 135.085C958.589 134.512 958.206 134.13 957.633 134.13C957.06 133.939 956.678 134.512 956.678 135.085Z" fill="#DBD57A"/>
<path d="M907 169.477C907 169.859 907.382 170.242 907.764 170.242C908.147 170.242 908.529 169.859 908.529 169.477C908.529 169.095 908.147 168.713 907.764 168.713C907.382 168.713 907 169.095 907 169.477Z" fill="#B7AA5B"/>
<path d="M854.647 126.678C854.647 127.633 855.412 128.398 856.367 128.398C857.322 128.398 858.087 127.633 858.087 126.678C858.087 125.723 857.322 124.958 856.367 124.958C855.603 124.958 854.647 125.723 854.647 126.678Z" fill="#6E551E"/>
<path d="M803.25 146.931C803.25 147.696 803.823 148.46 804.779 148.46C805.543 148.46 806.307 147.887 806.307 146.931C806.307 146.167 805.734 145.403 804.779 145.403C804.014 145.403 803.25 146.167 803.25 146.931Z" fill="#B7AA5B"/>
<path d="M747.076 163.363C747.076 163.936 747.458 164.318 748.031 164.318C748.605 164.318 748.987 163.936 748.987 163.363C748.987 162.79 748.605 162.408 748.031 162.408C747.458 162.408 747.076 162.79 747.076 163.363Z" fill="#92803D"/>
<path d="M677.719 167.184C677.719 168.14 678.483 168.713 679.247 168.713C680.202 168.713 680.776 167.949 680.776 167.184C680.776 166.229 680.011 165.656 679.247 165.656C678.483 165.465 677.719 166.229 677.719 167.184Z" fill="#B7AA5B"/>
<path d="M619.061 129.735C619.061 130.69 619.825 131.264 620.589 131.264C621.544 131.264 622.118 130.499 622.118 129.735C622.118 128.78 621.353 128.207 620.589 128.207C619.825 128.207 619.061 128.971 619.061 129.735Z" fill="#DBD57A"/>
<path d="M559.065 175.974C559.065 176.356 559.256 176.547 559.638 176.547C560.021 176.547 560.212 176.356 560.212 175.974C560.212 175.591 560.021 175.4 559.638 175.4C559.256 175.4 559.065 175.591 559.065 175.974Z" fill="#92803D"/>
<path d="M543.971 142.155C543.971 142.537 544.353 142.919 544.735 142.919C545.117 142.919 545.499 142.537 545.499 142.155C545.499 141.772 545.117 141.39 544.735 141.39C544.353 141.39 543.971 141.581 543.971 142.155Z" fill="#6E551E"/>
<path d="M452.067 158.586C452.067 158.969 452.258 159.16 452.64 159.16C453.022 159.16 453.213 158.969 453.213 158.586C453.213 158.204 453.022 158.013 452.64 158.013C452.258 158.013 452.067 158.204 452.067 158.586Z" fill="#92803D"/>
<path d="M422.069 154.956C422.069 155.529 422.643 156.103 423.216 156.103C423.789 156.103 424.362 155.529 424.362 154.956C424.362 154.383 423.789 153.81 423.216 153.81C422.643 153.81 422.069 154.383 422.069 154.956Z" fill="#92803D"/>
<path d="M327.3 153.428C327.3 154.383 328.064 155.147 329.019 155.147C329.975 155.147 330.739 154.383 330.739 153.428C330.739 152.472 329.975 151.708 329.019 151.708C328.064 151.517 327.3 152.472 327.3 153.428Z" fill="#DBD57A"/>
<path d="M328.064 140.244C328.064 141.199 328.828 141.964 329.784 141.964C330.739 141.964 331.503 141.199 331.503 140.244C331.503 139.289 330.739 138.524 329.784 138.524C328.828 138.524 328.064 139.289 328.064 140.244Z" fill="#92803D"/>
<path d="M239.217 131.837C239.217 132.41 239.79 132.983 240.364 132.983C240.937 132.983 241.51 132.41 241.51 131.837C241.51 131.264 240.937 130.69 240.364 130.69C239.79 130.69 239.217 131.073 239.217 131.837Z" fill="#B7AA5B"/>
<path d="M183.043 109.864C183.043 110.437 183.616 111.01 184.19 111.01C184.763 111.01 185.336 110.437 185.336 109.864C185.336 109.291 184.763 108.718 184.19 108.718C183.425 108.909 183.043 109.291 183.043 109.864Z" fill="#FFFF98"/>
<path d="M141.772 104.323C141.772 105.087 142.346 105.661 143.11 105.661C143.874 105.661 144.447 105.087 144.447 104.323C144.447 103.559 143.874 102.986 143.11 102.986C142.346 102.986 141.772 103.559 141.772 104.323Z" fill="#92803D"/>
<path d="M76.4272 119.609C76.4272 120.182 76.8094 120.564 77.3826 120.564C77.9558 120.564 78.3379 120.182 78.3379 119.609C78.3379 119.035 77.9558 118.653 77.3826 118.653C76.8094 118.653 76.4272 119.035 76.4272 119.609Z" fill="#92803D"/>
<path d="M27.1317 151.326C27.1317 151.899 27.5138 152.281 28.087 152.281C28.6602 152.281 29.0423 151.899 29.0423 151.326C29.0423 150.753 28.6602 150.37 28.087 150.37C27.5138 150.37 27.1317 150.753 27.1317 151.326Z" fill="#92803D"/>
<path d="M1215.58 92.4769C1215.58 93.4323 1216.34 94.0055 1217.1 94.0055C1217.87 94.0055 1218.63 93.2412 1218.63 92.4769C1218.63 91.5216 1217.87 90.9484 1217.1 90.9484C1216.34 90.9484 1215.58 91.5216 1215.58 92.4769Z" fill="#92803D"/>
<path d="M1160.74 108.336C1160.74 109.1 1161.31 109.673 1162.08 109.673C1162.84 109.673 1163.41 109.1 1163.41 108.336C1163.41 107.571 1162.84 106.998 1162.08 106.998C1161.31 106.998 1160.74 107.762 1160.74 108.336Z" fill="#FFFF98"/>
<path d="M1093.48 102.604C1093.48 103.177 1093.86 103.559 1094.44 103.559C1095.01 103.559 1095.39 103.177 1095.39 102.604C1095.39 102.03 1095.01 101.648 1094.44 101.648C1093.86 101.839 1093.48 102.221 1093.48 102.604Z" fill="#6E551E"/>
<path d="M1068.83 101.457C1068.83 101.839 1069.22 102.221 1069.6 102.221C1069.98 102.221 1070.36 101.839 1070.36 101.457C1070.36 101.075 1069.98 100.693 1069.6 100.693C1069.22 100.693 1068.83 101.075 1068.83 101.457Z" fill="#6E551E"/>
<path d="M983.81 86.936C983.81 87.5092 984.383 88.0824 984.956 88.0824C985.529 88.0824 986.102 87.5092 986.102 86.936C986.102 86.3628 985.529 85.7896 984.956 85.7896C984.192 85.7896 983.81 86.1717 983.81 86.936Z" fill="#92803D"/>
<path d="M950.564 91.1394C950.564 92.0948 951.328 92.668 952.092 92.668C953.048 92.668 953.621 91.9037 953.621 91.1394C953.621 90.1841 952.856 89.6109 952.092 89.6109C951.328 89.4198 950.564 90.1841 950.564 91.1394Z" fill="#92803D"/>
<path d="M890.377 72.988C890.377 73.5612 890.95 74.1344 891.524 74.1344C892.097 74.1344 892.67 73.5612 892.67 72.988C892.67 72.4148 892.097 71.8416 891.524 71.8416C890.95 71.8416 890.377 72.4148 890.377 72.988Z" fill="#B7AA5B"/>
<path d="M843.757 66.1096C843.757 66.8738 844.33 67.447 845.094 67.447C845.858 67.447 846.432 66.8738 846.432 66.1096C846.432 65.3453 845.858 64.7721 845.094 64.7721C844.33 64.7721 843.757 65.3453 843.757 66.1096Z" fill="#92803D"/>
<path d="M762.17 87.127C762.17 88.0823 762.935 88.8466 763.89 88.8466C764.845 88.8466 765.61 88.0823 765.61 87.127C765.61 86.1716 764.845 85.4073 763.89 85.4073C762.935 85.4073 762.17 86.1716 762.17 87.127Z" fill="#B7AA5B"/>
<path d="M701.602 70.5041C701.602 71.4595 702.366 72.0327 703.131 72.0327C703.895 72.0327 704.659 71.2684 704.659 70.5041C704.659 69.5488 703.895 68.9756 703.131 68.9756C702.366 68.9756 701.602 69.5488 701.602 70.5041Z" fill="#FFFF98"/>
<path d="M666.445 83.1145C666.445 83.6877 667.019 84.2609 667.592 84.2609C668.165 84.2609 668.738 83.6877 668.738 83.1145C668.738 82.5413 668.165 81.9681 667.592 81.9681C667.019 81.9681 666.445 82.3503 666.445 83.1145Z" fill="#FFFF98"/>
<path d="M599.954 66.4916C599.954 67.0648 600.527 67.638 601.1 67.638C601.673 67.638 602.247 67.0648 602.247 66.4916C602.247 65.9184 601.673 65.3452 601.1 65.3452C600.527 65.3452 599.954 65.7273 599.954 66.4916Z" fill="#FFFF98"/>
<path d="M573.204 80.6306C573.204 81.586 573.968 82.3502 574.924 82.3502C575.879 82.3502 576.643 81.586 576.643 80.6306C576.643 79.6753 575.879 78.911 574.924 78.911C573.968 79.1021 573.204 79.8664 573.204 80.6306Z" fill="#92803D"/>
<path d="M536.519 105.469C536.519 105.852 536.901 106.234 537.283 106.234C537.666 106.234 538.048 105.852 538.048 105.469C538.048 105.087 537.666 104.705 537.283 104.705C536.71 104.705 536.519 105.087 536.519 105.469Z" fill="#DBD57A"/>
<path d="M452.449 81.9682C452.449 82.5414 452.831 83.1146 453.596 83.1146C454.36 83.1146 454.742 82.7325 454.742 81.9682C454.742 81.395 454.36 80.8218 453.596 80.8218C452.831 80.8218 452.449 81.395 452.449 81.9682Z" fill="#92803D"/>
<path d="M406.02 64.772C406.02 65.5363 406.593 66.1095 407.357 66.1095C408.121 66.1095 408.695 65.5363 408.695 64.772C408.695 64.0078 408.121 63.4346 407.357 63.4346C406.593 63.4346 406.02 64.0078 406.02 64.772Z" fill="#DBD57A"/>
<path d="M360.163 102.03C360.163 102.795 360.737 103.368 361.501 103.368C362.265 103.368 362.838 102.795 362.838 102.03C362.838 101.266 362.265 100.693 361.501 100.693C360.737 100.884 360.163 101.457 360.163 102.03Z" fill="#92803D"/>
<path d="M338.382 107.953C338.382 108.718 339.146 109.482 339.91 109.482C340.674 109.482 341.439 108.718 341.439 107.953C341.439 107.189 340.674 106.425 339.91 106.425C338.955 106.425 338.382 106.998 338.382 107.953Z" fill="#92803D"/>
<path d="M237.88 69.3577C237.88 69.7398 238.262 70.1219 238.644 70.1219C239.026 70.1219 239.408 69.7398 239.408 69.3577C239.408 68.9755 239.026 68.5934 238.644 68.5934C238.262 68.5934 237.88 68.9755 237.88 69.3577Z" fill="#92803D"/>
<path d="M211.321 91.7127C211.321 92.668 212.086 93.4323 213.041 93.4323C213.996 93.4323 214.761 92.668 214.761 91.7127C214.761 90.7573 213.996 89.993 213.041 89.993C212.086 90.1841 211.321 90.9484 211.321 91.7127Z" fill="#92803D"/>
<path d="M143.492 75.2808C143.492 76.0451 144.065 76.4272 144.639 76.4272C145.212 76.4272 145.785 75.854 145.785 75.2808C145.785 74.5165 145.212 74.1344 144.639 74.1344C144.065 74.1344 143.492 74.7076 143.492 75.2808Z" fill="#FFFF98"/>
<path d="M67.6381 113.685C67.6381 114.068 68.0202 114.45 68.4024 114.45C68.7845 114.45 69.1666 114.068 69.1666 113.685C69.1666 113.303 68.7845 112.921 68.4024 112.921C68.0202 112.73 67.6381 113.112 67.6381 113.685Z" fill="#6E551E"/>
<path d="M33.0548 94.0054C33.0548 94.5786 33.4369 94.9607 34.0101 94.9607C34.5833 94.9607 34.9655 94.5786 34.9655 94.0054C34.9655 93.4322 34.5833 93.05 34.0101 93.05C33.4369 93.05 33.0548 93.6233 33.0548 94.0054Z" fill="#B7AA5B"/>
<path d="M0 85.4074C0 85.9806 0.382136 86.3627 0.95534 86.3627C1.52854 86.3627 1.91068 85.9806 1.91068 85.4074C1.91068 84.8342 1.52854 84.452 0.95534 84.452C0.382136 84.452 0 84.8342 0 85.4074Z" fill="#FFFF98"/>
<path d="M1272.9 76.045C1272.9 76.8093 1273.47 77.5736 1274.42 77.5736C1275.19 77.5736 1275.95 77.0004 1275.95 76.045C1275.95 75.2807 1275.38 74.5165 1274.42 74.5165C1273.47 74.7075 1272.9 75.2807 1272.9 76.045Z" fill="#B7AA5B"/>
<path d="M1206.79 41.6528C1206.79 42.4171 1207.36 43.1814 1208.31 43.1814C1209.08 43.1814 1209.84 42.6081 1209.84 41.6528C1209.84 40.8885 1209.27 40.1243 1208.31 40.1243C1207.36 40.1243 1206.79 40.8885 1206.79 41.6528Z" fill="#FFFF98"/>
<path d="M1166.28 52.5437C1166.28 53.499 1167.04 54.2633 1168 54.2633C1168.95 54.2633 1169.72 53.499 1169.72 52.5437C1169.72 51.5884 1168.95 50.8241 1168 50.8241C1167.04 50.8241 1166.28 51.5884 1166.28 52.5437Z" fill="#B7AA5B"/>
<path d="M1115.07 36.6851C1115.07 37.6404 1115.84 38.4047 1116.79 38.4047C1117.75 38.4047 1118.51 37.6404 1118.51 36.6851C1118.51 35.7297 1117.75 34.9655 1116.79 34.9655C1115.65 34.9655 1115.07 35.7297 1115.07 36.6851Z" fill="#DBD57A"/>
<path d="M1037.69 47.3848C1037.69 48.1491 1038.26 48.7223 1039.03 48.7223C1039.79 48.7223 1040.37 48.1491 1040.37 47.3848C1040.37 46.6206 1039.79 46.0474 1039.03 46.0474C1038.26 46.0474 1037.69 46.6206 1037.69 47.3848Z" fill="#FFFF98"/>
<path d="M998.522 68.0202C998.522 68.7845 999.095 69.3577 999.859 69.3577C1000.62 69.3577 1001.2 68.7845 1001.2 68.0202C1001.2 67.2559 1000.62 66.6827 999.859 66.6827C999.286 66.6827 998.522 67.2559 998.522 68.0202Z" fill="#6E551E"/>
<path d="M930.31 43.5635C930.31 44.3278 930.884 44.901 931.648 44.901C932.412 44.901 932.985 44.3278 932.985 43.5635C932.985 42.7993 932.412 42.2261 931.648 42.2261C930.884 42.4171 930.31 42.7993 930.31 43.5635Z" fill="#DBD57A"/>
<path d="M894.772 51.3973C894.772 51.7795 895.154 52.1616 895.536 52.1616C895.918 52.1616 896.3 51.7795 896.3 51.3973C896.3 51.0152 895.918 50.6331 895.536 50.6331C895.154 50.6331 894.772 51.0152 894.772 51.3973Z" fill="#FFFF98"/>
<path d="M865.921 68.5933C865.921 69.3576 866.494 69.9308 867.258 69.9308C868.022 69.9308 868.595 69.3576 868.595 68.5933C868.595 67.8291 868.022 67.2559 867.258 67.2559C866.494 67.2559 865.921 67.8291 865.921 68.5933Z" fill="#B7AA5B"/>
<path d="M766.947 38.7868C766.947 39.1689 767.329 39.551 767.712 39.551C768.094 39.551 768.476 39.1689 768.476 38.7868C768.476 38.4046 768.094 38.0225 767.712 38.0225C767.329 37.8314 766.947 38.2135 766.947 38.7868Z" fill="#6E551E"/>
<path d="M701.602 25.221C701.602 25.9853 702.175 26.5585 702.939 26.5585C703.704 26.5585 704.277 25.9853 704.277 25.221C704.277 24.4567 703.704 23.8835 702.939 23.8835C702.175 23.8835 701.602 24.4567 701.602 25.221Z" fill="#DBD57A"/>
<path d="M640.842 59.9954C640.842 60.5686 641.224 60.9507 641.798 60.9507C642.371 60.9507 642.753 60.5686 642.753 59.9954C642.753 59.4222 642.371 59.04 641.798 59.04C641.224 59.04 640.842 59.6132 640.842 59.9954Z" fill="#DBD57A"/>
<path d="M635.492 33.8191C635.492 34.5833 636.066 34.9655 636.639 34.9655C637.403 34.9655 637.785 34.3923 637.785 33.8191C637.785 33.0548 637.212 32.6727 636.639 32.6727C636.066 32.4816 635.492 33.0548 635.492 33.8191Z" fill="#92803D"/>
<path d="M570.338 67.6381C570.338 68.5934 571.102 69.1666 571.867 69.1666C572.822 69.1666 573.395 68.4024 573.395 67.6381C573.395 66.6828 572.631 66.1096 571.867 66.1096C570.911 65.9185 570.338 66.6828 570.338 67.6381Z" fill="#92803D"/>
<path d="M526.393 35.3476C526.393 36.1119 526.966 36.8762 527.921 36.8762C528.685 36.8762 529.45 36.303 529.45 35.3476C529.45 34.5834 528.876 33.8191 527.921 33.8191C527.157 33.8191 526.393 34.5834 526.393 35.3476Z" fill="#92803D"/>
<path d="M449.392 26.3674C449.392 26.7496 449.774 27.1317 450.156 27.1317C450.539 27.1317 450.921 26.7496 450.921 26.3674C450.921 25.9853 450.539 25.6031 450.156 25.6031C449.774 25.6031 449.392 25.9853 449.392 26.3674Z" fill="#92803D"/>
<path d="M382.709 60.7596C382.709 61.1418 383.091 61.5239 383.474 61.5239C383.856 61.5239 384.238 61.1418 384.238 60.7596C384.238 60.3775 383.856 59.9954 383.474 59.9954C383.091 59.9954 382.709 60.3775 382.709 60.7596Z" fill="#FFFF98"/>
<path d="M328.064 67.6381C328.064 68.2113 328.446 68.5934 329.019 68.5934C329.592 68.5934 329.975 68.2113 329.975 67.6381C329.975 67.0649 329.592 66.6827 329.019 66.6827C328.637 66.4917 328.064 67.0649 328.064 67.6381Z" fill="#92803D"/>
<path d="M283.354 72.2237C283.354 72.7969 283.927 73.3701 284.5 73.3701C285.074 73.3701 285.647 72.7969 285.647 72.2237C285.647 71.6505 285.074 71.0773 284.5 71.0773C283.927 71.0773 283.354 71.4594 283.354 72.2237Z" fill="#92803D"/>
<path d="M215.907 39.9332C215.907 40.5065 216.289 40.8886 216.862 40.8886C217.435 40.8886 217.818 40.5065 217.818 39.9332C217.818 39.36 217.435 38.9779 216.862 38.9779C216.289 38.7868 215.907 39.36 215.907 39.9332Z" fill="#FFFF98"/>
<path d="M166.993 38.0225C166.993 38.7868 167.567 39.36 168.331 39.36C169.095 39.36 169.668 38.7868 169.668 38.0225C169.668 37.2583 169.095 36.6851 168.331 36.6851C167.567 36.6851 166.993 37.2583 166.993 38.0225Z" fill="#B7AA5B"/>
<path d="M140.053 68.5934C140.053 69.1666 140.435 69.5487 141.008 69.5487C141.581 69.5487 141.964 69.1666 141.964 68.5934C141.964 68.0202 141.581 67.6381 141.008 67.6381C140.435 67.6381 140.053 68.0202 140.053 68.5934Z" fill="#92803D"/>
<path d="M116.743 50.0598C116.743 50.633 117.125 51.0152 117.698 51.0152C118.271 51.0152 118.653 50.633 118.653 50.0598C118.653 49.4866 118.271 49.1045 117.698 49.1045C117.316 49.1045 116.743 49.4866 116.743 50.0598Z" fill="#DBD57A"/>
<path d="M1250.54 14.9033C1250.54 15.4765 1250.92 15.8586 1251.5 15.8586C1252.07 15.8586 1252.45 15.4765 1252.45 14.9033C1252.45 14.3301 1252.07 13.9479 1251.5 13.9479C1250.92 13.9479 1250.54 14.3301 1250.54 14.9033Z" fill="#FFFF98"/>
<path d="M1246.15 6.87847C1246.15 7.2606 1246.53 7.64274 1246.91 7.64274C1247.29 7.64274 1247.67 7.2606 1247.67 6.87847C1247.67 6.49633 1247.29 6.1142 1246.91 6.1142C1246.34 6.1142 1246.15 6.49633 1246.15 6.87847Z" fill="#FFFF98"/>
<path d="M1182.9 23.6925C1182.9 24.4567 1183.48 25.0299 1184.24 25.0299C1185 25.0299 1185.58 24.4567 1185.58 23.6925C1185.58 22.9282 1185 22.355 1184.24 22.355C1183.67 22.355 1182.9 22.9282 1182.9 23.6925Z" fill="#6E551E"/>
<path d="M1089.47 1.52852C1089.47 2.29279 1090.04 2.86599 1090.81 2.86599C1091.57 2.86599 1092.14 2.29279 1092.14 1.52852C1092.14 0.764244 1091.57 0.19104 1090.81 0.19104C1089.85 0.382108 1089.47 0.955312 1089.47 1.52852Z" fill="#92803D"/>
<path d="M947.124 16.2408C947.124 17.1961 947.889 18.1514 949.035 18.1514C950.182 18.1514 950.946 17.3872 950.946 16.2408C950.946 15.2854 950.182 14.3301 949.035 14.3301C947.889 14.3301 947.124 15.0943 947.124 16.2408Z" fill="#6E551E"/>
<path d="M794.652 34.9654C794.652 35.7297 795.225 36.3029 795.99 36.3029C796.754 36.3029 797.327 35.7297 797.327 34.9654C797.327 34.2011 796.754 33.6279 795.99 33.6279C795.225 33.6279 794.652 34.2011 794.652 34.9654Z" fill="#DBD57A"/>
<path d="M669.694 29.8066C669.694 30.953 670.649 31.7172 671.604 31.7172C672.751 31.7172 673.515 30.7619 673.515 29.8066C673.515 28.6601 672.56 27.8959 671.604 27.8959C670.649 27.8959 669.694 28.6601 669.694 29.8066Z" fill="#6E551E"/>
<path d="M616.768 0.95534C616.768 1.52854 617.15 1.91068 617.723 1.91068C618.296 1.91068 618.678 1.52854 618.678 0.95534C618.678 0.382136 618.296 0 617.723 0C617.15 0 616.768 0.382136 616.768 0.95534Z" fill="#B7AA5B"/>
<path d="M530.023 15.4765C530.023 15.8586 530.405 16.2408 530.787 16.2408C531.169 16.2408 531.551 15.8586 531.551 15.4765C531.551 15.0944 531.169 14.7122 530.787 14.7122C530.405 14.7122 530.023 15.0944 530.023 15.4765Z" fill="#FFFF98"/>
<path d="M503.847 25.6032C503.847 26.5585 504.611 27.3228 505.566 27.3228C506.521 27.3228 507.286 26.5585 507.286 25.6032C507.286 24.6478 506.521 23.8835 505.566 23.8835C504.611 23.8835 503.847 24.6478 503.847 25.6032Z" fill="#92803D"/>
<path d="M220.493 28.6602C220.493 29.4245 221.066 29.9977 221.83 29.9977C222.594 29.9977 223.168 29.4245 223.168 28.6602C223.168 27.896 222.594 27.3228 221.83 27.3228C221.066 27.5138 220.493 28.087 220.493 28.6602Z" fill="#B7AA5B"/>
<path d="M140.053 23.8835C140.053 24.6478 140.626 25.221 141.39 25.221C142.155 25.221 142.728 24.6478 142.728 23.8835C142.728 23.1192 142.155 22.546 141.39 22.546C140.626 22.546 140.053 23.1192 140.053 23.8835Z" fill="#B7AA5B"/>
</svg>
