<svg width="18" height="18" viewBox="0 0 18 18" fill="none" xmlns="http://www.w3.org/2000/svg">
<path d="M12.9375 17.4375H5.0625C2.5875 17.4375 0.5625 15.4125 0.5625 12.9375V5.0625C0.5625 2.5875 2.5875 0.5625 5.0625 0.5625H12.9375C15.4125 0.5625 17.4375 2.5875 17.4375 5.0625V12.9375C17.4375 15.4125 15.4125 17.4375 12.9375 17.4375Z" fill="white"/>
<path d="M9 12.9375C11.1746 12.9375 12.9375 11.1746 12.9375 9C12.9375 6.82538 11.1746 5.0625 9 5.0625C6.82538 5.0625 5.0625 6.82538 5.0625 9C5.0625 11.1746 6.82538 12.9375 9 12.9375Z" fill="black"/>
<path d="M13.5 6C14.3284 6 15 5.32843 15 4.5C15 3.67157 14.3284 3 13.5 3C12.6716 3 12 3.67157 12 4.5C12 5.32843 12.6716 6 13.5 6Z" fill="black"/>
</svg>
