<svg width="18" height="18" viewBox="0 0 18 18" fill="none" xmlns="http://www.w3.org/2000/svg">
<path d="M4.74345 9.5868H6.71654V17.7097C6.71654 17.8701 6.84649 18 7.00686 18H10.3523C10.5127 18 10.6426 17.8701 10.6426 17.7097V9.62506H12.9109C13.0583 9.62506 13.1824 9.51439 13.1993 9.3679L13.5438 6.37746C13.5532 6.29518 13.5272 6.21279 13.4721 6.15106C13.417 6.08928 13.3382 6.05392 13.2554 6.05392H10.6427V4.17937C10.6427 3.61428 10.947 3.32774 11.5472 3.32774C11.6327 3.32774 13.2554 3.32774 13.2554 3.32774C13.4158 3.32774 13.5457 3.19773 13.5457 3.03741V0.292471C13.5457 0.132097 13.4158 0.00214839 13.2554 0.00214839H10.9012C10.8846 0.00133548 10.8477 0 10.7934 0C10.3849 0 8.96503 0.080187 7.84345 1.11199C6.60076 2.2554 6.7735 3.62445 6.81478 3.86181V6.05386H4.74345C4.58307 6.05386 4.45312 6.18381 4.45312 6.34419V9.29642C4.45312 9.45679 4.58307 9.5868 4.74345 9.5868Z" fill="white"/>
</svg>
