<svg width="18" height="18" viewBox="0 0 18 18" fill="none" xmlns="http://www.w3.org/2000/svg">
<g clip-path="url(#clip0_74_13770)">
<path d="M7.75465 11.9044C7.28125 14.383 6.70435 16.759 4.99345 18.0001C4.46605 14.2543 5.76835 11.4418 6.37405 8.45564C5.34175 6.71864 6.49825 3.22484 8.67355 4.08614C11.3511 5.14454 6.35515 10.5409 9.70855 11.2159C13.2105 11.9188 14.6397 5.14094 12.468 2.93684C9.33145 -0.247359 3.33655 2.86214 4.07455 7.42064C4.25365 8.53484 5.40475 8.87234 4.53445 10.4104C2.52655 9.96584 1.92715 8.38184 2.00455 6.27044C2.12875 2.81444 5.10865 0.396141 8.09845 0.060441C11.8794 -0.363459 15.4281 1.44914 15.9186 5.00504C16.4703 9.01994 14.2122 13.3687 10.1685 13.0555C9.07225 12.97 8.61325 12.4264 7.75465 11.9044Z" fill="white"/>
</g>
<defs>
<clipPath id="clip0_74_13770">
<rect width="18" height="18" fill="white"/>
</clipPath>
</defs>
</svg>
