<svg width="47" height="35" viewBox="0 0 47 35" fill="none" xmlns="http://www.w3.org/2000/svg">
<path d="M23.2586 34.0541C21.1997 34.0541 19.1131 33.0525 17.9724 31.4945C17.6385 31.0215 17.3603 30.5207 17.2212 29.9643C14.2999 29.6861 11.3786 29.2131 8.54077 28.5454L6.03679 27.9611V24.3721L1.1123 23.287L1.8635 21.256C2.92073 18.3903 2.92073 15.8586 1.8635 12.9929L1.1123 10.9619L6.03679 9.87684V6.28781L8.54077 5.70355C11.2117 5.09146 13.9382 4.61849 16.7204 4.34027L16.2196 1.47461L18.1115 1.19639C19.8643 0.918173 21.5614 0.806885 23.2864 0.806885C25.0114 0.806885 26.7085 0.945995 28.4613 1.19639L30.3532 1.47461L29.8524 4.34027C32.6067 4.61849 35.3611 5.06364 38.032 5.70355L40.536 6.28781V9.87684L45.4605 10.9619L44.7093 12.9929C43.6521 15.8586 43.6521 18.3903 44.7093 21.256L45.4605 23.287L40.536 24.3721V27.9611L38.032 28.5454C35.1942 29.2131 32.3007 29.6861 29.3516 29.9643C29.1846 30.4929 28.9342 31.0215 28.6004 31.4945C27.404 33.0247 25.3452 34.0541 23.2586 34.0541Z" fill="#FFFF00"/>
<path d="M23.2591 1.66932C24.9285 1.66932 26.5978 1.80843 28.2949 2.05882L29.3521 2.22576L28.8514 5.14706C31.8839 5.39746 34.8609 5.89825 37.81 6.56598L39.6741 7.01113V10.6002L44.3204 11.6296L43.903 12.7424C42.7623 15.8029 42.7623 18.5294 43.903 21.5898L44.3204 22.7027L39.6741 23.7321V27.3211L37.81 27.7663C34.8052 28.4618 31.7448 28.9626 28.6566 29.213C28.5731 29.8529 28.2949 30.465 27.9054 31.0215C26.9038 32.3847 25.0954 33.2472 23.287 33.2472C21.4785 33.2472 19.6701 32.3847 18.6685 31.0215C18.2512 30.465 18.0008 29.8529 17.9173 29.213C14.8291 28.9626 11.7687 28.4618 8.76391 27.7663L6.89984 27.3211V23.7321L2.25358 22.7027L2.67091 21.5898C3.81161 18.5294 3.81161 15.8029 2.67091 12.7424L2.25358 11.6296L6.89984 10.6002V7.01113L8.76391 6.56598C11.713 5.87043 14.69 5.39746 17.7226 5.14706L17.2218 2.22576L18.279 2.05882C19.9483 1.7806 21.5898 1.66932 23.2591 1.66932ZM23.2591 0C21.5064 0 19.7536 0.13911 17.973 0.417329L16.9157 0.58426L15.2186 0.834658L15.5246 2.50397L15.7194 3.64468C13.2154 3.9229 10.7393 4.36804 8.34658 4.92448L6.48251 5.36964L5.20271 5.67567V7.01113V9.26471L1.86407 10.0159L0 10.4332L0.667729 12.2417L1.08506 13.3545C2.08665 16.0533 2.08665 18.3347 1.08506 21.0334L0.667729 22.1463L0 23.9547L1.86407 24.372L5.20271 25.1232V27.3768V28.7122L6.48251 29.0183L8.34658 29.4634C11.0453 30.1033 13.7997 30.5485 16.6097 30.8267C16.7766 31.2719 17.027 31.6614 17.3052 32.0787C18.6129 33.8871 20.8943 35 23.2591 35C25.624 35 27.9054 33.8871 29.213 32.0787C29.4913 31.6892 29.7417 31.2719 29.9086 30.8267C32.6908 30.5485 35.473 30.0755 38.1717 29.4634L40.0358 29.0183L41.3156 28.7122V27.3768V25.1232L44.6542 24.372L46.5183 23.9547L45.8506 22.1463L45.4332 21.0334C44.4316 18.3347 44.4316 16.0533 45.4332 13.3545L45.8506 12.2417L46.5183 10.4332L44.6542 10.0159L41.3156 9.26471V7.01113V5.67567L40.0358 5.36964L38.1717 4.92448C35.7512 4.36804 33.275 3.9229 30.7989 3.64468L30.9936 2.50397L31.2997 0.834658L29.6025 0.58426L28.5453 0.417329C26.7647 0.13911 25.0397 0 23.2591 0Z" fill="#FFFF00"/>
<path d="M27.6277 23.9547H18.8916V27.2933H27.6277V23.9547Z" fill="black"/>
<path d="M15.9417 18.5294C17.048 18.5294 17.9448 17.6326 17.9448 16.5262C17.9448 15.4199 17.048 14.5231 15.9417 14.5231C14.8353 14.5231 13.9385 15.4199 13.9385 16.5262C13.9385 17.6326 14.8353 18.5294 15.9417 18.5294Z" fill="black"/>
<path d="M29.7698 18.5294C30.8761 18.5294 31.773 17.6325 31.773 16.5262C31.773 15.4199 30.8761 14.523 29.7698 14.523C28.6635 14.523 27.7666 15.4199 27.7666 16.5262C27.7666 17.6325 28.6635 18.5294 29.7698 18.5294Z" fill="black"/>
<path d="M42.9291 12.3529C41.8162 12.1025 40.6755 11.8521 39.5627 11.6017C39.3123 12.2695 39.1175 12.9094 38.9506 13.5493C38.8949 13.744 38.6445 13.6884 38.6445 13.5215V12.2973V7.79014L37.5873 7.53975C28.2391 5.34181 18.3345 5.34181 8.98634 7.53975L7.92911 7.79014V12.2973V13.5215C7.92911 13.7162 7.65089 13.744 7.62307 13.5493C7.45614 12.9094 7.26138 12.2695 7.01099 11.6017C5.89811 11.8521 4.75741 12.1025 3.64453 12.3529C4.8687 15.6359 4.8687 18.6407 3.64453 21.9237C4.75741 22.1741 5.89811 22.4245 7.01099 22.6749C7.26138 22.0072 7.45614 21.3672 7.62307 20.7273C7.67871 20.5326 7.92911 20.5882 7.92911 20.7552V21.9793V26.4865L8.98634 26.7369C18.3345 28.9348 28.2391 28.9348 37.5873 26.7369L38.6445 26.4865V21.9793V20.7552C38.6445 20.5604 38.9227 20.5326 38.9506 20.7273C39.1175 21.3672 39.3123 22.0072 39.5627 22.6749C40.6755 22.4245 41.8162 22.1741 42.9291 21.9237C41.7049 18.6407 41.7049 15.6359 42.9291 12.3529ZM35.8902 24.2886C27.5992 26.0692 18.9188 26.0692 10.6278 24.2886V21.9515V12.2973V9.96025C18.9188 8.17965 27.5992 8.17965 35.8902 9.96025V12.2973V21.9515V24.2886Z" fill="black"/>
<path d="M27.4874 27.6272C27.3482 27.2099 27.2926 27.0151 27.1813 26.5978C24.4548 27.2933 22.0899 27.2933 19.3633 26.5978C19.2242 27.0151 19.1686 27.2099 19.0573 27.6272C18.2226 30.2703 20.9214 32.1622 23.2862 32.1622C25.6511 32.1622 28.322 30.2703 27.4874 27.6272Z" fill="black"/>
<path d="M18.3896 3.08824C21.6726 2.58745 24.8722 2.58745 28.1552 3.08824C27.8769 4.64627 27.5987 6.2043 27.3483 7.76233C24.5661 7.345 21.9787 7.345 19.2243 7.76233C18.9183 6.2043 18.6679 4.64627 18.3896 3.08824Z" fill="black"/>
</svg>
