<svg width="716" height="266" viewBox="0 0 716 266" fill="none" xmlns="http://www.w3.org/2000/svg">
<g clip-path="url(#clip0_74_269)">
<g opacity="0.47">
<path d="M386.302 0.826436C386.302 0.413232 386.716 4.12102e-05 387.13 4.1174e-05C387.544 4.11379e-05 387.957 0.413232 387.957 0.826436C387.957 1.23964 387.544 1.65286 387.13 1.65286C386.716 1.65286 386.302 1.23964 386.302 0.826436Z" fill="#FFFF98"/>
<path d="M474.986 3.5122C474.986 2.99569 475.4 2.6858 475.814 2.6858C476.332 2.6858 476.642 3.09899 476.642 3.5122C476.642 3.9254 476.228 4.33861 475.814 4.33861C475.4 4.33861 474.986 4.0287 474.986 3.5122Z" fill="#92803D"/>
<path d="M436.698 1.23962C436.698 1.03302 436.905 0.82639 437.112 0.82639C437.319 0.82639 437.526 1.03302 437.526 1.23962C437.526 1.44622 437.319 1.65282 437.112 1.65282C436.905 1.65282 436.698 1.44622 436.698 1.23962Z" fill="#FFFF98"/>
<path d="M427.074 24.3791C427.074 23.9659 427.385 23.6559 427.799 23.6559C428.213 23.6559 428.523 23.9659 428.523 24.3791C428.523 24.7923 428.213 25.1022 427.799 25.1022C427.385 25.1022 427.074 24.7923 427.074 24.3791Z" fill="#92803D"/>
<path d="M381.128 15.0819C381.128 14.5654 381.542 14.2555 381.956 14.2555C382.473 14.2555 382.784 14.6687 382.784 15.0819C382.784 15.5984 382.37 15.9083 381.956 15.9083C381.542 15.9083 381.128 15.5984 381.128 15.0819Z" fill="#DBD57A"/>
<path d="M359.396 22.9328C359.396 22.5196 359.707 22.2097 360.121 22.2097C360.535 22.2097 360.845 22.5196 360.845 22.9328C360.845 23.346 360.535 23.6559 360.121 23.6559C359.707 23.6559 359.396 23.346 359.396 22.9328Z" fill="#FFFF98"/>
<path d="M349.772 3.20235C349.772 2.89244 350.083 2.58254 350.393 2.58254C350.704 2.58254 351.014 2.89244 351.014 3.20235C351.014 3.51225 350.704 3.82214 350.393 3.82214C350.083 3.82214 349.772 3.61555 349.772 3.20235Z" fill="#6E551E"/>
<path d="M270.814 25.4121C270.814 25.1022 271.021 24.8956 271.332 24.8956C271.642 24.8956 271.849 25.1022 271.849 25.4121C271.849 25.722 271.642 25.9286 271.332 25.9286C271.021 26.0319 270.814 25.722 270.814 25.4121Z" fill="#B7AA5B"/>
<path d="M238.631 13.8424C238.631 13.5325 238.838 13.3259 239.148 13.3259C239.459 13.3259 239.666 13.5325 239.666 13.8424C239.666 14.1523 239.459 14.3589 239.148 14.3589C238.838 14.3589 238.631 14.1523 238.631 13.8424Z" fill="#92803D"/>
<path d="M130.388 15.3919C130.388 15.1853 130.595 14.9787 130.802 14.9787C131.009 14.9787 131.216 15.1853 131.216 15.3919C131.216 15.5985 131.009 15.8051 130.802 15.8051C130.595 15.8051 130.388 15.5985 130.388 15.3919Z" fill="#DBD57A"/>
<path d="M599.373 37.1883C599.373 36.8784 599.58 36.6718 599.89 36.6718C600.201 36.6718 600.408 36.8784 600.408 37.1883C600.408 37.4982 600.201 37.7048 599.89 37.7048C599.58 37.7048 599.373 37.4982 599.373 37.1883Z" fill="#6E551E"/>
<path d="M567.812 39.9775C567.812 39.461 568.225 39.0478 568.743 39.0478C569.26 39.0478 569.674 39.461 569.674 39.9775C569.674 40.494 569.26 40.9072 568.743 40.9072C568.225 40.9072 567.812 40.5973 567.812 39.9775Z" fill="#FFFF98"/>
<path d="M534.179 40.2874C534.179 39.8742 534.489 39.4609 535.007 39.4609C535.42 39.4609 535.834 39.7709 535.834 40.2874C535.834 40.7006 535.524 41.1138 535.007 41.1138C534.489 41.0105 534.179 40.7006 534.179 40.2874Z" fill="#B7AA5B"/>
<path d="M508.826 40.7006C508.826 40.1841 509.24 39.8742 509.654 39.8742C510.171 39.8742 510.482 40.2874 510.482 40.7006C510.482 41.2171 510.068 41.527 509.654 41.527C509.24 41.527 508.826 41.1138 508.826 40.7006Z" fill="#B7AA5B"/>
<path d="M473.952 20.3504C473.952 20.1438 474.056 20.0405 474.263 20.0405C474.47 20.0405 474.573 20.1438 474.573 20.3504C474.573 20.557 474.47 20.6603 474.263 20.6603C474.056 20.7636 473.952 20.557 473.952 20.3504Z" fill="#B7AA5B"/>
<path d="M456.359 24.9988C456.359 24.6889 456.67 24.379 456.98 24.379C457.291 24.379 457.601 24.6889 457.601 24.9988C457.601 25.3087 457.291 25.6187 456.98 25.6187C456.566 25.6187 456.359 25.3087 456.359 24.9988Z" fill="#B7AA5B"/>
<path d="M419.209 36.8785C419.209 36.5686 419.519 36.2587 419.83 36.2587C420.14 36.2587 420.451 36.5686 420.451 36.8785C420.451 37.1884 420.14 37.4983 419.83 37.4983C419.519 37.4983 419.209 37.2917 419.209 36.8785Z" fill="#DBD57A"/>
<path d="M399.651 40.8038C399.651 40.3906 399.962 39.9774 400.479 39.9774C400.893 39.9774 401.307 40.2873 401.307 40.8038C401.307 41.217 400.997 41.6302 400.479 41.6302C399.962 41.5269 399.651 41.217 399.651 40.8038Z" fill="#B7AA5B"/>
<path d="M365.088 31.3002C365.088 30.887 365.398 30.5771 365.812 30.5771C366.226 30.5771 366.537 30.887 366.537 31.3002C366.537 31.7134 366.226 32.0233 365.812 32.0233C365.502 32.0233 365.088 31.7134 365.088 31.3002Z" fill="#DBD57A"/>
<path d="M335.388 43.4897C335.388 43.1798 335.698 42.8699 336.009 42.8699C336.319 42.8699 336.629 43.1798 336.629 43.4897C336.629 43.7996 336.319 44.1095 336.009 44.1095C335.595 44.2128 335.388 43.9029 335.388 43.4897Z" fill="#B7AA5B"/>
<path d="M322.245 27.2715C322.245 26.7549 322.659 26.3418 323.176 26.3418C323.694 26.3418 324.108 26.7549 324.108 27.2715C324.108 27.788 323.694 28.2012 323.176 28.2012C322.659 28.2012 322.245 27.788 322.245 27.2715Z" fill="#6E551E"/>
<path d="M278.576 44.4195C278.576 44.2129 278.68 44.1096 278.887 44.1096C279.094 44.1096 279.197 44.2129 279.197 44.4195C279.197 44.6261 279.094 44.7294 278.887 44.7294C278.783 44.7294 278.576 44.6261 278.576 44.4195Z" fill="#B7AA5B"/>
<path d="M257.465 30.6804C257.465 30.3705 257.672 30.1639 257.982 30.1639C258.293 30.1639 258.5 30.3705 258.5 30.6804C258.5 30.9903 258.293 31.1969 257.982 31.1969C257.672 31.0936 257.465 30.887 257.465 30.6804Z" fill="#DBD57A"/>
<path d="M207.172 32.6432C207.172 32.4366 207.379 32.23 207.586 32.23C207.793 32.23 208 32.4366 208 32.6432C208 32.8498 207.793 33.0564 207.586 33.0564C207.275 33.0564 207.172 32.8498 207.172 32.6432Z" fill="#92803D"/>
<path d="M195.686 44.4195C195.686 44.1096 195.893 43.9029 196.203 43.9029C196.513 43.9029 196.72 44.1096 196.72 44.4195C196.72 44.7294 196.513 44.936 196.203 44.936C195.893 44.936 195.686 44.7294 195.686 44.4195Z" fill="#DBD57A"/>
<path d="M143.841 47.5185C143.841 47.002 144.255 46.5888 144.772 46.5888C145.29 46.5888 145.704 47.002 145.704 47.5185C145.704 48.035 145.29 48.4482 144.772 48.4482C144.255 48.4482 143.841 48.035 143.841 47.5185Z" fill="#DBD57A"/>
<path d="M131.837 40.1841C131.837 39.8742 132.044 39.5643 132.458 39.5643C132.768 39.5643 133.079 39.7709 133.079 40.1841C133.079 40.494 132.872 40.804 132.458 40.804C132.147 40.804 131.837 40.494 131.837 40.1841Z" fill="#DBD57A"/>
<path d="M665.188 70.6578C665.188 70.4512 665.395 70.2446 665.602 70.2446C665.809 70.2446 666.016 70.4512 666.016 70.6578C666.016 70.8644 665.809 71.071 665.602 71.071C665.292 71.071 665.188 70.8644 665.188 70.6578Z" fill="#B7AA5B"/>
<path d="M610.032 59.3981C610.032 59.1915 610.239 58.9849 610.446 58.9849C610.653 58.9849 610.86 59.1915 610.86 59.3981C610.86 59.6047 610.653 59.8113 610.446 59.8113C610.239 59.8113 610.032 59.6047 610.032 59.3981Z" fill="#DBD57A"/>
<path d="M584.368 78.0955C584.368 77.579 584.782 77.2691 585.196 77.2691C585.61 77.2691 586.024 77.6823 586.024 78.0955C586.024 78.612 585.61 78.9219 585.196 78.9219C584.782 78.9219 584.368 78.5087 584.368 78.0955Z" fill="#92803D"/>
<path d="M568.121 56.5057C568.121 56.0925 568.432 55.8859 568.742 55.8859C569.156 55.8859 569.363 56.1958 569.363 56.5057C569.363 56.8156 569.052 57.1255 568.742 57.1255C568.432 57.1255 568.121 56.8156 568.121 56.5057Z" fill="#B7AA5B"/>
<path d="M538.318 52.5802C538.318 52.0637 538.732 51.5472 539.353 51.5472C539.871 51.5472 540.388 51.9604 540.388 52.5802C540.388 53.0967 539.974 53.6132 539.353 53.6132C538.836 53.5099 538.318 53.0967 538.318 52.5802Z" fill="#B7AA5B"/>
<path d="M508.516 66.4226C508.516 66.1127 508.826 65.8028 509.137 65.8028C509.447 65.8028 509.757 66.1127 509.757 66.4226C509.757 66.7325 509.447 67.0424 509.137 67.0424C508.826 67.0424 508.516 66.8358 508.516 66.4226Z" fill="#6E551E"/>
<path d="M481.816 59.3981C481.816 59.0882 482.023 58.8816 482.334 58.8816C482.644 58.8816 482.851 59.0882 482.851 59.3981C482.851 59.708 482.644 59.9146 482.334 59.9146C482.127 59.9146 481.816 59.708 481.816 59.3981Z" fill="#B7AA5B"/>
<path d="M462.465 47.6218C462.465 47.3119 462.775 47.002 463.086 47.002C463.396 47.002 463.707 47.3119 463.707 47.6218C463.707 47.9317 463.396 48.2416 463.086 48.2416C462.775 48.2416 462.465 48.035 462.465 47.6218Z" fill="#6E551E"/>
<path d="M444.045 47.5184C444.045 47.2085 444.252 47.0019 444.562 47.0019C444.873 47.0019 445.08 47.2085 445.08 47.5184C445.08 47.8283 444.873 48.0349 444.562 48.0349C444.252 48.1382 444.045 47.8283 444.045 47.5184Z" fill="#B7AA5B"/>
<path d="M400.479 59.0882C400.479 58.7783 400.789 58.4684 401.099 58.4684C401.41 58.4684 401.72 58.7783 401.72 59.0882C401.72 59.3981 401.41 59.708 401.099 59.708C400.789 59.708 400.479 59.5014 400.479 59.0882Z" fill="#92803D"/>
<path d="M382.369 59.9146C382.369 59.6047 382.576 59.3981 382.887 59.3981C383.197 59.3981 383.404 59.6047 383.404 59.9146C383.404 60.2245 383.197 60.4311 382.887 60.4311C382.576 60.4311 382.369 60.2245 382.369 59.9146Z" fill="#92803D"/>
<path d="M329.8 66.9391C329.8 66.7324 330.007 66.5258 330.214 66.5258C330.421 66.5258 330.628 66.7324 330.628 66.9391C330.628 67.1457 330.421 67.3522 330.214 67.3522C330.007 67.3522 329.8 67.1457 329.8 66.9391Z" fill="#92803D"/>
<path d="M304.239 68.4886C304.239 68.1787 304.55 67.8687 304.86 67.8687C305.171 67.8687 305.481 68.1787 305.481 68.4886C305.481 68.7985 305.171 69.1084 304.86 69.1084C304.55 69.1084 304.239 68.7985 304.239 68.4886Z" fill="#B7AA5B"/>
<path d="M264.398 65.6994C264.398 65.2862 264.812 64.873 265.226 64.873C265.64 64.873 266.054 65.2862 266.054 65.6994C266.054 66.1126 265.64 66.5258 265.226 66.5258C264.812 66.5258 264.398 66.2159 264.398 65.6994Z" fill="#B7AA5B"/>
<path d="M242.149 74.2734C242.149 73.9635 242.356 73.7569 242.667 73.7569C242.977 73.7569 243.184 73.9635 243.184 74.2734C243.184 74.5833 242.977 74.7899 242.667 74.7899C242.356 74.7899 242.149 74.5833 242.149 74.2734Z" fill="#B7AA5B"/>
<path d="M209.967 50.9274C209.967 50.7208 210.174 50.5142 210.381 50.5142C210.588 50.5142 210.795 50.7208 210.795 50.9274C210.795 51.134 210.588 51.3406 210.381 51.3406C210.174 51.3406 209.967 51.134 209.967 50.9274Z" fill="#6E551E"/>
<path d="M194.341 63.2202C194.341 62.9103 194.548 62.7037 194.858 62.7037C195.169 62.7037 195.376 62.9103 195.376 63.2202C195.376 63.5301 195.169 63.7367 194.858 63.7367C194.651 63.7367 194.341 63.5301 194.341 63.2202Z" fill="#6E551E"/>
<path d="M158.432 62.4971C158.432 62.1872 158.639 61.9806 158.949 61.9806C159.26 61.9806 159.466 62.1872 159.466 62.4971C159.466 62.807 159.26 63.0136 158.949 63.0136C158.639 63.0136 158.432 62.807 158.432 62.4971Z" fill="#B7AA5B"/>
<path d="M131.63 54.1297C131.63 53.8198 131.94 53.5099 132.251 53.5099C132.561 53.5099 132.872 53.8198 132.872 54.1297C132.872 54.4396 132.561 54.7495 132.251 54.7495C131.94 54.7495 131.63 54.4396 131.63 54.1297Z" fill="#6E551E"/>
<path d="M683.194 76.7526C683.194 76.546 683.401 76.3394 683.608 76.3394C683.815 76.3394 684.022 76.546 684.022 76.7526C684.022 76.9592 683.815 77.1658 683.608 77.1658C683.401 77.1658 683.194 76.9592 683.194 76.7526Z" fill="#DBD57A"/>
<path d="M662.809 78.0955C662.809 77.7856 663.119 77.4757 663.429 77.4757C663.74 77.4757 664.05 77.7856 664.05 78.0955C664.05 78.4054 663.74 78.7153 663.429 78.7153C663.119 78.7153 662.809 78.4054 662.809 78.0955Z" fill="#92803D"/>
<path d="M646.458 99.4788C646.458 99.2722 646.665 99.1689 646.768 99.1689C646.975 99.1689 647.079 99.3755 647.079 99.4788C647.079 99.6854 646.872 99.7887 646.768 99.7887C646.561 99.892 646.458 99.6854 646.458 99.4788Z" fill="#B7AA5B"/>
<path d="M611.481 73.9635C611.481 73.5503 611.792 73.1371 612.309 73.1371C612.827 73.1371 613.137 73.447 613.137 73.9635C613.137 74.3767 612.827 74.7899 612.309 74.7899C611.792 74.7899 611.481 74.48 611.481 73.9635Z" fill="#B7AA5B"/>
<path d="M569.156 82.3309C569.156 82.1243 569.363 81.9177 569.57 81.9177C569.777 81.9177 569.984 82.1243 569.984 82.3309C569.984 82.5375 569.777 82.7441 569.57 82.7441C569.363 82.7441 569.156 82.6408 569.156 82.3309Z" fill="#DBD57A"/>
<path d="M548.563 85.0167C548.563 84.7068 548.874 84.3969 549.184 84.3969C549.495 84.3969 549.805 84.7068 549.805 85.0167C549.805 85.3266 549.495 85.6365 549.184 85.6365C548.77 85.5332 548.563 85.3266 548.563 85.0167Z" fill="#FFFF98"/>
<path d="M502.72 83.6738C502.72 83.2606 503.134 82.8474 503.548 82.8474C503.962 82.8474 504.375 83.2606 504.375 83.6738C504.375 84.087 503.962 84.5002 503.548 84.5002C503.03 84.5002 502.72 84.1903 502.72 83.6738Z" fill="#92803D"/>
<path d="M492.89 89.562C492.89 89.2521 493.097 89.0455 493.407 89.0455C493.718 89.0455 493.924 89.2521 493.924 89.562C493.924 89.8719 493.718 90.0785 493.407 90.0785C493.097 90.1818 492.89 89.8719 492.89 89.562Z" fill="#DBD57A"/>
<path d="M444.355 77.9922C444.355 77.6823 444.562 77.4757 444.873 77.4757C445.183 77.4757 445.39 77.6823 445.39 77.9922C445.39 78.3021 445.183 78.5087 444.873 78.5087C444.562 78.5087 444.355 78.1988 444.355 77.9922Z" fill="#B7AA5B"/>
<path d="M415.484 73.9635C415.484 73.6536 415.795 73.3436 416.105 73.3436C416.416 73.3436 416.726 73.6536 416.726 73.9635C416.726 74.2734 416.416 74.5833 416.105 74.5833C415.795 74.5833 415.484 74.2734 415.484 73.9635Z" fill="#B7AA5B"/>
<path d="M394.373 81.1946C394.373 80.7814 394.683 80.4715 395.097 80.4715C395.511 80.4715 395.822 80.7814 395.822 81.1946C395.822 81.6078 395.511 81.9177 395.097 81.9177C394.683 81.9177 394.373 81.6078 394.373 81.1946Z" fill="#DBD57A"/>
<path d="M363.225 92.9709C363.225 92.661 363.535 92.3511 363.846 92.3511C364.156 92.3511 364.466 92.661 364.466 92.9709C364.466 93.2808 364.156 93.5907 363.846 93.5907C363.535 93.694 363.225 93.3841 363.225 92.9709Z" fill="#6E551E"/>
<path d="M356.395 81.5045C356.395 81.1946 356.601 80.988 356.912 80.988C357.222 80.988 357.429 81.1946 357.429 81.5045C357.429 81.8144 357.222 82.021 356.912 82.021C356.601 82.021 356.395 81.8144 356.395 81.5045Z" fill="#DBD57A"/>
<path d="M295.547 66.3192C295.547 65.8027 295.961 65.3895 296.478 65.3895C296.996 65.3895 297.41 65.8027 297.41 66.3192C297.41 66.8357 296.996 67.2489 296.478 67.2489C295.961 67.2489 295.547 66.8357 295.547 66.3192Z" fill="#92803D"/>
<path d="M291.2 82.8474C291.2 82.6408 291.407 82.4342 291.614 82.4342C291.821 82.4342 292.028 82.6408 292.028 82.8474C292.028 83.054 291.821 83.2606 291.614 83.2606C291.407 83.2606 291.2 83.054 291.2 82.8474Z" fill="#FFFF98"/>
<path d="M253.533 71.1744C253.533 70.9678 253.74 70.7612 253.947 70.7612C254.154 70.7612 254.361 70.9678 254.361 71.1744C254.361 71.381 254.154 71.5876 253.947 71.5876C253.74 71.5876 253.533 71.381 253.533 71.1744Z" fill="#FFFF98"/>
<path d="M203.137 91.1115C203.137 90.6983 203.447 90.4917 203.758 90.4917C204.068 90.4917 204.379 90.8016 204.379 91.1115C204.379 91.5247 204.068 91.7313 203.758 91.7313C203.447 91.7313 203.137 91.5247 203.137 91.1115Z" fill="#DBD57A"/>
<path d="M186.269 103.714C186.269 103.404 186.476 103.198 186.786 103.198C187.096 103.198 187.303 103.404 187.303 103.714C187.303 104.024 187.096 104.231 186.786 104.231C186.476 104.231 186.269 104.024 186.269 103.714Z" fill="#6E551E"/>
<path d="M162.054 100.512C162.054 100.305 162.157 100.202 162.364 100.202C162.571 100.202 162.675 100.305 162.675 100.512C162.675 100.718 162.571 100.822 162.364 100.822C162.261 100.822 162.054 100.718 162.054 100.512Z" fill="#B7AA5B"/>
<path d="M144.048 85.3266C144.048 84.7068 144.565 84.1903 145.186 84.1903C145.807 84.1903 146.324 84.7068 146.324 85.3266C146.324 85.9464 145.807 86.4629 145.186 86.4629C144.565 86.4629 144.048 85.9464 144.048 85.3266Z" fill="#B7AA5B"/>
<path d="M75.542 93.1775C75.542 92.7643 75.8524 92.3511 76.3699 92.3511C76.7838 92.3511 77.1977 92.661 77.1977 93.1775C77.1977 93.5907 76.8873 94.0039 76.3699 94.0039C75.9559 94.0039 75.542 93.5907 75.542 93.1775Z" fill="#92803D"/>
<path d="M31.8721 82.021C31.8721 81.7111 32.079 81.5045 32.3895 81.5045C32.5965 81.5045 32.9069 81.7111 32.9069 82.021C32.9069 82.2276 32.6999 82.5375 32.3895 82.5375C32.079 82.5375 31.8721 82.3309 31.8721 82.021Z" fill="#92803D"/>
<path d="M679.159 122.825C679.159 122.515 679.47 122.205 679.78 122.205C680.091 122.205 680.401 122.515 680.401 122.825C680.401 123.135 680.091 123.445 679.78 123.445C679.47 123.445 679.159 123.135 679.159 122.825Z" fill="#92803D"/>
<path d="M652.149 103.611C652.149 103.301 652.356 103.094 652.667 103.094C652.977 103.094 653.184 103.301 653.184 103.611C653.184 103.921 652.977 104.127 652.667 104.127C652.46 104.127 652.149 103.921 652.149 103.611Z" fill="#92803D"/>
<path d="M629.694 126.544C629.694 126.234 629.901 126.027 630.212 126.027C630.522 126.027 630.729 126.234 630.729 126.544C630.729 126.854 630.522 127.06 630.212 127.06C629.901 127.06 629.694 126.854 629.694 126.544Z" fill="#B7AA5B"/>
<path d="M603.616 116.523C603.616 116.11 603.927 115.8 604.341 115.8C604.755 115.8 605.065 116.11 605.065 116.523C605.065 116.937 604.755 117.247 604.341 117.247C603.927 117.247 603.616 116.937 603.616 116.523Z" fill="#B7AA5B"/>
<path d="M576.711 133.258C576.711 133.052 576.918 132.845 577.125 132.845C577.332 132.845 577.539 133.052 577.539 133.258C577.539 133.465 577.332 133.671 577.125 133.671C576.918 133.671 576.711 133.465 576.711 133.258Z" fill="#B7AA5B"/>
<path d="M544.113 111.978C544.113 111.462 544.527 111.049 545.045 111.049C545.562 111.049 545.976 111.462 545.976 111.978C545.976 112.495 545.562 112.908 545.045 112.908C544.527 112.908 544.113 112.495 544.113 111.978Z" fill="#92803D"/>
<path d="M512.24 122.308C512.24 122.102 512.447 121.895 512.654 121.895C512.861 121.895 513.068 122.102 513.068 122.308C513.068 122.515 512.861 122.722 512.654 122.722C512.551 122.722 512.24 122.515 512.24 122.308Z" fill="#6E551E"/>
<path d="M476.746 113.631C476.746 113.321 476.953 113.115 477.264 113.115C477.574 113.115 477.781 113.321 477.781 113.631C477.781 113.941 477.574 114.148 477.264 114.148C476.953 114.148 476.746 113.941 476.746 113.631Z" fill="#B7AA5B"/>
<path d="M435.663 120.346C435.663 120.036 435.974 119.726 436.284 119.726C436.594 119.726 436.905 120.036 436.905 120.346C436.905 120.656 436.594 120.965 436.284 120.965C435.974 120.965 435.663 120.656 435.663 120.346Z" fill="#DBD57A"/>
<path d="M421.693 100.718C421.693 100.305 422.004 99.892 422.521 99.892C422.935 99.892 423.349 100.202 423.349 100.718C423.349 101.132 423.039 101.545 422.521 101.545C422.004 101.545 421.693 101.235 421.693 100.718Z" fill="#6E551E"/>
<path d="M409.688 113.528C409.688 113.218 409.895 113.011 410.206 113.011C410.516 113.011 410.723 113.218 410.723 113.528C410.723 113.838 410.516 114.044 410.206 114.044C409.895 114.044 409.688 113.838 409.688 113.528Z" fill="#92803D"/>
<path d="M368.71 129.643C368.71 129.333 368.917 129.126 369.227 129.126C369.538 129.126 369.745 129.333 369.745 129.643C369.745 129.953 369.538 130.159 369.227 130.159C368.917 130.159 368.71 129.849 368.71 129.643Z" fill="#DBD57A"/>
<path d="M327.109 96.6897C327.109 96.2765 327.42 96.0699 327.73 96.0699C328.144 96.0699 328.351 96.3798 328.351 96.6897C328.351 97.1029 328.041 97.3095 327.73 97.3095C327.42 97.4128 327.109 97.1029 327.109 96.6897Z" fill="#B7AA5B"/>
<path d="M309 114.457C309 114.148 309.31 113.838 309.621 113.838C309.931 113.838 310.242 114.148 310.242 114.457C310.242 114.767 309.931 115.077 309.621 115.077C309.207 115.077 309 114.767 309 114.457Z" fill="#FFFF98"/>
<path d="M297.306 121.895C297.306 121.585 297.616 121.275 297.927 121.275C298.237 121.275 298.547 121.585 298.547 121.895C298.547 122.205 298.237 122.515 297.927 122.515C297.513 122.515 297.306 122.308 297.306 121.895Z" fill="#DBD57A"/>
<path d="M250.738 115.387C250.738 115.077 250.945 114.871 251.256 114.871C251.566 114.871 251.773 115.077 251.773 115.387C251.773 115.697 251.566 115.904 251.256 115.904C250.945 116.007 250.738 115.697 250.738 115.387Z" fill="#B7AA5B"/>
<path d="M215.244 103.714C215.244 103.404 215.451 103.198 215.762 103.198C216.072 103.198 216.279 103.404 216.279 103.714C216.279 104.024 216.072 104.231 215.762 104.231C215.451 104.127 215.244 103.921 215.244 103.714Z" fill="#DBD57A"/>
<path d="M210.276 119.416C210.276 119.106 210.587 118.796 210.897 118.796C211.208 118.796 211.518 119.106 211.518 119.416C211.518 119.726 211.208 120.036 210.897 120.036C210.587 120.036 210.276 119.726 210.276 119.416Z" fill="#DBD57A"/>
<path d="M153.775 107.743C153.775 107.33 154.086 107.02 154.5 107.02C154.914 107.02 155.224 107.33 155.224 107.743C155.224 108.156 154.914 108.466 154.5 108.466C154.189 108.466 153.775 108.156 153.775 107.743Z" fill="#DBD57A"/>
<path d="M151.602 120.552C151.602 120.242 151.912 119.933 152.222 119.933C152.533 119.933 152.843 120.242 152.843 120.552C152.843 120.862 152.533 121.172 152.222 121.172C151.912 121.172 151.602 120.862 151.602 120.552Z" fill="#FFFF98"/>
<path d="M87.6494 122.618C87.6494 122.102 88.0633 121.792 88.4773 121.792C88.9947 121.792 89.3052 122.205 89.3052 122.618C89.3052 123.135 88.8912 123.445 88.4773 123.445C87.9599 123.445 87.6494 123.031 87.6494 122.618Z" fill="#92803D"/>
<path d="M79.5771 96.4831C79.5771 96.1732 79.7841 95.9666 80.0946 95.9666C80.405 95.9666 80.612 96.1732 80.612 96.4831C80.612 96.793 80.405 96.9996 80.0946 96.9996C79.8876 97.1029 79.5771 96.793 79.5771 96.4831Z" fill="#92803D"/>
<path d="M63.4346 121.482C63.4346 121.172 63.6415 120.966 63.952 120.966C64.2624 120.966 64.4694 121.172 64.4694 121.482C64.4694 121.792 64.2624 121.999 63.952 121.999C63.6415 121.999 63.4346 121.792 63.4346 121.482Z" fill="#6E551E"/>
<path d="M674.398 121.895C674.398 121.482 674.709 121.172 675.123 121.172C675.537 121.172 675.847 121.482 675.847 121.895C675.847 122.308 675.537 122.618 675.123 122.618C674.709 122.618 674.398 122.308 674.398 121.895Z" fill="#FFFF98"/>
<path d="M670.26 129.333C670.26 129.023 670.467 128.816 670.777 128.816C671.088 128.816 671.295 129.023 671.295 129.333C671.295 129.643 671.088 129.849 670.777 129.849C670.57 129.849 670.26 129.643 670.26 129.333Z" fill="#FFFF98"/>
<path d="M631.246 136.047C631.246 135.841 631.453 135.634 631.66 135.634C631.867 135.634 632.074 135.841 632.074 136.047C632.074 136.254 631.867 136.461 631.66 136.461C631.453 136.461 631.246 136.254 631.246 136.047Z" fill="#92803D"/>
<path d="M591.302 126.75C591.302 126.234 591.716 125.924 592.13 125.924C592.647 125.924 592.957 126.337 592.957 126.75C592.957 127.267 592.544 127.577 592.13 127.577C591.716 127.577 591.302 127.163 591.302 126.75Z" fill="#6E551E"/>
<path d="M557.773 127.37C557.773 126.957 558.084 126.647 558.498 126.647C558.912 126.647 559.222 126.957 559.222 127.37C559.222 127.783 558.912 128.093 558.498 128.093C558.187 128.196 557.773 127.783 557.773 127.37Z" fill="#B7AA5B"/>
<path d="M550.012 160.84C550.012 160.633 550.219 160.426 550.426 160.426C550.633 160.426 550.84 160.633 550.84 160.84C550.84 161.046 550.633 161.253 550.426 161.253C550.219 161.253 550.012 161.046 550.012 160.84Z" fill="#92803D"/>
<path d="M519.691 143.382C519.691 143.175 519.898 142.969 520.105 142.969C520.312 142.969 520.519 143.175 520.519 143.382C520.519 143.588 520.312 143.795 520.105 143.795C519.898 143.795 519.691 143.588 519.691 143.382Z" fill="#B7AA5B"/>
<path d="M461.845 141.316C461.845 141.006 462.155 140.696 462.466 140.696C462.776 140.696 463.087 141.006 463.087 141.316C463.087 141.626 462.776 141.936 462.466 141.936C462.155 141.936 461.845 141.626 461.845 141.316Z" fill="#FFFF98"/>
<path d="M454.29 129.126C454.29 128.61 454.704 128.3 455.118 128.3C455.635 128.3 455.946 128.713 455.946 129.126C455.946 129.643 455.532 129.953 455.118 129.953C454.704 129.953 454.29 129.643 454.29 129.126Z" fill="#B7AA5B"/>
<path d="M418.175 126.957C418.175 126.647 418.382 126.44 418.692 126.44C419.003 126.44 419.21 126.647 419.21 126.957C419.21 127.267 419.003 127.473 418.692 127.473C418.382 127.473 418.175 127.267 418.175 126.957Z" fill="#B7AA5B"/>
<path d="M411.034 134.085C411.034 133.775 411.345 133.465 411.655 133.465C411.966 133.465 412.276 133.775 412.276 134.085C412.276 134.395 411.966 134.704 411.655 134.704C411.241 134.704 411.034 134.395 411.034 134.085Z" fill="#92803D"/>
<path d="M364.984 136.874C364.984 136.564 365.191 136.357 365.502 136.357C365.812 136.357 366.019 136.564 366.019 136.874C366.019 137.184 365.812 137.39 365.502 137.39C365.191 137.287 364.984 137.08 364.984 136.874Z" fill="#DBD57A"/>
<path d="M338.699 121.998C338.699 121.585 339.01 121.275 339.424 121.275C339.838 121.275 340.148 121.585 340.148 121.998C340.148 122.412 339.838 122.722 339.424 122.722C339.01 122.722 338.699 122.412 338.699 121.998Z" fill="#B7AA5B"/>
<path d="M300.928 130.469C300.928 129.953 301.342 129.436 301.963 129.436C302.583 129.436 302.997 129.849 302.997 130.469C302.997 130.986 302.583 131.502 301.963 131.502C301.342 131.502 300.928 131.089 300.928 130.469Z" fill="#92803D"/>
<path d="M286.544 130.366C286.544 130.056 286.751 129.849 287.061 129.849C287.372 129.849 287.579 130.056 287.579 130.366C287.579 130.676 287.372 130.882 287.061 130.882C286.751 130.882 286.544 130.676 286.544 130.366Z" fill="#DBD57A"/>
<path d="M254.464 144.415C254.464 144.105 254.774 143.795 255.085 143.795C255.395 143.795 255.706 144.105 255.706 144.415C255.706 144.725 255.395 145.035 255.085 145.035C254.774 145.035 254.464 144.828 254.464 144.415Z" fill="#DBD57A"/>
<path d="M213.071 142.349C213.071 142.039 213.382 141.729 213.692 141.729C214.003 141.729 214.313 142.039 214.313 142.349C214.313 142.659 214.003 142.969 213.692 142.969C213.278 142.969 213.071 142.659 213.071 142.349Z" fill="#B7AA5B"/>
<path d="M198.583 145.758C198.583 145.344 198.893 145.138 199.204 145.138C199.618 145.138 199.825 145.448 199.825 145.758C199.825 146.171 199.514 146.377 199.204 146.377C198.893 146.377 198.583 146.068 198.583 145.758Z" fill="#92803D"/>
<path d="M152.947 135.118C152.947 134.808 153.258 134.498 153.568 134.498C153.879 134.498 154.189 134.808 154.189 135.118C154.189 135.428 153.879 135.737 153.568 135.737C153.154 135.737 152.947 135.428 152.947 135.118Z" fill="#DBD57A"/>
<path d="M135.458 139.973C135.458 139.663 135.768 139.353 136.079 139.353C136.389 139.353 136.7 139.663 136.7 139.973C136.7 140.283 136.389 140.593 136.079 140.593C135.768 140.593 135.458 140.283 135.458 139.973Z" fill="#92803D"/>
<path d="M113.313 127.99C113.313 127.68 113.52 127.473 113.831 127.473C114.141 127.473 114.348 127.68 114.348 127.99C114.348 128.3 114.141 128.506 113.831 128.506C113.52 128.506 113.313 128.3 113.313 127.99Z" fill="#6E551E"/>
<path d="M65.1934 125.511C65.1934 125.201 65.5038 124.891 65.8143 124.891C66.1247 124.891 66.4352 125.201 66.4352 125.511C66.4352 125.821 66.1247 126.131 65.8143 126.131C65.5038 126.027 65.1934 125.821 65.1934 125.511Z" fill="#FFFF98"/>
<path d="M38.0811 151.439C38.0811 151.129 38.3915 150.819 38.702 150.819C39.0124 150.819 39.3229 151.129 39.3229 151.439C39.3229 151.749 39.0124 152.059 38.702 152.059C38.3915 152.059 38.0811 151.852 38.0811 151.439Z" fill="#DBD57A"/>
<path d="M25.1455 149.373C25.1455 148.96 25.456 148.65 25.8699 148.65C26.2838 148.65 26.5943 148.96 26.5943 149.373C26.5943 149.786 26.2838 150.096 25.8699 150.096C25.456 150.096 25.1455 149.683 25.1455 149.373Z" fill="#DBD57A"/>
<path d="M681.436 165.385C681.436 165.075 681.643 164.868 681.953 164.868C682.263 164.868 682.47 165.075 682.47 165.385C682.47 165.695 682.263 165.901 681.953 165.901C681.643 165.901 681.436 165.695 681.436 165.385Z" fill="#DBD57A"/>
<path d="M645.113 146.894C645.113 146.584 645.424 146.274 645.734 146.274C646.045 146.274 646.355 146.584 646.355 146.894C646.355 147.204 646.045 147.514 645.734 147.514C645.424 147.514 645.113 147.204 645.113 146.894Z" fill="#FFFF98"/>
<path d="M620.795 175.715C620.795 175.508 621.002 175.302 621.209 175.302C621.416 175.302 621.623 175.508 621.623 175.715C621.623 175.922 621.416 176.128 621.209 176.128C620.898 176.231 620.795 176.025 620.795 175.715Z" fill="#DBD57A"/>
<path d="M602.168 163.835C602.168 163.422 602.478 163.112 602.892 163.112C603.306 163.112 603.617 163.422 603.617 163.835C603.617 164.249 603.306 164.558 602.892 164.558C602.478 164.558 602.168 164.249 602.168 163.835Z" fill="#FFFF98"/>
<path d="M565.534 170.24C565.534 169.827 565.948 169.414 566.362 169.414C566.776 169.414 567.19 169.827 567.19 170.24C567.19 170.653 566.776 171.066 566.362 171.066C565.845 171.066 565.534 170.653 565.534 170.24Z" fill="#DBD57A"/>
<path d="M549.908 159.703C549.908 159.393 550.115 159.187 550.426 159.187C550.736 159.187 550.943 159.393 550.943 159.703C550.943 160.013 550.736 160.22 550.426 160.22C550.115 160.323 549.908 160.013 549.908 159.703Z" fill="#6E551E"/>
<path d="M507.895 161.459C507.895 161.253 508.102 161.046 508.308 161.046C508.515 161.046 508.722 161.253 508.722 161.459C508.722 161.666 508.515 161.873 508.308 161.873C508.102 161.873 507.895 161.666 507.895 161.459Z" fill="#DBD57A"/>
<path d="M484.3 163.215C484.3 163.009 484.507 162.802 484.714 162.802C484.921 162.802 485.128 163.009 485.128 163.215C485.128 163.422 484.921 163.629 484.714 163.629C484.507 163.629 484.3 163.422 484.3 163.215Z" fill="#B7AA5B"/>
<path d="M446.942 170.963C446.942 170.447 447.356 170.033 447.874 170.033C448.391 170.033 448.805 170.447 448.805 170.963C448.805 171.48 448.391 171.893 447.874 171.893C447.46 171.893 446.942 171.48 446.942 170.963Z" fill="#B7AA5B"/>
<path d="M419.312 172.203C419.312 171.893 419.623 171.583 419.933 171.583C420.244 171.583 420.554 171.893 420.554 172.203C420.554 172.513 420.244 172.823 419.933 172.823C419.519 172.823 419.312 172.513 419.312 172.203Z" fill="#92803D"/>
<path d="M403.065 169.31C403.065 168.897 403.376 168.587 403.79 168.587C404.204 168.587 404.514 168.897 404.514 169.31C404.514 169.723 404.204 170.033 403.79 170.033C403.376 170.033 403.065 169.723 403.065 169.31Z" fill="#FFFF98"/>
<path d="M351.945 153.505C351.945 152.989 352.359 152.576 352.877 152.576C353.394 152.576 353.808 152.989 353.808 153.505C353.808 154.022 353.394 154.435 352.877 154.435C352.359 154.435 351.945 154.022 351.945 153.505Z" fill="#92803D"/>
<path d="M338.699 174.682C338.699 174.475 338.906 174.269 339.113 174.269C339.32 174.269 339.527 174.475 339.527 174.682C339.527 174.889 339.32 175.095 339.113 175.095C338.803 175.095 338.699 174.889 338.699 174.682Z" fill="#DBD57A"/>
<path d="M301.445 164.558C301.445 164.249 301.652 164.042 301.963 164.042C302.273 164.042 302.48 164.249 302.48 164.558C302.48 164.868 302.273 165.075 301.963 165.075C301.756 165.075 301.445 164.868 301.445 164.558Z" fill="#DBD57A"/>
<path d="M274.022 168.794C274.022 168.381 274.333 168.174 274.643 168.174C274.954 168.174 275.264 168.484 275.264 168.794C275.264 169.207 274.954 169.414 274.643 169.414C274.333 169.414 274.022 169.104 274.022 168.794Z" fill="#92803D"/>
<path d="M243.909 160.22C243.909 159.91 244.22 159.6 244.53 159.6C244.841 159.6 245.151 159.91 245.151 160.22C245.151 160.53 244.841 160.84 244.53 160.84C244.22 160.84 243.909 160.53 243.909 160.22Z" fill="#DBD57A"/>
<path d="M209.449 163.939C209.449 163.422 209.863 163.112 210.277 163.112C210.795 163.112 211.105 163.525 211.105 163.939C211.105 164.352 210.691 164.765 210.277 164.765C209.76 164.765 209.449 164.352 209.449 163.939Z" fill="#FFFF98"/>
<path d="M204.274 178.401C204.274 177.884 204.688 177.368 205.309 177.368C205.93 177.368 206.344 177.781 206.344 178.401C206.344 178.917 205.93 179.434 205.309 179.434C204.688 179.434 204.274 178.917 204.274 178.401Z" fill="#6E551E"/>
<path d="M154.913 174.372C154.913 173.752 155.431 173.339 155.948 173.339C156.569 173.339 156.983 173.856 156.983 174.372C156.983 174.992 156.465 175.405 155.948 175.405C155.327 175.405 154.913 174.992 154.913 174.372Z" fill="#DBD57A"/>
<path d="M134.941 161.873C134.941 161.666 135.045 161.563 135.252 161.563C135.459 161.563 135.562 161.666 135.562 161.873C135.562 162.079 135.459 162.182 135.252 162.182C135.148 162.182 134.941 161.976 134.941 161.873Z" fill="#92803D"/>
<path d="M90.5469 149.58C90.5469 149.167 90.8573 148.857 91.2713 148.857C91.6852 148.857 91.9956 149.167 91.9956 149.58C91.9956 149.993 91.6852 150.303 91.2713 150.303C90.8573 150.303 90.5469 149.993 90.5469 149.58Z" fill="#DBD57A"/>
<path d="M68.6084 158.051C68.6084 157.534 69.0223 157.224 69.4363 157.224C69.9537 157.224 70.2641 157.637 70.2641 158.051C70.2641 158.567 69.8502 158.877 69.4363 158.877C68.9188 158.98 68.6084 158.567 68.6084 158.051Z" fill="#92803D"/>
<path d="M46.5664 165.385C46.5664 165.075 46.8769 164.765 47.1873 164.765C47.4978 164.765 47.8082 165.075 47.8082 165.385C47.8082 165.695 47.4978 166.005 47.1873 166.005C46.7734 166.005 46.5664 165.695 46.5664 165.385Z" fill="#DBD57A"/>
<path d="M36.1143 160.943C36.1143 160.426 36.5282 160.013 37.0456 160.013C37.563 160.013 37.977 160.426 37.977 160.943C37.977 161.459 37.563 161.873 37.0456 161.873C36.4247 161.769 36.1143 161.459 36.1143 160.943Z" fill="#92803D"/>
<path d="M715.067 179.227C715.067 179.021 715.274 178.814 715.481 178.814C715.688 178.814 715.895 179.021 715.895 179.227C715.895 179.434 715.688 179.64 715.481 179.64C715.274 179.64 715.067 179.434 715.067 179.227Z" fill="#B7AA5B"/>
<path d="M695.923 180.673C695.923 180.26 696.233 179.95 696.647 179.95C697.061 179.95 697.372 180.26 697.372 180.673C697.372 181.087 697.061 181.396 696.647 181.396C696.233 181.396 695.923 180.983 695.923 180.673Z" fill="#DBD57A"/>
<path d="M676.055 192.76C676.055 192.45 676.262 192.14 676.676 192.14C676.986 192.14 677.296 192.346 677.296 192.76C677.296 193.069 677.09 193.276 676.676 193.276C676.365 193.276 676.055 193.069 676.055 192.76Z" fill="#DBD57A"/>
<path d="M616.759 182.223C616.759 181.913 617.069 181.603 617.38 181.603C617.69 181.603 618.001 181.913 618.001 182.223C618.001 182.533 617.69 182.843 617.38 182.843C616.966 182.843 616.759 182.533 616.759 182.223Z" fill="#92803D"/>
<path d="M604.341 192.656C604.341 192.243 604.651 191.933 605.065 191.933C605.479 191.933 605.79 192.243 605.79 192.656C605.79 193.069 605.479 193.379 605.065 193.379C604.651 193.379 604.341 193.069 604.341 192.656Z" fill="#DBD57A"/>
<path d="M572.882 192.14C572.882 191.727 573.192 191.313 573.71 191.313C574.227 191.313 574.538 191.623 574.538 192.14C574.538 192.553 574.227 192.966 573.71 192.966C573.192 192.966 572.882 192.553 572.882 192.14Z" fill="#DBD57A"/>
<path d="M549.908 193.173C549.908 192.966 550.115 192.76 550.322 192.76C550.529 192.76 550.736 192.966 550.736 193.173C550.736 193.379 550.529 193.586 550.322 193.586C550.012 193.586 549.908 193.379 549.908 193.173Z" fill="#DBD57A"/>
<path d="M518.14 192.966C518.14 192.656 518.347 192.45 518.657 192.45C518.968 192.45 519.174 192.656 519.174 192.966C519.174 193.276 518.968 193.483 518.657 193.483C518.347 193.586 518.14 193.276 518.14 192.966Z" fill="#DBD57A"/>
<path d="M491.233 174.372C491.233 174.165 491.44 173.959 491.647 173.959C491.854 173.959 492.061 174.165 492.061 174.372C492.061 174.579 491.854 174.785 491.647 174.785C491.44 174.785 491.233 174.579 491.233 174.372Z" fill="#B7AA5B"/>
<path d="M462.879 197.511C462.879 196.995 463.293 196.582 463.81 196.582C464.328 196.582 464.742 196.995 464.742 197.511C464.742 198.028 464.328 198.441 463.81 198.441C463.396 198.441 462.879 198.028 462.879 197.511Z" fill="#6E551E"/>
<path d="M435.042 186.562C435.042 186.148 435.352 185.735 435.87 185.735C436.284 185.735 436.698 186.045 436.698 186.562C436.698 186.975 436.387 187.388 435.87 187.388C435.456 187.388 435.042 186.975 435.042 186.562Z" fill="#B7AA5B"/>
<path d="M404.618 177.678C404.618 177.368 404.825 177.161 405.136 177.161C405.446 177.161 405.653 177.368 405.653 177.678C405.653 177.988 405.446 178.194 405.136 178.194C404.825 178.194 404.618 177.988 404.618 177.678Z" fill="#92803D"/>
<path d="M367.054 175.612C367.054 175.095 367.468 174.785 367.882 174.785C368.399 174.785 368.709 175.198 368.709 175.612C368.709 176.128 368.295 176.438 367.882 176.438C367.468 176.541 367.054 176.128 367.054 175.612Z" fill="#B7AA5B"/>
<path d="M335.284 195.859C335.284 195.342 335.698 195.032 336.112 195.032C336.629 195.032 336.94 195.445 336.94 195.859C336.94 196.375 336.526 196.685 336.112 196.685C335.698 196.685 335.284 196.272 335.284 195.859Z" fill="#DBD57A"/>
<path d="M302.791 170.86C302.791 170.653 302.894 170.55 303.101 170.55C303.308 170.55 303.412 170.653 303.412 170.86C303.412 171.066 303.308 171.17 303.101 171.17C302.894 171.17 302.791 171.066 302.791 170.86Z" fill="#92803D"/>
<path d="M294.615 189.144C294.615 188.937 294.822 188.731 295.029 188.731C295.236 188.731 295.443 188.937 295.443 189.144C295.443 189.351 295.236 189.557 295.029 189.557C294.822 189.557 294.615 189.454 294.615 189.144Z" fill="#6E551E"/>
<path d="M244.84 180.26C244.84 180.054 244.943 179.95 245.15 179.95C245.357 179.95 245.461 180.054 245.461 180.26C245.461 180.467 245.357 180.57 245.15 180.57C244.943 180.57 244.84 180.467 244.84 180.26Z" fill="#92803D"/>
<path d="M228.594 182.223C228.594 181.913 228.904 181.603 229.215 181.603C229.525 181.603 229.836 181.913 229.836 182.223C229.836 182.533 229.525 182.843 229.215 182.843C228.904 182.843 228.594 182.533 228.594 182.223Z" fill="#92803D"/>
<path d="M177.266 183.049C177.266 182.533 177.68 182.12 178.197 182.12C178.714 182.12 179.128 182.533 179.128 183.049C179.128 183.566 178.714 183.979 178.197 183.979C177.68 184.082 177.266 183.566 177.266 183.049Z" fill="#DBD57A"/>
<path d="M177.68 190.177C177.68 189.661 178.094 189.247 178.611 189.247C179.128 189.247 179.542 189.661 179.542 190.177C179.542 190.694 179.128 191.107 178.611 191.107C178.094 191.107 177.68 190.694 177.68 190.177Z" fill="#92803D"/>
<path d="M129.56 194.722C129.56 194.412 129.87 194.103 130.18 194.103C130.491 194.103 130.801 194.412 130.801 194.722C130.801 195.032 130.491 195.342 130.18 195.342C129.87 195.342 129.56 195.136 129.56 194.722Z" fill="#B7AA5B"/>
<path d="M99.1357 206.602C99.1357 206.292 99.4462 205.982 99.7566 205.982C100.067 205.982 100.378 206.292 100.378 206.602C100.378 206.912 100.067 207.222 99.7566 207.222C99.3427 207.118 99.1357 206.912 99.1357 206.602Z" fill="#FFFF98"/>
<path d="M76.7832 209.598C76.7832 209.184 77.0937 208.875 77.5076 208.875C77.9215 208.875 78.232 209.184 78.232 209.598C78.232 210.011 77.9215 210.321 77.5076 210.321C77.0937 210.321 76.7832 210.011 76.7832 209.598Z" fill="#92803D"/>
<path d="M41.3926 201.334C41.3926 201.024 41.5995 200.817 41.91 200.817C42.2204 200.817 42.4274 201.024 42.4274 201.334C42.4274 201.643 42.2204 201.85 41.91 201.85C41.5995 201.85 41.3926 201.643 41.3926 201.334Z" fill="#92803D"/>
<path d="M14.6934 184.186C14.6934 183.876 14.9003 183.669 15.2108 183.669C15.5212 183.669 15.7282 183.876 15.7282 184.186C15.7282 184.496 15.5212 184.702 15.2108 184.702C14.9003 184.702 14.6934 184.496 14.6934 184.186Z" fill="#92803D"/>
<path d="M658.358 216.002C658.358 215.486 658.772 215.176 659.186 215.176C659.6 215.176 660.014 215.589 660.014 216.002C660.014 216.519 659.6 216.829 659.186 216.829C658.772 216.829 658.358 216.519 658.358 216.002Z" fill="#92803D"/>
<path d="M628.659 207.428C628.659 207.015 628.97 206.705 629.384 206.705C629.798 206.705 630.108 207.015 630.108 207.428C630.108 207.842 629.798 208.151 629.384 208.151C628.97 208.151 628.659 207.738 628.659 207.428Z" fill="#FFFF98"/>
<path d="M592.233 210.527C592.233 210.217 592.44 210.011 592.751 210.011C593.061 210.011 593.268 210.217 593.268 210.527C593.268 210.837 593.061 211.044 592.751 211.044C592.44 210.941 592.233 210.734 592.233 210.527Z" fill="#6E551E"/>
<path d="M578.884 211.147C578.884 210.941 579.091 210.734 579.298 210.734C579.505 210.734 579.712 210.941 579.712 211.147C579.712 211.354 579.505 211.56 579.298 211.56C579.091 211.56 578.884 211.354 578.884 211.147Z" fill="#6E551E"/>
<path d="M532.834 218.998C532.834 218.688 533.144 218.378 533.455 218.378C533.765 218.378 534.076 218.688 534.076 218.998C534.076 219.308 533.765 219.618 533.455 219.618C533.041 219.618 532.834 219.411 532.834 218.998Z" fill="#92803D"/>
<path d="M514.828 216.725C514.828 216.209 515.242 215.899 515.656 215.899C516.173 215.899 516.484 216.312 516.484 216.725C516.484 217.242 516.07 217.552 515.656 217.552C515.242 217.655 514.828 217.242 514.828 216.725Z" fill="#92803D"/>
<path d="M482.23 226.539C482.23 226.229 482.541 225.919 482.851 225.919C483.162 225.919 483.472 226.229 483.472 226.539C483.472 226.849 483.162 227.159 482.851 227.159C482.541 227.159 482.23 226.849 482.23 226.539Z" fill="#B7AA5B"/>
<path d="M456.98 230.258C456.98 229.845 457.291 229.535 457.705 229.535C458.119 229.535 458.429 229.845 458.429 230.258C458.429 230.671 458.119 230.981 457.705 230.981C457.291 230.981 456.98 230.671 456.98 230.258Z" fill="#92803D"/>
<path d="M412.793 218.895C412.793 218.378 413.207 217.965 413.724 217.965C414.242 217.965 414.656 218.378 414.656 218.895C414.656 219.411 414.242 219.824 413.724 219.824C413.207 219.824 412.793 219.411 412.793 218.895Z" fill="#B7AA5B"/>
<path d="M379.989 227.882C379.989 227.365 380.403 227.056 380.817 227.056C381.231 227.056 381.645 227.469 381.645 227.882C381.645 228.398 381.231 228.708 380.817 228.708C380.403 228.708 379.989 228.398 379.989 227.882Z" fill="#FFFF98"/>
<path d="M360.948 221.064C360.948 220.754 361.259 220.444 361.569 220.444C361.88 220.444 362.19 220.754 362.19 221.064C362.19 221.374 361.88 221.684 361.569 221.684C361.259 221.684 360.948 221.477 360.948 221.064Z" fill="#FFFF98"/>
<path d="M324.937 230.051C324.937 229.741 325.247 229.431 325.557 229.431C325.868 229.431 326.178 229.741 326.178 230.051C326.178 230.361 325.868 230.671 325.557 230.671C325.247 230.671 324.937 230.464 324.937 230.051Z" fill="#FFFF98"/>
<path d="M310.448 222.407C310.448 221.89 310.862 221.477 311.38 221.477C311.897 221.477 312.311 221.89 312.311 222.407C312.311 222.923 311.897 223.337 311.38 223.337C310.862 223.233 310.448 222.82 310.448 222.407Z" fill="#92803D"/>
<path d="M290.58 208.978C290.58 208.771 290.787 208.565 290.994 208.565C291.201 208.565 291.408 208.771 291.408 208.978C291.408 209.185 291.201 209.391 290.994 209.391C290.684 209.391 290.58 209.185 290.58 208.978Z" fill="#DBD57A"/>
<path d="M245.047 221.684C245.047 221.374 245.254 221.064 245.668 221.064C246.082 221.064 246.289 221.271 246.289 221.684C246.289 221.994 246.082 222.304 245.668 222.304C245.254 222.304 245.047 221.994 245.047 221.684Z" fill="#92803D"/>
<path d="M219.9 230.981C219.9 230.568 220.211 230.258 220.625 230.258C221.039 230.258 221.349 230.568 221.349 230.981C221.349 231.394 221.039 231.704 220.625 231.704C220.211 231.704 219.9 231.394 219.9 230.981Z" fill="#DBD57A"/>
<path d="M195.064 210.837C195.064 210.424 195.375 210.114 195.789 210.114C196.203 210.114 196.513 210.424 196.513 210.837C196.513 211.251 196.203 211.56 195.789 211.56C195.375 211.457 195.064 211.147 195.064 210.837Z" fill="#92803D"/>
<path d="M183.268 207.635C183.268 207.222 183.681 206.809 184.095 206.809C184.509 206.809 184.923 207.222 184.923 207.635C184.923 208.048 184.509 208.461 184.095 208.461C183.578 208.461 183.268 208.151 183.268 207.635Z" fill="#92803D"/>
<path d="M128.836 228.502C128.836 228.295 129.043 228.089 129.25 228.089C129.457 228.089 129.664 228.295 129.664 228.502C129.664 228.708 129.457 228.915 129.25 228.915C129.043 228.915 128.836 228.708 128.836 228.502Z" fill="#92803D"/>
<path d="M114.451 216.416C114.451 215.899 114.865 215.486 115.383 215.486C115.9 215.486 116.314 215.899 116.314 216.416C116.314 216.932 115.9 217.345 115.383 217.345C114.865 217.242 114.451 216.829 114.451 216.416Z" fill="#92803D"/>
<path d="M77.7148 225.299C77.7148 224.886 78.0253 224.68 78.3357 224.68C78.6462 224.68 78.9566 224.99 78.9566 225.299C78.9566 225.713 78.6462 225.919 78.3357 225.919C78.0253 225.919 77.7148 225.609 77.7148 225.299Z" fill="#FFFF98"/>
<path d="M36.6318 204.536C36.6318 204.329 36.8388 204.123 37.0458 204.123C37.2527 204.123 37.4597 204.329 37.4597 204.536C37.4597 204.743 37.2527 204.949 37.0458 204.949C36.8388 205.052 36.6318 204.846 36.6318 204.536Z" fill="#6E551E"/>
<path d="M17.9014 215.176C17.9014 214.866 18.1083 214.659 18.4188 214.659C18.7292 214.659 18.9362 214.866 18.9362 215.176C18.9362 215.486 18.7292 215.692 18.4188 215.692C18.1083 215.692 17.9014 215.383 17.9014 215.176Z" fill="#B7AA5B"/>
<path d="M-0.000976608 219.824C-0.000976635 219.515 0.20599 219.308 0.516439 219.308C0.826889 219.308 1.03386 219.515 1.03386 219.824C1.03386 220.134 0.826889 220.341 0.516439 220.341C0.20599 220.341 -0.000976581 220.134 -0.000976608 219.824Z" fill="#FFFF98"/>
<path d="M689.403 224.886C689.403 224.473 689.714 224.06 690.231 224.06C690.645 224.06 691.059 224.37 691.059 224.886C691.059 225.299 690.749 225.713 690.231 225.713C689.714 225.609 689.403 225.299 689.403 224.886Z" fill="#B7AA5B"/>
<path d="M653.599 243.48C653.599 243.067 653.909 242.654 654.427 242.654C654.84 242.654 655.254 242.964 655.254 243.48C655.254 243.894 654.944 244.307 654.427 244.307C653.909 244.307 653.599 243.894 653.599 243.48Z" fill="#FFFF98"/>
<path d="M631.66 237.592C631.66 237.076 632.074 236.662 632.591 236.662C633.109 236.662 633.523 237.076 633.523 237.592C633.523 238.109 633.109 238.522 632.591 238.522C632.074 238.522 631.66 238.109 631.66 237.592Z" fill="#B7AA5B"/>
<path d="M603.927 246.166C603.927 245.65 604.341 245.236 604.858 245.236C605.376 245.236 605.79 245.65 605.79 246.166C605.79 246.683 605.376 247.096 604.858 247.096C604.237 247.096 603.927 246.683 603.927 246.166Z" fill="#DBD57A"/>
<path d="M562.016 240.381C562.016 239.968 562.326 239.658 562.74 239.658C563.154 239.658 563.464 239.968 563.464 240.381C563.464 240.794 563.154 241.104 562.74 241.104C562.326 241.104 562.016 240.794 562.016 240.381Z" fill="#FFFF98"/>
<path d="M540.802 229.225C540.802 228.812 541.112 228.502 541.526 228.502C541.94 228.502 542.251 228.812 542.251 229.225C542.251 229.638 541.94 229.948 541.526 229.948C541.216 229.948 540.802 229.638 540.802 229.225Z" fill="#6E551E"/>
<path d="M503.858 242.447C503.858 242.034 504.169 241.724 504.583 241.724C504.997 241.724 505.307 242.034 505.307 242.447C505.307 242.861 504.997 243.17 504.583 243.17C504.169 243.067 503.858 242.861 503.858 242.447Z" fill="#DBD57A"/>
<path d="M484.61 238.212C484.61 238.005 484.817 237.799 485.024 237.799C485.231 237.799 485.438 238.005 485.438 238.212C485.438 238.419 485.231 238.625 485.024 238.625C484.817 238.625 484.61 238.419 484.61 238.212Z" fill="#FFFF98"/>
<path d="M468.984 228.915C468.984 228.502 469.295 228.192 469.709 228.192C470.123 228.192 470.433 228.502 470.433 228.915C470.433 229.328 470.123 229.638 469.709 229.638C469.295 229.638 468.984 229.328 468.984 228.915Z" fill="#B7AA5B"/>
<path d="M415.381 245.03C415.381 244.823 415.588 244.617 415.795 244.617C416.002 244.617 416.209 244.823 416.209 245.03C416.209 245.236 416.002 245.443 415.795 245.443C415.588 245.546 415.381 245.34 415.381 245.03Z" fill="#6E551E"/>
<path d="M379.989 252.364C379.989 251.951 380.3 251.641 380.714 251.641C381.128 251.641 381.438 251.951 381.438 252.364C381.438 252.777 381.128 253.087 380.714 253.087C380.3 253.087 379.989 252.777 379.989 252.364Z" fill="#DBD57A"/>
<path d="M347.081 233.563C347.081 233.254 347.288 233.047 347.598 233.047C347.909 233.047 348.116 233.254 348.116 233.563C348.116 233.873 347.909 234.08 347.598 234.08C347.288 234.08 347.081 233.77 347.081 233.563Z" fill="#DBD57A"/>
<path d="M344.184 247.716C344.184 247.302 344.494 247.096 344.804 247.096C345.218 247.096 345.425 247.406 345.425 247.716C345.425 248.129 345.115 248.335 344.804 248.335C344.494 248.439 344.184 248.129 344.184 247.716Z" fill="#92803D"/>
<path d="M308.896 229.431C308.896 228.915 309.31 228.605 309.724 228.605C310.242 228.605 310.552 229.018 310.552 229.431C310.552 229.948 310.138 230.258 309.724 230.258C309.207 230.361 308.896 229.948 308.896 229.431Z" fill="#92803D"/>
<path d="M285.095 246.889C285.095 246.476 285.405 246.063 285.923 246.063C286.337 246.063 286.75 246.373 286.75 246.889C286.75 247.302 286.44 247.716 285.923 247.716C285.509 247.716 285.095 247.302 285.095 246.889Z" fill="#92803D"/>
<path d="M243.392 251.744C243.392 251.538 243.599 251.331 243.806 251.331C244.013 251.331 244.219 251.538 244.219 251.744C244.219 251.951 244.013 252.158 243.806 252.158C243.599 252.158 243.392 251.951 243.392 251.744Z" fill="#92803D"/>
<path d="M207.275 233.15C207.275 232.944 207.482 232.737 207.689 232.737C207.896 232.737 208.103 232.944 208.103 233.15C208.103 233.357 207.896 233.563 207.689 233.563C207.482 233.563 207.275 233.357 207.275 233.15Z" fill="#FFFF98"/>
<path d="M177.68 229.431C177.68 229.122 177.887 228.915 178.197 228.915C178.508 228.915 178.715 229.122 178.715 229.431C178.715 229.741 178.508 229.948 178.197 229.948C177.99 230.051 177.68 229.741 177.68 229.431Z" fill="#92803D"/>
<path d="M153.465 226.952C153.465 226.642 153.775 226.332 154.086 226.332C154.396 226.332 154.707 226.642 154.707 226.952C154.707 227.262 154.396 227.572 154.086 227.572C153.775 227.572 153.465 227.365 153.465 226.952Z" fill="#92803D"/>
<path d="M116.935 244.41C116.935 244.1 117.142 243.894 117.452 243.894C117.762 243.894 117.969 244.1 117.969 244.41C117.969 244.72 117.762 244.927 117.452 244.927C117.142 245.03 116.935 244.72 116.935 244.41Z" fill="#FFFF98"/>
<path d="M90.4434 245.443C90.4434 245.03 90.7538 244.72 91.1677 244.72C91.5817 244.72 91.8921 245.03 91.8921 245.443C91.8921 245.856 91.5817 246.166 91.1677 246.166C90.7538 246.166 90.4434 245.856 90.4434 245.443Z" fill="#B7AA5B"/>
<path d="M75.8525 228.915C75.8525 228.605 76.0595 228.398 76.37 228.398C76.6804 228.398 76.8874 228.605 76.8874 228.915C76.8874 229.225 76.6804 229.431 76.37 229.431C76.0595 229.431 75.8525 229.225 75.8525 228.915Z" fill="#92803D"/>
<path d="M63.2275 238.935C63.2275 238.625 63.4345 238.419 63.745 238.419C64.0554 238.419 64.2624 238.625 64.2624 238.935C64.2624 239.245 64.0554 239.452 63.745 239.452C63.538 239.452 63.2275 239.245 63.2275 238.935Z" fill="#DBD57A"/>
<path d="M677.296 257.942C677.296 257.633 677.503 257.426 677.813 257.426C678.124 257.426 678.331 257.633 678.331 257.942C678.331 258.252 678.124 258.459 677.813 258.459C677.503 258.459 677.296 258.252 677.296 257.942Z" fill="#FFFF98"/>
<path d="M674.916 262.281C674.916 262.075 675.123 261.868 675.33 261.868C675.537 261.868 675.744 262.075 675.744 262.281C675.744 262.488 675.537 262.694 675.33 262.694C675.019 262.694 674.916 262.488 674.916 262.281Z" fill="#FFFF98"/>
<path d="M640.663 253.191C640.663 252.777 640.974 252.468 641.387 252.468C641.801 252.468 642.112 252.777 642.112 253.191C642.112 253.604 641.801 253.914 641.387 253.914C641.077 253.914 640.663 253.604 640.663 253.191Z" fill="#6E551E"/>
<path d="M590.06 265.173C590.06 264.76 590.37 264.45 590.784 264.45C591.198 264.45 591.508 264.76 591.508 265.173C591.508 265.587 591.198 265.897 590.784 265.897C590.267 265.793 590.06 265.483 590.06 265.173Z" fill="#92803D"/>
<path d="M512.965 257.219C512.965 256.703 513.379 256.186 514 256.186C514.621 256.186 515.035 256.6 515.035 257.219C515.035 257.736 514.621 258.252 514 258.252C513.379 258.252 512.965 257.839 512.965 257.219Z" fill="#6E551E"/>
<path d="M430.386 247.096C430.386 246.683 430.696 246.373 431.11 246.373C431.524 246.373 431.834 246.683 431.834 247.096C431.834 247.509 431.524 247.819 431.11 247.819C430.696 247.819 430.386 247.509 430.386 247.096Z" fill="#DBD57A"/>
<path d="M362.707 249.885C362.707 249.265 363.224 248.852 363.742 248.852C364.363 248.852 364.777 249.368 364.777 249.885C364.777 250.505 364.259 250.918 363.742 250.918C363.224 250.918 362.707 250.505 362.707 249.885Z" fill="#6E551E"/>
<path d="M334.043 265.483C334.043 265.174 334.25 264.967 334.56 264.967C334.871 264.967 335.078 265.174 335.078 265.483C335.078 265.793 334.871 266 334.56 266C334.25 266 334.043 265.793 334.043 265.483Z" fill="#B7AA5B"/>
<path d="M287.062 257.633C287.062 257.426 287.268 257.219 287.475 257.219C287.682 257.219 287.889 257.426 287.889 257.633C287.889 257.839 287.682 258.046 287.475 258.046C287.268 258.046 287.062 257.839 287.062 257.633Z" fill="#FFFF98"/>
<path d="M272.884 252.158C272.884 251.641 273.298 251.228 273.815 251.228C274.333 251.228 274.746 251.641 274.746 252.158C274.746 252.674 274.333 253.087 273.815 253.087C273.298 253.087 272.884 252.674 272.884 252.158Z" fill="#92803D"/>
<path d="M119.419 250.505C119.419 250.092 119.729 249.782 120.143 249.782C120.557 249.782 120.868 250.092 120.868 250.505C120.868 250.918 120.557 251.228 120.143 251.228C119.729 251.125 119.419 250.815 119.419 250.505Z" fill="#B7AA5B"/>
<path d="M75.8525 253.087C75.8525 252.674 76.163 252.364 76.5769 252.364C76.9909 252.364 77.3013 252.674 77.3013 253.087C77.3013 253.501 76.9909 253.81 76.5769 253.81C76.163 253.81 75.8525 253.501 75.8525 253.087Z" fill="#B7AA5B"/>
</g>
</g>
<defs>
<clipPath id="clip0_74_269">
<rect width="716" height="266" fill="white" transform="matrix(1 -8.74228e-08 -8.74228e-08 -1 -0.000976562 266)"/>
</clipPath>
</defs>
</svg>
