<svg width="198" height="70" viewBox="0 0 198 70" fill="none" xmlns="http://www.w3.org/2000/svg">
<g clip-path="url(#clip0_85_46410)">
<path d="M152.893 41.7647C151.136 43.7059 148.558 44.9412 145.747 44.9412C140.416 44.9412 136.081 40.5882 136.081 35.2353C136.081 29.8823 140.416 25.5294 145.747 25.5294C147.855 25.5294 149.73 26.1765 151.312 27.3529L156.584 19.8823C153.538 17.7059 149.789 16.4118 145.747 16.4118C135.378 16.4118 127.001 24.8235 127.001 35.2353C127.001 45.6471 135.378 54.0588 145.747 54.0588C150.55 54.0588 154.885 52.2353 158.224 49.2941L152.893 41.7647Z" fill="white"/>
<path d="M110.247 17.5294L104.975 24.9412C110.188 25.4706 114.23 29.8824 114.23 35.2353C114.23 40.9412 109.602 45.5882 103.92 45.5882V24.8823V16.4118V8.23529H95.1919V16.4118C84.8232 16.4118 76.4463 24.8235 76.4463 35.2353C76.4463 45.6471 84.8232 54.0588 95.1919 54.0588V62.5294H103.92V54.1177C114.289 54.1177 122.666 45.7059 122.666 35.2941C122.724 27.0588 117.511 20.1176 110.247 17.5294ZM84.8818 35.2353C84.8818 29.5294 89.5096 24.8823 95.1919 24.8823V45.5882C89.5096 45.6471 84.8818 41 84.8818 35.2353Z" fill="white"/>
<path d="M173.162 53.3529H163.613V17.1765H173.162V53.3529ZM174.392 35.2353L187.28 17.1176H197.238L184.233 34.9412L197.941 53.2941H187.865L174.392 35.2353Z" fill="white"/>
<path d="M25.5991 21.7059H63.2074C59.4583 13.2941 52.3116 6.70588 43.5246 3.70588L25.5991 21.7059Z" fill="white"/>
<path d="M65.0822 27H19.2727C18.2183 27 17.2224 26.3529 16.8124 25.3529C16.4023 24.3529 16.6366 23.2353 17.3982 22.4706L37.5496 2.23529C36.0266 1.99999 34.5035 1.88236 32.9218 1.88236C14.5863 1.88236 -0.292969 16.8235 -0.292969 35.2353C-0.292969 37.7059 -6.75619e-05 40.1176 0.468571 42.4118H46.8053C47.8597 42.4118 48.8556 43.0588 49.2656 44.0588C49.6757 45.0588 49.4414 46.1765 48.6798 46.9412L27.5911 68.1176C29.3485 68.4118 31.1058 68.5294 32.9218 68.5294C51.2573 68.5294 66.1366 53.5882 66.1366 35.1765C66.078 32.4118 65.7266 29.6471 65.0822 27Z" fill="white"/>
<path d="M40.4196 47.7647H2.1084C5.62319 56.5294 12.7699 63.4118 21.6155 66.647L40.4196 47.7647Z" fill="white"/>
</g>
<defs>
<clipPath id="clip0_85_46410">
<rect width="198" height="70" fill="white"/>
</clipPath>
</defs>
</svg>
