<svg width="41" height="41" viewBox="0 0 41 41" fill="none" xmlns="http://www.w3.org/2000/svg">
<path fill-rule="evenodd" clip-rule="evenodd" d="M20.9808 25.954C20.9808 25.954 21.3418 25.9154 21.5267 25.7239C21.6959 25.5485 21.69 25.2175 21.69 25.2175C21.69 25.2175 21.6675 23.6718 22.4119 23.4436C23.1456 23.2192 24.0876 24.9384 25.0873 25.5994C25.8425 26.0993 26.4157 25.9899 26.4157 25.9899L29.0872 25.954C29.0872 25.954 30.4841 25.871 29.8218 24.812C29.767 24.7252 29.4354 24.0283 27.8361 22.5968C26.1604 21.0982 26.3854 21.3406 28.4024 18.7482C29.6311 17.1695 30.1221 16.2057 29.9685 15.7936C29.8228 15.3994 28.9189 15.5041 28.9189 15.5041L25.9119 15.522C25.9119 15.522 25.6889 15.4927 25.5236 15.588C25.3622 15.6814 25.2575 15.8992 25.2575 15.8992C25.2575 15.8992 24.7821 17.1205 24.1473 18.1597C22.8081 20.3514 22.273 20.4673 22.0539 20.3315C21.5443 20.0137 21.6714 19.0565 21.6714 18.3766C21.6714 16.2519 22.006 15.3664 21.0209 15.1372C20.6942 15.0608 20.4536 15.0108 19.6172 15.0024C18.5441 14.992 17.6364 15.0061 17.1218 15.2485C16.7795 15.4098 16.5153 15.77 16.6767 15.7908C16.8753 15.8162 17.3253 15.9077 17.564 16.2208C17.8721 16.6254 17.8613 17.5326 17.8613 17.5326C17.8613 17.5326 18.0384 20.0335 17.4476 20.3438C17.0426 20.5569 16.487 20.1222 15.2926 18.1333C14.6812 17.1148 14.2195 15.9888 14.2195 15.9888C14.2195 15.9888 14.1305 15.7785 13.971 15.6653C13.7783 15.5286 13.5093 15.4861 13.5093 15.4861L10.652 15.5041C10.652 15.5041 10.2226 15.5154 10.0651 15.6955C9.92521 15.8549 10.0543 16.1859 10.0543 16.1859C10.0543 16.1859 12.2915 21.2322 14.825 23.7756C17.1482 26.1068 19.7855 25.954 19.7855 25.954H20.9808Z" fill="#FEFF00"/>
<path d="M1 8.70145V40H40V1H8.70145L1 8.70145Z" stroke="#FEFF00" stroke-width="2"/>
</svg>
