<svg width="41" height="41" viewBox="0 0 41 41" fill="none" xmlns="http://www.w3.org/2000/svg">
<path d="M1 32.2985V1H40V40H8.70145L1 32.2985Z" fill="#FEFF00" stroke="#FEFF00" stroke-width="2"/>
<path d="M27.258 13.0454C27.258 13.0454 28.8769 12.4142 28.742 13.9472C28.697 14.5784 28.2923 16.7878 27.9775 19.1776L26.8983 26.2566C26.8983 26.2566 26.8084 27.2937 25.9989 27.474C25.1895 27.6544 23.9753 26.8428 23.7505 26.6624C23.5706 26.5272 20.3778 24.4981 19.2536 23.5062C18.9388 23.2356 18.579 22.6945 19.2985 22.0633L24.0203 17.5544C24.5599 17.0133 25.0995 15.7508 22.8511 17.2838L16.5555 21.5673C16.5555 21.5673 15.836 22.0182 14.4869 21.6124L11.5639 20.7106C11.5639 20.7106 10.4847 20.0343 12.3284 19.3579C16.8253 17.2387 22.3565 15.0744 27.258 13.0454Z" fill="black"/>
</svg>
