<svg width="41" height="41" viewBox="0 0 41 41" fill="none" xmlns="http://www.w3.org/2000/svg">
<g clip-path="url(#clip0_215_30)">
<path d="M18.9517 30.0643C18.9517 29.9836 18.9356 29.903 18.9356 29.8062C18.9356 26.9352 18.9356 24.0804 18.9356 21.2094C18.9356 21.1288 18.9356 21.0482 18.9356 20.9352C17.9034 20.9352 16.8872 20.9352 15.8711 20.9352C15.8711 19.7417 15.8711 18.5643 15.8711 17.3707C16.8872 17.3707 17.9034 17.3707 18.9356 17.3707C18.9356 17.274 18.9356 17.1933 18.9356 17.1127C18.9356 16.1772 18.9195 15.2417 18.9517 14.3223C19.0001 13.1933 19.3227 12.1772 20.1292 11.3385C20.7259 10.7094 21.484 10.3385 22.3227 10.1611C23.0163 10.0159 23.7098 10.032 24.4033 10.0643C24.9679 10.0804 25.5324 10.1288 26.0969 10.1772C26.1453 10.1772 26.1775 10.1933 26.2421 10.2094C26.2421 11.2578 26.2421 12.3062 26.2421 13.3869C26.1775 13.3869 26.113 13.3869 26.0324 13.3869C25.3388 13.403 24.6453 13.3869 23.9356 13.4191C23.113 13.4675 22.6453 13.9191 22.613 14.7417C22.5808 15.5965 22.5969 16.4675 22.5969 17.3223C22.5969 17.3385 22.613 17.3385 22.613 17.3869C23.7582 17.3869 24.9195 17.3869 26.0969 17.3869C25.9356 18.5804 25.7904 19.7578 25.6453 20.9514C24.6292 20.9514 23.6292 20.9514 22.5969 20.9514C22.5969 21.032 22.5808 21.0804 22.5808 21.1449C22.5808 24.0804 22.5808 27.0159 22.5808 29.9514C22.5808 29.9998 22.5808 30.0482 22.5969 30.0804C21.4033 30.0643 20.1775 30.0643 18.9517 30.0643Z" fill="#FEFF00"/>
</g>
<path d="M40 1L1 1.00001L1.00001 40L32.2986 40L40 32.2985L40 1Z" stroke="#FEFF00" stroke-width="2"/>
<defs>
<clipPath id="clip0_215_30">
<rect width="20" height="20" fill="white" transform="translate(11 9.99976)"/>
</clipPath>
</defs>
</svg>
