<svg width="41" height="41" viewBox="0 0 41 41" fill="none" xmlns="http://www.w3.org/2000/svg">
<g clip-path="url(#clip0_215_29)">
<path d="M11.0391 20.2287C11.0391 19.6974 11.0391 19.1697 11.0391 18.6384C11.0547 18.4613 11.0625 18.2806 11.0819 18.1035C11.1716 17.2035 11.2457 16.3036 11.3626 15.4108C11.4718 14.5867 11.9163 13.9434 12.7155 13.535C13.117 13.3289 13.5615 13.2567 14.0059 13.2277C15.4718 13.141 16.9338 13.0326 18.3997 13.0145C20.6219 12.9856 22.8441 13.0037 25.0625 13.0543C26.1892 13.0796 27.3159 13.188 28.4387 13.3C29.5576 13.4157 30.3763 14.106 30.5985 15.1289C30.7545 15.8518 30.8207 16.5927 30.9104 17.3264C30.9611 17.7385 30.9689 18.1541 30.9962 18.5661C30.9962 19.1191 30.9962 19.6757 30.9962 20.2287C30.9845 20.3119 30.9689 20.395 30.965 20.4781C30.9299 21.4829 30.8636 22.4877 30.6804 23.4817C30.4504 24.7322 29.6862 25.4768 28.3373 25.6105C27.0469 25.7406 25.7486 25.8346 24.4543 25.8563C22.1697 25.896 19.8812 25.896 17.5966 25.8563C16.2944 25.8346 14.9923 25.7226 13.694 25.6069C12.4621 25.4948 11.6239 24.7756 11.4016 23.6407C11.2613 22.9323 11.2028 22.2094 11.1248 21.4901C11.078 21.0709 11.0664 20.648 11.0391 20.2287ZM19.0352 22.2239C20.7818 21.2914 22.4972 20.3769 24.2437 19.4444C22.4894 18.5083 20.774 17.5939 19.0352 16.665C19.0352 18.5264 19.0352 20.3552 19.0352 22.2239Z" fill="#FEFF00"/>
</g>
<path d="M40 8.70145V40H1V1H32.2986L40 8.70145Z" stroke="#FEFF00" stroke-width="2"/>
<defs>
<clipPath id="clip0_215_29">
<rect width="20" height="12.9032" fill="white" transform="translate(11 13)"/>
</clipPath>
</defs>
</svg>
