<svg width="580" height="630" viewBox="0 0 580 630" fill="none" xmlns="http://www.w3.org/2000/svg">
<g opacity="0.5">
<path d="M304.732 621.18C304.732 621.81 305.363 622.44 305.993 622.44C306.623 622.44 307.253 621.81 307.253 621.18C307.253 620.55 306.623 619.92 305.993 619.92C305.205 619.92 304.732 620.392 304.732 621.18Z" fill="white"/>
<path d="M296.697 599.445C296.697 600.233 297.328 600.705 297.958 600.705C298.588 600.705 299.218 600.075 299.218 599.445C299.218 598.658 298.588 598.185 297.958 598.185C297.328 598.185 296.697 598.658 296.697 599.445Z" fill="white"/>
<path d="M263.766 587.317C263.766 587.947 264.238 588.42 264.869 588.42C265.499 588.42 265.972 587.947 265.972 587.317C265.972 586.687 265.499 586.215 264.869 586.215C264.238 586.215 263.766 586.687 263.766 587.317Z" fill="white"/>
<path d="M249.111 617.4C249.111 617.873 249.584 618.345 250.057 618.345C250.529 618.345 251.002 617.873 251.002 617.4C251.002 616.928 250.529 616.455 250.057 616.455C249.426 616.455 249.111 616.928 249.111 617.4Z" fill="white"/>
<path d="M214.447 629.055C214.447 629.527 214.92 630 215.393 630C215.865 630 216.338 629.527 216.338 629.055C216.338 628.582 215.865 628.11 215.393 628.11C214.92 628.267 214.447 628.582 214.447 629.055Z" fill="white"/>
<path d="M128.73 583.538C128.73 584.01 129.046 584.325 129.518 584.325C129.991 584.325 130.306 584.01 130.306 583.538C130.306 583.065 129.991 582.75 129.518 582.75C129.203 582.75 128.73 583.065 128.73 583.538Z" fill="white"/>
<path d="M324.9 560.227C324.9 560.857 325.373 561.487 326.161 561.487C326.791 561.487 327.421 561.015 327.421 560.227C327.421 559.44 326.949 558.967 326.161 558.967C325.531 558.967 324.9 559.597 324.9 560.227Z" fill="white"/>
<path d="M272.432 574.717C272.432 575.347 272.904 575.82 273.535 575.82C274.165 575.82 274.638 575.347 274.638 574.717C274.638 574.087 274.165 573.615 273.535 573.615C272.904 573.615 272.432 574.087 272.432 574.717Z" fill="white"/>
<path d="M227.053 555.975C227.053 556.447 227.525 556.92 227.998 556.92C228.471 556.92 228.944 556.447 228.944 555.975C228.944 555.502 228.471 555.03 227.998 555.03C227.525 555.03 227.053 555.502 227.053 555.975Z" fill="white"/>
<path d="M207.199 580.703C207.199 581.49 207.829 582.12 208.617 582.12C209.405 582.12 210.035 581.49 210.035 580.703C210.035 579.915 209.405 579.285 208.617 579.285C207.829 579.285 207.199 579.915 207.199 580.703Z" fill="white"/>
<path d="M140.707 554.557C140.707 554.872 140.865 555.03 141.18 555.03C141.495 555.03 141.652 554.872 141.652 554.557C141.652 554.242 141.495 554.085 141.18 554.085C140.865 554.085 140.707 554.4 140.707 554.557Z" fill="white"/>
<path d="M108.406 575.663C108.406 576.135 108.721 576.45 109.194 576.45C109.667 576.45 109.982 576.135 109.982 575.663C109.982 575.19 109.667 574.875 109.194 574.875C108.721 574.875 108.406 575.19 108.406 575.663Z" fill="white"/>
<path d="M31.8281 572.67C31.8281 572.985 32.1433 573.3 32.4584 573.3C32.7735 573.3 33.0887 572.985 33.0887 572.67C33.0887 572.355 32.7735 572.04 32.4584 572.04C32.1433 572.04 31.8281 572.355 31.8281 572.67Z" fill="white"/>
<path d="M14.3379 554.715C14.3379 555.188 14.653 555.503 15.1257 555.503C15.5984 555.503 15.9135 555.188 15.9135 554.715C15.9135 554.243 15.5984 553.928 15.1257 553.928C14.653 553.77 14.3379 554.243 14.3379 554.715Z" fill="white"/>
<path d="M326.16 532.193C326.16 532.665 326.633 533.138 327.106 533.138C327.578 533.138 328.051 532.665 328.051 532.193C328.051 531.72 327.578 531.248 327.106 531.248C326.633 531.248 326.16 531.72 326.16 532.193Z" fill="white"/>
<path d="M298.588 530.933C298.588 531.405 298.903 531.72 299.376 531.72C299.848 531.72 300.164 531.405 300.164 530.933C300.164 530.46 299.848 530.145 299.376 530.145C298.903 530.145 298.588 530.46 298.588 530.933Z" fill="white"/>
<path d="M218.701 520.222C218.701 520.537 219.016 520.852 219.331 520.852C219.647 520.852 219.962 520.537 219.962 520.222C219.962 519.907 219.647 519.592 219.331 519.592C218.859 519.75 218.701 519.907 218.701 520.222Z" fill="white"/>
<path d="M179.625 518.017C179.625 518.49 180.098 518.962 180.57 518.962C181.043 518.962 181.516 518.49 181.516 518.017C181.516 517.545 181.043 517.072 180.57 517.072C180.098 516.915 179.625 517.387 179.625 518.017Z" fill="white"/>
<path d="M118.963 522.27C118.963 522.9 119.593 523.53 120.223 523.53C120.854 523.53 121.484 522.9 121.484 522.27C121.484 521.64 120.854 521.01 120.223 521.01C119.593 520.853 118.963 521.483 118.963 522.27Z" fill="white"/>
<path d="M85.0859 509.04C85.0859 509.513 85.4011 509.828 85.8738 509.828C86.3465 509.828 86.6616 509.513 86.6616 509.04C86.6616 508.568 86.3465 508.253 85.8738 508.253C85.4011 508.253 85.0859 508.568 85.0859 509.04Z" fill="white"/>
<path d="M36.082 544.792C36.082 545.107 36.3972 545.422 36.7123 545.422C37.0274 545.422 37.3426 545.107 37.3426 544.792C37.3426 544.477 37.0274 544.162 36.7123 544.162C36.3972 544.162 36.082 544.477 36.082 544.792Z" fill="white"/>
<path d="M12.4473 526.05C12.4473 526.522 12.7624 526.837 13.2351 526.837C13.7078 526.837 14.0229 526.522 14.0229 526.05C14.0229 525.577 13.7078 525.262 13.2351 525.262C12.7624 525.105 12.4473 525.577 12.4473 526.05Z" fill="white"/>
<path d="M466.867 485.73C466.867 486.203 467.182 486.518 467.655 486.518C468.128 486.518 468.443 486.203 468.443 485.73C468.443 485.258 468.128 484.943 467.655 484.943C467.34 484.943 466.867 485.258 466.867 485.73Z" fill="white"/>
<path d="M392.969 503.528C392.969 504 393.284 504.315 393.757 504.315C394.229 504.315 394.544 504 394.544 503.528C394.544 503.055 394.229 502.74 393.757 502.74C393.284 502.74 392.969 503.055 392.969 503.528Z" fill="white"/>
<path d="M349.166 509.513C349.166 509.985 349.639 510.458 350.111 510.458C350.584 510.458 351.057 509.985 351.057 509.513C351.057 509.04 350.584 508.568 350.111 508.568C349.481 508.725 349.166 509.04 349.166 509.513Z" fill="white"/>
<path d="M317.023 498.487C317.023 499.117 317.496 499.59 318.126 499.59C318.757 499.59 319.229 499.117 319.229 498.487C319.229 497.857 318.757 497.385 318.126 497.385C317.496 497.385 317.023 497.857 317.023 498.487Z" fill="white"/>
<path d="M269.438 480.533C269.438 481.005 269.91 481.478 270.383 481.478C270.856 481.478 271.328 481.005 271.328 480.533C271.328 480.06 270.856 479.587 270.383 479.587C269.91 479.587 269.438 480.06 269.438 480.533Z" fill="white"/>
<path d="M259.195 498.172C259.195 498.645 259.51 498.96 259.983 498.96C260.456 498.96 260.771 498.645 260.771 498.172C260.771 497.7 260.456 497.385 259.983 497.385C259.51 497.385 259.195 497.7 259.195 498.172Z" fill="white"/>
<path d="M166.389 521.167C166.389 521.955 167.019 522.585 167.807 522.585C168.595 522.585 169.225 521.955 169.225 521.167C169.225 520.38 168.595 519.75 167.807 519.75C167.019 519.75 166.389 520.38 166.389 521.167Z" fill="white"/>
<path d="M159.93 496.125C159.93 496.44 160.245 496.755 160.56 496.755C160.875 496.755 161.19 496.44 161.19 496.125C161.19 495.81 160.875 495.495 160.56 495.495C160.245 495.338 159.93 495.653 159.93 496.125Z" fill="white"/>
<path d="M102.418 513.922C102.418 514.237 102.733 514.553 103.048 514.553C103.363 514.553 103.679 514.237 103.679 513.922C103.679 513.607 103.363 513.292 103.048 513.292C102.733 513.292 102.418 513.607 102.418 513.922Z" fill="white"/>
<path d="M25.8398 483.367C25.8398 483.997 26.3125 484.313 26.7852 484.313C27.2579 484.313 27.7306 483.84 27.7306 483.367C27.7306 482.737 27.2579 482.422 26.7852 482.422C26.3125 482.422 25.8398 482.895 25.8398 483.367Z" fill="white"/>
<path d="M0 464.31C0 464.782 0.315132 465.097 0.787829 465.097C1.26053 465.097 1.57566 464.782 1.57566 464.31C1.57566 463.837 1.26053 463.522 0.787829 463.522C0.315132 463.365 0 463.837 0 464.31Z" fill="white"/>
<path d="M496.49 435.96C496.49 436.275 496.805 436.59 497.12 436.59C497.436 436.59 497.751 436.275 497.751 435.96C497.751 435.645 497.436 435.33 497.12 435.33C496.805 435.173 496.49 435.487 496.49 435.96Z" fill="white"/>
<path d="M442.445 449.19C442.445 449.663 442.76 449.978 443.233 449.978C443.706 449.978 444.021 449.663 444.021 449.19C444.021 448.718 443.706 448.403 443.233 448.403C442.76 448.403 442.445 448.718 442.445 449.19Z" fill="white"/>
<path d="M379.891 438.953C379.891 439.425 380.363 439.897 380.836 439.897C381.309 439.897 381.781 439.425 381.781 438.953C381.781 438.48 381.309 438.008 380.836 438.008C380.363 438.008 379.891 438.48 379.891 438.953Z" fill="white"/>
<path d="M358.461 468.72C358.461 469.35 358.934 469.98 359.721 469.98C360.352 469.98 360.982 469.508 360.982 468.72C360.982 468.09 360.509 467.46 359.721 467.46C359.091 467.617 358.461 468.09 358.461 468.72Z" fill="white"/>
<path d="M340.186 449.347C340.186 449.82 340.501 450.135 340.973 450.135C341.446 450.135 341.761 449.82 341.761 449.347C341.761 448.875 341.446 448.56 340.973 448.56C340.658 448.56 340.186 448.875 340.186 449.347Z" fill="white"/>
<path d="M277.945 424.778C277.945 425.25 278.26 425.565 278.733 425.565C279.206 425.565 279.521 425.25 279.521 424.778C279.521 424.305 279.206 423.99 278.733 423.99C278.26 423.99 277.945 424.305 277.945 424.778Z" fill="white"/>
<path d="M214.605 474.862C214.605 475.492 215.078 475.807 215.551 475.807C216.024 475.807 216.496 475.335 216.496 474.862C216.496 474.232 216.024 473.917 215.551 473.917C215.078 473.917 214.605 474.39 214.605 474.862Z" fill="white"/>
<path d="M186.873 447.772C186.873 448.245 187.346 448.717 187.818 448.717C188.291 448.717 188.764 448.245 188.764 447.772C188.764 447.3 188.291 446.828 187.818 446.828C187.346 446.828 186.873 447.3 186.873 447.772Z" fill="white"/>
<path d="M169.068 436.432C169.068 436.905 169.541 437.378 170.014 437.378C170.486 437.378 170.959 436.905 170.959 436.432C170.959 435.96 170.486 435.487 170.014 435.487C169.541 435.487 169.068 435.96 169.068 436.432Z" fill="white"/>
<path d="M98.1641 446.355C98.1641 446.828 98.4792 447.143 98.9519 447.143C99.4246 447.143 99.7397 446.828 99.7397 446.355C99.7397 445.883 99.4246 445.568 98.9519 445.568C98.6368 445.568 98.1641 445.883 98.1641 446.355Z" fill="white"/>
<path d="M44.2754 464.31C44.2754 464.782 44.5905 465.097 45.0632 465.097C45.5359 465.097 45.851 464.782 45.851 464.31C45.851 463.837 45.5359 463.522 45.0632 463.522C44.5905 463.522 44.2754 463.837 44.2754 464.31Z" fill="white"/>
<path d="M36.5547 440.37C36.5547 440.842 37.0274 441.315 37.5001 441.315C37.9728 441.315 38.4455 440.842 38.4455 440.37C38.4455 439.897 37.9728 439.425 37.5001 439.425C37.0274 439.425 36.5547 439.897 36.5547 440.37Z" fill="white"/>
<path d="M565.82 428.085C565.82 428.715 566.293 429.187 566.923 429.187C567.554 429.187 568.026 428.715 568.026 428.085C568.026 427.455 567.554 426.982 566.923 426.982C566.293 426.982 565.82 427.455 565.82 428.085Z" fill="white"/>
<path d="M553.844 377.055C553.844 377.37 554.159 377.685 554.474 377.685C554.789 377.685 555.104 377.37 555.104 377.055C555.104 376.74 554.789 376.425 554.474 376.425C554.159 376.582 553.844 376.74 553.844 377.055Z" fill="white"/>
<path d="M507.678 403.83C507.678 404.145 507.993 404.46 508.308 404.46C508.623 404.46 508.938 404.145 508.938 403.83C508.938 403.515 508.623 403.2 508.308 403.2C507.993 403.042 507.678 403.357 507.678 403.83Z" fill="white"/>
<path d="M419.598 406.822C419.598 407.295 420.07 407.767 420.543 407.767C421.016 407.767 421.488 407.295 421.488 406.822C421.488 406.35 421.016 405.877 420.543 405.877C420.07 406.035 419.598 406.35 419.598 406.822Z" fill="white"/>
<path d="M408.096 425.565C408.096 426.353 408.726 426.825 409.356 426.825C410.144 426.825 410.617 426.195 410.617 425.565C410.617 424.778 409.986 424.305 409.356 424.305C408.726 424.148 408.096 424.778 408.096 425.565Z" fill="white"/>
<path d="M353.262 428.715C353.262 429.188 353.577 429.503 354.05 429.503C354.522 429.503 354.837 429.188 354.837 428.715C354.837 428.243 354.522 427.928 354.05 427.928C353.577 427.928 353.262 428.4 353.262 428.715Z" fill="white"/>
<path d="M342.232 418.005C342.232 418.477 342.705 418.95 343.178 418.95C343.651 418.95 344.123 418.477 344.123 418.005C344.123 417.532 343.651 417.06 343.178 417.06C342.705 417.06 342.232 417.375 342.232 418.005Z" fill="white"/>
<path d="M272.117 413.753C272.117 414.225 272.432 414.54 272.905 414.54C273.378 414.54 273.693 414.225 273.693 413.753C273.693 413.28 273.378 412.965 272.905 412.965C272.432 412.965 272.117 413.28 272.117 413.753Z" fill="white"/>
<path d="M232.094 436.275C232.094 436.905 232.566 437.378 233.197 437.378C233.827 437.378 234.3 436.905 234.3 436.275C234.3 435.645 233.827 435.172 233.197 435.172C232.566 435.172 232.094 435.645 232.094 436.275Z" fill="white"/>
<path d="M174.74 423.36C174.74 424.147 175.37 424.935 176.316 424.935C177.261 424.935 177.892 424.305 177.892 423.36C177.892 422.572 177.261 421.785 176.316 421.785C175.37 421.785 174.74 422.572 174.74 423.36Z" fill="white"/>
<path d="M152.682 423.675C152.682 424.148 152.997 424.463 153.469 424.463C153.942 424.463 154.257 424.148 154.257 423.675C154.257 423.203 153.942 422.888 153.469 422.888C152.997 422.888 152.682 423.203 152.682 423.675Z" fill="white"/>
<path d="M103.836 402.098C103.836 402.57 104.309 403.042 104.781 403.042C105.254 403.042 105.727 402.57 105.727 402.098C105.727 401.625 105.254 401.152 104.781 401.152C104.309 401.152 103.836 401.625 103.836 402.098Z" fill="white"/>
<path d="M40.8086 405.405C40.8086 405.878 41.2813 406.35 41.754 406.35C42.2267 406.35 42.6994 405.878 42.6994 405.405C42.6994 404.933 42.2267 404.46 41.754 404.46C41.2813 404.46 40.8086 404.775 40.8086 405.405Z" fill="white"/>
<path d="M18.75 400.207C18.75 400.837 19.2227 401.152 19.6954 401.152C20.3257 401.152 20.6408 400.68 20.6408 400.207C20.6408 399.577 20.1681 399.262 19.6954 399.262C19.2227 399.105 18.75 399.577 18.75 400.207Z" fill="white"/>
<path d="M577.479 362.88C577.479 363.51 578.109 364.14 578.739 364.14C579.369 364.14 580 363.51 580 362.88C580 362.25 579.369 361.62 578.739 361.62C578.109 361.62 577.479 362.092 577.479 362.88Z" fill="white"/>
<path d="M553.686 378.788C553.686 379.26 554.001 379.575 554.473 379.575C554.946 379.575 555.261 379.26 555.261 378.788C555.261 378.315 554.946 378 554.473 378C554.158 378 553.686 378.315 553.686 378.788Z" fill="white"/>
<path d="M489.715 376.267C489.715 376.582 490.03 376.898 490.345 376.898C490.66 376.898 490.975 376.582 490.975 376.267C490.975 375.952 490.66 375.637 490.345 375.637C490.03 375.48 489.715 375.795 489.715 376.267Z" fill="white"/>
<path d="M453.947 373.59C453.947 373.905 454.262 374.22 454.578 374.22C454.893 374.22 455.208 373.905 455.208 373.59C455.208 373.275 454.893 372.96 454.578 372.96C454.262 372.803 453.947 373.117 453.947 373.59Z" fill="white"/>
<path d="M397.066 361.777C397.066 362.565 397.697 363.195 398.484 363.195C399.272 363.195 399.903 362.565 399.903 361.777C399.903 360.99 399.272 360.36 398.484 360.36C397.697 360.202 397.066 360.832 397.066 361.777Z" fill="white"/>
<path d="M354.838 359.887C354.838 360.36 355.311 360.833 355.783 360.833C356.256 360.833 356.729 360.36 356.729 359.887C356.729 359.415 356.256 358.942 355.783 358.942C355.311 358.785 354.838 359.257 354.838 359.887Z" fill="white"/>
<path d="M330.258 364.14C330.258 364.77 330.731 365.242 331.361 365.242C331.991 365.242 332.464 364.77 332.464 364.14C332.464 363.51 331.991 363.038 331.361 363.038C330.731 363.038 330.258 363.51 330.258 364.14Z" fill="white"/>
<path d="M252.264 388.395C252.264 389.183 252.894 389.813 253.682 389.813C254.47 389.813 255.1 389.183 255.1 388.395C255.1 387.608 254.47 386.978 253.682 386.978C252.894 386.978 252.264 387.608 252.264 388.395Z" fill="white"/>
<path d="M232.094 356.108C232.094 356.423 232.409 356.738 232.724 356.738C233.039 356.738 233.354 356.423 233.354 356.108C233.354 355.793 233.039 355.478 232.724 355.478C232.409 355.478 232.094 355.793 232.094 356.108Z" fill="white"/>
<path d="M175.529 371.385C175.529 371.858 175.844 372.173 176.317 372.173C176.79 372.173 177.105 371.858 177.105 371.385C177.105 370.913 176.79 370.598 176.317 370.598C175.844 370.598 175.529 370.913 175.529 371.385Z" fill="white"/>
<path d="M133.773 365.085C133.773 365.715 134.246 366.03 134.719 366.03C135.349 366.03 135.664 365.557 135.664 365.085C135.664 364.455 135.192 364.14 134.719 364.14C134.246 364.14 133.773 364.455 133.773 365.085Z" fill="white"/>
<path d="M87.9219 378.158C87.9219 378.63 88.3946 379.102 88.8673 379.102C89.34 379.102 89.8127 378.63 89.8127 378.158C89.8127 377.685 89.34 377.212 88.8673 377.212C88.237 377.212 87.9219 377.685 87.9219 378.158Z" fill="white"/>
<path d="M35.2949 372.488C35.2949 373.275 35.9252 373.748 36.5555 373.748C37.3433 373.748 37.816 373.118 37.816 372.488C37.816 371.858 37.1857 371.228 36.5555 371.228C35.9252 371.228 35.2949 371.7 35.2949 372.488Z" fill="white"/>
<path d="M553.686 327.915C553.686 328.23 554.001 328.545 554.316 328.545C554.631 328.545 554.946 328.23 554.946 327.915C554.946 327.6 554.631 327.285 554.316 327.285C554.001 327.127 553.686 327.442 553.686 327.915Z" fill="white"/>
<path d="M505.312 328.23C505.312 328.702 505.628 329.017 506.1 329.017C506.573 329.017 506.888 328.702 506.888 328.23C506.888 327.757 506.573 327.442 506.1 327.442C505.628 327.285 505.312 327.6 505.312 328.23Z" fill="white"/>
<path d="M464.346 356.58C464.346 356.895 464.661 357.21 464.976 357.21C465.291 357.21 465.606 356.895 465.606 356.58C465.606 356.265 465.291 355.95 464.976 355.95C464.661 355.95 464.346 356.265 464.346 356.58Z" fill="white"/>
<path d="M421.332 321.3C421.332 322.087 421.962 322.717 422.75 322.717C423.538 322.717 424.168 322.087 424.168 321.3C424.168 320.512 423.538 319.882 422.75 319.882C421.962 319.725 421.332 320.355 421.332 321.3Z" fill="white"/>
<path d="M378.945 337.837C378.945 338.467 379.418 339.097 380.206 339.097C380.836 339.097 381.466 338.625 381.466 337.837C381.466 337.207 380.994 336.577 380.206 336.577C379.418 336.735 378.945 337.207 378.945 337.837Z" fill="white"/>
<path d="M332.465 351.383C332.465 351.855 332.78 352.17 333.253 352.17C333.725 352.17 334.041 351.855 334.041 351.383C334.041 350.91 333.725 350.595 333.253 350.595C332.78 350.753 332.465 351.068 332.465 351.383Z" fill="white"/>
<path d="M275.268 354.532C275.268 355.32 275.898 355.792 276.528 355.792C277.316 355.792 277.789 355.162 277.789 354.532C277.789 353.745 277.158 353.272 276.528 353.272C275.898 353.272 275.268 353.902 275.268 354.532Z" fill="white"/>
<path d="M227.053 323.82C227.053 324.608 227.683 325.08 228.313 325.08C228.944 325.08 229.574 324.45 229.574 323.82C229.574 323.033 228.944 322.56 228.313 322.56C227.683 322.56 227.053 323.033 227.053 323.82Z" fill="white"/>
<path d="M177.42 361.935C177.42 362.25 177.577 362.408 177.893 362.408C178.208 362.408 178.365 362.25 178.365 361.935C178.365 361.62 178.208 361.463 177.893 361.463C177.735 361.305 177.42 361.62 177.42 361.935Z" fill="white"/>
<path d="M164.971 333.9C164.971 334.215 165.286 334.53 165.601 334.53C165.916 334.53 166.231 334.215 166.231 333.9C166.231 333.585 165.916 333.27 165.601 333.27C165.286 333.27 164.971 333.585 164.971 333.9Z" fill="white"/>
<path d="M527.688 288.383C527.688 288.855 528.16 289.327 528.633 289.327C529.106 289.327 529.578 288.855 529.578 288.383C529.578 287.91 529.106 287.438 528.633 287.438C528.16 287.438 527.688 287.91 527.688 288.383Z" fill="white"/>
<path d="M500.43 291.847C500.43 292.635 501.06 293.108 501.69 293.108C502.478 293.108 502.951 292.477 502.951 291.847C502.951 291.06 502.32 290.587 501.69 290.587C501.06 290.587 500.43 291.217 500.43 291.847Z" fill="white"/>
<path d="M450.639 277.042C450.639 277.515 451.111 277.987 451.584 277.987C452.057 277.987 452.529 277.515 452.529 277.042C452.529 276.57 452.057 276.098 451.584 276.098C451.111 276.098 450.639 276.412 450.639 277.042Z" fill="white"/>
<path d="M412.35 271.215C412.35 271.845 412.822 272.317 413.453 272.317C414.083 272.317 414.556 271.845 414.556 271.215C414.556 270.585 414.083 270.112 413.453 270.112C412.822 270.112 412.35 270.742 412.35 271.215Z" fill="white"/>
<path d="M344.912 288.54C344.912 289.327 345.542 289.958 346.33 289.958C347.118 289.958 347.748 289.327 347.748 288.54C347.748 287.752 347.118 287.122 346.33 287.122C345.542 287.122 344.912 287.752 344.912 288.54Z" fill="white"/>
<path d="M294.963 274.837C294.963 275.625 295.593 276.097 296.223 276.097C297.011 276.097 297.484 275.467 297.484 274.837C297.484 274.05 296.854 273.577 296.223 273.577C295.593 273.577 294.963 274.05 294.963 274.837Z" fill="white"/>
<path d="M266.129 285.233C266.129 285.705 266.602 286.178 267.074 286.178C267.547 286.178 268.02 285.705 268.02 285.233C268.02 284.76 267.547 284.288 267.074 284.288C266.444 284.288 266.129 284.76 266.129 285.233Z" fill="white"/>
<path d="M211.295 271.53C211.295 272.002 211.768 272.475 212.24 272.475C212.713 272.475 213.186 272.002 213.186 271.53C213.186 271.057 212.713 270.585 212.24 270.585C211.61 270.585 211.295 271.057 211.295 271.53Z" fill="white"/>
<path d="M189.236 283.342C189.236 284.13 189.867 284.76 190.654 284.76C191.442 284.76 192.073 284.13 192.073 283.342C192.073 282.555 191.442 281.925 190.654 281.925C189.867 281.925 189.236 282.555 189.236 283.342Z" fill="white"/>
<path d="M158.826 303.66C158.826 303.975 159.141 304.29 159.456 304.29C159.772 304.29 160.087 303.975 160.087 303.66C160.087 303.345 159.772 303.03 159.456 303.03C159.141 303.187 158.826 303.345 158.826 303.66Z" fill="white"/>
<path d="M572.121 255.938C572.121 256.568 572.594 257.04 573.224 257.04C573.854 257.04 574.327 256.568 574.327 255.938C574.327 255.308 573.854 254.835 573.224 254.835C572.594 254.835 572.121 255.308 572.121 255.938Z" fill="white"/>
<path d="M539.979 272.948C539.979 273.578 540.451 274.05 541.081 274.05C541.712 274.05 542.184 273.578 542.184 272.948C542.184 272.318 541.712 271.845 541.081 271.845C540.451 271.688 539.979 272.318 539.979 272.948Z" fill="white"/>
<path d="M483.727 252.787C483.727 253.417 484.199 253.89 484.83 253.89C485.46 253.89 485.932 253.417 485.932 252.787C485.932 252.157 485.46 251.685 484.83 251.685C484.199 251.685 483.727 252.157 483.727 252.787Z" fill="white"/>
<path d="M454.262 259.245C454.262 259.56 454.577 259.875 454.892 259.875C455.207 259.875 455.522 259.56 455.522 259.245C455.522 258.93 455.207 258.615 454.892 258.615C454.577 258.457 454.262 258.772 454.262 259.245Z" fill="white"/>
<path d="M430.469 273.262C430.469 273.892 430.941 274.365 431.572 274.365C432.202 274.365 432.675 273.892 432.675 273.262C432.675 272.632 432.202 272.16 431.572 272.16C430.941 272.16 430.469 272.632 430.469 273.262Z" fill="white"/>
<path d="M348.852 248.692C348.852 249.007 349.167 249.323 349.482 249.323C349.797 249.323 350.112 249.007 350.112 248.692C350.112 248.377 349.797 248.062 349.482 248.062C349.167 248.062 348.852 248.377 348.852 248.692Z" fill="white"/>
<path d="M294.963 237.667C294.963 238.297 295.436 238.77 296.066 238.77C296.696 238.77 297.169 238.297 297.169 237.667C297.169 237.037 296.696 236.565 296.066 236.565C295.593 236.565 294.963 237.037 294.963 237.667Z" fill="white"/>
<path d="M244.857 266.333C244.857 266.805 245.173 267.12 245.645 267.12C246.118 267.12 246.433 266.805 246.433 266.333C246.433 265.86 246.118 265.545 245.645 265.545C245.173 265.545 244.857 265.86 244.857 266.333Z" fill="white"/>
<path d="M186.715 272.475C186.715 273.263 187.345 273.735 187.975 273.735C188.763 273.735 189.236 273.105 189.236 272.475C189.236 271.688 188.606 271.215 187.975 271.215C187.345 271.215 186.715 271.845 186.715 272.475Z" fill="white"/>
<path d="M562.51 205.695C562.51 206.325 562.982 206.797 563.613 206.797C564.243 206.797 564.716 206.325 564.716 205.695C564.716 205.065 564.243 204.592 563.613 204.592C562.982 204.592 562.51 205.065 562.51 205.695Z" fill="white"/>
<path d="M497.436 230.108C497.436 230.895 498.066 231.683 499.011 231.683C499.957 231.683 500.587 231.053 500.587 230.108C500.587 229.32 499.957 228.533 499.011 228.533C498.066 228.533 497.436 229.32 497.436 230.108Z" fill="white"/>
<path d="M461.824 209.002C461.824 209.632 462.454 210.263 463.085 210.263C463.715 210.263 464.345 209.632 464.345 209.002C464.345 208.372 463.715 207.742 463.085 207.742C462.454 207.742 461.824 208.372 461.824 209.002Z" fill="white"/>
<path d="M435.512 197.19C435.512 198.135 436.3 198.923 437.245 198.923C438.19 198.923 438.978 198.135 438.978 197.19C438.978 196.245 438.19 195.458 437.245 195.458C436.142 195.458 435.512 196.245 435.512 197.19Z" fill="white"/>
<path d="M371.699 245.7C371.699 246.33 372.172 246.802 372.802 246.802C373.432 246.802 373.905 246.33 373.905 245.7C373.905 245.07 373.432 244.597 372.802 244.597C372.172 244.44 371.699 245.07 371.699 245.7Z" fill="white"/>
<path d="M330.416 200.34C330.416 201.127 331.046 201.758 331.834 201.758C332.622 201.758 333.252 201.127 333.252 200.34C333.252 199.552 332.622 198.923 331.834 198.923C331.204 198.923 330.416 199.552 330.416 200.34Z" fill="white"/>
<path d="M268.807 241.448C268.807 242.393 269.594 243.023 270.382 243.023C271.328 243.023 271.958 242.235 271.958 241.448C271.958 240.503 271.17 239.873 270.382 239.873C269.437 239.715 268.807 240.503 268.807 241.448Z" fill="white"/>
<path d="M477.74 177.502C477.74 177.975 478.213 178.448 478.686 178.448C479.158 178.448 479.631 177.975 479.631 177.502C479.631 177.03 479.158 176.557 478.686 176.557C478.213 176.557 477.74 177.03 477.74 177.502Z" fill="white"/>
<path d="M448.275 154.035C448.275 154.98 449.063 155.767 450.009 155.767C450.954 155.767 451.742 154.98 451.742 154.035C451.742 153.09 450.954 152.302 450.009 152.302C449.063 152.302 448.275 153.09 448.275 154.035Z" fill="white"/>
<path d="M430.629 153.09C430.629 153.405 430.787 153.563 431.102 153.563C431.417 153.563 431.574 153.248 431.574 153.09C431.574 152.775 431.259 152.618 431.102 152.618C430.944 152.618 430.629 152.775 430.629 153.09Z" fill="white"/>
<path d="M365.08 187.425C365.08 187.897 365.395 188.212 365.868 188.212C366.341 188.212 366.656 187.897 366.656 187.425C366.656 186.952 366.341 186.637 365.868 186.637C365.395 186.637 365.08 186.952 365.08 187.425Z" fill="white"/>
<path d="M336.875 178.762C336.875 179.392 337.348 179.865 337.978 179.865C338.608 179.865 339.081 179.392 339.081 178.762C339.081 178.132 338.608 177.66 337.978 177.66C337.348 177.66 336.875 178.132 336.875 178.762Z" fill="white"/>
<path d="M290.078 171.518C290.078 172.148 290.551 172.462 291.024 172.462C291.654 172.462 291.969 171.99 291.969 171.518C291.969 170.888 291.496 170.573 291.024 170.573C290.393 170.415 290.078 170.888 290.078 171.518Z" fill="white"/>
<path d="M442.76 157.657C442.76 158.287 443.232 158.918 444.02 158.918C444.651 158.918 445.281 158.445 445.281 157.657C445.281 157.027 444.808 156.398 444.02 156.398C443.39 156.398 442.76 156.87 442.76 157.657Z" fill="white"/>
<path d="M413.926 115.605C413.926 116.078 414.398 116.55 414.871 116.55C415.344 116.55 415.817 116.078 415.817 115.605C415.817 115.133 415.344 114.66 414.871 114.66C414.398 114.818 413.926 115.133 413.926 115.605Z" fill="white"/>
<path d="M366.184 135.293C366.184 135.765 366.499 136.08 366.971 136.08C367.444 136.08 367.759 135.765 367.759 135.293C367.759 134.82 367.444 134.505 366.971 134.505C366.499 134.505 366.184 134.978 366.184 135.293Z" fill="white"/>
<path d="M339.396 160.335C339.396 160.65 339.712 160.965 340.027 160.965C340.342 160.965 340.657 160.65 340.657 160.335C340.657 160.02 340.342 159.705 340.027 159.705C339.712 159.863 339.396 160.02 339.396 160.335Z" fill="white"/>
<path d="M263.766 116.235C263.766 116.55 264.081 116.865 264.396 116.865C264.711 116.865 265.026 116.55 265.026 116.235C265.026 115.92 264.711 115.605 264.396 115.605C264.081 115.447 263.766 115.762 263.766 116.235Z" fill="white"/>
<path d="M468.758 113.715C468.758 114.187 469.073 114.502 469.546 114.502C470.018 114.502 470.333 114.187 470.333 113.715C470.333 113.242 470.018 112.927 469.546 112.927C469.073 112.927 468.758 113.242 468.758 113.715Z" fill="white"/>
<path d="M413.139 121.905C413.139 122.535 413.611 123.008 414.242 123.008C414.872 123.008 415.345 122.535 415.345 121.905C415.345 121.275 414.872 120.802 414.242 120.802C413.611 120.802 413.139 121.275 413.139 121.905Z" fill="white"/>
<path d="M382.885 88.2C382.885 88.9875 383.515 89.6175 384.303 89.6175C385.091 89.6175 385.721 88.9875 385.721 88.2C385.721 87.4125 385.091 86.7825 384.303 86.7825C383.515 86.7825 382.885 87.4125 382.885 88.2Z" fill="white"/>
<path d="M328.525 79.695C328.525 80.1675 328.841 80.4825 329.313 80.4825C329.786 80.4825 330.101 80.1675 330.101 79.695C330.101 79.2225 329.786 78.9075 329.313 78.9075C328.841 78.9075 328.525 79.2225 328.525 79.695Z" fill="white"/>
<path d="M260.771 112.14C260.771 112.927 261.402 113.557 262.19 113.557C262.977 113.557 263.608 112.927 263.608 112.14C263.608 111.352 262.977 110.723 262.19 110.723C261.402 110.723 260.771 111.352 260.771 112.14Z" fill="white"/>
<path d="M443.705 54.18C443.705 54.495 444.02 54.9675 444.335 54.9675C444.65 54.9675 445.123 54.6525 445.123 54.18C445.123 53.865 444.808 53.55 444.335 53.55C444.02 53.3925 443.705 53.7075 443.705 54.18Z" fill="white"/>
<path d="M420.229 86.7825C420.229 87.255 420.701 87.7275 421.174 87.7275C421.647 87.7275 422.119 87.255 422.119 86.7825C422.119 86.31 421.647 85.8375 421.174 85.8375C420.701 85.8375 420.229 86.31 420.229 86.7825Z" fill="white"/>
<path d="M368.861 65.3625C368.861 65.9925 369.334 66.465 369.964 66.465C370.595 66.465 371.067 65.9925 371.067 65.3625C371.067 64.7325 370.595 64.26 369.964 64.26C369.492 64.26 368.861 64.7325 368.861 65.3625Z" fill="white"/>
<path d="M312.139 77.49C312.139 77.9625 312.454 78.2775 312.927 78.2775C313.399 78.2775 313.714 77.9625 313.714 77.49C313.714 77.0175 313.399 76.7025 312.927 76.7025C312.454 76.7025 312.139 77.0175 312.139 77.49Z" fill="white"/>
<path d="M300.479 57.96C300.479 58.59 300.951 59.0625 301.581 59.0625C302.212 59.0625 302.684 58.59 302.684 57.96C302.684 57.33 302.212 56.8575 301.581 56.8575C300.951 56.8575 300.479 57.33 300.479 57.96Z" fill="white"/>
<path d="M454.262 49.14C454.262 49.6125 454.577 49.9275 455.05 49.9275C455.522 49.9275 455.837 49.6125 455.837 49.14C455.837 48.6675 455.522 48.3525 455.05 48.3525C454.577 48.3525 454.262 48.6675 454.262 49.14Z" fill="white"/>
<path d="M423.537 24.885C423.537 25.3575 423.852 25.6725 424.325 25.6725C424.798 25.6725 425.113 25.3575 425.113 24.885C425.113 24.4125 424.798 24.0975 424.325 24.0975C423.852 24.0975 423.537 24.4125 423.537 24.885Z" fill="white"/>
<path d="M383.516 23.1525C383.516 23.7825 383.988 24.255 384.619 24.255C385.249 24.255 385.722 23.7825 385.722 23.1525C385.722 22.5225 385.249 22.05 384.619 22.05C383.988 22.2075 383.516 22.68 383.516 23.1525Z" fill="white"/>
<path d="M305.992 17.4824C305.992 18.1124 306.465 18.7424 307.253 18.7424C308.041 18.7424 308.513 18.2699 308.513 17.4824C308.513 16.8524 308.041 16.2224 307.253 16.2224C306.465 16.2224 305.992 16.8524 305.992 17.4824Z" fill="white"/>
<path d="M293.545 38.115C293.545 38.9025 294.175 39.5325 294.963 39.5325C295.751 39.5325 296.381 38.9025 296.381 38.115C296.381 37.3275 295.751 36.6975 294.963 36.6975C294.175 36.6975 293.545 37.3275 293.545 38.115Z" fill="white"/>
<path d="M254.783 1.1025C254.783 1.7325 255.256 2.205 255.886 2.205C256.516 2.205 256.989 1.7325 256.989 1.1025C256.989 0.4725 256.516 0 255.886 0C255.256 0 254.783 0.4725 254.783 1.1025Z" fill="white"/>
</g>
</svg>
