<svg width="16" height="16" viewBox="0 0 16 16" fill="none" xmlns="http://www.w3.org/2000/svg">
<path d="M8.7642 3L8.62358 9.16193H7.25142L7.11506 3H8.7642ZM7.9375 11.821C7.67898 11.821 7.45739 11.7301 7.27273 11.5483C7.09091 11.3665 7 11.1449 7 10.8835C7 10.6278 7.09091 10.4091 7.27273 10.2273C7.45739 10.0455 7.67898 9.95455 7.9375 9.95455C8.19034 9.95455 8.40909 10.0455 8.59375 10.2273C8.78125 10.4091 8.875 10.6278 8.875 10.8835C8.875 11.0568 8.83097 11.2145 8.7429 11.3565C8.65767 11.4986 8.54403 11.6122 8.40199 11.6974C8.26278 11.7798 8.10795 11.821 7.9375 11.821Z" fill="#FF0000"/>
<circle cx="8" cy="8" r="7.5" stroke="#FF0000"/>
</svg>
