<svg width="333" height="780" viewBox="0 0 333 780" fill="none" xmlns="http://www.w3.org/2000/svg">
<path d="M310.258 778.747C310.258 779.374 310.884 780 311.51 780C312.136 780 312.762 779.374 312.762 778.747C312.762 778.121 312.136 777.495 311.51 777.495C310.884 777.495 310.258 777.912 310.258 778.747Z" fill="white" fill-opacity="0.7"/>
<path d="M299.824 720.498C299.824 721.333 300.45 721.959 301.285 721.959C302.119 721.959 302.745 721.333 302.745 720.498C302.745 719.663 302.119 719.036 301.285 719.036C300.45 719.036 299.824 719.663 299.824 720.498Z" fill="white" fill-opacity="0.7"/>
<path d="M224.711 740.332C224.711 740.958 225.337 741.585 225.963 741.585C226.589 741.585 227.215 740.958 227.215 740.332C227.215 739.706 226.589 739.079 225.963 739.079C225.337 739.079 224.711 739.706 224.711 740.332Z" fill="white" fill-opacity="0.7"/>
<path d="M279.377 696.488C279.377 697.115 279.794 697.532 280.42 697.532C281.046 697.532 281.463 697.115 281.463 696.488C281.463 695.862 281.046 695.444 280.42 695.444C279.794 695.444 279.377 695.862 279.377 696.488Z" fill="white" fill-opacity="0.7"/>
<path d="M231.807 682.5C231.807 682.918 232.224 683.335 232.641 683.335C233.059 683.335 233.476 682.918 233.476 682.5C233.476 682.082 233.059 681.665 232.641 681.665C232.224 681.665 231.807 681.874 231.807 682.5Z" fill="white" fill-opacity="0.7"/>
<path d="M292.105 645.128C292.105 646.381 293.149 647.425 294.401 647.425C295.652 647.425 296.696 646.381 296.696 645.128C296.696 643.876 295.652 642.832 294.401 642.832C293.149 643.041 292.105 643.876 292.105 645.128Z" fill="white" fill-opacity="0.7"/>
<path d="M281.674 610.054C281.674 610.889 282.3 611.306 282.926 611.306C283.76 611.306 284.178 610.68 284.178 610.054C284.178 609.218 283.552 608.801 282.926 608.801C282.3 608.592 281.674 609.218 281.674 610.054Z" fill="white" fill-opacity="0.7"/>
<path d="M261.643 568.089C261.643 568.924 262.269 569.55 263.103 569.55C263.938 569.55 264.564 568.924 264.564 568.089C264.564 567.254 263.938 566.627 263.103 566.627C262.269 566.627 261.643 567.254 261.643 568.089Z" fill="white" fill-opacity="0.7"/>
<path d="M288.141 536.563C288.141 536.981 288.558 537.398 288.975 537.398C289.392 537.398 289.81 536.981 289.81 536.563C289.81 536.146 289.392 535.728 288.975 535.728C288.558 535.728 288.141 536.146 288.141 536.563Z" fill="white" fill-opacity="0.7"/>
<path d="M271.867 490.632C271.867 491.467 272.493 492.093 273.328 492.093C274.162 492.093 274.788 491.467 274.788 490.632C274.788 489.797 274.162 489.17 273.328 489.17C272.493 489.17 271.867 489.797 271.867 490.632Z" fill="white" fill-opacity="0.7"/>
<path d="M258.723 514.015C258.723 514.641 259.349 515.268 259.975 515.268C260.6 515.268 261.226 514.641 261.226 514.015C261.226 513.389 260.6 512.762 259.975 512.762C259.14 512.762 258.723 513.389 258.723 514.015Z" fill="white" fill-opacity="0.7"/>
<path d="M155.234 480.61C155.234 481.237 155.652 481.654 156.278 481.654C156.904 481.654 157.321 481.237 157.321 480.61C157.321 479.984 156.904 479.566 156.278 479.566C155.652 479.358 155.234 479.984 155.234 480.61Z" fill="white" fill-opacity="0.7"/>
<path d="M329.871 413.592C329.871 414.427 330.497 415.054 331.332 415.054C332.166 415.054 332.792 414.427 332.792 413.592C332.792 412.757 332.166 412.131 331.332 412.131C330.706 412.131 329.871 412.757 329.871 413.592Z" fill="white" fill-opacity="0.7"/>
<path d="M223.043 452.634C223.043 453.051 223.46 453.469 223.878 453.469C224.295 453.469 224.712 453.051 224.712 452.634C224.712 452.216 224.295 451.799 223.878 451.799C223.46 451.59 223.043 452.007 223.043 452.634Z" fill="white" fill-opacity="0.7"/>
<path d="M184.443 449.711C184.443 450.546 185.069 451.172 185.904 451.172C186.738 451.172 187.364 450.546 187.364 449.711C187.364 448.876 186.738 448.249 185.904 448.249C185.069 448.249 184.443 448.876 184.443 449.711Z" fill="white" fill-opacity="0.7"/>
<path d="M144.383 425.075C144.383 425.701 144.8 426.328 145.635 426.328C146.261 426.328 146.887 425.91 146.887 425.075C146.887 424.449 146.469 424.031 145.635 424.031C145.009 424.031 144.383 424.449 144.383 425.075Z" fill="white" fill-opacity="0.7"/>
<path d="M285.428 373.506C285.428 374.133 285.845 374.55 286.471 374.55C287.097 374.55 287.514 374.133 287.514 373.506C287.514 372.88 287.097 372.462 286.471 372.462C285.845 372.462 285.428 372.88 285.428 373.506Z" fill="white" fill-opacity="0.7"/>
<path d="M250.793 390.209C250.793 391.044 251.419 391.461 252.045 391.461C252.879 391.461 253.297 390.835 253.297 390.209C253.297 389.374 252.671 388.956 252.045 388.956C251.419 388.747 250.793 389.374 250.793 390.209Z" fill="white" fill-opacity="0.7"/>
<path d="M186.738 359.936C186.738 360.771 187.364 361.397 188.199 361.397C189.033 361.397 189.659 360.771 189.659 359.936C189.659 359.101 189.033 358.474 188.199 358.474C187.364 358.474 186.738 359.101 186.738 359.936Z" fill="white" fill-opacity="0.7"/>
<path d="M108.914 378.1C108.914 379.143 109.749 379.77 110.583 379.77C111.626 379.77 112.252 378.935 112.252 378.1C112.252 377.056 111.418 376.429 110.583 376.429C109.54 376.429 108.914 377.264 108.914 378.1Z" fill="white" fill-opacity="0.7"/>
<path d="M310.883 368.496C310.883 369.54 311.717 370.375 312.761 370.375C313.804 370.375 314.638 369.54 314.638 368.496C314.638 367.452 313.804 366.617 312.761 366.617C311.717 366.825 310.883 367.661 310.883 368.496Z" fill="white" fill-opacity="0.7"/>
<path d="M185.277 357.848C185.277 358.683 185.903 359.101 186.529 359.101C187.364 359.101 187.781 358.474 187.781 357.848C187.781 357.013 187.155 356.595 186.529 356.595C185.903 356.387 185.277 357.013 185.277 357.848Z" fill="white" fill-opacity="0.7"/>
<path d="M171.299 360.353C171.299 361.188 171.925 362.024 172.968 362.024C173.803 362.024 174.637 361.397 174.637 360.353C174.637 359.518 174.011 358.683 172.968 358.683C171.925 358.683 171.299 359.518 171.299 360.353Z" fill="white" fill-opacity="0.7"/>
<path d="M99.1074 322.564C99.1074 323.399 99.7334 324.234 100.777 324.234C101.611 324.234 102.446 323.608 102.446 322.564C102.446 321.729 101.82 320.894 100.777 320.894C99.942 321.103 99.1074 321.729 99.1074 322.564Z" fill="white" fill-opacity="0.7"/>
<path d="M269.779 274.127C269.779 274.963 270.405 275.798 271.448 275.798C272.492 275.798 273.118 275.171 273.118 274.127C273.118 273.292 272.492 272.457 271.448 272.457C270.405 272.457 269.779 273.084 269.779 274.127Z" fill="white" fill-opacity="0.7"/>
<path d="M238.066 244.063C238.066 244.69 238.484 245.107 239.11 245.107C239.736 245.107 240.153 244.69 240.153 244.063C240.153 243.437 239.736 243.019 239.11 243.019C238.484 243.019 238.066 243.437 238.066 244.063Z" fill="white" fill-opacity="0.7"/>
<path d="M146.887 293.335C146.887 293.961 147.304 294.379 147.93 294.379C148.556 294.379 148.973 293.961 148.973 293.335C148.973 292.709 148.556 292.291 147.93 292.291C147.304 292.291 146.887 292.709 146.887 293.335Z" fill="white" fill-opacity="0.7"/>
<path d="M142.088 284.566C142.088 284.984 142.505 285.401 142.922 285.401C143.34 285.401 143.757 284.984 143.757 284.566C143.757 284.149 143.34 283.731 142.922 283.731C142.505 283.731 142.088 284.149 142.088 284.566Z" fill="white" fill-opacity="0.7"/>
<path d="M286.262 238.635C286.262 239.47 286.888 240.096 287.722 240.096C288.557 240.096 289.183 239.47 289.183 238.635C289.183 237.8 288.557 237.173 287.722 237.173C286.888 237.173 286.262 237.8 286.262 238.635Z" fill="white" fill-opacity="0.7"/>
<path d="M227.215 230.91C227.215 231.328 227.632 231.745 228.049 231.745C228.467 231.745 228.884 231.328 228.884 230.91C228.884 230.492 228.467 230.075 228.049 230.075C227.632 230.075 227.215 230.492 227.215 230.91Z" fill="white" fill-opacity="0.7"/>
<path d="M155.234 186.022C155.234 186.649 155.86 187.275 156.486 187.275C157.112 187.275 157.738 186.649 157.738 186.022C157.738 185.396 157.112 184.77 156.486 184.77C155.86 184.77 155.234 185.396 155.234 186.022Z" fill="white" fill-opacity="0.7"/>
<path d="M98.0625 221.097C98.0625 221.933 98.8971 222.768 99.7317 222.768C100.566 222.768 101.401 221.933 101.401 221.097C101.401 220.262 100.566 219.427 99.7317 219.427C98.8971 219.427 98.0625 220.054 98.0625 221.097Z" fill="white" fill-opacity="0.7"/>
<path d="M13.9785 208.153C13.9785 209.197 14.8131 209.823 15.6477 209.823C16.6909 209.823 17.3169 208.988 17.3169 208.153C17.3169 207.109 16.4823 206.483 15.6477 206.483C14.8131 206.483 13.9785 207.318 13.9785 208.153Z" fill="white" fill-opacity="0.7"/>
<path d="M0 215.669C0 216.504 0.62594 217.131 1.46053 217.131C2.29511 217.131 2.92105 216.504 2.92105 215.669C2.92105 214.834 2.29511 214.208 1.46053 214.208C0.62594 214.208 0 214.834 0 215.669Z" fill="white" fill-opacity="0.7"/>
<path d="M315.266 158.046C315.266 158.672 315.892 159.299 316.517 159.299C317.143 159.299 317.769 158.672 317.769 158.046C317.769 157.42 317.143 156.793 316.517 156.793C315.892 156.793 315.266 157.42 315.266 158.046Z" fill="white" fill-opacity="0.7"/>
<path d="M214.279 145.728C214.279 146.563 215.114 147.398 215.948 147.398C216.783 147.398 217.618 146.563 217.618 145.728C217.618 144.893 216.783 144.058 215.948 144.058C215.114 144.058 214.279 144.893 214.279 145.728Z" fill="white" fill-opacity="0.7"/>
<path d="M179.854 163.892C179.854 164.518 180.271 164.936 180.897 164.936C181.523 164.936 181.94 164.518 181.94 163.892C181.94 163.266 181.523 162.848 180.897 162.848C180.271 162.848 179.854 163.266 179.854 163.892Z" fill="white" fill-opacity="0.7"/>
<path d="M102.027 135.498C102.027 136.542 102.862 137.586 104.114 137.586C105.366 137.586 106.2 136.751 106.2 135.498C106.2 134.454 105.366 133.41 104.114 133.41C102.862 133.41 102.027 134.454 102.027 135.498Z" fill="white" fill-opacity="0.7"/>
<path d="M76.1562 158.881C76.1562 159.299 76.5735 159.716 76.9908 159.716C77.4081 159.716 77.8254 159.299 77.8254 158.881C77.8254 158.464 77.4081 158.046 76.9908 158.046C76.5735 158.255 76.1562 158.464 76.1562 158.881Z" fill="white" fill-opacity="0.7"/>
<path d="M292.105 140.509C292.105 141.344 292.731 141.97 293.566 141.97C294.401 141.97 295.027 141.344 295.027 140.509C295.027 139.673 294.401 139.047 293.566 139.047C292.523 139.256 292.105 139.882 292.105 140.509Z" fill="white" fill-opacity="0.7"/>
<path d="M239.525 149.695C239.525 150.321 239.943 150.739 240.569 150.739C241.195 150.739 241.612 150.321 241.612 149.695C241.612 149.069 241.195 148.651 240.569 148.651C239.943 148.651 239.525 149.277 239.525 149.695Z" fill="white" fill-opacity="0.7"/>
<path d="M174.428 132.366C174.428 133.41 175.262 134.036 176.097 134.036C177.14 134.036 177.766 133.201 177.766 132.366C177.766 131.322 176.931 130.696 176.097 130.696C175.054 130.696 174.428 131.531 174.428 132.366Z" fill="white" fill-opacity="0.7"/>
<path d="M121.641 90.8191C121.641 91.6542 122.267 92.2805 123.101 92.2805C123.936 92.2805 124.562 91.6542 124.562 90.8191C124.562 89.9839 123.936 89.3576 123.101 89.3576C122.267 89.3576 121.641 89.9839 121.641 90.8191Z" fill="white" fill-opacity="0.7"/>
<path d="M39.6426 95.8298C39.6426 96.8737 40.4772 97.7088 41.5204 97.7088C42.5636 97.7088 43.3982 96.8737 43.3982 95.8298C43.3982 94.7859 42.5636 93.9507 41.5204 93.9507C40.4772 93.9507 39.6426 94.7859 39.6426 95.8298Z" fill="white" fill-opacity="0.7"/>
<path d="M282.09 101.884C282.09 102.928 282.924 103.555 283.759 103.555C284.802 103.555 285.428 102.719 285.428 101.884C285.428 100.84 284.594 100.214 283.759 100.214C282.716 100.214 282.09 101.049 282.09 101.884Z" fill="white" fill-opacity="0.7"/>
<path d="M216.785 95.2034C216.785 95.621 216.994 95.8298 217.411 95.8298C217.828 95.8298 218.037 95.621 218.037 95.2034C218.037 94.7859 217.828 94.5771 217.411 94.5771C216.994 94.5771 216.785 94.7859 216.785 95.2034Z" fill="white" fill-opacity="0.7"/>
<path d="M162.535 40.2944C162.535 40.9208 163.161 41.5471 163.787 41.5471C164.413 41.5471 165.039 40.9208 165.039 40.2944C165.039 39.6681 164.413 39.0417 163.787 39.0417C163.161 39.0417 162.535 39.6681 162.535 40.2944Z" fill="white" fill-opacity="0.7"/>
<path d="M100.15 89.9839C100.15 91.0278 100.985 91.863 102.028 91.863C103.071 91.863 103.906 91.0278 103.906 89.9839C103.906 88.94 103.071 88.1049 102.028 88.1049C100.985 88.1049 100.15 88.94 100.15 89.9839Z" fill="white" fill-opacity="0.7"/>
<path d="M38.3906 55.3266C38.3906 56.1617 39.0166 56.5792 39.6425 56.5792C40.4771 56.5792 40.8944 55.9529 40.8944 55.3266C40.8944 54.4914 40.2684 54.0739 39.6425 54.0739C38.8079 53.8651 38.3906 54.4914 38.3906 55.3266Z" fill="white" fill-opacity="0.7"/>
<path d="M302.537 10.6477C302.537 11.2741 302.954 11.6916 303.58 11.6916C304.206 11.6916 304.624 11.2741 304.624 10.6477C304.624 10.0214 304.206 9.60385 303.58 9.60385C303.163 9.60385 302.537 10.0214 302.537 10.6477Z" fill="white" fill-opacity="0.7"/>
<path d="M237.648 1.46146C237.648 2.29657 238.274 2.92291 239.109 2.92291C239.944 2.92291 240.569 2.29657 240.569 1.46146C240.569 0.626338 239.944 0 239.109 0C238.274 0 237.648 0.626338 237.648 1.46146Z" fill="white" fill-opacity="0.7"/>
<path d="M202.805 62.6338C202.805 63.469 203.431 64.0953 204.265 64.0953C205.1 64.0953 205.726 63.469 205.726 62.6338C205.726 61.7987 205.1 61.1724 204.265 61.1724C203.639 61.1724 202.805 62.0075 202.805 62.6338Z" fill="white" fill-opacity="0.7"/>
<path d="M118.721 11.9004C118.721 12.5268 119.138 12.9443 119.764 12.9443C120.39 13.1531 121.016 12.5268 121.016 11.9004C121.016 11.2741 120.599 10.8565 119.973 10.8565C119.138 10.8565 118.721 11.2741 118.721 11.9004Z" fill="white" fill-opacity="0.7"/>
<path d="M64.2617 7.72484C64.2617 8.55996 64.8877 8.97751 65.5136 8.97751C66.3482 8.97751 66.7655 8.35118 66.7655 7.72484C66.7655 6.88972 66.3482 6.26338 65.5136 6.26338C64.679 6.26338 64.2617 6.88972 64.2617 7.72484Z" fill="white" fill-opacity="0.7"/>
<path d="M6.05078 5.42827C6.05078 6.26338 6.88537 7.0985 7.71995 7.0985C8.55454 7.0985 9.38913 6.26338 9.38913 5.42827C9.38913 4.59315 8.55454 3.75803 7.71995 3.75803C6.67672 3.75803 6.05078 4.59315 6.05078 5.42827Z" fill="white" fill-opacity="0.7"/>
</svg>
