<svg width="34" height="44" viewBox="0 0 34 44" fill="none" xmlns="http://www.w3.org/2000/svg">
<path d="M33 17C33 19.0911 32.0374 21.7708 30.4625 24.707C28.9036 27.6134 26.8132 30.6481 24.7047 33.4147C22.599 36.1775 20.4909 38.6527 18.908 40.4382C18.118 41.3292 17.4601 42.0472 17 42.542C16.5399 42.0472 15.882 41.3292 15.092 40.4382C13.5091 38.6527 11.401 36.1775 9.29534 33.4147C7.18681 30.6481 5.09639 27.6134 3.53749 24.707C1.96259 21.7708 1 19.0911 1 17C1 8.16344 8.16344 1 17 1C25.8366 1 33 8.16344 33 17Z" fill="#FEFF00" stroke="#FEFF00" stroke-width="2"/>
<path d="M16.7255 16.5491L20.9118 6.86705L21.2549 6L20.6373 6.72254L10 19.9451H16.8627L11.5784 29.4827L11.0294 30.4942L10.7549 31L11.098 30.5665L11.9902 29.6272L24 16.5491H16.7255Z" fill="black"/>
</svg>
