<svg width="30" height="30" viewBox="0 0 30 30" fill="none" xmlns="http://www.w3.org/2000/svg">
<path d="M28.9 10.1C28.4 8.60001 27.7 7.3 26.8 6C25.9 4.8 24.8 3.69999 23.6 2.79999C22.4 1.89999 21 1.20001 19.5 0.700012C18 0.200012 16.5 0 14.8 0C13.2 0 11.6 0.200012 10.1 0.700012C8.59998 1.20001 7.3 1.89999 6 2.79999C4.8 3.69999 3.69999 4.8 2.79999 6C1.89999 7.2 1.19998 8.60001 0.699982 10.1C0.199982 11.6 0 13.1 0 14.8C0 16.4 0.199982 18 0.699982 19.5C1.19998 21 1.89999 22.3 2.79999 23.6C3.69999 24.8 4.8 25.9 6 26.8C6.6 27.2 7.19999 27.6 7.89999 28C7.89999 28 8 28 8 28.1C8.7 28.4 9.39998 28.7 10.1 29C11.6 29.5 13.1 29.7 14.8 29.7C16.4 29.7 18 29.5 19.5 29C21 28.5 22.3 27.8 23.6 26.9C24.8 26 25.9 24.9 26.8 23.7C27.7 22.5 28.4 21.1 28.9 19.6C29.4 18.1 29.6 16.6 29.6 14.9C29.7 13.2 29.4 11.6 28.9 10.1ZM6.89999 25.7C5.79999 24.9 4.8 23.9 4 22.8C3.2 21.7 2.49998 20.4 2.09998 19.1C1.59998 17.8 1.39999 16.3 1.39999 14.8C1.39999 13.3 1.59998 11.9 2.09998 10.5C2.59998 9.2 3.2 7.89999 4 6.79999C4.8 5.69999 5.79999 4.69999 6.89999 3.89999C7.99999 3.09999 9.29998 2.4 10.6 2C11.9 1.5 13.4 1.29999 14.9 1.29999C16.4 1.29999 17.8 1.5 19.1 2L6.79999 16.4H14.7L8.59998 26.8C7.99998 26.5 7.39999 26.1 6.89999 25.7ZM27.6 19.1C27.1 20.4 26.5 21.7 25.7 22.8C24.9 23.9 23.9 24.9 22.8 25.7C21.7 26.5 20.4 27.2 19.1 27.6C17.8 28.1 16.3 28.3 14.8 28.3C13.3 28.3 11.9 28.1 10.5 27.6C10 27.4 9.5 27.2 9 27L22.9 12.6H14.5L19.3 2C20.6 2.4 21.7 3.09999 22.8 3.79999C23.9 4.59999 24.9 5.60001 25.7 6.70001C26.5 7.80001 27.2 9.09999 27.6 10.4C28.1 11.7 28.3 13.2 28.3 14.7C28.3 16.3 28.1 17.7 27.6 19.1Z" fill="white"/>
<path d="M22.9004 12.7L9.10037 27C9.00037 26.9 8.80038 26.9 8.70038 26.8L14.8004 16.4H6.90039L19.2004 2H19.3004C19.4004 2 19.4004 2.00001 19.5004 2.10001L14.7004 12.7H22.9004V12.7Z" fill="white"/>
<path d="M8.10019 28.1L9.10019 27.1L22.9002 12.7H14.5002L19.3002 2.09998L19.7002 1.09998L19.0002 1.99997L6.7002 16.4H14.6002L8.50021 26.8L7.8002 28L8.10019 28.1Z" fill="white"/>
</svg>
